<?xml version="1.0" encoding="utf-8" standalone="no"?>
<!DOCTYPE svg PUBLIC "-//W3C//DTD SVG 1.1//EN"
  "http://www.w3.org/Graphics/SVG/1.1/DTD/svg11.dtd">
<svg xmlns:xlink="http://www.w3.org/1999/xlink" width="504pt" height="360pt" viewBox="0 0 504 360" xmlns="http://www.w3.org/2000/svg" version="1.1">
 <metadata>
  <rdf:RDF xmlns:dc="http://purl.org/dc/elements/1.1/" xmlns:cc="http://creativecommons.org/ns#" xmlns:rdf="http://www.w3.org/1999/02/22-rdf-syntax-ns#">
   <cc:Work>
    <dc:type rdf:resource="http://purl.org/dc/dcmitype/StillImage"/>
    <dc:date>2023-03-01T13:46:26.309370</dc:date>
    <dc:format>image/svg+xml</dc:format>
    <dc:creator>
     <cc:Agent>
      <dc:title>Matplotlib v3.7.0, https://matplotlib.org/</dc:title>
     </cc:Agent>
    </dc:creator>
   </cc:Work>
  </rdf:RDF>
 </metadata>
 <defs>
  <style type="text/css">*{stroke-linejoin: round; stroke-linecap: butt}</style>
 </defs>
 <g id="figure_1">
  <g id="patch_1">
   <path d="M 0 360 
L 504 360 
L 504 0 
L 0 0 
z
" style="fill: #ffffff"/>
  </g>
  <g id="axes_1">
   <g id="patch_2">
    <path d="M 141.12 320.4 
L 453.6 320.4 
L 453.6 31.68 
L 141.12 31.68 
z
" style="fill: #ffffff"/>
   </g>
   <g id="patch_3">
    <path d="M 141.12 34.304727 
L 141.12 34.304727 
L 141.12 55.302545 
L 141.12 55.302545 
z
" clip-path="url(#p4fa58f6fd9)" style="fill: #176d9c"/>
   </g>
   <g id="patch_4">
    <path d="M 141.12 60.552 
L 141.12 60.552 
L 141.12 81.549818 
L 141.12 81.549818 
z
" clip-path="url(#p4fa58f6fd9)" style="fill: #176d9c"/>
   </g>
   <g id="patch_5">
    <path d="M 141.12 86.799273 
L 141.12 86.799273 
L 141.12 107.797091 
L 141.12 107.797091 
z
" clip-path="url(#p4fa58f6fd9)" style="fill: #176d9c"/>
   </g>
   <g id="patch_6">
    <path d="M 141.12 113.046545 
L 141.12 113.046545 
L 141.12 134.044364 
L 141.12 134.044364 
z
" clip-path="url(#p4fa58f6fd9)" style="fill: #176d9c"/>
   </g>
   <g id="patch_7">
    <path d="M 141.12 139.293818 
L 190.72 139.293818 
L 190.72 160.291636 
L 141.12 160.291636 
z
" clip-path="url(#p4fa58f6fd9)" style="fill: #176d9c"/>
   </g>
   <g id="patch_8">
    <path d="M 141.12 165.541091 
L 141.12 165.541091 
L 141.12 186.538909 
L 141.12 186.538909 
z
" clip-path="url(#p4fa58f6fd9)" style="fill: #176d9c"/>
   </g>
   <g id="patch_9">
    <path d="M 141.12 191.788364 
L 141.12 191.788364 
L 141.12 212.786182 
L 141.12 212.786182 
z
" clip-path="url(#p4fa58f6fd9)" style="fill: #176d9c"/>
   </g>
   <g id="patch_10">
    <path d="M 141.12 218.035636 
L 153.52 218.035636 
L 153.52 239.033455 
L 141.12 239.033455 
z
" clip-path="url(#p4fa58f6fd9)" style="fill: #176d9c"/>
   </g>
   <g id="patch_11">
    <path d="M 141.12 244.282909 
L 141.12 244.282909 
L 141.12 265.280727 
L 141.12 265.280727 
z
" clip-path="url(#p4fa58f6fd9)" style="fill: #176d9c"/>
   </g>
   <g id="patch_12">
    <path d="M 141.12 270.530182 
L 141.12 270.530182 
L 141.12 291.528 
L 141.12 291.528 
z
" clip-path="url(#p4fa58f6fd9)" style="fill: #176d9c"/>
   </g>
   <g id="patch_13">
    <path d="M 141.12 296.777455 
L 153.52 296.777455 
L 153.52 317.775273 
L 141.12 317.775273 
z
" clip-path="url(#p4fa58f6fd9)" style="fill: #176d9c"/>
   </g>
   <g id="patch_14">
    <path d="M 141.12 34.304727 
L 438.72 34.304727 
L 438.72 55.302545 
L 141.12 55.302545 
z
" clip-path="url(#p4fa58f6fd9)" style="fill: #c38820"/>
   </g>
   <g id="patch_15">
    <path d="M 141.12 60.552 
L 327.12 60.552 
L 327.12 81.549818 
L 141.12 81.549818 
z
" clip-path="url(#p4fa58f6fd9)" style="fill: #c38820"/>
   </g>
   <g id="patch_16">
    <path d="M 141.12 86.799273 
L 240.32 86.799273 
L 240.32 107.797091 
L 141.12 107.797091 
z
" clip-path="url(#p4fa58f6fd9)" style="fill: #c38820"/>
   </g>
   <g id="patch_17">
    <path d="M 141.12 113.046545 
L 227.92 113.046545 
L 227.92 134.044364 
L 141.12 134.044364 
z
" clip-path="url(#p4fa58f6fd9)" style="fill: #c38820"/>
   </g>
   <g id="patch_18">
    <path d="M 141.12 139.293818 
L 141.12 139.293818 
L 141.12 160.291636 
L 141.12 160.291636 
z
" clip-path="url(#p4fa58f6fd9)" style="fill: #c38820"/>
   </g>
   <g id="patch_19">
    <path d="M 141.12 165.541091 
L 178.32 165.541091 
L 178.32 186.538909 
L 141.12 186.538909 
z
" clip-path="url(#p4fa58f6fd9)" style="fill: #c38820"/>
   </g>
   <g id="patch_20">
    <path d="M 141.12 191.788364 
L 141.12 191.788364 
L 141.12 212.786182 
L 141.12 212.786182 
z
" clip-path="url(#p4fa58f6fd9)" style="fill: #c38820"/>
   </g>
   <g id="patch_21">
    <path d="M 141.12 218.035636 
L 141.12 218.035636 
L 141.12 239.033455 
L 141.12 239.033455 
z
" clip-path="url(#p4fa58f6fd9)" style="fill: #c38820"/>
   </g>
   <g id="patch_22">
    <path d="M 141.12 244.282909 
L 153.52 244.282909 
L 153.52 265.280727 
L 141.12 265.280727 
z
" clip-path="url(#p4fa58f6fd9)" style="fill: #c38820"/>
   </g>
   <g id="patch_23">
    <path d="M 141.12 270.530182 
L 141.12 270.530182 
L 141.12 291.528 
L 141.12 291.528 
z
" clip-path="url(#p4fa58f6fd9)" style="fill: #c38820"/>
   </g>
   <g id="patch_24">
    <path d="M 141.12 296.777455 
L 141.12 296.777455 
L 141.12 317.775273 
L 141.12 317.775273 
z
" clip-path="url(#p4fa58f6fd9)" style="fill: #c38820"/>
   </g>
   <g id="patch_25">
    <path d="M 141.12 34.304727 
L 141.12 34.304727 
L 141.12 55.302545 
L 141.12 55.302545 
z
" clip-path="url(#p4fa58f6fd9)" style="fill: #158b6a"/>
   </g>
   <g id="patch_26">
    <path d="M 141.12 60.552 
L 141.12 60.552 
L 141.12 81.549818 
L 141.12 81.549818 
z
" clip-path="url(#p4fa58f6fd9)" style="fill: #158b6a"/>
   </g>
   <g id="patch_27">
    <path d="M 141.12 86.799273 
L 141.12 86.799273 
L 141.12 107.797091 
L 141.12 107.797091 
z
" clip-path="url(#p4fa58f6fd9)" style="fill: #158b6a"/>
   </g>
   <g id="patch_28">
    <path d="M 141.12 113.046545 
L 141.12 113.046545 
L 141.12 134.044364 
L 141.12 134.044364 
z
" clip-path="url(#p4fa58f6fd9)" style="fill: #158b6a"/>
   </g>
   <g id="patch_29">
    <path d="M 141.12 139.293818 
L 141.12 139.293818 
L 141.12 160.291636 
L 141.12 160.291636 
z
" clip-path="url(#p4fa58f6fd9)" style="fill: #158b6a"/>
   </g>
   <g id="patch_30">
    <path d="M 141.12 165.541091 
L 141.12 165.541091 
L 141.12 186.538909 
L 141.12 186.538909 
z
" clip-path="url(#p4fa58f6fd9)" style="fill: #158b6a"/>
   </g>
   <g id="patch_31">
    <path d="M 141.12 191.788364 
L 153.52 191.788364 
L 153.52 212.786182 
L 141.12 212.786182 
z
" clip-path="url(#p4fa58f6fd9)" style="fill: #158b6a"/>
   </g>
   <g id="patch_32">
    <path d="M 141.12 218.035636 
L 141.12 218.035636 
L 141.12 239.033455 
L 141.12 239.033455 
z
" clip-path="url(#p4fa58f6fd9)" style="fill: #158b6a"/>
   </g>
   <g id="patch_33">
    <path d="M 141.12 244.282909 
L 141.12 244.282909 
L 141.12 265.280727 
L 141.12 265.280727 
z
" clip-path="url(#p4fa58f6fd9)" style="fill: #158b6a"/>
   </g>
   <g id="patch_34">
    <path d="M 141.12 270.530182 
L 141.12 270.530182 
L 141.12 291.528 
L 141.12 291.528 
z
" clip-path="url(#p4fa58f6fd9)" style="fill: #158b6a"/>
   </g>
   <g id="patch_35">
    <path d="M 141.12 296.777455 
L 141.12 296.777455 
L 141.12 317.775273 
L 141.12 317.775273 
z
" clip-path="url(#p4fa58f6fd9)" style="fill: #158b6a"/>
   </g>
   <g id="patch_36">
    <path d="M 141.12 34.304727 
L 141.12 34.304727 
L 141.12 55.302545 
L 141.12 55.302545 
z
" clip-path="url(#p4fa58f6fd9)" style="fill: #ba611b"/>
   </g>
   <g id="patch_37">
    <path d="M 141.12 60.552 
L 141.12 60.552 
L 141.12 81.549818 
L 141.12 81.549818 
z
" clip-path="url(#p4fa58f6fd9)" style="fill: #ba611b"/>
   </g>
   <g id="patch_38">
    <path d="M 141.12 86.799273 
L 141.12 86.799273 
L 141.12 107.797091 
L 141.12 107.797091 
z
" clip-path="url(#p4fa58f6fd9)" style="fill: #ba611b"/>
   </g>
   <g id="patch_39">
    <path d="M 141.12 113.046545 
L 141.12 113.046545 
L 141.12 134.044364 
L 141.12 134.044364 
z
" clip-path="url(#p4fa58f6fd9)" style="fill: #ba611b"/>
   </g>
   <g id="patch_40">
    <path d="M 141.12 139.293818 
L 141.12 139.293818 
L 141.12 160.291636 
L 141.12 160.291636 
z
" clip-path="url(#p4fa58f6fd9)" style="fill: #ba611b"/>
   </g>
   <g id="patch_41">
    <path d="M 141.12 165.541091 
L 141.12 165.541091 
L 141.12 186.538909 
L 141.12 186.538909 
z
" clip-path="url(#p4fa58f6fd9)" style="fill: #ba611b"/>
   </g>
   <g id="patch_42">
    <path d="M 141.12 191.788364 
L 141.12 191.788364 
L 141.12 212.786182 
L 141.12 212.786182 
z
" clip-path="url(#p4fa58f6fd9)" style="fill: #ba611b"/>
   </g>
   <g id="patch_43">
    <path d="M 141.12 218.035636 
L 141.12 218.035636 
L 141.12 239.033455 
L 141.12 239.033455 
z
" clip-path="url(#p4fa58f6fd9)" style="fill: #ba611b"/>
   </g>
   <g id="patch_44">
    <path d="M 141.12 244.282909 
L 141.12 244.282909 
L 141.12 265.280727 
L 141.12 265.280727 
z
" clip-path="url(#p4fa58f6fd9)" style="fill: #ba611b"/>
   </g>
   <g id="patch_45">
    <path d="M 141.12 270.530182 
L 153.52 270.530182 
L 153.52 291.528 
L 141.12 291.528 
z
" clip-path="url(#p4fa58f6fd9)" style="fill: #ba611b"/>
   </g>
   <g id="patch_46">
    <path d="M 141.12 296.777455 
L 141.12 296.777455 
L 141.12 317.775273 
L 141.12 317.775273 
z
" clip-path="url(#p4fa58f6fd9)" style="fill: #ba611b"/>
   </g>
   <g id="matplotlib.axis_1">
    <g id="xtick_1">
     <g id="line2d_1">
      <defs>
       <path id="m5e0857d6c6" d="M 0 0 
L 0 3.5 
" style="stroke: #000000; stroke-width: 0.8"/>
      </defs>
      <g>
       <use xlink:href="#m5e0857d6c6" x="141.12" y="320.4" style="stroke: #000000; stroke-width: 0.8"/>
      </g>
     </g>
     <g id="text_1">
      <!-- 0 -->
      <g transform="translate(137.93875 334.998438) scale(0.1 -0.1)">
       <defs>
        <path id="DejaVuSans-30" d="M 2034 4250 
Q 1547 4250 1301 3770 
Q 1056 3291 1056 2328 
Q 1056 1369 1301 889 
Q 1547 409 2034 409 
Q 2525 409 2770 889 
Q 3016 1369 3016 2328 
Q 3016 3291 2770 3770 
Q 2525 4250 2034 4250 
z
M 2034 4750 
Q 2819 4750 3233 4129 
Q 3647 3509 3647 2328 
Q 3647 1150 3233 529 
Q 2819 -91 2034 -91 
Q 1250 -91 836 529 
Q 422 1150 422 2328 
Q 422 3509 836 4129 
Q 1250 4750 2034 4750 
z
" transform="scale(0.015625)"/>
       </defs>
       <use xlink:href="#DejaVuSans-30"/>
      </g>
     </g>
    </g>
    <g id="xtick_2">
     <g id="line2d_2">
      <g>
       <use xlink:href="#m5e0857d6c6" x="203.12" y="320.4" style="stroke: #000000; stroke-width: 0.8"/>
      </g>
     </g>
     <g id="text_2">
      <!-- 5 -->
      <g transform="translate(199.93875 334.998438) scale(0.1 -0.1)">
       <defs>
        <path id="DejaVuSans-35" d="M 691 4666 
L 3169 4666 
L 3169 4134 
L 1269 4134 
L 1269 2991 
Q 1406 3038 1543 3061 
Q 1681 3084 1819 3084 
Q 2600 3084 3056 2656 
Q 3513 2228 3513 1497 
Q 3513 744 3044 326 
Q 2575 -91 1722 -91 
Q 1428 -91 1123 -41 
Q 819 9 494 109 
L 494 744 
Q 775 591 1075 516 
Q 1375 441 1709 441 
Q 2250 441 2565 725 
Q 2881 1009 2881 1497 
Q 2881 1984 2565 2268 
Q 2250 2553 1709 2553 
Q 1456 2553 1204 2497 
Q 953 2441 691 2322 
L 691 4666 
z
" transform="scale(0.015625)"/>
       </defs>
       <use xlink:href="#DejaVuSans-35"/>
      </g>
     </g>
    </g>
    <g id="xtick_3">
     <g id="line2d_3">
      <g>
       <use xlink:href="#m5e0857d6c6" x="265.12" y="320.4" style="stroke: #000000; stroke-width: 0.8"/>
      </g>
     </g>
     <g id="text_3">
      <!-- 10 -->
      <g transform="translate(258.7575 334.998438) scale(0.1 -0.1)">
       <defs>
        <path id="DejaVuSans-31" d="M 794 531 
L 1825 531 
L 1825 4091 
L 703 3866 
L 703 4441 
L 1819 4666 
L 2450 4666 
L 2450 531 
L 3481 531 
L 3481 0 
L 794 0 
L 794 531 
z
" transform="scale(0.015625)"/>
       </defs>
       <use xlink:href="#DejaVuSans-31"/>
       <use xlink:href="#DejaVuSans-30" x="63.623047"/>
      </g>
     </g>
    </g>
    <g id="xtick_4">
     <g id="line2d_4">
      <g>
       <use xlink:href="#m5e0857d6c6" x="327.12" y="320.4" style="stroke: #000000; stroke-width: 0.8"/>
      </g>
     </g>
     <g id="text_4">
      <!-- 15 -->
      <g transform="translate(320.7575 334.998438) scale(0.1 -0.1)">
       <use xlink:href="#DejaVuSans-31"/>
       <use xlink:href="#DejaVuSans-35" x="63.623047"/>
      </g>
     </g>
    </g>
    <g id="xtick_5">
     <g id="line2d_5">
      <g>
       <use xlink:href="#m5e0857d6c6" x="389.12" y="320.4" style="stroke: #000000; stroke-width: 0.8"/>
      </g>
     </g>
     <g id="text_5">
      <!-- 20 -->
      <g transform="translate(382.7575 334.998438) scale(0.1 -0.1)">
       <defs>
        <path id="DejaVuSans-32" d="M 1228 531 
L 3431 531 
L 3431 0 
L 469 0 
L 469 531 
Q 828 903 1448 1529 
Q 2069 2156 2228 2338 
Q 2531 2678 2651 2914 
Q 2772 3150 2772 3378 
Q 2772 3750 2511 3984 
Q 2250 4219 1831 4219 
Q 1534 4219 1204 4116 
Q 875 4013 500 3803 
L 500 4441 
Q 881 4594 1212 4672 
Q 1544 4750 1819 4750 
Q 2544 4750 2975 4387 
Q 3406 4025 3406 3419 
Q 3406 3131 3298 2873 
Q 3191 2616 2906 2266 
Q 2828 2175 2409 1742 
Q 1991 1309 1228 531 
z
" transform="scale(0.015625)"/>
       </defs>
       <use xlink:href="#DejaVuSans-32"/>
       <use xlink:href="#DejaVuSans-30" x="63.623047"/>
      </g>
     </g>
    </g>
    <g id="xtick_6">
     <g id="line2d_6">
      <g>
       <use xlink:href="#m5e0857d6c6" x="451.12" y="320.4" style="stroke: #000000; stroke-width: 0.8"/>
      </g>
     </g>
     <g id="text_6">
      <!-- 25 -->
      <g transform="translate(444.7575 334.998438) scale(0.1 -0.1)">
       <use xlink:href="#DejaVuSans-32"/>
       <use xlink:href="#DejaVuSans-35" x="63.623047"/>
      </g>
     </g>
    </g>
    <g id="text_7">
     <!-- count -->
     <g transform="translate(283.25375 348.676562) scale(0.1 -0.1)">
      <defs>
       <path id="DejaVuSans-63" d="M 3122 3366 
L 3122 2828 
Q 2878 2963 2633 3030 
Q 2388 3097 2138 3097 
Q 1578 3097 1268 2742 
Q 959 2388 959 1747 
Q 959 1106 1268 751 
Q 1578 397 2138 397 
Q 2388 397 2633 464 
Q 2878 531 3122 666 
L 3122 134 
Q 2881 22 2623 -34 
Q 2366 -91 2075 -91 
Q 1284 -91 818 406 
Q 353 903 353 1747 
Q 353 2603 823 3093 
Q 1294 3584 2113 3584 
Q 2378 3584 2631 3529 
Q 2884 3475 3122 3366 
z
" transform="scale(0.015625)"/>
       <path id="DejaVuSans-6f" d="M 1959 3097 
Q 1497 3097 1228 2736 
Q 959 2375 959 1747 
Q 959 1119 1226 758 
Q 1494 397 1959 397 
Q 2419 397 2687 759 
Q 2956 1122 2956 1747 
Q 2956 2369 2687 2733 
Q 2419 3097 1959 3097 
z
M 1959 3584 
Q 2709 3584 3137 3096 
Q 3566 2609 3566 1747 
Q 3566 888 3137 398 
Q 2709 -91 1959 -91 
Q 1206 -91 779 398 
Q 353 888 353 1747 
Q 353 2609 779 3096 
Q 1206 3584 1959 3584 
z
" transform="scale(0.015625)"/>
       <path id="DejaVuSans-75" d="M 544 1381 
L 544 3500 
L 1119 3500 
L 1119 1403 
Q 1119 906 1312 657 
Q 1506 409 1894 409 
Q 2359 409 2629 706 
Q 2900 1003 2900 1516 
L 2900 3500 
L 3475 3500 
L 3475 0 
L 2900 0 
L 2900 538 
Q 2691 219 2414 64 
Q 2138 -91 1772 -91 
Q 1169 -91 856 284 
Q 544 659 544 1381 
z
M 1991 3584 
L 1991 3584 
z
" transform="scale(0.015625)"/>
       <path id="DejaVuSans-6e" d="M 3513 2113 
L 3513 0 
L 2938 0 
L 2938 2094 
Q 2938 2591 2744 2837 
Q 2550 3084 2163 3084 
Q 1697 3084 1428 2787 
Q 1159 2491 1159 1978 
L 1159 0 
L 581 0 
L 581 3500 
L 1159 3500 
L 1159 2956 
Q 1366 3272 1645 3428 
Q 1925 3584 2291 3584 
Q 2894 3584 3203 3211 
Q 3513 2838 3513 2113 
z
" transform="scale(0.015625)"/>
       <path id="DejaVuSans-74" d="M 1172 4494 
L 1172 3500 
L 2356 3500 
L 2356 3053 
L 1172 3053 
L 1172 1153 
Q 1172 725 1289 603 
Q 1406 481 1766 481 
L 2356 481 
L 2356 0 
L 1766 0 
Q 1100 0 847 248 
Q 594 497 594 1153 
L 594 3053 
L 172 3053 
L 172 3500 
L 594 3500 
L 594 4494 
L 1172 4494 
z
" transform="scale(0.015625)"/>
      </defs>
      <use xlink:href="#DejaVuSans-63"/>
      <use xlink:href="#DejaVuSans-6f" x="54.980469"/>
      <use xlink:href="#DejaVuSans-75" x="116.162109"/>
      <use xlink:href="#DejaVuSans-6e" x="179.541016"/>
      <use xlink:href="#DejaVuSans-74" x="242.919922"/>
     </g>
    </g>
   </g>
   <g id="matplotlib.axis_2">
    <g id="ytick_1">
     <g id="line2d_7">
      <defs>
       <path id="m1b022eaad9" d="M 0 0 
L -3.5 0 
" style="stroke: #000000; stroke-width: 0.8"/>
      </defs>
      <g>
       <use xlink:href="#m1b022eaad9" x="141.12" y="44.803636" style="stroke: #000000; stroke-width: 0.8"/>
      </g>
     </g>
     <g id="text_8">
      <!-- CloudFlare -->
      <g transform="translate(80.8575 48.602855) scale(0.1 -0.1)">
       <defs>
        <path id="DejaVuSans-43" d="M 4122 4306 
L 4122 3641 
Q 3803 3938 3442 4084 
Q 3081 4231 2675 4231 
Q 1875 4231 1450 3742 
Q 1025 3253 1025 2328 
Q 1025 1406 1450 917 
Q 1875 428 2675 428 
Q 3081 428 3442 575 
Q 3803 722 4122 1019 
L 4122 359 
Q 3791 134 3420 21 
Q 3050 -91 2638 -91 
Q 1578 -91 968 557 
Q 359 1206 359 2328 
Q 359 3453 968 4101 
Q 1578 4750 2638 4750 
Q 3056 4750 3426 4639 
Q 3797 4528 4122 4306 
z
" transform="scale(0.015625)"/>
        <path id="DejaVuSans-6c" d="M 603 4863 
L 1178 4863 
L 1178 0 
L 603 0 
L 603 4863 
z
" transform="scale(0.015625)"/>
        <path id="DejaVuSans-64" d="M 2906 2969 
L 2906 4863 
L 3481 4863 
L 3481 0 
L 2906 0 
L 2906 525 
Q 2725 213 2448 61 
Q 2172 -91 1784 -91 
Q 1150 -91 751 415 
Q 353 922 353 1747 
Q 353 2572 751 3078 
Q 1150 3584 1784 3584 
Q 2172 3584 2448 3432 
Q 2725 3281 2906 2969 
z
M 947 1747 
Q 947 1113 1208 752 
Q 1469 391 1925 391 
Q 2381 391 2643 752 
Q 2906 1113 2906 1747 
Q 2906 2381 2643 2742 
Q 2381 3103 1925 3103 
Q 1469 3103 1208 2742 
Q 947 2381 947 1747 
z
" transform="scale(0.015625)"/>
        <path id="DejaVuSans-46" d="M 628 4666 
L 3309 4666 
L 3309 4134 
L 1259 4134 
L 1259 2759 
L 3109 2759 
L 3109 2228 
L 1259 2228 
L 1259 0 
L 628 0 
L 628 4666 
z
" transform="scale(0.015625)"/>
        <path id="DejaVuSans-61" d="M 2194 1759 
Q 1497 1759 1228 1600 
Q 959 1441 959 1056 
Q 959 750 1161 570 
Q 1363 391 1709 391 
Q 2188 391 2477 730 
Q 2766 1069 2766 1631 
L 2766 1759 
L 2194 1759 
z
M 3341 1997 
L 3341 0 
L 2766 0 
L 2766 531 
Q 2569 213 2275 61 
Q 1981 -91 1556 -91 
Q 1019 -91 701 211 
Q 384 513 384 1019 
Q 384 1609 779 1909 
Q 1175 2209 1959 2209 
L 2766 2209 
L 2766 2266 
Q 2766 2663 2505 2880 
Q 2244 3097 1772 3097 
Q 1472 3097 1187 3025 
Q 903 2953 641 2809 
L 641 3341 
Q 956 3463 1253 3523 
Q 1550 3584 1831 3584 
Q 2591 3584 2966 3190 
Q 3341 2797 3341 1997 
z
" transform="scale(0.015625)"/>
        <path id="DejaVuSans-72" d="M 2631 2963 
Q 2534 3019 2420 3045 
Q 2306 3072 2169 3072 
Q 1681 3072 1420 2755 
Q 1159 2438 1159 1844 
L 1159 0 
L 581 0 
L 581 3500 
L 1159 3500 
L 1159 2956 
Q 1341 3275 1631 3429 
Q 1922 3584 2338 3584 
Q 2397 3584 2469 3576 
Q 2541 3569 2628 3553 
L 2631 2963 
z
" transform="scale(0.015625)"/>
        <path id="DejaVuSans-65" d="M 3597 1894 
L 3597 1613 
L 953 1613 
Q 991 1019 1311 708 
Q 1631 397 2203 397 
Q 2534 397 2845 478 
Q 3156 559 3463 722 
L 3463 178 
Q 3153 47 2828 -22 
Q 2503 -91 2169 -91 
Q 1331 -91 842 396 
Q 353 884 353 1716 
Q 353 2575 817 3079 
Q 1281 3584 2069 3584 
Q 2775 3584 3186 3129 
Q 3597 2675 3597 1894 
z
M 3022 2063 
Q 3016 2534 2758 2815 
Q 2500 3097 2075 3097 
Q 1594 3097 1305 2825 
Q 1016 2553 972 2059 
L 3022 2063 
z
" transform="scale(0.015625)"/>
       </defs>
       <use xlink:href="#DejaVuSans-43"/>
       <use xlink:href="#DejaVuSans-6c" x="69.824219"/>
       <use xlink:href="#DejaVuSans-6f" x="97.607422"/>
       <use xlink:href="#DejaVuSans-75" x="158.789062"/>
       <use xlink:href="#DejaVuSans-64" x="222.167969"/>
       <use xlink:href="#DejaVuSans-46" x="285.644531"/>
       <use xlink:href="#DejaVuSans-6c" x="343.164062"/>
       <use xlink:href="#DejaVuSans-61" x="370.947266"/>
       <use xlink:href="#DejaVuSans-72" x="432.226562"/>
       <use xlink:href="#DejaVuSans-65" x="471.089844"/>
      </g>
     </g>
    </g>
    <g id="ytick_2">
     <g id="line2d_8">
      <g>
       <use xlink:href="#m1b022eaad9" x="141.12" y="71.050909" style="stroke: #000000; stroke-width: 0.8"/>
      </g>
     </g>
     <g id="text_9">
      <!-- Amazon CloudFront -->
      <g transform="translate(36.673125 74.850128) scale(0.1 -0.1)">
       <defs>
        <path id="DejaVuSans-41" d="M 2188 4044 
L 1331 1722 
L 3047 1722 
L 2188 4044 
z
M 1831 4666 
L 2547 4666 
L 4325 0 
L 3669 0 
L 3244 1197 
L 1141 1197 
L 716 0 
L 50 0 
L 1831 4666 
z
" transform="scale(0.015625)"/>
        <path id="DejaVuSans-6d" d="M 3328 2828 
Q 3544 3216 3844 3400 
Q 4144 3584 4550 3584 
Q 5097 3584 5394 3201 
Q 5691 2819 5691 2113 
L 5691 0 
L 5113 0 
L 5113 2094 
Q 5113 2597 4934 2840 
Q 4756 3084 4391 3084 
Q 3944 3084 3684 2787 
Q 3425 2491 3425 1978 
L 3425 0 
L 2847 0 
L 2847 2094 
Q 2847 2600 2669 2842 
Q 2491 3084 2119 3084 
Q 1678 3084 1418 2786 
Q 1159 2488 1159 1978 
L 1159 0 
L 581 0 
L 581 3500 
L 1159 3500 
L 1159 2956 
Q 1356 3278 1631 3431 
Q 1906 3584 2284 3584 
Q 2666 3584 2933 3390 
Q 3200 3197 3328 2828 
z
" transform="scale(0.015625)"/>
        <path id="DejaVuSans-7a" d="M 353 3500 
L 3084 3500 
L 3084 2975 
L 922 459 
L 3084 459 
L 3084 0 
L 275 0 
L 275 525 
L 2438 3041 
L 353 3041 
L 353 3500 
z
" transform="scale(0.015625)"/>
        <path id="DejaVuSans-20" transform="scale(0.015625)"/>
       </defs>
       <use xlink:href="#DejaVuSans-41"/>
       <use xlink:href="#DejaVuSans-6d" x="68.408203"/>
       <use xlink:href="#DejaVuSans-61" x="165.820312"/>
       <use xlink:href="#DejaVuSans-7a" x="227.099609"/>
       <use xlink:href="#DejaVuSans-6f" x="279.589844"/>
       <use xlink:href="#DejaVuSans-6e" x="340.771484"/>
       <use xlink:href="#DejaVuSans-20" x="404.150391"/>
       <use xlink:href="#DejaVuSans-43" x="435.9375"/>
       <use xlink:href="#DejaVuSans-6c" x="505.761719"/>
       <use xlink:href="#DejaVuSans-6f" x="533.544922"/>
       <use xlink:href="#DejaVuSans-75" x="594.726562"/>
       <use xlink:href="#DejaVuSans-64" x="658.105469"/>
       <use xlink:href="#DejaVuSans-46" x="721.582031"/>
       <use xlink:href="#DejaVuSans-72" x="771.851562"/>
       <use xlink:href="#DejaVuSans-6f" x="810.714844"/>
       <use xlink:href="#DejaVuSans-6e" x="871.896484"/>
       <use xlink:href="#DejaVuSans-74" x="935.275391"/>
      </g>
     </g>
    </g>
    <g id="ytick_3">
     <g id="line2d_9">
      <g>
       <use xlink:href="#m1b022eaad9" x="141.12" y="97.298182" style="stroke: #000000; stroke-width: 0.8"/>
      </g>
     </g>
     <g id="text_10">
      <!-- Akamai -->
      <g transform="translate(96.88875 101.097401) scale(0.1 -0.1)">
       <defs>
        <path id="DejaVuSans-6b" d="M 581 4863 
L 1159 4863 
L 1159 1991 
L 2875 3500 
L 3609 3500 
L 1753 1863 
L 3688 0 
L 2938 0 
L 1159 1709 
L 1159 0 
L 581 0 
L 581 4863 
z
" transform="scale(0.015625)"/>
        <path id="DejaVuSans-69" d="M 603 3500 
L 1178 3500 
L 1178 0 
L 603 0 
L 603 3500 
z
M 603 4863 
L 1178 4863 
L 1178 4134 
L 603 4134 
L 603 4863 
z
" transform="scale(0.015625)"/>
       </defs>
       <use xlink:href="#DejaVuSans-41"/>
       <use xlink:href="#DejaVuSans-6b" x="68.408203"/>
       <use xlink:href="#DejaVuSans-61" x="124.568359"/>
       <use xlink:href="#DejaVuSans-6d" x="185.847656"/>
       <use xlink:href="#DejaVuSans-61" x="283.259766"/>
       <use xlink:href="#DejaVuSans-69" x="344.539062"/>
      </g>
     </g>
    </g>
    <g id="ytick_4">
     <g id="line2d_10">
      <g>
       <use xlink:href="#m1b022eaad9" x="141.12" y="123.545455" style="stroke: #000000; stroke-width: 0.8"/>
      </g>
     </g>
     <g id="text_11">
      <!-- Incapsula -->
      <g transform="translate(86.404375 127.344673) scale(0.1 -0.1)">
       <defs>
        <path id="DejaVuSans-49" d="M 628 4666 
L 1259 4666 
L 1259 0 
L 628 0 
L 628 4666 
z
" transform="scale(0.015625)"/>
        <path id="DejaVuSans-70" d="M 1159 525 
L 1159 -1331 
L 581 -1331 
L 581 3500 
L 1159 3500 
L 1159 2969 
Q 1341 3281 1617 3432 
Q 1894 3584 2278 3584 
Q 2916 3584 3314 3078 
Q 3713 2572 3713 1747 
Q 3713 922 3314 415 
Q 2916 -91 2278 -91 
Q 1894 -91 1617 61 
Q 1341 213 1159 525 
z
M 3116 1747 
Q 3116 2381 2855 2742 
Q 2594 3103 2138 3103 
Q 1681 3103 1420 2742 
Q 1159 2381 1159 1747 
Q 1159 1113 1420 752 
Q 1681 391 2138 391 
Q 2594 391 2855 752 
Q 3116 1113 3116 1747 
z
" transform="scale(0.015625)"/>
        <path id="DejaVuSans-73" d="M 2834 3397 
L 2834 2853 
Q 2591 2978 2328 3040 
Q 2066 3103 1784 3103 
Q 1356 3103 1142 2972 
Q 928 2841 928 2578 
Q 928 2378 1081 2264 
Q 1234 2150 1697 2047 
L 1894 2003 
Q 2506 1872 2764 1633 
Q 3022 1394 3022 966 
Q 3022 478 2636 193 
Q 2250 -91 1575 -91 
Q 1294 -91 989 -36 
Q 684 19 347 128 
L 347 722 
Q 666 556 975 473 
Q 1284 391 1588 391 
Q 1994 391 2212 530 
Q 2431 669 2431 922 
Q 2431 1156 2273 1281 
Q 2116 1406 1581 1522 
L 1381 1569 
Q 847 1681 609 1914 
Q 372 2147 372 2553 
Q 372 3047 722 3315 
Q 1072 3584 1716 3584 
Q 2034 3584 2315 3537 
Q 2597 3491 2834 3397 
z
" transform="scale(0.015625)"/>
       </defs>
       <use xlink:href="#DejaVuSans-49"/>
       <use xlink:href="#DejaVuSans-6e" x="29.492188"/>
       <use xlink:href="#DejaVuSans-63" x="92.871094"/>
       <use xlink:href="#DejaVuSans-61" x="147.851562"/>
       <use xlink:href="#DejaVuSans-70" x="209.130859"/>
       <use xlink:href="#DejaVuSans-73" x="272.607422"/>
       <use xlink:href="#DejaVuSans-75" x="324.707031"/>
       <use xlink:href="#DejaVuSans-6c" x="388.085938"/>
       <use xlink:href="#DejaVuSans-61" x="415.869141"/>
      </g>
     </g>
    </g>
    <g id="ytick_5">
     <g id="line2d_11">
      <g>
       <use xlink:href="#m1b022eaad9" x="141.12" y="149.792727" style="stroke: #000000; stroke-width: 0.8"/>
      </g>
     </g>
     <g id="text_12">
      <!-- Google Drive -->
      <g transform="translate(69.015313 153.591946) scale(0.1 -0.1)">
       <defs>
        <path id="DejaVuSans-47" d="M 3809 666 
L 3809 1919 
L 2778 1919 
L 2778 2438 
L 4434 2438 
L 4434 434 
Q 4069 175 3628 42 
Q 3188 -91 2688 -91 
Q 1594 -91 976 548 
Q 359 1188 359 2328 
Q 359 3472 976 4111 
Q 1594 4750 2688 4750 
Q 3144 4750 3555 4637 
Q 3966 4525 4313 4306 
L 4313 3634 
Q 3963 3931 3569 4081 
Q 3175 4231 2741 4231 
Q 1884 4231 1454 3753 
Q 1025 3275 1025 2328 
Q 1025 1384 1454 906 
Q 1884 428 2741 428 
Q 3075 428 3337 486 
Q 3600 544 3809 666 
z
" transform="scale(0.015625)"/>
        <path id="DejaVuSans-67" d="M 2906 1791 
Q 2906 2416 2648 2759 
Q 2391 3103 1925 3103 
Q 1463 3103 1205 2759 
Q 947 2416 947 1791 
Q 947 1169 1205 825 
Q 1463 481 1925 481 
Q 2391 481 2648 825 
Q 2906 1169 2906 1791 
z
M 3481 434 
Q 3481 -459 3084 -895 
Q 2688 -1331 1869 -1331 
Q 1566 -1331 1297 -1286 
Q 1028 -1241 775 -1147 
L 775 -588 
Q 1028 -725 1275 -790 
Q 1522 -856 1778 -856 
Q 2344 -856 2625 -561 
Q 2906 -266 2906 331 
L 2906 616 
Q 2728 306 2450 153 
Q 2172 0 1784 0 
Q 1141 0 747 490 
Q 353 981 353 1791 
Q 353 2603 747 3093 
Q 1141 3584 1784 3584 
Q 2172 3584 2450 3431 
Q 2728 3278 2906 2969 
L 2906 3500 
L 3481 3500 
L 3481 434 
z
" transform="scale(0.015625)"/>
        <path id="DejaVuSans-44" d="M 1259 4147 
L 1259 519 
L 2022 519 
Q 2988 519 3436 956 
Q 3884 1394 3884 2338 
Q 3884 3275 3436 3711 
Q 2988 4147 2022 4147 
L 1259 4147 
z
M 628 4666 
L 1925 4666 
Q 3281 4666 3915 4102 
Q 4550 3538 4550 2338 
Q 4550 1131 3912 565 
Q 3275 0 1925 0 
L 628 0 
L 628 4666 
z
" transform="scale(0.015625)"/>
        <path id="DejaVuSans-76" d="M 191 3500 
L 800 3500 
L 1894 563 
L 2988 3500 
L 3597 3500 
L 2284 0 
L 1503 0 
L 191 3500 
z
" transform="scale(0.015625)"/>
       </defs>
       <use xlink:href="#DejaVuSans-47"/>
       <use xlink:href="#DejaVuSans-6f" x="77.490234"/>
       <use xlink:href="#DejaVuSans-6f" x="138.671875"/>
       <use xlink:href="#DejaVuSans-67" x="199.853516"/>
       <use xlink:href="#DejaVuSans-6c" x="263.330078"/>
       <use xlink:href="#DejaVuSans-65" x="291.113281"/>
       <use xlink:href="#DejaVuSans-20" x="352.636719"/>
       <use xlink:href="#DejaVuSans-44" x="384.423828"/>
       <use xlink:href="#DejaVuSans-72" x="461.425781"/>
       <use xlink:href="#DejaVuSans-69" x="502.539062"/>
       <use xlink:href="#DejaVuSans-76" x="530.322266"/>
       <use xlink:href="#DejaVuSans-65" x="589.501953"/>
      </g>
     </g>
    </g>
    <g id="ytick_6">
     <g id="line2d_12">
      <g>
       <use xlink:href="#m1b022eaad9" x="141.12" y="176.04" style="stroke: #000000; stroke-width: 0.8"/>
      </g>
     </g>
     <g id="text_13">
      <!-- Fastly -->
      <g transform="translate(105.32625 179.839219) scale(0.1 -0.1)">
       <defs>
        <path id="DejaVuSans-79" d="M 2059 -325 
Q 1816 -950 1584 -1140 
Q 1353 -1331 966 -1331 
L 506 -1331 
L 506 -850 
L 844 -850 
Q 1081 -850 1212 -737 
Q 1344 -625 1503 -206 
L 1606 56 
L 191 3500 
L 800 3500 
L 1894 763 
L 2988 3500 
L 3597 3500 
L 2059 -325 
z
" transform="scale(0.015625)"/>
       </defs>
       <use xlink:href="#DejaVuSans-46"/>
       <use xlink:href="#DejaVuSans-61" x="48.394531"/>
       <use xlink:href="#DejaVuSans-73" x="109.673828"/>
       <use xlink:href="#DejaVuSans-74" x="161.773438"/>
       <use xlink:href="#DejaVuSans-6c" x="200.982422"/>
       <use xlink:href="#DejaVuSans-79" x="228.765625"/>
      </g>
     </g>
    </g>
    <g id="ytick_7">
     <g id="line2d_13">
      <g>
       <use xlink:href="#m1b022eaad9" x="141.12" y="202.287273" style="stroke: #000000; stroke-width: 0.8"/>
      </g>
     </g>
     <g id="text_14">
      <!-- imgix -->
      <g transform="translate(106.555937 206.086491) scale(0.1 -0.1)">
       <defs>
        <path id="DejaVuSans-78" d="M 3513 3500 
L 2247 1797 
L 3578 0 
L 2900 0 
L 1881 1375 
L 863 0 
L 184 0 
L 1544 1831 
L 300 3500 
L 978 3500 
L 1906 2253 
L 2834 3500 
L 3513 3500 
z
" transform="scale(0.015625)"/>
       </defs>
       <use xlink:href="#DejaVuSans-69"/>
       <use xlink:href="#DejaVuSans-6d" x="27.783203"/>
       <use xlink:href="#DejaVuSans-67" x="125.195312"/>
       <use xlink:href="#DejaVuSans-69" x="188.671875"/>
       <use xlink:href="#DejaVuSans-78" x="216.455078"/>
      </g>
     </g>
    </g>
    <g id="ytick_8">
     <g id="line2d_14">
      <g>
       <use xlink:href="#m1b022eaad9" x="141.12" y="228.534545" style="stroke: #000000; stroke-width: 0.8"/>
      </g>
     </g>
     <g id="text_15">
      <!-- OneDrive -->
      <g transform="translate(87.096563 232.333764) scale(0.1 -0.1)">
       <defs>
        <path id="DejaVuSans-4f" d="M 2522 4238 
Q 1834 4238 1429 3725 
Q 1025 3213 1025 2328 
Q 1025 1447 1429 934 
Q 1834 422 2522 422 
Q 3209 422 3611 934 
Q 4013 1447 4013 2328 
Q 4013 3213 3611 3725 
Q 3209 4238 2522 4238 
z
M 2522 4750 
Q 3503 4750 4090 4092 
Q 4678 3434 4678 2328 
Q 4678 1225 4090 567 
Q 3503 -91 2522 -91 
Q 1538 -91 948 565 
Q 359 1222 359 2328 
Q 359 3434 948 4092 
Q 1538 4750 2522 4750 
z
" transform="scale(0.015625)"/>
       </defs>
       <use xlink:href="#DejaVuSans-4f"/>
       <use xlink:href="#DejaVuSans-6e" x="78.710938"/>
       <use xlink:href="#DejaVuSans-65" x="142.089844"/>
       <use xlink:href="#DejaVuSans-44" x="203.613281"/>
       <use xlink:href="#DejaVuSans-72" x="280.615234"/>
       <use xlink:href="#DejaVuSans-69" x="321.728516"/>
       <use xlink:href="#DejaVuSans-76" x="349.511719"/>
       <use xlink:href="#DejaVuSans-65" x="408.691406"/>
      </g>
     </g>
    </g>
    <g id="ytick_9">
     <g id="line2d_15">
      <g>
       <use xlink:href="#m1b022eaad9" x="141.12" y="254.781818" style="stroke: #000000; stroke-width: 0.8"/>
      </g>
     </g>
     <g id="text_16">
      <!-- MaxCDN -->
      <g transform="translate(91.280937 258.581037) scale(0.1 -0.1)">
       <defs>
        <path id="DejaVuSans-4d" d="M 628 4666 
L 1569 4666 
L 2759 1491 
L 3956 4666 
L 4897 4666 
L 4897 0 
L 4281 0 
L 4281 4097 
L 3078 897 
L 2444 897 
L 1241 4097 
L 1241 0 
L 628 0 
L 628 4666 
z
" transform="scale(0.015625)"/>
        <path id="DejaVuSans-4e" d="M 628 4666 
L 1478 4666 
L 3547 763 
L 3547 4666 
L 4159 4666 
L 4159 0 
L 3309 0 
L 1241 3903 
L 1241 0 
L 628 0 
L 628 4666 
z
" transform="scale(0.015625)"/>
       </defs>
       <use xlink:href="#DejaVuSans-4d"/>
       <use xlink:href="#DejaVuSans-61" x="86.279297"/>
       <use xlink:href="#DejaVuSans-78" x="147.558594"/>
       <use xlink:href="#DejaVuSans-43" x="206.738281"/>
       <use xlink:href="#DejaVuSans-44" x="276.5625"/>
       <use xlink:href="#DejaVuSans-4e" x="353.564453"/>
      </g>
     </g>
    </g>
    <g id="ytick_10">
     <g id="line2d_16">
      <g>
       <use xlink:href="#m1b022eaad9" x="141.12" y="281.029091" style="stroke: #000000; stroke-width: 0.8"/>
      </g>
     </g>
     <g id="text_17">
      <!-- WinSCP -->
      <g transform="translate(95.980938 284.82831) scale(0.1 -0.1)">
       <defs>
        <path id="DejaVuSans-57" d="M 213 4666 
L 850 4666 
L 1831 722 
L 2809 4666 
L 3519 4666 
L 4500 722 
L 5478 4666 
L 6119 4666 
L 4947 0 
L 4153 0 
L 3169 4050 
L 2175 0 
L 1381 0 
L 213 4666 
z
" transform="scale(0.015625)"/>
        <path id="DejaVuSans-53" d="M 3425 4513 
L 3425 3897 
Q 3066 4069 2747 4153 
Q 2428 4238 2131 4238 
Q 1616 4238 1336 4038 
Q 1056 3838 1056 3469 
Q 1056 3159 1242 3001 
Q 1428 2844 1947 2747 
L 2328 2669 
Q 3034 2534 3370 2195 
Q 3706 1856 3706 1288 
Q 3706 609 3251 259 
Q 2797 -91 1919 -91 
Q 1588 -91 1214 -16 
Q 841 59 441 206 
L 441 856 
Q 825 641 1194 531 
Q 1563 422 1919 422 
Q 2459 422 2753 634 
Q 3047 847 3047 1241 
Q 3047 1584 2836 1778 
Q 2625 1972 2144 2069 
L 1759 2144 
Q 1053 2284 737 2584 
Q 422 2884 422 3419 
Q 422 4038 858 4394 
Q 1294 4750 2059 4750 
Q 2388 4750 2728 4690 
Q 3069 4631 3425 4513 
z
" transform="scale(0.015625)"/>
        <path id="DejaVuSans-50" d="M 1259 4147 
L 1259 2394 
L 2053 2394 
Q 2494 2394 2734 2622 
Q 2975 2850 2975 3272 
Q 2975 3691 2734 3919 
Q 2494 4147 2053 4147 
L 1259 4147 
z
M 628 4666 
L 2053 4666 
Q 2838 4666 3239 4311 
Q 3641 3956 3641 3272 
Q 3641 2581 3239 2228 
Q 2838 1875 2053 1875 
L 1259 1875 
L 1259 0 
L 628 0 
L 628 4666 
z
" transform="scale(0.015625)"/>
       </defs>
       <use xlink:href="#DejaVuSans-57"/>
       <use xlink:href="#DejaVuSans-69" x="96.626953"/>
       <use xlink:href="#DejaVuSans-6e" x="124.410156"/>
       <use xlink:href="#DejaVuSans-53" x="187.789062"/>
       <use xlink:href="#DejaVuSans-43" x="251.265625"/>
       <use xlink:href="#DejaVuSans-50" x="321.089844"/>
      </g>
     </g>
    </g>
    <g id="ytick_11">
     <g id="line2d_17">
      <g>
       <use xlink:href="#m1b022eaad9" x="141.12" y="307.276364" style="stroke: #000000; stroke-width: 0.8"/>
      </g>
     </g>
     <g id="text_18">
      <!-- Dropbox -->
      <g transform="translate(91.993437 311.075582) scale(0.1 -0.1)">
       <defs>
        <path id="DejaVuSans-62" d="M 3116 1747 
Q 3116 2381 2855 2742 
Q 2594 3103 2138 3103 
Q 1681 3103 1420 2742 
Q 1159 2381 1159 1747 
Q 1159 1113 1420 752 
Q 1681 391 2138 391 
Q 2594 391 2855 752 
Q 3116 1113 3116 1747 
z
M 1159 2969 
Q 1341 3281 1617 3432 
Q 1894 3584 2278 3584 
Q 2916 3584 3314 3078 
Q 3713 2572 3713 1747 
Q 3713 922 3314 415 
Q 2916 -91 2278 -91 
Q 1894 -91 1617 61 
Q 1341 213 1159 525 
L 1159 0 
L 581 0 
L 581 4863 
L 1159 4863 
L 1159 2969 
z
" transform="scale(0.015625)"/>
       </defs>
       <use xlink:href="#DejaVuSans-44"/>
       <use xlink:href="#DejaVuSans-72" x="77.001953"/>
       <use xlink:href="#DejaVuSans-6f" x="115.865234"/>
       <use xlink:href="#DejaVuSans-70" x="177.046875"/>
       <use xlink:href="#DejaVuSans-62" x="240.523438"/>
       <use xlink:href="#DejaVuSans-6f" x="304"/>
       <use xlink:href="#DejaVuSans-78" x="362.056641"/>
      </g>
     </g>
    </g>
    <g id="text_19">
     <!-- name -->
     <g transform="translate(30.593438 190.219687) rotate(-90) scale(0.1 -0.1)">
      <use xlink:href="#DejaVuSans-6e"/>
      <use xlink:href="#DejaVuSans-61" x="63.378906"/>
      <use xlink:href="#DejaVuSans-6d" x="124.658203"/>
      <use xlink:href="#DejaVuSans-65" x="222.070312"/>
     </g>
    </g>
   </g>
   <g id="patch_47">
    <path d="M 141.12 320.4 
L 141.12 31.68 
" style="fill: none; stroke: #000000; stroke-width: 0.8; stroke-linejoin: miter; stroke-linecap: square"/>
   </g>
   <g id="patch_48">
    <path d="M 141.12 320.4 
L 453.6 320.4 
" style="fill: none; stroke: #000000; stroke-width: 0.8; stroke-linejoin: miter; stroke-linecap: square"/>
   </g>
   <g id="text_20">
    <!-- Top Assets and Media -->
    <g transform="translate(218.725937 25.68) scale(0.14 -0.14)">
     <defs>
      <path id="LibreBaskerville-Regular-54" d="M 5030 3706 
L 4768 3706 
Q 4749 3981 4678 4166 
Q 4608 4352 4477 4457 
Q 4346 4563 4147 4608 
Q 3949 4653 3674 4653 
Q 3437 4653 3293 4643 
Q 3149 4634 3072 4608 
Q 2995 4582 2972 4547 
Q 2950 4512 2950 4454 
L 2950 1030 
Q 2950 826 2979 678 
Q 3008 531 3094 438 
Q 3181 346 3344 298 
Q 3507 250 3776 243 
L 3776 0 
L 1357 0 
L 1357 243 
Q 1626 250 1792 298 
Q 1958 346 2044 438 
Q 2131 531 2160 678 
Q 2189 826 2189 1030 
L 2189 4454 
Q 2189 4512 2166 4547 
Q 2144 4582 2077 4608 
Q 2010 4634 1888 4643 
Q 1766 4653 1562 4653 
Q 1312 4653 1097 4633 
Q 883 4614 726 4521 
Q 570 4429 474 4237 
Q 378 4045 371 3706 
L 134 3706 
L 134 4928 
L 4966 4928 
L 5030 3706 
z
" transform="scale(0.015625)"/>
      <path id="LibreBaskerville-Regular-6f" d="M 2080 3456 
Q 2445 3456 2771 3325 
Q 3098 3194 3344 2963 
Q 3590 2733 3734 2416 
Q 3878 2099 3878 1722 
Q 3878 1331 3734 1004 
Q 3590 678 3344 441 
Q 3098 205 2771 70 
Q 2445 -64 2080 -64 
Q 1722 -64 1398 67 
Q 1075 198 832 435 
Q 589 672 448 1001 
Q 307 1331 307 1722 
Q 307 2099 448 2419 
Q 589 2739 832 2969 
Q 1075 3200 1398 3328 
Q 1722 3456 2080 3456 
z
M 2080 3149 
Q 1843 3149 1648 3046 
Q 1453 2944 1315 2755 
Q 1178 2566 1104 2300 
Q 1030 2035 1030 1715 
Q 1030 1382 1104 1113 
Q 1178 845 1315 656 
Q 1453 467 1645 364 
Q 1837 262 2080 262 
Q 2323 262 2521 364 
Q 2720 467 2861 659 
Q 3002 851 3078 1120 
Q 3155 1389 3155 1715 
Q 3155 2035 3078 2297 
Q 3002 2560 2861 2749 
Q 2720 2938 2521 3043 
Q 2323 3149 2080 3149 
z
" transform="scale(0.015625)"/>
      <path id="LibreBaskerville-Regular-70" d="M 1344 2931 
L 1370 2931 
Q 1574 3174 1811 3315 
Q 2048 3456 2362 3456 
Q 2726 3456 3030 3325 
Q 3334 3194 3558 2957 
Q 3782 2720 3907 2397 
Q 4032 2074 4032 1690 
Q 4032 1299 3904 976 
Q 3776 653 3552 422 
Q 3328 192 3021 64 
Q 2714 -64 2355 -64 
Q 2061 -64 1821 35 
Q 1581 134 1370 358 
L 1370 -576 
Q 1370 -832 1395 -985 
Q 1421 -1139 1497 -1222 
Q 1574 -1306 1718 -1338 
Q 1862 -1370 2099 -1376 
L 2099 -1600 
L 128 -1600 
L 128 -1376 
Q 320 -1370 438 -1338 
Q 557 -1306 624 -1222 
Q 691 -1139 716 -995 
Q 742 -851 742 -621 
L 742 1773 
Q 742 2144 732 2381 
Q 723 2618 698 2707 
Q 666 2861 550 2915 
Q 435 2970 115 2970 
L 115 3187 
L 1344 3430 
L 1344 2931 
z
M 1536 2746 
Q 1453 2618 1411 2442 
Q 1370 2266 1370 1984 
L 1370 1485 
Q 1370 1312 1379 1187 
Q 1389 1062 1408 972 
Q 1427 883 1459 812 
Q 1491 742 1542 678 
Q 1690 474 1894 362 
Q 2099 250 2323 250 
Q 2765 250 3037 621 
Q 3309 992 3309 1664 
Q 3309 1997 3235 2269 
Q 3162 2541 3027 2736 
Q 2893 2931 2704 3040 
Q 2515 3149 2285 3149 
Q 2054 3149 1859 3043 
Q 1664 2938 1536 2746 
z
" transform="scale(0.015625)"/>
      <path id="LibreBaskerville-Regular-20" transform="scale(0.015625)"/>
      <path id="LibreBaskerville-Regular-41" d="M 3123 1786 
L 1414 1786 
Q 1306 1523 1229 1321 
Q 1152 1120 1104 973 
Q 1056 826 1037 723 
Q 1018 621 1018 557 
Q 1018 378 1133 310 
Q 1248 243 1517 243 
L 1517 0 
L -38 0 
L -38 243 
Q 109 262 214 294 
Q 320 326 400 384 
Q 480 442 541 534 
Q 602 627 659 762 
L 2323 4928 
L 2598 4928 
L 4051 1318 
Q 4198 960 4307 745 
Q 4416 531 4518 422 
Q 4621 314 4739 282 
Q 4858 250 5024 250 
L 5024 0 
L 2938 0 
L 2938 250 
Q 3277 250 3405 314 
Q 3533 378 3533 525 
Q 3533 589 3526 643 
Q 3520 698 3504 762 
Q 3488 826 3459 906 
Q 3430 986 3386 1094 
L 3123 1786 
z
M 1542 2106 
L 3002 2106 
L 2291 3994 
L 1542 2106 
z
" transform="scale(0.015625)"/>
      <path id="LibreBaskerville-Regular-73" d="M 550 0 
L 410 0 
L 410 1101 
L 570 1101 
Q 819 198 1478 198 
Q 1734 198 1884 323 
Q 2035 448 2035 704 
Q 2035 800 2006 867 
Q 1978 934 1898 1008 
Q 1818 1082 1674 1178 
Q 1530 1274 1293 1421 
Q 1075 1555 915 1670 
Q 755 1786 646 1904 
Q 538 2022 483 2156 
Q 429 2291 429 2470 
Q 429 2688 502 2870 
Q 576 3053 704 3181 
Q 832 3309 1005 3382 
Q 1178 3456 1382 3456 
Q 1555 3456 1740 3401 
Q 1926 3347 2067 3258 
L 2195 3392 
L 2317 3392 
L 2317 2470 
L 2150 2470 
Q 2010 2861 1843 3027 
Q 1677 3194 1434 3194 
Q 1216 3194 1085 3078 
Q 954 2963 954 2758 
Q 954 2650 989 2570 
Q 1024 2490 1101 2413 
Q 1178 2336 1296 2256 
Q 1414 2176 1581 2074 
Q 1856 1901 2051 1766 
Q 2246 1632 2368 1501 
Q 2490 1370 2547 1229 
Q 2605 1088 2605 909 
Q 2605 454 2310 195 
Q 2016 -64 1536 -64 
Q 1037 -64 678 224 
L 550 0 
z
" transform="scale(0.015625)"/>
      <path id="LibreBaskerville-Regular-65" d="M 3341 595 
Q 2797 -64 1990 -64 
Q 1613 -64 1305 61 
Q 998 186 777 413 
Q 557 640 435 957 
Q 314 1274 314 1658 
Q 314 2048 442 2381 
Q 570 2714 803 2950 
Q 1037 3187 1360 3321 
Q 1683 3456 2067 3456 
Q 2688 3456 3027 3120 
Q 3366 2784 3366 2157 
Q 3366 2067 3331 2048 
Q 3296 2029 3168 2029 
L 1062 2029 
Q 1050 1978 1043 1904 
Q 1037 1830 1037 1741 
Q 1037 1408 1117 1136 
Q 1197 864 1347 672 
Q 1498 480 1706 374 
Q 1914 269 2170 269 
Q 2438 269 2668 387 
Q 2899 506 3142 774 
L 3341 595 
z
M 2285 2323 
Q 2413 2323 2489 2329 
Q 2566 2336 2604 2355 
Q 2643 2374 2656 2409 
Q 2669 2445 2669 2502 
Q 2669 2797 2480 2973 
Q 2291 3149 1965 3149 
Q 1274 3149 1107 2323 
L 2285 2323 
z
" transform="scale(0.015625)"/>
      <path id="LibreBaskerville-Regular-74" d="M 256 2989 
L 256 3226 
Q 595 3424 787 3622 
Q 979 3821 1082 4096 
L 1267 4096 
L 1267 3290 
L 2125 3290 
L 2125 2989 
L 1267 2989 
L 1267 1043 
Q 1267 819 1289 665 
Q 1312 512 1363 419 
Q 1414 326 1497 288 
Q 1581 250 1709 250 
Q 1869 250 1981 317 
Q 2093 384 2202 544 
L 2362 422 
Q 2272 186 2051 61 
Q 1830 -64 1504 -64 
Q 1082 -64 861 137 
Q 640 339 640 717 
L 640 2989 
L 256 2989 
z
" transform="scale(0.015625)"/>
      <path id="LibreBaskerville-Regular-61" d="M 2234 1894 
Q 1869 1754 1616 1619 
Q 1363 1485 1209 1350 
Q 1056 1216 989 1081 
Q 922 947 922 806 
Q 922 595 1062 460 
Q 1203 326 1434 326 
Q 1600 326 1744 409 
Q 1888 493 1997 637 
Q 2106 781 2170 976 
Q 2234 1171 2234 1389 
L 2234 1894 
z
M 2234 2170 
L 2234 2432 
Q 2234 3213 1568 3213 
Q 1459 3213 1382 3193 
Q 1306 3174 1254 3129 
Q 1203 3085 1161 3001 
Q 1120 2918 1082 2797 
Q 1011 2611 944 2550 
Q 877 2490 749 2490 
Q 429 2490 429 2810 
Q 429 3117 755 3286 
Q 1082 3456 1683 3456 
Q 2323 3456 2592 3229 
Q 2861 3002 2861 2458 
L 2861 1024 
Q 2861 294 3149 294 
Q 3238 294 3321 316 
Q 3405 339 3462 435 
L 3552 282 
Q 3475 134 3270 35 
Q 3066 -64 2842 -64 
Q 2560 -64 2422 115 
Q 2285 294 2285 621 
L 2253 621 
Q 2086 307 1792 124 
Q 1498 -58 1139 -58 
Q 736 -58 505 147 
Q 275 352 275 698 
Q 275 851 329 992 
Q 384 1133 505 1261 
Q 627 1389 825 1513 
Q 1024 1638 1312 1766 
L 2234 2170 
z
" transform="scale(0.015625)"/>
      <path id="LibreBaskerville-Regular-6e" d="M 1382 1005 
Q 1382 742 1395 592 
Q 1408 442 1462 362 
Q 1517 282 1622 256 
Q 1728 230 1914 218 
L 1914 0 
L 237 0 
L 237 218 
Q 416 230 521 256 
Q 627 282 684 358 
Q 742 435 758 576 
Q 774 717 774 960 
L 774 1811 
Q 774 2573 736 2739 
Q 717 2822 688 2876 
Q 659 2931 601 2960 
Q 544 2989 454 2998 
Q 365 3008 224 3008 
L 224 3213 
L 1248 3456 
L 1325 2822 
L 1350 2822 
Q 1594 3123 1920 3289 
Q 2246 3456 2630 3456 
Q 2925 3456 3168 3360 
Q 3411 3264 3539 3098 
Q 3648 2950 3693 2716 
Q 3738 2483 3738 2074 
L 3738 1005 
Q 3738 742 3754 592 
Q 3770 442 3821 362 
Q 3872 282 3977 256 
Q 4083 230 4256 218 
L 4256 0 
L 2598 0 
L 2598 218 
Q 2778 224 2883 253 
Q 2989 282 3043 358 
Q 3098 435 3114 579 
Q 3130 723 3130 960 
L 3130 1805 
Q 3130 2170 3091 2419 
Q 3053 2669 2966 2822 
Q 2880 2976 2739 3043 
Q 2598 3110 2400 3110 
Q 2112 3110 1872 2960 
Q 1632 2810 1498 2547 
Q 1466 2483 1443 2425 
Q 1421 2368 1408 2291 
Q 1395 2214 1388 2115 
Q 1382 2016 1382 1862 
L 1382 1005 
z
" transform="scale(0.015625)"/>
      <path id="LibreBaskerville-Regular-64" d="M 3098 538 
L 3072 538 
Q 2842 211 2582 73 
Q 2323 -64 1971 -64 
Q 1606 -64 1302 67 
Q 998 198 777 432 
Q 557 666 432 992 
Q 307 1318 307 1702 
Q 307 2080 432 2403 
Q 557 2726 777 2960 
Q 998 3194 1305 3325 
Q 1613 3456 1971 3456 
Q 2278 3456 2518 3353 
Q 2758 3251 2982 3027 
L 2982 3680 
Q 2982 4045 2972 4288 
Q 2963 4531 2944 4621 
Q 2912 4762 2765 4819 
Q 2618 4877 2285 4877 
L 2285 5069 
L 3597 5312 
L 3597 1619 
Q 3597 1178 3603 893 
Q 3610 608 3642 486 
Q 3661 410 3689 358 
Q 3718 307 3772 278 
Q 3827 250 3920 237 
Q 4013 224 4160 224 
L 4160 6 
L 3098 -64 
L 3098 538 
z
M 2970 1952 
Q 2970 2285 2934 2457 
Q 2899 2630 2797 2758 
Q 2650 2950 2422 3049 
Q 2195 3149 1971 3149 
Q 1510 3149 1270 2768 
Q 1030 2387 1030 1734 
Q 1030 1395 1091 1120 
Q 1152 845 1270 649 
Q 1389 454 1565 348 
Q 1741 243 1971 243 
Q 2086 243 2204 268 
Q 2323 294 2435 348 
Q 2547 403 2643 476 
Q 2739 550 2803 646 
Q 2893 787 2931 985 
Q 2970 1184 2970 1530 
L 2970 1952 
z
" transform="scale(0.015625)"/>
      <path id="LibreBaskerville-Regular-4d" d="M 3520 1146 
L 5184 4928 
L 6618 4928 
L 6618 4685 
Q 6413 4678 6288 4633 
Q 6163 4589 6096 4483 
Q 6029 4378 6006 4192 
Q 5984 4006 5984 3718 
L 5984 1210 
Q 5984 890 6009 704 
Q 6035 518 6108 416 
Q 6182 314 6320 282 
Q 6458 250 6682 243 
L 6682 0 
L 4608 0 
L 4608 243 
Q 4832 250 4969 285 
Q 5107 320 5184 416 
Q 5261 512 5286 688 
Q 5312 864 5312 1165 
L 5312 4134 
L 5248 4134 
L 3379 -64 
L 3238 -64 
L 1402 4134 
L 1376 4134 
L 1376 1210 
Q 1376 890 1401 704 
Q 1427 518 1500 416 
Q 1574 314 1712 282 
Q 1850 250 2074 243 
L 2074 0 
L 288 0 
L 288 243 
Q 512 250 649 285 
Q 787 320 864 416 
Q 941 512 966 688 
Q 992 864 992 1165 
L 992 3763 
Q 992 4032 969 4208 
Q 947 4384 880 4486 
Q 813 4589 685 4630 
Q 557 4672 352 4685 
L 352 4928 
L 1882 4928 
L 3494 1146 
L 3520 1146 
z
" transform="scale(0.015625)"/>
      <path id="LibreBaskerville-Regular-69" d="M 1459 1018 
Q 1459 768 1481 617 
Q 1504 467 1568 380 
Q 1632 294 1747 262 
Q 1862 230 2054 224 
L 2054 0 
L 218 0 
L 218 224 
Q 410 230 531 265 
Q 653 301 720 381 
Q 787 461 809 605 
Q 832 749 832 973 
L 832 1792 
Q 832 2163 822 2403 
Q 813 2643 787 2733 
Q 755 2880 640 2934 
Q 525 2989 205 2989 
L 205 3213 
L 1459 3456 
L 1459 1018 
z
M 723 4755 
Q 723 4922 838 5037 
Q 954 5152 1120 5152 
Q 1286 5152 1401 5037 
Q 1517 4922 1517 4755 
Q 1517 4589 1401 4473 
Q 1286 4358 1120 4358 
Q 954 4358 838 4473 
Q 723 4589 723 4755 
z
" transform="scale(0.015625)"/>
     </defs>
     <use xlink:href="#LibreBaskerville-Regular-54"/>
     <use xlink:href="#LibreBaskerville-Regular-6f" x="80.299988"/>
     <use xlink:href="#LibreBaskerville-Regular-70" x="145.699982"/>
     <use xlink:href="#LibreBaskerville-Regular-20" x="213.599976"/>
     <use xlink:href="#LibreBaskerville-Regular-41" x="242.299973"/>
     <use xlink:href="#LibreBaskerville-Regular-73" x="319.499954"/>
     <use xlink:href="#LibreBaskerville-Regular-73" x="364.899948"/>
     <use xlink:href="#LibreBaskerville-Regular-65" x="410.299942"/>
     <use xlink:href="#LibreBaskerville-Regular-74" x="467.59993"/>
     <use xlink:href="#LibreBaskerville-Regular-73" x="505.399918"/>
     <use xlink:href="#LibreBaskerville-Regular-20" x="550.799911"/>
     <use xlink:href="#LibreBaskerville-Regular-61" x="579.499908"/>
     <use xlink:href="#LibreBaskerville-Regular-6e" x="634.899902"/>
     <use xlink:href="#LibreBaskerville-Regular-64" x="703.799896"/>
     <use xlink:href="#LibreBaskerville-Regular-20" x="771.299881"/>
     <use xlink:href="#LibreBaskerville-Regular-4d" x="799.999878"/>
     <use xlink:href="#LibreBaskerville-Regular-65" x="908.999863"/>
     <use xlink:href="#LibreBaskerville-Regular-64" x="966.29985"/>
     <use xlink:href="#LibreBaskerville-Regular-69" x="1033.799835"/>
     <use xlink:href="#LibreBaskerville-Regular-61" x="1067.899826"/>
    </g>
   </g>
   <g id="legend_1">
    <g id="patch_49">
     <path d="M 235.6625 315.4 
L 446.6 315.4 
Q 448.6 315.4 448.6 313.4 
L 448.6 240.73125 
Q 448.6 238.73125 446.6 238.73125 
L 235.6625 238.73125 
Q 233.6625 238.73125 233.6625 240.73125 
L 233.6625 313.4 
Q 233.6625 315.4 235.6625 315.4 
z
" style="fill: #ffffff; opacity: 0.8; stroke: #cccccc; stroke-linejoin: miter"/>
    </g>
    <g id="text_21">
     <!-- tool_function -->
     <g transform="translate(308.739063 250.329688) scale(0.1 -0.1)">
      <defs>
       <path id="DejaVuSans-5f" d="M 3263 -1063 
L 3263 -1509 
L -63 -1509 
L -63 -1063 
L 3263 -1063 
z
" transform="scale(0.015625)"/>
       <path id="DejaVuSans-66" d="M 2375 4863 
L 2375 4384 
L 1825 4384 
Q 1516 4384 1395 4259 
Q 1275 4134 1275 3809 
L 1275 3500 
L 2222 3500 
L 2222 3053 
L 1275 3053 
L 1275 0 
L 697 0 
L 697 3053 
L 147 3053 
L 147 3500 
L 697 3500 
L 697 3744 
Q 697 4328 969 4595 
Q 1241 4863 1831 4863 
L 2375 4863 
z
" transform="scale(0.015625)"/>
      </defs>
      <use xlink:href="#DejaVuSans-74"/>
      <use xlink:href="#DejaVuSans-6f" x="39.208984"/>
      <use xlink:href="#DejaVuSans-6f" x="100.390625"/>
      <use xlink:href="#DejaVuSans-6c" x="161.572266"/>
      <use xlink:href="#DejaVuSans-5f" x="189.355469"/>
      <use xlink:href="#DejaVuSans-66" x="239.355469"/>
      <use xlink:href="#DejaVuSans-75" x="274.560547"/>
      <use xlink:href="#DejaVuSans-6e" x="337.939453"/>
      <use xlink:href="#DejaVuSans-63" x="401.318359"/>
      <use xlink:href="#DejaVuSans-74" x="456.298828"/>
      <use xlink:href="#DejaVuSans-69" x="495.507812"/>
      <use xlink:href="#DejaVuSans-6f" x="523.291016"/>
      <use xlink:href="#DejaVuSans-6e" x="584.472656"/>
     </g>
    </g>
    <g id="patch_50">
     <path d="M 237.6625 265.285937 
L 257.6625 265.285937 
L 257.6625 258.285937 
L 237.6625 258.285937 
z
" style="fill: #176d9c"/>
    </g>
    <g id="text_22">
     <!-- File Storage -->
     <g transform="translate(265.6625 265.285937) scale(0.1 -0.1)">
      <use xlink:href="#DejaVuSans-46"/>
      <use xlink:href="#DejaVuSans-69" x="50.269531"/>
      <use xlink:href="#DejaVuSans-6c" x="78.052734"/>
      <use xlink:href="#DejaVuSans-65" x="105.835938"/>
      <use xlink:href="#DejaVuSans-20" x="167.359375"/>
      <use xlink:href="#DejaVuSans-53" x="199.146484"/>
      <use xlink:href="#DejaVuSans-74" x="262.623047"/>
      <use xlink:href="#DejaVuSans-6f" x="301.832031"/>
      <use xlink:href="#DejaVuSans-72" x="363.013672"/>
      <use xlink:href="#DejaVuSans-61" x="404.126953"/>
      <use xlink:href="#DejaVuSans-67" x="465.40625"/>
      <use xlink:href="#DejaVuSans-65" x="528.882812"/>
     </g>
    </g>
    <g id="patch_51">
     <path d="M 237.6625 279.964063 
L 257.6625 279.964063 
L 257.6625 272.964063 
L 237.6625 272.964063 
z
" style="fill: #c38820"/>
    </g>
    <g id="text_23">
     <!-- Content Delivery Network -->
     <g transform="translate(265.6625 279.964063) scale(0.1 -0.1)">
      <defs>
       <path id="DejaVuSans-77" d="M 269 3500 
L 844 3500 
L 1563 769 
L 2278 3500 
L 2956 3500 
L 3675 769 
L 4391 3500 
L 4966 3500 
L 4050 0 
L 3372 0 
L 2619 2869 
L 1863 0 
L 1184 0 
L 269 3500 
z
" transform="scale(0.015625)"/>
      </defs>
      <use xlink:href="#DejaVuSans-43"/>
      <use xlink:href="#DejaVuSans-6f" x="69.824219"/>
      <use xlink:href="#DejaVuSans-6e" x="131.005859"/>
      <use xlink:href="#DejaVuSans-74" x="194.384766"/>
      <use xlink:href="#DejaVuSans-65" x="233.59375"/>
      <use xlink:href="#DejaVuSans-6e" x="295.117188"/>
      <use xlink:href="#DejaVuSans-74" x="358.496094"/>
      <use xlink:href="#DejaVuSans-20" x="397.705078"/>
      <use xlink:href="#DejaVuSans-44" x="429.492188"/>
      <use xlink:href="#DejaVuSans-65" x="506.494141"/>
      <use xlink:href="#DejaVuSans-6c" x="568.017578"/>
      <use xlink:href="#DejaVuSans-69" x="595.800781"/>
      <use xlink:href="#DejaVuSans-76" x="623.583984"/>
      <use xlink:href="#DejaVuSans-65" x="682.763672"/>
      <use xlink:href="#DejaVuSans-72" x="744.287109"/>
      <use xlink:href="#DejaVuSans-79" x="785.400391"/>
      <use xlink:href="#DejaVuSans-20" x="844.580078"/>
      <use xlink:href="#DejaVuSans-4e" x="876.367188"/>
      <use xlink:href="#DejaVuSans-65" x="951.171875"/>
      <use xlink:href="#DejaVuSans-74" x="1012.695312"/>
      <use xlink:href="#DejaVuSans-77" x="1051.904297"/>
      <use xlink:href="#DejaVuSans-6f" x="1133.691406"/>
      <use xlink:href="#DejaVuSans-72" x="1194.873047"/>
      <use xlink:href="#DejaVuSans-6b" x="1235.986328"/>
     </g>
    </g>
    <g id="patch_52">
     <path d="M 237.6625 294.642187 
L 257.6625 294.642187 
L 257.6625 287.642187 
L 237.6625 287.642187 
z
" style="fill: #158b6a"/>
    </g>
    <g id="text_24">
     <!-- Image Processing and Management -->
     <g transform="translate(265.6625 294.642187) scale(0.1 -0.1)">
      <use xlink:href="#DejaVuSans-49"/>
      <use xlink:href="#DejaVuSans-6d" x="29.492188"/>
      <use xlink:href="#DejaVuSans-61" x="126.904297"/>
      <use xlink:href="#DejaVuSans-67" x="188.183594"/>
      <use xlink:href="#DejaVuSans-65" x="251.660156"/>
      <use xlink:href="#DejaVuSans-20" x="313.183594"/>
      <use xlink:href="#DejaVuSans-50" x="344.970703"/>
      <use xlink:href="#DejaVuSans-72" x="403.523438"/>
      <use xlink:href="#DejaVuSans-6f" x="442.386719"/>
      <use xlink:href="#DejaVuSans-63" x="503.568359"/>
      <use xlink:href="#DejaVuSans-65" x="558.548828"/>
      <use xlink:href="#DejaVuSans-73" x="620.072266"/>
      <use xlink:href="#DejaVuSans-73" x="672.171875"/>
      <use xlink:href="#DejaVuSans-69" x="724.271484"/>
      <use xlink:href="#DejaVuSans-6e" x="752.054688"/>
      <use xlink:href="#DejaVuSans-67" x="815.433594"/>
      <use xlink:href="#DejaVuSans-20" x="878.910156"/>
      <use xlink:href="#DejaVuSans-61" x="910.697266"/>
      <use xlink:href="#DejaVuSans-6e" x="971.976562"/>
      <use xlink:href="#DejaVuSans-64" x="1035.355469"/>
      <use xlink:href="#DejaVuSans-20" x="1098.832031"/>
      <use xlink:href="#DejaVuSans-4d" x="1130.619141"/>
      <use xlink:href="#DejaVuSans-61" x="1216.898438"/>
      <use xlink:href="#DejaVuSans-6e" x="1278.177734"/>
      <use xlink:href="#DejaVuSans-61" x="1341.556641"/>
      <use xlink:href="#DejaVuSans-67" x="1402.835938"/>
      <use xlink:href="#DejaVuSans-65" x="1466.3125"/>
      <use xlink:href="#DejaVuSans-6d" x="1527.835938"/>
      <use xlink:href="#DejaVuSans-65" x="1625.248047"/>
      <use xlink:href="#DejaVuSans-6e" x="1686.771484"/>
      <use xlink:href="#DejaVuSans-74" x="1750.150391"/>
     </g>
    </g>
    <g id="patch_53">
     <path d="M 237.6625 309.320312 
L 257.6625 309.320312 
L 257.6625 302.320312 
L 237.6625 302.320312 
z
" style="fill: #ba611b"/>
    </g>
    <g id="text_25">
     <!-- File Transfer -->
     <g transform="translate(265.6625 309.320312) scale(0.1 -0.1)">
      <defs>
       <path id="DejaVuSans-54" d="M -19 4666 
L 3928 4666 
L 3928 4134 
L 2272 4134 
L 2272 0 
L 1638 0 
L 1638 4134 
L -19 4134 
L -19 4666 
z
" transform="scale(0.015625)"/>
      </defs>
      <use xlink:href="#DejaVuSans-46"/>
      <use xlink:href="#DejaVuSans-69" x="50.269531"/>
      <use xlink:href="#DejaVuSans-6c" x="78.052734"/>
      <use xlink:href="#DejaVuSans-65" x="105.835938"/>
      <use xlink:href="#DejaVuSans-20" x="167.359375"/>
      <use xlink:href="#DejaVuSans-54" x="199.146484"/>
      <use xlink:href="#DejaVuSans-72" x="245.480469"/>
      <use xlink:href="#DejaVuSans-61" x="286.59375"/>
      <use xlink:href="#DejaVuSans-6e" x="347.873047"/>
      <use xlink:href="#DejaVuSans-73" x="411.251953"/>
      <use xlink:href="#DejaVuSans-66" x="463.351562"/>
      <use xlink:href="#DejaVuSans-65" x="498.556641"/>
      <use xlink:href="#DejaVuSans-72" x="560.080078"/>
     </g>
    </g>
   </g>
  </g>
 </g>
 <defs>
  <clipPath id="p4fa58f6fd9">
   <rect x="141.12" y="31.68" width="312.48" height="288.72"/>
  </clipPath>
 </defs>
</svg>
