<?xml version="1.0" encoding="utf-8" standalone="no"?>
<!DOCTYPE svg PUBLIC "-//W3C//DTD SVG 1.1//EN"
  "http://www.w3.org/Graphics/SVG/1.1/DTD/svg11.dtd">
<svg xmlns:xlink="http://www.w3.org/1999/xlink" width="504pt" height="360pt" viewBox="0 0 504 360" xmlns="http://www.w3.org/2000/svg" version="1.1">
 <metadata>
  <rdf:RDF xmlns:dc="http://purl.org/dc/elements/1.1/" xmlns:cc="http://creativecommons.org/ns#" xmlns:rdf="http://www.w3.org/1999/02/22-rdf-syntax-ns#">
   <cc:Work>
    <dc:type rdf:resource="http://purl.org/dc/dcmitype/StillImage"/>
    <dc:date>2023-03-01T13:46:34.443667</dc:date>
    <dc:format>image/svg+xml</dc:format>
    <dc:creator>
     <cc:Agent>
      <dc:title>Matplotlib v3.7.0, https://matplotlib.org/</dc:title>
     </cc:Agent>
    </dc:creator>
   </cc:Work>
  </rdf:RDF>
 </metadata>
 <defs>
  <style type="text/css">*{stroke-linejoin: round; stroke-linecap: butt}</style>
 </defs>
 <g id="figure_1">
  <g id="patch_1">
   <path d="M 0 360 
L 504 360 
L 504 0 
L 0 0 
z
" style="fill: #ffffff"/>
  </g>
  <g id="axes_1">
   <g id="patch_2">
    <path d="M 141.12 320.4 
L 453.6 320.4 
L 453.6 31.68 
L 141.12 31.68 
z
" style="fill: #ffffff"/>
   </g>
   <g id="patch_3">
    <path d="M 141.12 37.4544 
L 438.72 37.4544 
L 438.72 83.6496 
L 141.12 83.6496 
z
" clip-path="url(#pc8ea41ae78)" style="fill: #176d9c"/>
   </g>
   <g id="patch_4">
    <path d="M 141.12 95.1984 
L 348.747907 95.1984 
L 348.747907 141.3936 
L 141.12 141.3936 
z
" clip-path="url(#pc8ea41ae78)" style="fill: #176d9c"/>
   </g>
   <g id="patch_5">
    <path d="M 141.12 152.9424 
L 203.408372 152.9424 
L 203.408372 199.1376 
L 141.12 199.1376 
z
" clip-path="url(#pc8ea41ae78)" style="fill: #176d9c"/>
   </g>
   <g id="patch_6">
    <path d="M 141.12 210.6864 
L 141.12 210.6864 
L 141.12 256.8816 
L 141.12 256.8816 
z
" clip-path="url(#pc8ea41ae78)" style="fill: #176d9c"/>
   </g>
   <g id="patch_7">
    <path d="M 141.12 268.4304 
L 141.12 268.4304 
L 141.12 314.6256 
L 141.12 314.6256 
z
" clip-path="url(#pc8ea41ae78)" style="fill: #176d9c"/>
   </g>
   <g id="patch_8">
    <path d="M 141.12 37.4544 
L 141.12 37.4544 
L 141.12 83.6496 
L 141.12 83.6496 
z
" clip-path="url(#pc8ea41ae78)" style="fill: #c38820"/>
   </g>
   <g id="patch_9">
    <path d="M 141.12 95.1984 
L 141.12 95.1984 
L 141.12 141.3936 
L 141.12 141.3936 
z
" clip-path="url(#pc8ea41ae78)" style="fill: #c38820"/>
   </g>
   <g id="patch_10">
    <path d="M 141.12 152.9424 
L 141.12 152.9424 
L 141.12 199.1376 
L 141.12 199.1376 
z
" clip-path="url(#pc8ea41ae78)" style="fill: #c38820"/>
   </g>
   <g id="patch_11">
    <path d="M 141.12 210.6864 
L 168.803721 210.6864 
L 168.803721 256.8816 
L 141.12 256.8816 
z
" clip-path="url(#pc8ea41ae78)" style="fill: #c38820"/>
   </g>
   <g id="patch_12">
    <path d="M 141.12 268.4304 
L 141.12 268.4304 
L 141.12 314.6256 
L 141.12 314.6256 
z
" clip-path="url(#pc8ea41ae78)" style="fill: #c38820"/>
   </g>
   <g id="patch_13">
    <path d="M 141.12 37.4544 
L 141.12 37.4544 
L 141.12 83.6496 
L 141.12 83.6496 
z
" clip-path="url(#pc8ea41ae78)" style="fill: #158b6a"/>
   </g>
   <g id="patch_14">
    <path d="M 141.12 95.1984 
L 141.12 95.1984 
L 141.12 141.3936 
L 141.12 141.3936 
z
" clip-path="url(#pc8ea41ae78)" style="fill: #158b6a"/>
   </g>
   <g id="patch_15">
    <path d="M 141.12 152.9424 
L 141.12 152.9424 
L 141.12 199.1376 
L 141.12 199.1376 
z
" clip-path="url(#pc8ea41ae78)" style="fill: #158b6a"/>
   </g>
   <g id="patch_16">
    <path d="M 141.12 210.6864 
L 141.12 210.6864 
L 141.12 256.8816 
L 141.12 256.8816 
z
" clip-path="url(#pc8ea41ae78)" style="fill: #158b6a"/>
   </g>
   <g id="patch_17">
    <path d="M 141.12 268.4304 
L 148.04093 268.4304 
L 148.04093 314.6256 
L 141.12 314.6256 
z
" clip-path="url(#pc8ea41ae78)" style="fill: #158b6a"/>
   </g>
   <g id="matplotlib.axis_1">
    <g id="xtick_1">
     <g id="line2d_1">
      <defs>
       <path id="m10415cb90f" d="M 0 0 
L 0 3.5 
" style="stroke: #000000; stroke-width: 0.8"/>
      </defs>
      <g>
       <use xlink:href="#m10415cb90f" x="141.12" y="320.4" style="stroke: #000000; stroke-width: 0.8"/>
      </g>
     </g>
     <g id="text_1">
      <!-- 0 -->
      <g transform="translate(137.93875 334.998438) scale(0.1 -0.1)">
       <defs>
        <path id="DejaVuSans-30" d="M 2034 4250 
Q 1547 4250 1301 3770 
Q 1056 3291 1056 2328 
Q 1056 1369 1301 889 
Q 1547 409 2034 409 
Q 2525 409 2770 889 
Q 3016 1369 3016 2328 
Q 3016 3291 2770 3770 
Q 2525 4250 2034 4250 
z
M 2034 4750 
Q 2819 4750 3233 4129 
Q 3647 3509 3647 2328 
Q 3647 1150 3233 529 
Q 2819 -91 2034 -91 
Q 1250 -91 836 529 
Q 422 1150 422 2328 
Q 422 3509 836 4129 
Q 1250 4750 2034 4750 
z
" transform="scale(0.015625)"/>
       </defs>
       <use xlink:href="#DejaVuSans-30"/>
      </g>
     </g>
    </g>
    <g id="xtick_2">
     <g id="line2d_2">
      <g>
       <use xlink:href="#m10415cb90f" x="210.329302" y="320.4" style="stroke: #000000; stroke-width: 0.8"/>
      </g>
     </g>
     <g id="text_2">
      <!-- 10 -->
      <g transform="translate(203.966802 334.998438) scale(0.1 -0.1)">
       <defs>
        <path id="DejaVuSans-31" d="M 794 531 
L 1825 531 
L 1825 4091 
L 703 3866 
L 703 4441 
L 1819 4666 
L 2450 4666 
L 2450 531 
L 3481 531 
L 3481 0 
L 794 0 
L 794 531 
z
" transform="scale(0.015625)"/>
       </defs>
       <use xlink:href="#DejaVuSans-31"/>
       <use xlink:href="#DejaVuSans-30" x="63.623047"/>
      </g>
     </g>
    </g>
    <g id="xtick_3">
     <g id="line2d_3">
      <g>
       <use xlink:href="#m10415cb90f" x="279.538605" y="320.4" style="stroke: #000000; stroke-width: 0.8"/>
      </g>
     </g>
     <g id="text_3">
      <!-- 20 -->
      <g transform="translate(273.176105 334.998438) scale(0.1 -0.1)">
       <defs>
        <path id="DejaVuSans-32" d="M 1228 531 
L 3431 531 
L 3431 0 
L 469 0 
L 469 531 
Q 828 903 1448 1529 
Q 2069 2156 2228 2338 
Q 2531 2678 2651 2914 
Q 2772 3150 2772 3378 
Q 2772 3750 2511 3984 
Q 2250 4219 1831 4219 
Q 1534 4219 1204 4116 
Q 875 4013 500 3803 
L 500 4441 
Q 881 4594 1212 4672 
Q 1544 4750 1819 4750 
Q 2544 4750 2975 4387 
Q 3406 4025 3406 3419 
Q 3406 3131 3298 2873 
Q 3191 2616 2906 2266 
Q 2828 2175 2409 1742 
Q 1991 1309 1228 531 
z
" transform="scale(0.015625)"/>
       </defs>
       <use xlink:href="#DejaVuSans-32"/>
       <use xlink:href="#DejaVuSans-30" x="63.623047"/>
      </g>
     </g>
    </g>
    <g id="xtick_4">
     <g id="line2d_4">
      <g>
       <use xlink:href="#m10415cb90f" x="348.747907" y="320.4" style="stroke: #000000; stroke-width: 0.8"/>
      </g>
     </g>
     <g id="text_4">
      <!-- 30 -->
      <g transform="translate(342.385407 334.998438) scale(0.1 -0.1)">
       <defs>
        <path id="DejaVuSans-33" d="M 2597 2516 
Q 3050 2419 3304 2112 
Q 3559 1806 3559 1356 
Q 3559 666 3084 287 
Q 2609 -91 1734 -91 
Q 1441 -91 1130 -33 
Q 819 25 488 141 
L 488 750 
Q 750 597 1062 519 
Q 1375 441 1716 441 
Q 2309 441 2620 675 
Q 2931 909 2931 1356 
Q 2931 1769 2642 2001 
Q 2353 2234 1838 2234 
L 1294 2234 
L 1294 2753 
L 1863 2753 
Q 2328 2753 2575 2939 
Q 2822 3125 2822 3475 
Q 2822 3834 2567 4026 
Q 2313 4219 1838 4219 
Q 1578 4219 1281 4162 
Q 984 4106 628 3988 
L 628 4550 
Q 988 4650 1302 4700 
Q 1616 4750 1894 4750 
Q 2613 4750 3031 4423 
Q 3450 4097 3450 3541 
Q 3450 3153 3228 2886 
Q 3006 2619 2597 2516 
z
" transform="scale(0.015625)"/>
       </defs>
       <use xlink:href="#DejaVuSans-33"/>
       <use xlink:href="#DejaVuSans-30" x="63.623047"/>
      </g>
     </g>
    </g>
    <g id="xtick_5">
     <g id="line2d_5">
      <g>
       <use xlink:href="#m10415cb90f" x="417.957209" y="320.4" style="stroke: #000000; stroke-width: 0.8"/>
      </g>
     </g>
     <g id="text_5">
      <!-- 40 -->
      <g transform="translate(411.594709 334.998438) scale(0.1 -0.1)">
       <defs>
        <path id="DejaVuSans-34" d="M 2419 4116 
L 825 1625 
L 2419 1625 
L 2419 4116 
z
M 2253 4666 
L 3047 4666 
L 3047 1625 
L 3713 1625 
L 3713 1100 
L 3047 1100 
L 3047 0 
L 2419 0 
L 2419 1100 
L 313 1100 
L 313 1709 
L 2253 4666 
z
" transform="scale(0.015625)"/>
       </defs>
       <use xlink:href="#DejaVuSans-34"/>
       <use xlink:href="#DejaVuSans-30" x="63.623047"/>
      </g>
     </g>
    </g>
    <g id="text_6">
     <!-- count -->
     <g transform="translate(283.25375 348.676562) scale(0.1 -0.1)">
      <defs>
       <path id="DejaVuSans-63" d="M 3122 3366 
L 3122 2828 
Q 2878 2963 2633 3030 
Q 2388 3097 2138 3097 
Q 1578 3097 1268 2742 
Q 959 2388 959 1747 
Q 959 1106 1268 751 
Q 1578 397 2138 397 
Q 2388 397 2633 464 
Q 2878 531 3122 666 
L 3122 134 
Q 2881 22 2623 -34 
Q 2366 -91 2075 -91 
Q 1284 -91 818 406 
Q 353 903 353 1747 
Q 353 2603 823 3093 
Q 1294 3584 2113 3584 
Q 2378 3584 2631 3529 
Q 2884 3475 3122 3366 
z
" transform="scale(0.015625)"/>
       <path id="DejaVuSans-6f" d="M 1959 3097 
Q 1497 3097 1228 2736 
Q 959 2375 959 1747 
Q 959 1119 1226 758 
Q 1494 397 1959 397 
Q 2419 397 2687 759 
Q 2956 1122 2956 1747 
Q 2956 2369 2687 2733 
Q 2419 3097 1959 3097 
z
M 1959 3584 
Q 2709 3584 3137 3096 
Q 3566 2609 3566 1747 
Q 3566 888 3137 398 
Q 2709 -91 1959 -91 
Q 1206 -91 779 398 
Q 353 888 353 1747 
Q 353 2609 779 3096 
Q 1206 3584 1959 3584 
z
" transform="scale(0.015625)"/>
       <path id="DejaVuSans-75" d="M 544 1381 
L 544 3500 
L 1119 3500 
L 1119 1403 
Q 1119 906 1312 657 
Q 1506 409 1894 409 
Q 2359 409 2629 706 
Q 2900 1003 2900 1516 
L 2900 3500 
L 3475 3500 
L 3475 0 
L 2900 0 
L 2900 538 
Q 2691 219 2414 64 
Q 2138 -91 1772 -91 
Q 1169 -91 856 284 
Q 544 659 544 1381 
z
M 1991 3584 
L 1991 3584 
z
" transform="scale(0.015625)"/>
       <path id="DejaVuSans-6e" d="M 3513 2113 
L 3513 0 
L 2938 0 
L 2938 2094 
Q 2938 2591 2744 2837 
Q 2550 3084 2163 3084 
Q 1697 3084 1428 2787 
Q 1159 2491 1159 1978 
L 1159 0 
L 581 0 
L 581 3500 
L 1159 3500 
L 1159 2956 
Q 1366 3272 1645 3428 
Q 1925 3584 2291 3584 
Q 2894 3584 3203 3211 
Q 3513 2838 3513 2113 
z
" transform="scale(0.015625)"/>
       <path id="DejaVuSans-74" d="M 1172 4494 
L 1172 3500 
L 2356 3500 
L 2356 3053 
L 1172 3053 
L 1172 1153 
Q 1172 725 1289 603 
Q 1406 481 1766 481 
L 2356 481 
L 2356 0 
L 1766 0 
Q 1100 0 847 248 
Q 594 497 594 1153 
L 594 3053 
L 172 3053 
L 172 3500 
L 594 3500 
L 594 4494 
L 1172 4494 
z
" transform="scale(0.015625)"/>
      </defs>
      <use xlink:href="#DejaVuSans-63"/>
      <use xlink:href="#DejaVuSans-6f" x="54.980469"/>
      <use xlink:href="#DejaVuSans-75" x="116.162109"/>
      <use xlink:href="#DejaVuSans-6e" x="179.541016"/>
      <use xlink:href="#DejaVuSans-74" x="242.919922"/>
     </g>
    </g>
   </g>
   <g id="matplotlib.axis_2">
    <g id="ytick_1">
     <g id="line2d_6">
      <defs>
       <path id="m4bbe329fb0" d="M 0 0 
L -3.5 0 
" style="stroke: #000000; stroke-width: 0.8"/>
      </defs>
      <g>
       <use xlink:href="#m4bbe329fb0" x="141.12" y="60.552" style="stroke: #000000; stroke-width: 0.8"/>
      </g>
     </g>
     <g id="text_7">
      <!-- Google Fonts -->
      <g transform="translate(68.70125 64.351219) scale(0.1 -0.1)">
       <defs>
        <path id="DejaVuSans-47" d="M 3809 666 
L 3809 1919 
L 2778 1919 
L 2778 2438 
L 4434 2438 
L 4434 434 
Q 4069 175 3628 42 
Q 3188 -91 2688 -91 
Q 1594 -91 976 548 
Q 359 1188 359 2328 
Q 359 3472 976 4111 
Q 1594 4750 2688 4750 
Q 3144 4750 3555 4637 
Q 3966 4525 4313 4306 
L 4313 3634 
Q 3963 3931 3569 4081 
Q 3175 4231 2741 4231 
Q 1884 4231 1454 3753 
Q 1025 3275 1025 2328 
Q 1025 1384 1454 906 
Q 1884 428 2741 428 
Q 3075 428 3337 486 
Q 3600 544 3809 666 
z
" transform="scale(0.015625)"/>
        <path id="DejaVuSans-67" d="M 2906 1791 
Q 2906 2416 2648 2759 
Q 2391 3103 1925 3103 
Q 1463 3103 1205 2759 
Q 947 2416 947 1791 
Q 947 1169 1205 825 
Q 1463 481 1925 481 
Q 2391 481 2648 825 
Q 2906 1169 2906 1791 
z
M 3481 434 
Q 3481 -459 3084 -895 
Q 2688 -1331 1869 -1331 
Q 1566 -1331 1297 -1286 
Q 1028 -1241 775 -1147 
L 775 -588 
Q 1028 -725 1275 -790 
Q 1522 -856 1778 -856 
Q 2344 -856 2625 -561 
Q 2906 -266 2906 331 
L 2906 616 
Q 2728 306 2450 153 
Q 2172 0 1784 0 
Q 1141 0 747 490 
Q 353 981 353 1791 
Q 353 2603 747 3093 
Q 1141 3584 1784 3584 
Q 2172 3584 2450 3431 
Q 2728 3278 2906 2969 
L 2906 3500 
L 3481 3500 
L 3481 434 
z
" transform="scale(0.015625)"/>
        <path id="DejaVuSans-6c" d="M 603 4863 
L 1178 4863 
L 1178 0 
L 603 0 
L 603 4863 
z
" transform="scale(0.015625)"/>
        <path id="DejaVuSans-65" d="M 3597 1894 
L 3597 1613 
L 953 1613 
Q 991 1019 1311 708 
Q 1631 397 2203 397 
Q 2534 397 2845 478 
Q 3156 559 3463 722 
L 3463 178 
Q 3153 47 2828 -22 
Q 2503 -91 2169 -91 
Q 1331 -91 842 396 
Q 353 884 353 1716 
Q 353 2575 817 3079 
Q 1281 3584 2069 3584 
Q 2775 3584 3186 3129 
Q 3597 2675 3597 1894 
z
M 3022 2063 
Q 3016 2534 2758 2815 
Q 2500 3097 2075 3097 
Q 1594 3097 1305 2825 
Q 1016 2553 972 2059 
L 3022 2063 
z
" transform="scale(0.015625)"/>
        <path id="DejaVuSans-20" transform="scale(0.015625)"/>
        <path id="DejaVuSans-46" d="M 628 4666 
L 3309 4666 
L 3309 4134 
L 1259 4134 
L 1259 2759 
L 3109 2759 
L 3109 2228 
L 1259 2228 
L 1259 0 
L 628 0 
L 628 4666 
z
" transform="scale(0.015625)"/>
        <path id="DejaVuSans-73" d="M 2834 3397 
L 2834 2853 
Q 2591 2978 2328 3040 
Q 2066 3103 1784 3103 
Q 1356 3103 1142 2972 
Q 928 2841 928 2578 
Q 928 2378 1081 2264 
Q 1234 2150 1697 2047 
L 1894 2003 
Q 2506 1872 2764 1633 
Q 3022 1394 3022 966 
Q 3022 478 2636 193 
Q 2250 -91 1575 -91 
Q 1294 -91 989 -36 
Q 684 19 347 128 
L 347 722 
Q 666 556 975 473 
Q 1284 391 1588 391 
Q 1994 391 2212 530 
Q 2431 669 2431 922 
Q 2431 1156 2273 1281 
Q 2116 1406 1581 1522 
L 1381 1569 
Q 847 1681 609 1914 
Q 372 2147 372 2553 
Q 372 3047 722 3315 
Q 1072 3584 1716 3584 
Q 2034 3584 2315 3537 
Q 2597 3491 2834 3397 
z
" transform="scale(0.015625)"/>
       </defs>
       <use xlink:href="#DejaVuSans-47"/>
       <use xlink:href="#DejaVuSans-6f" x="77.490234"/>
       <use xlink:href="#DejaVuSans-6f" x="138.671875"/>
       <use xlink:href="#DejaVuSans-67" x="199.853516"/>
       <use xlink:href="#DejaVuSans-6c" x="263.330078"/>
       <use xlink:href="#DejaVuSans-65" x="291.113281"/>
       <use xlink:href="#DejaVuSans-20" x="352.636719"/>
       <use xlink:href="#DejaVuSans-46" x="384.423828"/>
       <use xlink:href="#DejaVuSans-6f" x="438.318359"/>
       <use xlink:href="#DejaVuSans-6e" x="499.5"/>
       <use xlink:href="#DejaVuSans-74" x="562.878906"/>
       <use xlink:href="#DejaVuSans-73" x="602.087891"/>
      </g>
     </g>
    </g>
    <g id="ytick_2">
     <g id="line2d_7">
      <g>
       <use xlink:href="#m4bbe329fb0" x="141.12" y="118.296" style="stroke: #000000; stroke-width: 0.8"/>
      </g>
     </g>
     <g id="text_8">
      <!-- Font Awesome -->
      <g transform="translate(61.1825 122.095219) scale(0.1 -0.1)">
       <defs>
        <path id="DejaVuSans-41" d="M 2188 4044 
L 1331 1722 
L 3047 1722 
L 2188 4044 
z
M 1831 4666 
L 2547 4666 
L 4325 0 
L 3669 0 
L 3244 1197 
L 1141 1197 
L 716 0 
L 50 0 
L 1831 4666 
z
" transform="scale(0.015625)"/>
        <path id="DejaVuSans-77" d="M 269 3500 
L 844 3500 
L 1563 769 
L 2278 3500 
L 2956 3500 
L 3675 769 
L 4391 3500 
L 4966 3500 
L 4050 0 
L 3372 0 
L 2619 2869 
L 1863 0 
L 1184 0 
L 269 3500 
z
" transform="scale(0.015625)"/>
        <path id="DejaVuSans-6d" d="M 3328 2828 
Q 3544 3216 3844 3400 
Q 4144 3584 4550 3584 
Q 5097 3584 5394 3201 
Q 5691 2819 5691 2113 
L 5691 0 
L 5113 0 
L 5113 2094 
Q 5113 2597 4934 2840 
Q 4756 3084 4391 3084 
Q 3944 3084 3684 2787 
Q 3425 2491 3425 1978 
L 3425 0 
L 2847 0 
L 2847 2094 
Q 2847 2600 2669 2842 
Q 2491 3084 2119 3084 
Q 1678 3084 1418 2786 
Q 1159 2488 1159 1978 
L 1159 0 
L 581 0 
L 581 3500 
L 1159 3500 
L 1159 2956 
Q 1356 3278 1631 3431 
Q 1906 3584 2284 3584 
Q 2666 3584 2933 3390 
Q 3200 3197 3328 2828 
z
" transform="scale(0.015625)"/>
       </defs>
       <use xlink:href="#DejaVuSans-46"/>
       <use xlink:href="#DejaVuSans-6f" x="53.894531"/>
       <use xlink:href="#DejaVuSans-6e" x="115.076172"/>
       <use xlink:href="#DejaVuSans-74" x="178.455078"/>
       <use xlink:href="#DejaVuSans-20" x="217.664062"/>
       <use xlink:href="#DejaVuSans-41" x="249.451172"/>
       <use xlink:href="#DejaVuSans-77" x="313.859375"/>
       <use xlink:href="#DejaVuSans-65" x="395.646484"/>
       <use xlink:href="#DejaVuSans-73" x="457.169922"/>
       <use xlink:href="#DejaVuSans-6f" x="509.269531"/>
       <use xlink:href="#DejaVuSans-6d" x="570.451172"/>
       <use xlink:href="#DejaVuSans-65" x="667.863281"/>
      </g>
     </g>
    </g>
    <g id="ytick_3">
     <g id="line2d_8">
      <g>
       <use xlink:href="#m4bbe329fb0" x="141.12" y="176.04" style="stroke: #000000; stroke-width: 0.8"/>
      </g>
     </g>
     <g id="text_9">
      <!-- Typekit -->
      <g transform="translate(98.665312 179.839219) scale(0.1 -0.1)">
       <defs>
        <path id="DejaVuSans-54" d="M -19 4666 
L 3928 4666 
L 3928 4134 
L 2272 4134 
L 2272 0 
L 1638 0 
L 1638 4134 
L -19 4134 
L -19 4666 
z
" transform="scale(0.015625)"/>
        <path id="DejaVuSans-79" d="M 2059 -325 
Q 1816 -950 1584 -1140 
Q 1353 -1331 966 -1331 
L 506 -1331 
L 506 -850 
L 844 -850 
Q 1081 -850 1212 -737 
Q 1344 -625 1503 -206 
L 1606 56 
L 191 3500 
L 800 3500 
L 1894 763 
L 2988 3500 
L 3597 3500 
L 2059 -325 
z
" transform="scale(0.015625)"/>
        <path id="DejaVuSans-70" d="M 1159 525 
L 1159 -1331 
L 581 -1331 
L 581 3500 
L 1159 3500 
L 1159 2969 
Q 1341 3281 1617 3432 
Q 1894 3584 2278 3584 
Q 2916 3584 3314 3078 
Q 3713 2572 3713 1747 
Q 3713 922 3314 415 
Q 2916 -91 2278 -91 
Q 1894 -91 1617 61 
Q 1341 213 1159 525 
z
M 3116 1747 
Q 3116 2381 2855 2742 
Q 2594 3103 2138 3103 
Q 1681 3103 1420 2742 
Q 1159 2381 1159 1747 
Q 1159 1113 1420 752 
Q 1681 391 2138 391 
Q 2594 391 2855 752 
Q 3116 1113 3116 1747 
z
" transform="scale(0.015625)"/>
        <path id="DejaVuSans-6b" d="M 581 4863 
L 1159 4863 
L 1159 1991 
L 2875 3500 
L 3609 3500 
L 1753 1863 
L 3688 0 
L 2938 0 
L 1159 1709 
L 1159 0 
L 581 0 
L 581 4863 
z
" transform="scale(0.015625)"/>
        <path id="DejaVuSans-69" d="M 603 3500 
L 1178 3500 
L 1178 0 
L 603 0 
L 603 3500 
z
M 603 4863 
L 1178 4863 
L 1178 4134 
L 603 4134 
L 603 4863 
z
" transform="scale(0.015625)"/>
       </defs>
       <use xlink:href="#DejaVuSans-54"/>
       <use xlink:href="#DejaVuSans-79" x="45.458984"/>
       <use xlink:href="#DejaVuSans-70" x="104.638672"/>
       <use xlink:href="#DejaVuSans-65" x="168.115234"/>
       <use xlink:href="#DejaVuSans-6b" x="229.638672"/>
       <use xlink:href="#DejaVuSans-69" x="287.548828"/>
       <use xlink:href="#DejaVuSans-74" x="315.332031"/>
      </g>
     </g>
    </g>
    <g id="ytick_4">
     <g id="line2d_9">
      <g>
       <use xlink:href="#m4bbe329fb0" x="141.12" y="233.784" style="stroke: #000000; stroke-width: 0.8"/>
      </g>
     </g>
     <g id="text_10">
      <!-- InVision -->
      <g transform="translate(94.995 237.583219) scale(0.1 -0.1)">
       <defs>
        <path id="DejaVuSans-49" d="M 628 4666 
L 1259 4666 
L 1259 0 
L 628 0 
L 628 4666 
z
" transform="scale(0.015625)"/>
        <path id="DejaVuSans-56" d="M 1831 0 
L 50 4666 
L 709 4666 
L 2188 738 
L 3669 4666 
L 4325 4666 
L 2547 0 
L 1831 0 
z
" transform="scale(0.015625)"/>
       </defs>
       <use xlink:href="#DejaVuSans-49"/>
       <use xlink:href="#DejaVuSans-6e" x="29.492188"/>
       <use xlink:href="#DejaVuSans-56" x="92.871094"/>
       <use xlink:href="#DejaVuSans-69" x="159.029297"/>
       <use xlink:href="#DejaVuSans-73" x="186.8125"/>
       <use xlink:href="#DejaVuSans-69" x="238.912109"/>
       <use xlink:href="#DejaVuSans-6f" x="266.695312"/>
       <use xlink:href="#DejaVuSans-6e" x="327.876953"/>
      </g>
     </g>
    </g>
    <g id="ytick_5">
     <g id="line2d_10">
      <g>
       <use xlink:href="#m4bbe329fb0" x="141.12" y="291.528" style="stroke: #000000; stroke-width: 0.8"/>
      </g>
     </g>
     <g id="text_11">
      <!-- Frontify -->
      <g transform="translate(96.78875 295.327219) scale(0.1 -0.1)">
       <defs>
        <path id="DejaVuSans-72" d="M 2631 2963 
Q 2534 3019 2420 3045 
Q 2306 3072 2169 3072 
Q 1681 3072 1420 2755 
Q 1159 2438 1159 1844 
L 1159 0 
L 581 0 
L 581 3500 
L 1159 3500 
L 1159 2956 
Q 1341 3275 1631 3429 
Q 1922 3584 2338 3584 
Q 2397 3584 2469 3576 
Q 2541 3569 2628 3553 
L 2631 2963 
z
" transform="scale(0.015625)"/>
        <path id="DejaVuSans-66" d="M 2375 4863 
L 2375 4384 
L 1825 4384 
Q 1516 4384 1395 4259 
Q 1275 4134 1275 3809 
L 1275 3500 
L 2222 3500 
L 2222 3053 
L 1275 3053 
L 1275 0 
L 697 0 
L 697 3053 
L 147 3053 
L 147 3500 
L 697 3500 
L 697 3744 
Q 697 4328 969 4595 
Q 1241 4863 1831 4863 
L 2375 4863 
z
" transform="scale(0.015625)"/>
       </defs>
       <use xlink:href="#DejaVuSans-46"/>
       <use xlink:href="#DejaVuSans-72" x="50.269531"/>
       <use xlink:href="#DejaVuSans-6f" x="89.132812"/>
       <use xlink:href="#DejaVuSans-6e" x="150.314453"/>
       <use xlink:href="#DejaVuSans-74" x="213.693359"/>
       <use xlink:href="#DejaVuSans-69" x="252.902344"/>
       <use xlink:href="#DejaVuSans-66" x="280.685547"/>
       <use xlink:href="#DejaVuSans-79" x="314.140625"/>
      </g>
     </g>
    </g>
    <g id="text_12">
     <!-- name -->
     <g transform="translate(55.102813 190.219687) rotate(-90) scale(0.1 -0.1)">
      <defs>
       <path id="DejaVuSans-61" d="M 2194 1759 
Q 1497 1759 1228 1600 
Q 959 1441 959 1056 
Q 959 750 1161 570 
Q 1363 391 1709 391 
Q 2188 391 2477 730 
Q 2766 1069 2766 1631 
L 2766 1759 
L 2194 1759 
z
M 3341 1997 
L 3341 0 
L 2766 0 
L 2766 531 
Q 2569 213 2275 61 
Q 1981 -91 1556 -91 
Q 1019 -91 701 211 
Q 384 513 384 1019 
Q 384 1609 779 1909 
Q 1175 2209 1959 2209 
L 2766 2209 
L 2766 2266 
Q 2766 2663 2505 2880 
Q 2244 3097 1772 3097 
Q 1472 3097 1187 3025 
Q 903 2953 641 2809 
L 641 3341 
Q 956 3463 1253 3523 
Q 1550 3584 1831 3584 
Q 2591 3584 2966 3190 
Q 3341 2797 3341 1997 
z
" transform="scale(0.015625)"/>
      </defs>
      <use xlink:href="#DejaVuSans-6e"/>
      <use xlink:href="#DejaVuSans-61" x="63.378906"/>
      <use xlink:href="#DejaVuSans-6d" x="124.658203"/>
      <use xlink:href="#DejaVuSans-65" x="222.070312"/>
     </g>
    </g>
   </g>
   <g id="patch_18">
    <path d="M 141.12 320.4 
L 141.12 31.68 
" style="fill: none; stroke: #000000; stroke-width: 0.8; stroke-linejoin: miter; stroke-linecap: square"/>
   </g>
   <g id="patch_19">
    <path d="M 141.12 320.4 
L 453.6 320.4 
" style="fill: none; stroke: #000000; stroke-width: 0.8; stroke-linejoin: miter; stroke-linecap: square"/>
   </g>
   <g id="text_13">
    <!-- Top Design -->
    <g transform="translate(255.617031 25.68) scale(0.14 -0.14)">
     <defs>
      <path id="LibreBaskerville-Regular-54" d="M 5030 3706 
L 4768 3706 
Q 4749 3981 4678 4166 
Q 4608 4352 4477 4457 
Q 4346 4563 4147 4608 
Q 3949 4653 3674 4653 
Q 3437 4653 3293 4643 
Q 3149 4634 3072 4608 
Q 2995 4582 2972 4547 
Q 2950 4512 2950 4454 
L 2950 1030 
Q 2950 826 2979 678 
Q 3008 531 3094 438 
Q 3181 346 3344 298 
Q 3507 250 3776 243 
L 3776 0 
L 1357 0 
L 1357 243 
Q 1626 250 1792 298 
Q 1958 346 2044 438 
Q 2131 531 2160 678 
Q 2189 826 2189 1030 
L 2189 4454 
Q 2189 4512 2166 4547 
Q 2144 4582 2077 4608 
Q 2010 4634 1888 4643 
Q 1766 4653 1562 4653 
Q 1312 4653 1097 4633 
Q 883 4614 726 4521 
Q 570 4429 474 4237 
Q 378 4045 371 3706 
L 134 3706 
L 134 4928 
L 4966 4928 
L 5030 3706 
z
" transform="scale(0.015625)"/>
      <path id="LibreBaskerville-Regular-6f" d="M 2080 3456 
Q 2445 3456 2771 3325 
Q 3098 3194 3344 2963 
Q 3590 2733 3734 2416 
Q 3878 2099 3878 1722 
Q 3878 1331 3734 1004 
Q 3590 678 3344 441 
Q 3098 205 2771 70 
Q 2445 -64 2080 -64 
Q 1722 -64 1398 67 
Q 1075 198 832 435 
Q 589 672 448 1001 
Q 307 1331 307 1722 
Q 307 2099 448 2419 
Q 589 2739 832 2969 
Q 1075 3200 1398 3328 
Q 1722 3456 2080 3456 
z
M 2080 3149 
Q 1843 3149 1648 3046 
Q 1453 2944 1315 2755 
Q 1178 2566 1104 2300 
Q 1030 2035 1030 1715 
Q 1030 1382 1104 1113 
Q 1178 845 1315 656 
Q 1453 467 1645 364 
Q 1837 262 2080 262 
Q 2323 262 2521 364 
Q 2720 467 2861 659 
Q 3002 851 3078 1120 
Q 3155 1389 3155 1715 
Q 3155 2035 3078 2297 
Q 3002 2560 2861 2749 
Q 2720 2938 2521 3043 
Q 2323 3149 2080 3149 
z
" transform="scale(0.015625)"/>
      <path id="LibreBaskerville-Regular-70" d="M 1344 2931 
L 1370 2931 
Q 1574 3174 1811 3315 
Q 2048 3456 2362 3456 
Q 2726 3456 3030 3325 
Q 3334 3194 3558 2957 
Q 3782 2720 3907 2397 
Q 4032 2074 4032 1690 
Q 4032 1299 3904 976 
Q 3776 653 3552 422 
Q 3328 192 3021 64 
Q 2714 -64 2355 -64 
Q 2061 -64 1821 35 
Q 1581 134 1370 358 
L 1370 -576 
Q 1370 -832 1395 -985 
Q 1421 -1139 1497 -1222 
Q 1574 -1306 1718 -1338 
Q 1862 -1370 2099 -1376 
L 2099 -1600 
L 128 -1600 
L 128 -1376 
Q 320 -1370 438 -1338 
Q 557 -1306 624 -1222 
Q 691 -1139 716 -995 
Q 742 -851 742 -621 
L 742 1773 
Q 742 2144 732 2381 
Q 723 2618 698 2707 
Q 666 2861 550 2915 
Q 435 2970 115 2970 
L 115 3187 
L 1344 3430 
L 1344 2931 
z
M 1536 2746 
Q 1453 2618 1411 2442 
Q 1370 2266 1370 1984 
L 1370 1485 
Q 1370 1312 1379 1187 
Q 1389 1062 1408 972 
Q 1427 883 1459 812 
Q 1491 742 1542 678 
Q 1690 474 1894 362 
Q 2099 250 2323 250 
Q 2765 250 3037 621 
Q 3309 992 3309 1664 
Q 3309 1997 3235 2269 
Q 3162 2541 3027 2736 
Q 2893 2931 2704 3040 
Q 2515 3149 2285 3149 
Q 2054 3149 1859 3043 
Q 1664 2938 1536 2746 
z
" transform="scale(0.015625)"/>
      <path id="LibreBaskerville-Regular-20" transform="scale(0.015625)"/>
      <path id="LibreBaskerville-Regular-44" d="M 243 0 
L 243 243 
Q 486 250 636 278 
Q 787 307 870 387 
Q 954 467 982 604 
Q 1011 742 1011 973 
L 1011 3955 
Q 1011 4179 988 4316 
Q 966 4454 899 4534 
Q 832 4614 704 4643 
Q 576 4672 371 4685 
L 371 4928 
L 2618 4928 
Q 3194 4928 3683 4736 
Q 4173 4544 4528 4205 
Q 4883 3866 5081 3398 
Q 5280 2931 5280 2381 
Q 5280 1856 5094 1417 
Q 4909 979 4573 665 
Q 4237 352 3769 176 
Q 3302 0 2746 0 
L 243 0 
z
M 1792 4614 
Q 1683 4614 1683 4506 
L 1683 1043 
Q 1683 314 2637 314 
Q 3514 314 3981 835 
Q 4448 1357 4448 2368 
Q 4448 2899 4320 3315 
Q 4192 3731 3952 4019 
Q 3712 4307 3373 4460 
Q 3034 4614 2605 4614 
L 1792 4614 
z
" transform="scale(0.015625)"/>
      <path id="LibreBaskerville-Regular-65" d="M 3341 595 
Q 2797 -64 1990 -64 
Q 1613 -64 1305 61 
Q 998 186 777 413 
Q 557 640 435 957 
Q 314 1274 314 1658 
Q 314 2048 442 2381 
Q 570 2714 803 2950 
Q 1037 3187 1360 3321 
Q 1683 3456 2067 3456 
Q 2688 3456 3027 3120 
Q 3366 2784 3366 2157 
Q 3366 2067 3331 2048 
Q 3296 2029 3168 2029 
L 1062 2029 
Q 1050 1978 1043 1904 
Q 1037 1830 1037 1741 
Q 1037 1408 1117 1136 
Q 1197 864 1347 672 
Q 1498 480 1706 374 
Q 1914 269 2170 269 
Q 2438 269 2668 387 
Q 2899 506 3142 774 
L 3341 595 
z
M 2285 2323 
Q 2413 2323 2489 2329 
Q 2566 2336 2604 2355 
Q 2643 2374 2656 2409 
Q 2669 2445 2669 2502 
Q 2669 2797 2480 2973 
Q 2291 3149 1965 3149 
Q 1274 3149 1107 2323 
L 2285 2323 
z
" transform="scale(0.015625)"/>
      <path id="LibreBaskerville-Regular-73" d="M 550 0 
L 410 0 
L 410 1101 
L 570 1101 
Q 819 198 1478 198 
Q 1734 198 1884 323 
Q 2035 448 2035 704 
Q 2035 800 2006 867 
Q 1978 934 1898 1008 
Q 1818 1082 1674 1178 
Q 1530 1274 1293 1421 
Q 1075 1555 915 1670 
Q 755 1786 646 1904 
Q 538 2022 483 2156 
Q 429 2291 429 2470 
Q 429 2688 502 2870 
Q 576 3053 704 3181 
Q 832 3309 1005 3382 
Q 1178 3456 1382 3456 
Q 1555 3456 1740 3401 
Q 1926 3347 2067 3258 
L 2195 3392 
L 2317 3392 
L 2317 2470 
L 2150 2470 
Q 2010 2861 1843 3027 
Q 1677 3194 1434 3194 
Q 1216 3194 1085 3078 
Q 954 2963 954 2758 
Q 954 2650 989 2570 
Q 1024 2490 1101 2413 
Q 1178 2336 1296 2256 
Q 1414 2176 1581 2074 
Q 1856 1901 2051 1766 
Q 2246 1632 2368 1501 
Q 2490 1370 2547 1229 
Q 2605 1088 2605 909 
Q 2605 454 2310 195 
Q 2016 -64 1536 -64 
Q 1037 -64 678 224 
L 550 0 
z
" transform="scale(0.015625)"/>
      <path id="LibreBaskerville-Regular-69" d="M 1459 1018 
Q 1459 768 1481 617 
Q 1504 467 1568 380 
Q 1632 294 1747 262 
Q 1862 230 2054 224 
L 2054 0 
L 218 0 
L 218 224 
Q 410 230 531 265 
Q 653 301 720 381 
Q 787 461 809 605 
Q 832 749 832 973 
L 832 1792 
Q 832 2163 822 2403 
Q 813 2643 787 2733 
Q 755 2880 640 2934 
Q 525 2989 205 2989 
L 205 3213 
L 1459 3456 
L 1459 1018 
z
M 723 4755 
Q 723 4922 838 5037 
Q 954 5152 1120 5152 
Q 1286 5152 1401 5037 
Q 1517 4922 1517 4755 
Q 1517 4589 1401 4473 
Q 1286 4358 1120 4358 
Q 954 4358 838 4473 
Q 723 4589 723 4755 
z
" transform="scale(0.015625)"/>
      <path id="LibreBaskerville-Regular-67" d="M 1754 1376 
Q 2022 1376 2172 1619 
Q 2323 1862 2323 2304 
Q 2323 2739 2172 2979 
Q 2022 3219 1747 3219 
Q 1472 3219 1309 2976 
Q 1146 2733 1146 2310 
Q 1146 1888 1312 1632 
Q 1478 1376 1754 1376 
z
M 1402 627 
Q 1555 614 1683 601 
Q 1811 589 1936 576 
Q 2061 563 2185 544 
Q 2310 525 2458 506 
Q 2918 435 3196 150 
Q 3475 -134 3475 -563 
Q 3475 -1101 3049 -1382 
Q 2624 -1664 1818 -1664 
Q 1459 -1664 1161 -1600 
Q 864 -1536 653 -1417 
Q 442 -1299 323 -1132 
Q 205 -966 205 -768 
Q 205 -634 249 -518 
Q 294 -403 371 -316 
Q 448 -230 553 -179 
Q 659 -128 774 -128 
Q 992 -128 1165 -262 
Q 992 -301 883 -451 
Q 774 -602 774 -794 
Q 774 -1075 1052 -1228 
Q 1331 -1382 1843 -1382 
Q 2938 -1382 2938 -710 
Q 2938 -454 2765 -284 
Q 2592 -115 2355 -83 
Q 2202 -64 2038 -41 
Q 1875 -19 1718 0 
Q 1562 19 1427 32 
Q 1293 45 1210 58 
Q 851 96 665 249 
Q 480 403 480 672 
Q 480 896 665 1069 
Q 851 1242 1133 1286 
L 1133 1312 
Q 992 1370 870 1475 
Q 749 1581 662 1715 
Q 576 1850 525 2006 
Q 474 2163 474 2330 
Q 474 2573 566 2777 
Q 659 2982 828 3132 
Q 998 3283 1228 3369 
Q 1459 3456 1734 3456 
Q 2016 3456 2265 3369 
Q 2515 3283 2694 3117 
Q 2912 3296 3078 3376 
Q 3245 3456 3392 3456 
Q 3622 3456 3760 3350 
Q 3898 3245 3898 3066 
Q 3898 2957 3824 2893 
Q 3750 2829 3642 2829 
Q 3552 2829 3494 2861 
Q 3437 2893 3389 2928 
Q 3341 2963 3289 2995 
Q 3238 3027 3162 3027 
Q 3008 3027 2848 2918 
Q 3002 2682 3002 2323 
Q 3002 1779 2662 1468 
Q 2323 1158 1645 1107 
Q 1254 1075 1100 1024 
Q 947 973 947 838 
Q 947 736 1062 688 
Q 1178 640 1402 627 
z
" transform="scale(0.015625)"/>
      <path id="LibreBaskerville-Regular-6e" d="M 1382 1005 
Q 1382 742 1395 592 
Q 1408 442 1462 362 
Q 1517 282 1622 256 
Q 1728 230 1914 218 
L 1914 0 
L 237 0 
L 237 218 
Q 416 230 521 256 
Q 627 282 684 358 
Q 742 435 758 576 
Q 774 717 774 960 
L 774 1811 
Q 774 2573 736 2739 
Q 717 2822 688 2876 
Q 659 2931 601 2960 
Q 544 2989 454 2998 
Q 365 3008 224 3008 
L 224 3213 
L 1248 3456 
L 1325 2822 
L 1350 2822 
Q 1594 3123 1920 3289 
Q 2246 3456 2630 3456 
Q 2925 3456 3168 3360 
Q 3411 3264 3539 3098 
Q 3648 2950 3693 2716 
Q 3738 2483 3738 2074 
L 3738 1005 
Q 3738 742 3754 592 
Q 3770 442 3821 362 
Q 3872 282 3977 256 
Q 4083 230 4256 218 
L 4256 0 
L 2598 0 
L 2598 218 
Q 2778 224 2883 253 
Q 2989 282 3043 358 
Q 3098 435 3114 579 
Q 3130 723 3130 960 
L 3130 1805 
Q 3130 2170 3091 2419 
Q 3053 2669 2966 2822 
Q 2880 2976 2739 3043 
Q 2598 3110 2400 3110 
Q 2112 3110 1872 2960 
Q 1632 2810 1498 2547 
Q 1466 2483 1443 2425 
Q 1421 2368 1408 2291 
Q 1395 2214 1388 2115 
Q 1382 2016 1382 1862 
L 1382 1005 
z
" transform="scale(0.015625)"/>
     </defs>
     <use xlink:href="#LibreBaskerville-Regular-54"/>
     <use xlink:href="#LibreBaskerville-Regular-6f" x="80.299988"/>
     <use xlink:href="#LibreBaskerville-Regular-70" x="145.699982"/>
     <use xlink:href="#LibreBaskerville-Regular-20" x="213.599976"/>
     <use xlink:href="#LibreBaskerville-Regular-44" x="242.299973"/>
     <use xlink:href="#LibreBaskerville-Regular-65" x="330.699966"/>
     <use xlink:href="#LibreBaskerville-Regular-73" x="387.999954"/>
     <use xlink:href="#LibreBaskerville-Regular-69" x="433.399948"/>
     <use xlink:href="#LibreBaskerville-Regular-67" x="467.499939"/>
     <use xlink:href="#LibreBaskerville-Regular-6e" x="527.399933"/>
    </g>
   </g>
   <g id="legend_1">
    <g id="patch_20">
     <path d="M 313.934375 315.4 
L 446.6 315.4 
Q 448.6 315.4 448.6 313.4 
L 448.6 255.409375 
Q 448.6 253.409375 446.6 253.409375 
L 313.934375 253.409375 
Q 311.934375 253.409375 311.934375 255.409375 
L 311.934375 313.4 
Q 311.934375 315.4 313.934375 315.4 
z
" style="fill: #ffffff; opacity: 0.8; stroke: #cccccc; stroke-linejoin: miter"/>
    </g>
    <g id="text_14">
     <!-- tool_function -->
     <g transform="translate(347.875 265.007812) scale(0.1 -0.1)">
      <defs>
       <path id="DejaVuSans-5f" d="M 3263 -1063 
L 3263 -1509 
L -63 -1509 
L -63 -1063 
L 3263 -1063 
z
" transform="scale(0.015625)"/>
      </defs>
      <use xlink:href="#DejaVuSans-74"/>
      <use xlink:href="#DejaVuSans-6f" x="39.208984"/>
      <use xlink:href="#DejaVuSans-6f" x="100.390625"/>
      <use xlink:href="#DejaVuSans-6c" x="161.572266"/>
      <use xlink:href="#DejaVuSans-5f" x="189.355469"/>
      <use xlink:href="#DejaVuSans-66" x="239.355469"/>
      <use xlink:href="#DejaVuSans-75" x="274.560547"/>
      <use xlink:href="#DejaVuSans-6e" x="337.939453"/>
      <use xlink:href="#DejaVuSans-63" x="401.318359"/>
      <use xlink:href="#DejaVuSans-74" x="456.298828"/>
      <use xlink:href="#DejaVuSans-69" x="495.507812"/>
      <use xlink:href="#DejaVuSans-6f" x="523.291016"/>
      <use xlink:href="#DejaVuSans-6e" x="584.472656"/>
     </g>
    </g>
    <g id="patch_21">
     <path d="M 315.934375 279.964063 
L 335.934375 279.964063 
L 335.934375 272.964063 
L 315.934375 272.964063 
z
" style="fill: #176d9c"/>
    </g>
    <g id="text_15">
     <!-- Fonts -->
     <g transform="translate(343.934375 279.964063) scale(0.1 -0.1)">
      <use xlink:href="#DejaVuSans-46"/>
      <use xlink:href="#DejaVuSans-6f" x="53.894531"/>
      <use xlink:href="#DejaVuSans-6e" x="115.076172"/>
      <use xlink:href="#DejaVuSans-74" x="178.455078"/>
      <use xlink:href="#DejaVuSans-73" x="217.664062"/>
     </g>
    </g>
    <g id="patch_22">
     <path d="M 315.934375 294.642187 
L 335.934375 294.642187 
L 335.934375 287.642187 
L 315.934375 287.642187 
z
" style="fill: #c38820"/>
    </g>
    <g id="text_16">
     <!-- Interactive Mockups -->
     <g transform="translate(343.934375 294.642187) scale(0.1 -0.1)">
      <defs>
       <path id="DejaVuSans-76" d="M 191 3500 
L 800 3500 
L 1894 563 
L 2988 3500 
L 3597 3500 
L 2284 0 
L 1503 0 
L 191 3500 
z
" transform="scale(0.015625)"/>
       <path id="DejaVuSans-4d" d="M 628 4666 
L 1569 4666 
L 2759 1491 
L 3956 4666 
L 4897 4666 
L 4897 0 
L 4281 0 
L 4281 4097 
L 3078 897 
L 2444 897 
L 1241 4097 
L 1241 0 
L 628 0 
L 628 4666 
z
" transform="scale(0.015625)"/>
      </defs>
      <use xlink:href="#DejaVuSans-49"/>
      <use xlink:href="#DejaVuSans-6e" x="29.492188"/>
      <use xlink:href="#DejaVuSans-74" x="92.871094"/>
      <use xlink:href="#DejaVuSans-65" x="132.080078"/>
      <use xlink:href="#DejaVuSans-72" x="193.603516"/>
      <use xlink:href="#DejaVuSans-61" x="234.716797"/>
      <use xlink:href="#DejaVuSans-63" x="295.996094"/>
      <use xlink:href="#DejaVuSans-74" x="350.976562"/>
      <use xlink:href="#DejaVuSans-69" x="390.185547"/>
      <use xlink:href="#DejaVuSans-76" x="417.96875"/>
      <use xlink:href="#DejaVuSans-65" x="477.148438"/>
      <use xlink:href="#DejaVuSans-20" x="538.671875"/>
      <use xlink:href="#DejaVuSans-4d" x="570.458984"/>
      <use xlink:href="#DejaVuSans-6f" x="656.738281"/>
      <use xlink:href="#DejaVuSans-63" x="717.919922"/>
      <use xlink:href="#DejaVuSans-6b" x="772.900391"/>
      <use xlink:href="#DejaVuSans-75" x="827.685547"/>
      <use xlink:href="#DejaVuSans-70" x="891.064453"/>
      <use xlink:href="#DejaVuSans-73" x="954.541016"/>
     </g>
    </g>
    <g id="patch_23">
     <path d="M 315.934375 309.320312 
L 335.934375 309.320312 
L 335.934375 302.320312 
L 315.934375 302.320312 
z
" style="fill: #158b6a"/>
    </g>
    <g id="text_17">
     <!-- Graphic Design -->
     <g transform="translate(343.934375 309.320312) scale(0.1 -0.1)">
      <defs>
       <path id="DejaVuSans-68" d="M 3513 2113 
L 3513 0 
L 2938 0 
L 2938 2094 
Q 2938 2591 2744 2837 
Q 2550 3084 2163 3084 
Q 1697 3084 1428 2787 
Q 1159 2491 1159 1978 
L 1159 0 
L 581 0 
L 581 4863 
L 1159 4863 
L 1159 2956 
Q 1366 3272 1645 3428 
Q 1925 3584 2291 3584 
Q 2894 3584 3203 3211 
Q 3513 2838 3513 2113 
z
" transform="scale(0.015625)"/>
       <path id="DejaVuSans-44" d="M 1259 4147 
L 1259 519 
L 2022 519 
Q 2988 519 3436 956 
Q 3884 1394 3884 2338 
Q 3884 3275 3436 3711 
Q 2988 4147 2022 4147 
L 1259 4147 
z
M 628 4666 
L 1925 4666 
Q 3281 4666 3915 4102 
Q 4550 3538 4550 2338 
Q 4550 1131 3912 565 
Q 3275 0 1925 0 
L 628 0 
L 628 4666 
z
" transform="scale(0.015625)"/>
      </defs>
      <use xlink:href="#DejaVuSans-47"/>
      <use xlink:href="#DejaVuSans-72" x="77.490234"/>
      <use xlink:href="#DejaVuSans-61" x="118.603516"/>
      <use xlink:href="#DejaVuSans-70" x="179.882812"/>
      <use xlink:href="#DejaVuSans-68" x="243.359375"/>
      <use xlink:href="#DejaVuSans-69" x="306.738281"/>
      <use xlink:href="#DejaVuSans-63" x="334.521484"/>
      <use xlink:href="#DejaVuSans-20" x="389.501953"/>
      <use xlink:href="#DejaVuSans-44" x="421.289062"/>
      <use xlink:href="#DejaVuSans-65" x="498.291016"/>
      <use xlink:href="#DejaVuSans-73" x="559.814453"/>
      <use xlink:href="#DejaVuSans-69" x="611.914062"/>
      <use xlink:href="#DejaVuSans-67" x="639.697266"/>
      <use xlink:href="#DejaVuSans-6e" x="703.173828"/>
     </g>
    </g>
   </g>
  </g>
 </g>
 <defs>
  <clipPath id="pc8ea41ae78">
   <rect x="141.12" y="31.68" width="312.48" height="288.72"/>
  </clipPath>
 </defs>
</svg>
