<?xml version="1.0" encoding="utf-8" standalone="no"?>
<!DOCTYPE svg PUBLIC "-//W3C//DTD SVG 1.1//EN"
  "http://www.w3.org/Graphics/SVG/1.1/DTD/svg11.dtd">
<svg xmlns:xlink="http://www.w3.org/1999/xlink" width="504pt" height="360pt" viewBox="0 0 504 360" xmlns="http://www.w3.org/2000/svg" version="1.1">
 <metadata>
  <rdf:RDF xmlns:dc="http://purl.org/dc/elements/1.1/" xmlns:cc="http://creativecommons.org/ns#" xmlns:rdf="http://www.w3.org/1999/02/22-rdf-syntax-ns#">
   <cc:Work>
    <dc:type rdf:resource="http://purl.org/dc/dcmitype/StillImage"/>
    <dc:date>2023-03-01T13:46:23.413953</dc:date>
    <dc:format>image/svg+xml</dc:format>
    <dc:creator>
     <cc:Agent>
      <dc:title>Matplotlib v3.7.0, https://matplotlib.org/</dc:title>
     </cc:Agent>
    </dc:creator>
   </cc:Work>
  </rdf:RDF>
 </metadata>
 <defs>
  <style type="text/css">*{stroke-linejoin: round; stroke-linecap: butt}</style>
 </defs>
 <g id="figure_1">
  <g id="patch_1">
   <path d="M 0 360 
L 504 360 
L 504 0 
L 0 0 
z
" style="fill: #ffffff"/>
  </g>
  <g id="axes_1">
   <g id="patch_2">
    <path d="M 141.12 320.4 
L 453.6 320.4 
L 453.6 31.68 
L 141.12 31.68 
z
" style="fill: #ffffff"/>
   </g>
   <g id="patch_3">
    <path d="M 141.12 33.1236 
L 438.72 33.1236 
L 438.72 44.6724 
L 141.12 44.6724 
z
" clip-path="url(#pa0ec3dd94a)" style="fill: #176d9c"/>
   </g>
   <g id="patch_4">
    <path d="M 141.12 47.5596 
L 268.096 47.5596 
L 268.096 59.1084 
L 141.12 59.1084 
z
" clip-path="url(#pa0ec3dd94a)" style="fill: #176d9c"/>
   </g>
   <g id="patch_5">
    <path d="M 141.12 61.9956 
L 141.12 61.9956 
L 141.12 73.5444 
L 141.12 73.5444 
z
" clip-path="url(#pa0ec3dd94a)" style="fill: #176d9c"/>
   </g>
   <g id="patch_6">
    <path d="M 141.12 76.4316 
L 208.576 76.4316 
L 208.576 87.9804 
L 141.12 87.9804 
z
" clip-path="url(#pa0ec3dd94a)" style="fill: #176d9c"/>
   </g>
   <g id="patch_7">
    <path d="M 141.12 90.8676 
L 141.12 90.8676 
L 141.12 102.4164 
L 141.12 102.4164 
z
" clip-path="url(#pa0ec3dd94a)" style="fill: #176d9c"/>
   </g>
   <g id="patch_8">
    <path d="M 141.12 105.3036 
L 141.12 105.3036 
L 141.12 116.8524 
L 141.12 116.8524 
z
" clip-path="url(#pa0ec3dd94a)" style="fill: #176d9c"/>
   </g>
   <g id="patch_9">
    <path d="M 141.12 119.7396 
L 141.12 119.7396 
L 141.12 131.2884 
L 141.12 131.2884 
z
" clip-path="url(#pa0ec3dd94a)" style="fill: #176d9c"/>
   </g>
   <g id="patch_10">
    <path d="M 141.12 134.1756 
L 172.864 134.1756 
L 172.864 145.7244 
L 141.12 145.7244 
z
" clip-path="url(#pa0ec3dd94a)" style="fill: #176d9c"/>
   </g>
   <g id="patch_11">
    <path d="M 141.12 148.6116 
L 141.12 148.6116 
L 141.12 160.1604 
L 141.12 160.1604 
z
" clip-path="url(#pa0ec3dd94a)" style="fill: #176d9c"/>
   </g>
   <g id="patch_12">
    <path d="M 141.12 163.0476 
L 168.896 163.0476 
L 168.896 174.5964 
L 141.12 174.5964 
z
" clip-path="url(#pa0ec3dd94a)" style="fill: #176d9c"/>
   </g>
   <g id="patch_13">
    <path d="M 141.12 177.4836 
L 141.12 177.4836 
L 141.12 189.0324 
L 141.12 189.0324 
z
" clip-path="url(#pa0ec3dd94a)" style="fill: #176d9c"/>
   </g>
   <g id="patch_14">
    <path d="M 141.12 191.9196 
L 141.12 191.9196 
L 141.12 203.4684 
L 141.12 203.4684 
z
" clip-path="url(#pa0ec3dd94a)" style="fill: #176d9c"/>
   </g>
   <g id="patch_15">
    <path d="M 141.12 206.3556 
L 141.12 206.3556 
L 141.12 217.9044 
L 141.12 217.9044 
z
" clip-path="url(#pa0ec3dd94a)" style="fill: #176d9c"/>
   </g>
   <g id="patch_16">
    <path d="M 141.12 220.7916 
L 156.992 220.7916 
L 156.992 232.3404 
L 141.12 232.3404 
z
" clip-path="url(#pa0ec3dd94a)" style="fill: #176d9c"/>
   </g>
   <g id="patch_17">
    <path d="M 141.12 235.2276 
L 156.992 235.2276 
L 156.992 246.7764 
L 141.12 246.7764 
z
" clip-path="url(#pa0ec3dd94a)" style="fill: #176d9c"/>
   </g>
   <g id="patch_18">
    <path d="M 141.12 249.6636 
L 141.12 249.6636 
L 141.12 261.2124 
L 141.12 261.2124 
z
" clip-path="url(#pa0ec3dd94a)" style="fill: #176d9c"/>
   </g>
   <g id="patch_19">
    <path d="M 141.12 264.0996 
L 149.056 264.0996 
L 149.056 275.6484 
L 141.12 275.6484 
z
" clip-path="url(#pa0ec3dd94a)" style="fill: #176d9c"/>
   </g>
   <g id="patch_20">
    <path d="M 141.12 278.5356 
L 141.12 278.5356 
L 141.12 290.0844 
L 141.12 290.0844 
z
" clip-path="url(#pa0ec3dd94a)" style="fill: #176d9c"/>
   </g>
   <g id="patch_21">
    <path d="M 141.12 292.9716 
L 141.12 292.9716 
L 141.12 304.5204 
L 141.12 304.5204 
z
" clip-path="url(#pa0ec3dd94a)" style="fill: #176d9c"/>
   </g>
   <g id="patch_22">
    <path d="M 141.12 307.4076 
L 141.12 307.4076 
L 141.12 318.9564 
L 141.12 318.9564 
z
" clip-path="url(#pa0ec3dd94a)" style="fill: #176d9c"/>
   </g>
   <g id="patch_23">
    <path d="M 141.12 33.1236 
L 141.12 33.1236 
L 141.12 44.6724 
L 141.12 44.6724 
z
" clip-path="url(#pa0ec3dd94a)" style="fill: #c38820"/>
   </g>
   <g id="patch_24">
    <path d="M 141.12 47.5596 
L 141.12 47.5596 
L 141.12 59.1084 
L 141.12 59.1084 
z
" clip-path="url(#pa0ec3dd94a)" style="fill: #c38820"/>
   </g>
   <g id="patch_25">
    <path d="M 141.12 61.9956 
L 232.384 61.9956 
L 232.384 73.5444 
L 141.12 73.5444 
z
" clip-path="url(#pa0ec3dd94a)" style="fill: #c38820"/>
   </g>
   <g id="patch_26">
    <path d="M 141.12 76.4316 
L 141.12 76.4316 
L 141.12 87.9804 
L 141.12 87.9804 
z
" clip-path="url(#pa0ec3dd94a)" style="fill: #c38820"/>
   </g>
   <g id="patch_27">
    <path d="M 141.12 90.8676 
L 204.608 90.8676 
L 204.608 102.4164 
L 141.12 102.4164 
z
" clip-path="url(#pa0ec3dd94a)" style="fill: #c38820"/>
   </g>
   <g id="patch_28">
    <path d="M 141.12 105.3036 
L 180.8 105.3036 
L 180.8 116.8524 
L 141.12 116.8524 
z
" clip-path="url(#pa0ec3dd94a)" style="fill: #c38820"/>
   </g>
   <g id="patch_29">
    <path d="M 141.12 119.7396 
L 141.12 119.7396 
L 141.12 131.2884 
L 141.12 131.2884 
z
" clip-path="url(#pa0ec3dd94a)" style="fill: #c38820"/>
   </g>
   <g id="patch_30">
    <path d="M 141.12 134.1756 
L 141.12 134.1756 
L 141.12 145.7244 
L 141.12 145.7244 
z
" clip-path="url(#pa0ec3dd94a)" style="fill: #c38820"/>
   </g>
   <g id="patch_31">
    <path d="M 141.12 148.6116 
L 172.864 148.6116 
L 172.864 160.1604 
L 141.12 160.1604 
z
" clip-path="url(#pa0ec3dd94a)" style="fill: #c38820"/>
   </g>
   <g id="patch_32">
    <path d="M 141.12 163.0476 
L 141.12 163.0476 
L 141.12 174.5964 
L 141.12 174.5964 
z
" clip-path="url(#pa0ec3dd94a)" style="fill: #c38820"/>
   </g>
   <g id="patch_33">
    <path d="M 141.12 177.4836 
L 160.96 177.4836 
L 160.96 189.0324 
L 141.12 189.0324 
z
" clip-path="url(#pa0ec3dd94a)" style="fill: #c38820"/>
   </g>
   <g id="patch_34">
    <path d="M 141.12 191.9196 
L 141.12 191.9196 
L 141.12 203.4684 
L 141.12 203.4684 
z
" clip-path="url(#pa0ec3dd94a)" style="fill: #c38820"/>
   </g>
   <g id="patch_35">
    <path d="M 141.12 206.3556 
L 156.992 206.3556 
L 156.992 217.9044 
L 141.12 217.9044 
z
" clip-path="url(#pa0ec3dd94a)" style="fill: #c38820"/>
   </g>
   <g id="patch_36">
    <path d="M 141.12 220.7916 
L 141.12 220.7916 
L 141.12 232.3404 
L 141.12 232.3404 
z
" clip-path="url(#pa0ec3dd94a)" style="fill: #c38820"/>
   </g>
   <g id="patch_37">
    <path d="M 141.12 235.2276 
L 141.12 235.2276 
L 141.12 246.7764 
L 141.12 246.7764 
z
" clip-path="url(#pa0ec3dd94a)" style="fill: #c38820"/>
   </g>
   <g id="patch_38">
    <path d="M 141.12 249.6636 
L 153.024 249.6636 
L 153.024 261.2124 
L 141.12 261.2124 
z
" clip-path="url(#pa0ec3dd94a)" style="fill: #c38820"/>
   </g>
   <g id="patch_39">
    <path d="M 141.12 264.0996 
L 141.12 264.0996 
L 141.12 275.6484 
L 141.12 275.6484 
z
" clip-path="url(#pa0ec3dd94a)" style="fill: #c38820"/>
   </g>
   <g id="patch_40">
    <path d="M 141.12 278.5356 
L 141.12 278.5356 
L 141.12 290.0844 
L 141.12 290.0844 
z
" clip-path="url(#pa0ec3dd94a)" style="fill: #c38820"/>
   </g>
   <g id="patch_41">
    <path d="M 141.12 292.9716 
L 149.056 292.9716 
L 149.056 304.5204 
L 141.12 304.5204 
z
" clip-path="url(#pa0ec3dd94a)" style="fill: #c38820"/>
   </g>
   <g id="patch_42">
    <path d="M 141.12 307.4076 
L 149.056 307.4076 
L 149.056 318.9564 
L 141.12 318.9564 
z
" clip-path="url(#pa0ec3dd94a)" style="fill: #c38820"/>
   </g>
   <g id="patch_43">
    <path d="M 141.12 33.1236 
L 141.12 33.1236 
L 141.12 44.6724 
L 141.12 44.6724 
z
" clip-path="url(#pa0ec3dd94a)" style="fill: #158b6a"/>
   </g>
   <g id="patch_44">
    <path d="M 141.12 47.5596 
L 141.12 47.5596 
L 141.12 59.1084 
L 141.12 59.1084 
z
" clip-path="url(#pa0ec3dd94a)" style="fill: #158b6a"/>
   </g>
   <g id="patch_45">
    <path d="M 141.12 61.9956 
L 141.12 61.9956 
L 141.12 73.5444 
L 141.12 73.5444 
z
" clip-path="url(#pa0ec3dd94a)" style="fill: #158b6a"/>
   </g>
   <g id="patch_46">
    <path d="M 141.12 76.4316 
L 141.12 76.4316 
L 141.12 87.9804 
L 141.12 87.9804 
z
" clip-path="url(#pa0ec3dd94a)" style="fill: #158b6a"/>
   </g>
   <g id="patch_47">
    <path d="M 141.12 90.8676 
L 141.12 90.8676 
L 141.12 102.4164 
L 141.12 102.4164 
z
" clip-path="url(#pa0ec3dd94a)" style="fill: #158b6a"/>
   </g>
   <g id="patch_48">
    <path d="M 141.12 105.3036 
L 141.12 105.3036 
L 141.12 116.8524 
L 141.12 116.8524 
z
" clip-path="url(#pa0ec3dd94a)" style="fill: #158b6a"/>
   </g>
   <g id="patch_49">
    <path d="M 141.12 119.7396 
L 141.12 119.7396 
L 141.12 131.2884 
L 141.12 131.2884 
z
" clip-path="url(#pa0ec3dd94a)" style="fill: #158b6a"/>
   </g>
   <g id="patch_50">
    <path d="M 141.12 134.1756 
L 141.12 134.1756 
L 141.12 145.7244 
L 141.12 145.7244 
z
" clip-path="url(#pa0ec3dd94a)" style="fill: #158b6a"/>
   </g>
   <g id="patch_51">
    <path d="M 141.12 148.6116 
L 141.12 148.6116 
L 141.12 160.1604 
L 141.12 160.1604 
z
" clip-path="url(#pa0ec3dd94a)" style="fill: #158b6a"/>
   </g>
   <g id="patch_52">
    <path d="M 141.12 163.0476 
L 141.12 163.0476 
L 141.12 174.5964 
L 141.12 174.5964 
z
" clip-path="url(#pa0ec3dd94a)" style="fill: #158b6a"/>
   </g>
   <g id="patch_53">
    <path d="M 141.12 177.4836 
L 141.12 177.4836 
L 141.12 189.0324 
L 141.12 189.0324 
z
" clip-path="url(#pa0ec3dd94a)" style="fill: #158b6a"/>
   </g>
   <g id="patch_54">
    <path d="M 141.12 191.9196 
L 141.12 191.9196 
L 141.12 203.4684 
L 141.12 203.4684 
z
" clip-path="url(#pa0ec3dd94a)" style="fill: #158b6a"/>
   </g>
   <g id="patch_55">
    <path d="M 141.12 206.3556 
L 141.12 206.3556 
L 141.12 217.9044 
L 141.12 217.9044 
z
" clip-path="url(#pa0ec3dd94a)" style="fill: #158b6a"/>
   </g>
   <g id="patch_56">
    <path d="M 141.12 220.7916 
L 141.12 220.7916 
L 141.12 232.3404 
L 141.12 232.3404 
z
" clip-path="url(#pa0ec3dd94a)" style="fill: #158b6a"/>
   </g>
   <g id="patch_57">
    <path d="M 141.12 235.2276 
L 141.12 235.2276 
L 141.12 246.7764 
L 141.12 246.7764 
z
" clip-path="url(#pa0ec3dd94a)" style="fill: #158b6a"/>
   </g>
   <g id="patch_58">
    <path d="M 141.12 249.6636 
L 141.12 249.6636 
L 141.12 261.2124 
L 141.12 261.2124 
z
" clip-path="url(#pa0ec3dd94a)" style="fill: #158b6a"/>
   </g>
   <g id="patch_59">
    <path d="M 141.12 264.0996 
L 141.12 264.0996 
L 141.12 275.6484 
L 141.12 275.6484 
z
" clip-path="url(#pa0ec3dd94a)" style="fill: #158b6a"/>
   </g>
   <g id="patch_60">
    <path d="M 141.12 278.5356 
L 141.12 278.5356 
L 141.12 290.0844 
L 141.12 290.0844 
z
" clip-path="url(#pa0ec3dd94a)" style="fill: #158b6a"/>
   </g>
   <g id="patch_61">
    <path d="M 141.12 292.9716 
L 141.12 292.9716 
L 141.12 304.5204 
L 141.12 304.5204 
z
" clip-path="url(#pa0ec3dd94a)" style="fill: #158b6a"/>
   </g>
   <g id="patch_62">
    <path d="M 141.12 307.4076 
L 141.12 307.4076 
L 141.12 318.9564 
L 141.12 318.9564 
z
" clip-path="url(#pa0ec3dd94a)" style="fill: #158b6a"/>
   </g>
   <g id="patch_63">
    <path d="M 141.12 33.1236 
L 141.12 33.1236 
L 141.12 44.6724 
L 141.12 44.6724 
z
" clip-path="url(#pa0ec3dd94a)" style="fill: #ba611b"/>
   </g>
   <g id="patch_64">
    <path d="M 141.12 47.5596 
L 141.12 47.5596 
L 141.12 59.1084 
L 141.12 59.1084 
z
" clip-path="url(#pa0ec3dd94a)" style="fill: #ba611b"/>
   </g>
   <g id="patch_65">
    <path d="M 141.12 61.9956 
L 141.12 61.9956 
L 141.12 73.5444 
L 141.12 73.5444 
z
" clip-path="url(#pa0ec3dd94a)" style="fill: #ba611b"/>
   </g>
   <g id="patch_66">
    <path d="M 141.12 76.4316 
L 141.12 76.4316 
L 141.12 87.9804 
L 141.12 87.9804 
z
" clip-path="url(#pa0ec3dd94a)" style="fill: #ba611b"/>
   </g>
   <g id="patch_67">
    <path d="M 141.12 90.8676 
L 141.12 90.8676 
L 141.12 102.4164 
L 141.12 102.4164 
z
" clip-path="url(#pa0ec3dd94a)" style="fill: #ba611b"/>
   </g>
   <g id="patch_68">
    <path d="M 141.12 105.3036 
L 141.12 105.3036 
L 141.12 116.8524 
L 141.12 116.8524 
z
" clip-path="url(#pa0ec3dd94a)" style="fill: #ba611b"/>
   </g>
   <g id="patch_69">
    <path d="M 141.12 119.7396 
L 180.8 119.7396 
L 180.8 131.2884 
L 141.12 131.2884 
z
" clip-path="url(#pa0ec3dd94a)" style="fill: #ba611b"/>
   </g>
   <g id="patch_70">
    <path d="M 141.12 134.1756 
L 141.12 134.1756 
L 141.12 145.7244 
L 141.12 145.7244 
z
" clip-path="url(#pa0ec3dd94a)" style="fill: #ba611b"/>
   </g>
   <g id="patch_71">
    <path d="M 141.12 148.6116 
L 141.12 148.6116 
L 141.12 160.1604 
L 141.12 160.1604 
z
" clip-path="url(#pa0ec3dd94a)" style="fill: #ba611b"/>
   </g>
   <g id="patch_72">
    <path d="M 141.12 163.0476 
L 141.12 163.0476 
L 141.12 174.5964 
L 141.12 174.5964 
z
" clip-path="url(#pa0ec3dd94a)" style="fill: #ba611b"/>
   </g>
   <g id="patch_73">
    <path d="M 141.12 177.4836 
L 141.12 177.4836 
L 141.12 189.0324 
L 141.12 189.0324 
z
" clip-path="url(#pa0ec3dd94a)" style="fill: #ba611b"/>
   </g>
   <g id="patch_74">
    <path d="M 141.12 191.9196 
L 156.992 191.9196 
L 156.992 203.4684 
L 141.12 203.4684 
z
" clip-path="url(#pa0ec3dd94a)" style="fill: #ba611b"/>
   </g>
   <g id="patch_75">
    <path d="M 141.12 206.3556 
L 141.12 206.3556 
L 141.12 217.9044 
L 141.12 217.9044 
z
" clip-path="url(#pa0ec3dd94a)" style="fill: #ba611b"/>
   </g>
   <g id="patch_76">
    <path d="M 141.12 220.7916 
L 141.12 220.7916 
L 141.12 232.3404 
L 141.12 232.3404 
z
" clip-path="url(#pa0ec3dd94a)" style="fill: #ba611b"/>
   </g>
   <g id="patch_77">
    <path d="M 141.12 235.2276 
L 141.12 235.2276 
L 141.12 246.7764 
L 141.12 246.7764 
z
" clip-path="url(#pa0ec3dd94a)" style="fill: #ba611b"/>
   </g>
   <g id="patch_78">
    <path d="M 141.12 249.6636 
L 141.12 249.6636 
L 141.12 261.2124 
L 141.12 261.2124 
z
" clip-path="url(#pa0ec3dd94a)" style="fill: #ba611b"/>
   </g>
   <g id="patch_79">
    <path d="M 141.12 264.0996 
L 141.12 264.0996 
L 141.12 275.6484 
L 141.12 275.6484 
z
" clip-path="url(#pa0ec3dd94a)" style="fill: #ba611b"/>
   </g>
   <g id="patch_80">
    <path d="M 141.12 278.5356 
L 141.12 278.5356 
L 141.12 290.0844 
L 141.12 290.0844 
z
" clip-path="url(#pa0ec3dd94a)" style="fill: #ba611b"/>
   </g>
   <g id="patch_81">
    <path d="M 141.12 292.9716 
L 141.12 292.9716 
L 141.12 304.5204 
L 141.12 304.5204 
z
" clip-path="url(#pa0ec3dd94a)" style="fill: #ba611b"/>
   </g>
   <g id="patch_82">
    <path d="M 141.12 307.4076 
L 141.12 307.4076 
L 141.12 318.9564 
L 141.12 318.9564 
z
" clip-path="url(#pa0ec3dd94a)" style="fill: #ba611b"/>
   </g>
   <g id="patch_83">
    <path d="M 141.12 33.1236 
L 141.12 33.1236 
L 141.12 44.6724 
L 141.12 44.6724 
z
" clip-path="url(#pa0ec3dd94a)" style="fill: #c282b5"/>
   </g>
   <g id="patch_84">
    <path d="M 141.12 47.5596 
L 141.12 47.5596 
L 141.12 59.1084 
L 141.12 59.1084 
z
" clip-path="url(#pa0ec3dd94a)" style="fill: #c282b5"/>
   </g>
   <g id="patch_85">
    <path d="M 141.12 61.9956 
L 141.12 61.9956 
L 141.12 73.5444 
L 141.12 73.5444 
z
" clip-path="url(#pa0ec3dd94a)" style="fill: #c282b5"/>
   </g>
   <g id="patch_86">
    <path d="M 141.12 76.4316 
L 141.12 76.4316 
L 141.12 87.9804 
L 141.12 87.9804 
z
" clip-path="url(#pa0ec3dd94a)" style="fill: #c282b5"/>
   </g>
   <g id="patch_87">
    <path d="M 141.12 90.8676 
L 141.12 90.8676 
L 141.12 102.4164 
L 141.12 102.4164 
z
" clip-path="url(#pa0ec3dd94a)" style="fill: #c282b5"/>
   </g>
   <g id="patch_88">
    <path d="M 141.12 105.3036 
L 141.12 105.3036 
L 141.12 116.8524 
L 141.12 116.8524 
z
" clip-path="url(#pa0ec3dd94a)" style="fill: #c282b5"/>
   </g>
   <g id="patch_89">
    <path d="M 141.12 119.7396 
L 141.12 119.7396 
L 141.12 131.2884 
L 141.12 131.2884 
z
" clip-path="url(#pa0ec3dd94a)" style="fill: #c282b5"/>
   </g>
   <g id="patch_90">
    <path d="M 141.12 134.1756 
L 141.12 134.1756 
L 141.12 145.7244 
L 141.12 145.7244 
z
" clip-path="url(#pa0ec3dd94a)" style="fill: #c282b5"/>
   </g>
   <g id="patch_91">
    <path d="M 141.12 148.6116 
L 141.12 148.6116 
L 141.12 160.1604 
L 141.12 160.1604 
z
" clip-path="url(#pa0ec3dd94a)" style="fill: #c282b5"/>
   </g>
   <g id="patch_92">
    <path d="M 141.12 163.0476 
L 141.12 163.0476 
L 141.12 174.5964 
L 141.12 174.5964 
z
" clip-path="url(#pa0ec3dd94a)" style="fill: #c282b5"/>
   </g>
   <g id="patch_93">
    <path d="M 141.12 177.4836 
L 141.12 177.4836 
L 141.12 189.0324 
L 141.12 189.0324 
z
" clip-path="url(#pa0ec3dd94a)" style="fill: #c282b5"/>
   </g>
   <g id="patch_94">
    <path d="M 141.12 191.9196 
L 141.12 191.9196 
L 141.12 203.4684 
L 141.12 203.4684 
z
" clip-path="url(#pa0ec3dd94a)" style="fill: #c282b5"/>
   </g>
   <g id="patch_95">
    <path d="M 141.12 206.3556 
L 141.12 206.3556 
L 141.12 217.9044 
L 141.12 217.9044 
z
" clip-path="url(#pa0ec3dd94a)" style="fill: #c282b5"/>
   </g>
   <g id="patch_96">
    <path d="M 141.12 220.7916 
L 141.12 220.7916 
L 141.12 232.3404 
L 141.12 232.3404 
z
" clip-path="url(#pa0ec3dd94a)" style="fill: #c282b5"/>
   </g>
   <g id="patch_97">
    <path d="M 141.12 235.2276 
L 141.12 235.2276 
L 141.12 246.7764 
L 141.12 246.7764 
z
" clip-path="url(#pa0ec3dd94a)" style="fill: #c282b5"/>
   </g>
   <g id="patch_98">
    <path d="M 141.12 249.6636 
L 141.12 249.6636 
L 141.12 261.2124 
L 141.12 261.2124 
z
" clip-path="url(#pa0ec3dd94a)" style="fill: #c282b5"/>
   </g>
   <g id="patch_99">
    <path d="M 141.12 264.0996 
L 141.12 264.0996 
L 141.12 275.6484 
L 141.12 275.6484 
z
" clip-path="url(#pa0ec3dd94a)" style="fill: #c282b5"/>
   </g>
   <g id="patch_100">
    <path d="M 141.12 278.5356 
L 141.12 278.5356 
L 141.12 290.0844 
L 141.12 290.0844 
z
" clip-path="url(#pa0ec3dd94a)" style="fill: #c282b5"/>
   </g>
   <g id="patch_101">
    <path d="M 141.12 292.9716 
L 141.12 292.9716 
L 141.12 304.5204 
L 141.12 304.5204 
z
" clip-path="url(#pa0ec3dd94a)" style="fill: #c282b5"/>
   </g>
   <g id="patch_102">
    <path d="M 141.12 307.4076 
L 141.12 307.4076 
L 141.12 318.9564 
L 141.12 318.9564 
z
" clip-path="url(#pa0ec3dd94a)" style="fill: #c282b5"/>
   </g>
   <g id="patch_103">
    <path d="M 141.12 33.1236 
L 141.12 33.1236 
L 141.12 44.6724 
L 141.12 44.6724 
z
" clip-path="url(#pa0ec3dd94a)" style="fill: #bd926e"/>
   </g>
   <g id="patch_104">
    <path d="M 141.12 47.5596 
L 141.12 47.5596 
L 141.12 59.1084 
L 141.12 59.1084 
z
" clip-path="url(#pa0ec3dd94a)" style="fill: #bd926e"/>
   </g>
   <g id="patch_105">
    <path d="M 141.12 61.9956 
L 141.12 61.9956 
L 141.12 73.5444 
L 141.12 73.5444 
z
" clip-path="url(#pa0ec3dd94a)" style="fill: #bd926e"/>
   </g>
   <g id="patch_106">
    <path d="M 141.12 76.4316 
L 141.12 76.4316 
L 141.12 87.9804 
L 141.12 87.9804 
z
" clip-path="url(#pa0ec3dd94a)" style="fill: #bd926e"/>
   </g>
   <g id="patch_107">
    <path d="M 141.12 90.8676 
L 141.12 90.8676 
L 141.12 102.4164 
L 141.12 102.4164 
z
" clip-path="url(#pa0ec3dd94a)" style="fill: #bd926e"/>
   </g>
   <g id="patch_108">
    <path d="M 141.12 105.3036 
L 141.12 105.3036 
L 141.12 116.8524 
L 141.12 116.8524 
z
" clip-path="url(#pa0ec3dd94a)" style="fill: #bd926e"/>
   </g>
   <g id="patch_109">
    <path d="M 141.12 119.7396 
L 141.12 119.7396 
L 141.12 131.2884 
L 141.12 131.2884 
z
" clip-path="url(#pa0ec3dd94a)" style="fill: #bd926e"/>
   </g>
   <g id="patch_110">
    <path d="M 141.12 134.1756 
L 141.12 134.1756 
L 141.12 145.7244 
L 141.12 145.7244 
z
" clip-path="url(#pa0ec3dd94a)" style="fill: #bd926e"/>
   </g>
   <g id="patch_111">
    <path d="M 141.12 148.6116 
L 141.12 148.6116 
L 141.12 160.1604 
L 141.12 160.1604 
z
" clip-path="url(#pa0ec3dd94a)" style="fill: #bd926e"/>
   </g>
   <g id="patch_112">
    <path d="M 141.12 163.0476 
L 141.12 163.0476 
L 141.12 174.5964 
L 141.12 174.5964 
z
" clip-path="url(#pa0ec3dd94a)" style="fill: #bd926e"/>
   </g>
   <g id="patch_113">
    <path d="M 141.12 177.4836 
L 141.12 177.4836 
L 141.12 189.0324 
L 141.12 189.0324 
z
" clip-path="url(#pa0ec3dd94a)" style="fill: #bd926e"/>
   </g>
   <g id="patch_114">
    <path d="M 141.12 191.9196 
L 141.12 191.9196 
L 141.12 203.4684 
L 141.12 203.4684 
z
" clip-path="url(#pa0ec3dd94a)" style="fill: #bd926e"/>
   </g>
   <g id="patch_115">
    <path d="M 141.12 206.3556 
L 141.12 206.3556 
L 141.12 217.9044 
L 141.12 217.9044 
z
" clip-path="url(#pa0ec3dd94a)" style="fill: #bd926e"/>
   </g>
   <g id="patch_116">
    <path d="M 141.12 220.7916 
L 141.12 220.7916 
L 141.12 232.3404 
L 141.12 232.3404 
z
" clip-path="url(#pa0ec3dd94a)" style="fill: #bd926e"/>
   </g>
   <g id="patch_117">
    <path d="M 141.12 235.2276 
L 141.12 235.2276 
L 141.12 246.7764 
L 141.12 246.7764 
z
" clip-path="url(#pa0ec3dd94a)" style="fill: #bd926e"/>
   </g>
   <g id="patch_118">
    <path d="M 141.12 249.6636 
L 141.12 249.6636 
L 141.12 261.2124 
L 141.12 261.2124 
z
" clip-path="url(#pa0ec3dd94a)" style="fill: #bd926e"/>
   </g>
   <g id="patch_119">
    <path d="M 141.12 264.0996 
L 141.12 264.0996 
L 141.12 275.6484 
L 141.12 275.6484 
z
" clip-path="url(#pa0ec3dd94a)" style="fill: #bd926e"/>
   </g>
   <g id="patch_120">
    <path d="M 141.12 278.5356 
L 149.056 278.5356 
L 149.056 290.0844 
L 141.12 290.0844 
z
" clip-path="url(#pa0ec3dd94a)" style="fill: #bd926e"/>
   </g>
   <g id="patch_121">
    <path d="M 141.12 292.9716 
L 141.12 292.9716 
L 141.12 304.5204 
L 141.12 304.5204 
z
" clip-path="url(#pa0ec3dd94a)" style="fill: #bd926e"/>
   </g>
   <g id="patch_122">
    <path d="M 141.12 307.4076 
L 141.12 307.4076 
L 141.12 318.9564 
L 141.12 318.9564 
z
" clip-path="url(#pa0ec3dd94a)" style="fill: #bd926e"/>
   </g>
   <g id="matplotlib.axis_1">
    <g id="xtick_1">
     <g id="line2d_1">
      <defs>
       <path id="m35ecf96cdb" d="M 0 0 
L 0 3.5 
" style="stroke: #000000; stroke-width: 0.8"/>
      </defs>
      <g>
       <use xlink:href="#m35ecf96cdb" x="141.12" y="320.4" style="stroke: #000000; stroke-width: 0.8"/>
      </g>
     </g>
     <g id="text_1">
      <!-- 0 -->
      <g transform="translate(137.93875 334.998438) scale(0.1 -0.1)">
       <defs>
        <path id="DejaVuSans-30" d="M 2034 4250 
Q 1547 4250 1301 3770 
Q 1056 3291 1056 2328 
Q 1056 1369 1301 889 
Q 1547 409 2034 409 
Q 2525 409 2770 889 
Q 3016 1369 3016 2328 
Q 3016 3291 2770 3770 
Q 2525 4250 2034 4250 
z
M 2034 4750 
Q 2819 4750 3233 4129 
Q 3647 3509 3647 2328 
Q 3647 1150 3233 529 
Q 2819 -91 2034 -91 
Q 1250 -91 836 529 
Q 422 1150 422 2328 
Q 422 3509 836 4129 
Q 1250 4750 2034 4750 
z
" transform="scale(0.015625)"/>
       </defs>
       <use xlink:href="#DejaVuSans-30"/>
      </g>
     </g>
    </g>
    <g id="xtick_2">
     <g id="line2d_2">
      <g>
       <use xlink:href="#m35ecf96cdb" x="180.8" y="320.4" style="stroke: #000000; stroke-width: 0.8"/>
      </g>
     </g>
     <g id="text_2">
      <!-- 10 -->
      <g transform="translate(174.4375 334.998438) scale(0.1 -0.1)">
       <defs>
        <path id="DejaVuSans-31" d="M 794 531 
L 1825 531 
L 1825 4091 
L 703 3866 
L 703 4441 
L 1819 4666 
L 2450 4666 
L 2450 531 
L 3481 531 
L 3481 0 
L 794 0 
L 794 531 
z
" transform="scale(0.015625)"/>
       </defs>
       <use xlink:href="#DejaVuSans-31"/>
       <use xlink:href="#DejaVuSans-30" x="63.623047"/>
      </g>
     </g>
    </g>
    <g id="xtick_3">
     <g id="line2d_3">
      <g>
       <use xlink:href="#m35ecf96cdb" x="220.48" y="320.4" style="stroke: #000000; stroke-width: 0.8"/>
      </g>
     </g>
     <g id="text_3">
      <!-- 20 -->
      <g transform="translate(214.1175 334.998438) scale(0.1 -0.1)">
       <defs>
        <path id="DejaVuSans-32" d="M 1228 531 
L 3431 531 
L 3431 0 
L 469 0 
L 469 531 
Q 828 903 1448 1529 
Q 2069 2156 2228 2338 
Q 2531 2678 2651 2914 
Q 2772 3150 2772 3378 
Q 2772 3750 2511 3984 
Q 2250 4219 1831 4219 
Q 1534 4219 1204 4116 
Q 875 4013 500 3803 
L 500 4441 
Q 881 4594 1212 4672 
Q 1544 4750 1819 4750 
Q 2544 4750 2975 4387 
Q 3406 4025 3406 3419 
Q 3406 3131 3298 2873 
Q 3191 2616 2906 2266 
Q 2828 2175 2409 1742 
Q 1991 1309 1228 531 
z
" transform="scale(0.015625)"/>
       </defs>
       <use xlink:href="#DejaVuSans-32"/>
       <use xlink:href="#DejaVuSans-30" x="63.623047"/>
      </g>
     </g>
    </g>
    <g id="xtick_4">
     <g id="line2d_4">
      <g>
       <use xlink:href="#m35ecf96cdb" x="260.16" y="320.4" style="stroke: #000000; stroke-width: 0.8"/>
      </g>
     </g>
     <g id="text_4">
      <!-- 30 -->
      <g transform="translate(253.7975 334.998438) scale(0.1 -0.1)">
       <defs>
        <path id="DejaVuSans-33" d="M 2597 2516 
Q 3050 2419 3304 2112 
Q 3559 1806 3559 1356 
Q 3559 666 3084 287 
Q 2609 -91 1734 -91 
Q 1441 -91 1130 -33 
Q 819 25 488 141 
L 488 750 
Q 750 597 1062 519 
Q 1375 441 1716 441 
Q 2309 441 2620 675 
Q 2931 909 2931 1356 
Q 2931 1769 2642 2001 
Q 2353 2234 1838 2234 
L 1294 2234 
L 1294 2753 
L 1863 2753 
Q 2328 2753 2575 2939 
Q 2822 3125 2822 3475 
Q 2822 3834 2567 4026 
Q 2313 4219 1838 4219 
Q 1578 4219 1281 4162 
Q 984 4106 628 3988 
L 628 4550 
Q 988 4650 1302 4700 
Q 1616 4750 1894 4750 
Q 2613 4750 3031 4423 
Q 3450 4097 3450 3541 
Q 3450 3153 3228 2886 
Q 3006 2619 2597 2516 
z
" transform="scale(0.015625)"/>
       </defs>
       <use xlink:href="#DejaVuSans-33"/>
       <use xlink:href="#DejaVuSans-30" x="63.623047"/>
      </g>
     </g>
    </g>
    <g id="xtick_5">
     <g id="line2d_5">
      <g>
       <use xlink:href="#m35ecf96cdb" x="299.84" y="320.4" style="stroke: #000000; stroke-width: 0.8"/>
      </g>
     </g>
     <g id="text_5">
      <!-- 40 -->
      <g transform="translate(293.4775 334.998438) scale(0.1 -0.1)">
       <defs>
        <path id="DejaVuSans-34" d="M 2419 4116 
L 825 1625 
L 2419 1625 
L 2419 4116 
z
M 2253 4666 
L 3047 4666 
L 3047 1625 
L 3713 1625 
L 3713 1100 
L 3047 1100 
L 3047 0 
L 2419 0 
L 2419 1100 
L 313 1100 
L 313 1709 
L 2253 4666 
z
" transform="scale(0.015625)"/>
       </defs>
       <use xlink:href="#DejaVuSans-34"/>
       <use xlink:href="#DejaVuSans-30" x="63.623047"/>
      </g>
     </g>
    </g>
    <g id="xtick_6">
     <g id="line2d_6">
      <g>
       <use xlink:href="#m35ecf96cdb" x="339.52" y="320.4" style="stroke: #000000; stroke-width: 0.8"/>
      </g>
     </g>
     <g id="text_6">
      <!-- 50 -->
      <g transform="translate(333.1575 334.998438) scale(0.1 -0.1)">
       <defs>
        <path id="DejaVuSans-35" d="M 691 4666 
L 3169 4666 
L 3169 4134 
L 1269 4134 
L 1269 2991 
Q 1406 3038 1543 3061 
Q 1681 3084 1819 3084 
Q 2600 3084 3056 2656 
Q 3513 2228 3513 1497 
Q 3513 744 3044 326 
Q 2575 -91 1722 -91 
Q 1428 -91 1123 -41 
Q 819 9 494 109 
L 494 744 
Q 775 591 1075 516 
Q 1375 441 1709 441 
Q 2250 441 2565 725 
Q 2881 1009 2881 1497 
Q 2881 1984 2565 2268 
Q 2250 2553 1709 2553 
Q 1456 2553 1204 2497 
Q 953 2441 691 2322 
L 691 4666 
z
" transform="scale(0.015625)"/>
       </defs>
       <use xlink:href="#DejaVuSans-35"/>
       <use xlink:href="#DejaVuSans-30" x="63.623047"/>
      </g>
     </g>
    </g>
    <g id="xtick_7">
     <g id="line2d_7">
      <g>
       <use xlink:href="#m35ecf96cdb" x="379.2" y="320.4" style="stroke: #000000; stroke-width: 0.8"/>
      </g>
     </g>
     <g id="text_7">
      <!-- 60 -->
      <g transform="translate(372.8375 334.998438) scale(0.1 -0.1)">
       <defs>
        <path id="DejaVuSans-36" d="M 2113 2584 
Q 1688 2584 1439 2293 
Q 1191 2003 1191 1497 
Q 1191 994 1439 701 
Q 1688 409 2113 409 
Q 2538 409 2786 701 
Q 3034 994 3034 1497 
Q 3034 2003 2786 2293 
Q 2538 2584 2113 2584 
z
M 3366 4563 
L 3366 3988 
Q 3128 4100 2886 4159 
Q 2644 4219 2406 4219 
Q 1781 4219 1451 3797 
Q 1122 3375 1075 2522 
Q 1259 2794 1537 2939 
Q 1816 3084 2150 3084 
Q 2853 3084 3261 2657 
Q 3669 2231 3669 1497 
Q 3669 778 3244 343 
Q 2819 -91 2113 -91 
Q 1303 -91 875 529 
Q 447 1150 447 2328 
Q 447 3434 972 4092 
Q 1497 4750 2381 4750 
Q 2619 4750 2861 4703 
Q 3103 4656 3366 4563 
z
" transform="scale(0.015625)"/>
       </defs>
       <use xlink:href="#DejaVuSans-36"/>
       <use xlink:href="#DejaVuSans-30" x="63.623047"/>
      </g>
     </g>
    </g>
    <g id="xtick_8">
     <g id="line2d_8">
      <g>
       <use xlink:href="#m35ecf96cdb" x="418.88" y="320.4" style="stroke: #000000; stroke-width: 0.8"/>
      </g>
     </g>
     <g id="text_8">
      <!-- 70 -->
      <g transform="translate(412.5175 334.998438) scale(0.1 -0.1)">
       <defs>
        <path id="DejaVuSans-37" d="M 525 4666 
L 3525 4666 
L 3525 4397 
L 1831 0 
L 1172 0 
L 2766 4134 
L 525 4134 
L 525 4666 
z
" transform="scale(0.015625)"/>
       </defs>
       <use xlink:href="#DejaVuSans-37"/>
       <use xlink:href="#DejaVuSans-30" x="63.623047"/>
      </g>
     </g>
    </g>
    <g id="text_9">
     <!-- count -->
     <g transform="translate(283.25375 348.676562) scale(0.1 -0.1)">
      <defs>
       <path id="DejaVuSans-63" d="M 3122 3366 
L 3122 2828 
Q 2878 2963 2633 3030 
Q 2388 3097 2138 3097 
Q 1578 3097 1268 2742 
Q 959 2388 959 1747 
Q 959 1106 1268 751 
Q 1578 397 2138 397 
Q 2388 397 2633 464 
Q 2878 531 3122 666 
L 3122 134 
Q 2881 22 2623 -34 
Q 2366 -91 2075 -91 
Q 1284 -91 818 406 
Q 353 903 353 1747 
Q 353 2603 823 3093 
Q 1294 3584 2113 3584 
Q 2378 3584 2631 3529 
Q 2884 3475 3122 3366 
z
" transform="scale(0.015625)"/>
       <path id="DejaVuSans-6f" d="M 1959 3097 
Q 1497 3097 1228 2736 
Q 959 2375 959 1747 
Q 959 1119 1226 758 
Q 1494 397 1959 397 
Q 2419 397 2687 759 
Q 2956 1122 2956 1747 
Q 2956 2369 2687 2733 
Q 2419 3097 1959 3097 
z
M 1959 3584 
Q 2709 3584 3137 3096 
Q 3566 2609 3566 1747 
Q 3566 888 3137 398 
Q 2709 -91 1959 -91 
Q 1206 -91 779 398 
Q 353 888 353 1747 
Q 353 2609 779 3096 
Q 1206 3584 1959 3584 
z
" transform="scale(0.015625)"/>
       <path id="DejaVuSans-75" d="M 544 1381 
L 544 3500 
L 1119 3500 
L 1119 1403 
Q 1119 906 1312 657 
Q 1506 409 1894 409 
Q 2359 409 2629 706 
Q 2900 1003 2900 1516 
L 2900 3500 
L 3475 3500 
L 3475 0 
L 2900 0 
L 2900 538 
Q 2691 219 2414 64 
Q 2138 -91 1772 -91 
Q 1169 -91 856 284 
Q 544 659 544 1381 
z
M 1991 3584 
L 1991 3584 
z
" transform="scale(0.015625)"/>
       <path id="DejaVuSans-6e" d="M 3513 2113 
L 3513 0 
L 2938 0 
L 2938 2094 
Q 2938 2591 2744 2837 
Q 2550 3084 2163 3084 
Q 1697 3084 1428 2787 
Q 1159 2491 1159 1978 
L 1159 0 
L 581 0 
L 581 3500 
L 1159 3500 
L 1159 2956 
Q 1366 3272 1645 3428 
Q 1925 3584 2291 3584 
Q 2894 3584 3203 3211 
Q 3513 2838 3513 2113 
z
" transform="scale(0.015625)"/>
       <path id="DejaVuSans-74" d="M 1172 4494 
L 1172 3500 
L 2356 3500 
L 2356 3053 
L 1172 3053 
L 1172 1153 
Q 1172 725 1289 603 
Q 1406 481 1766 481 
L 2356 481 
L 2356 0 
L 1766 0 
Q 1100 0 847 248 
Q 594 497 594 1153 
L 594 3053 
L 172 3053 
L 172 3500 
L 594 3500 
L 594 4494 
L 1172 4494 
z
" transform="scale(0.015625)"/>
      </defs>
      <use xlink:href="#DejaVuSans-63"/>
      <use xlink:href="#DejaVuSans-6f" x="54.980469"/>
      <use xlink:href="#DejaVuSans-75" x="116.162109"/>
      <use xlink:href="#DejaVuSans-6e" x="179.541016"/>
      <use xlink:href="#DejaVuSans-74" x="242.919922"/>
     </g>
    </g>
   </g>
   <g id="matplotlib.axis_2">
    <g id="ytick_1">
     <g id="line2d_9">
      <defs>
       <path id="m0c34623295" d="M 0 0 
L -3.5 0 
" style="stroke: #000000; stroke-width: 0.8"/>
      </defs>
      <g>
       <use xlink:href="#m0c34623295" x="141.12" y="38.898" style="stroke: #000000; stroke-width: 0.8"/>
      </g>
     </g>
     <g id="text_10">
      <!-- jQuery -->
      <g transform="translate(100.949688 42.697219) scale(0.1 -0.1)">
       <defs>
        <path id="DejaVuSans-6a" d="M 603 3500 
L 1178 3500 
L 1178 -63 
Q 1178 -731 923 -1031 
Q 669 -1331 103 -1331 
L -116 -1331 
L -116 -844 
L 38 -844 
Q 366 -844 484 -692 
Q 603 -541 603 -63 
L 603 3500 
z
M 603 4863 
L 1178 4863 
L 1178 4134 
L 603 4134 
L 603 4863 
z
" transform="scale(0.015625)"/>
        <path id="DejaVuSans-51" d="M 2522 4238 
Q 1834 4238 1429 3725 
Q 1025 3213 1025 2328 
Q 1025 1447 1429 934 
Q 1834 422 2522 422 
Q 3209 422 3611 934 
Q 4013 1447 4013 2328 
Q 4013 3213 3611 3725 
Q 3209 4238 2522 4238 
z
M 3406 84 
L 4238 -825 
L 3475 -825 
L 2784 -78 
Q 2681 -84 2626 -87 
Q 2572 -91 2522 -91 
Q 1538 -91 948 567 
Q 359 1225 359 2328 
Q 359 3434 948 4092 
Q 1538 4750 2522 4750 
Q 3503 4750 4090 4092 
Q 4678 3434 4678 2328 
Q 4678 1516 4351 937 
Q 4025 359 3406 84 
z
" transform="scale(0.015625)"/>
        <path id="DejaVuSans-65" d="M 3597 1894 
L 3597 1613 
L 953 1613 
Q 991 1019 1311 708 
Q 1631 397 2203 397 
Q 2534 397 2845 478 
Q 3156 559 3463 722 
L 3463 178 
Q 3153 47 2828 -22 
Q 2503 -91 2169 -91 
Q 1331 -91 842 396 
Q 353 884 353 1716 
Q 353 2575 817 3079 
Q 1281 3584 2069 3584 
Q 2775 3584 3186 3129 
Q 3597 2675 3597 1894 
z
M 3022 2063 
Q 3016 2534 2758 2815 
Q 2500 3097 2075 3097 
Q 1594 3097 1305 2825 
Q 1016 2553 972 2059 
L 3022 2063 
z
" transform="scale(0.015625)"/>
        <path id="DejaVuSans-72" d="M 2631 2963 
Q 2534 3019 2420 3045 
Q 2306 3072 2169 3072 
Q 1681 3072 1420 2755 
Q 1159 2438 1159 1844 
L 1159 0 
L 581 0 
L 581 3500 
L 1159 3500 
L 1159 2956 
Q 1341 3275 1631 3429 
Q 1922 3584 2338 3584 
Q 2397 3584 2469 3576 
Q 2541 3569 2628 3553 
L 2631 2963 
z
" transform="scale(0.015625)"/>
        <path id="DejaVuSans-79" d="M 2059 -325 
Q 1816 -950 1584 -1140 
Q 1353 -1331 966 -1331 
L 506 -1331 
L 506 -850 
L 844 -850 
Q 1081 -850 1212 -737 
Q 1344 -625 1503 -206 
L 1606 56 
L 191 3500 
L 800 3500 
L 1894 763 
L 2988 3500 
L 3597 3500 
L 2059 -325 
z
" transform="scale(0.015625)"/>
       </defs>
       <use xlink:href="#DejaVuSans-6a"/>
       <use xlink:href="#DejaVuSans-51" x="27.783203"/>
       <use xlink:href="#DejaVuSans-75" x="106.494141"/>
       <use xlink:href="#DejaVuSans-65" x="169.873047"/>
       <use xlink:href="#DejaVuSans-72" x="231.396484"/>
       <use xlink:href="#DejaVuSans-79" x="272.509766"/>
      </g>
     </g>
    </g>
    <g id="ytick_2">
     <g id="line2d_10">
      <g>
       <use xlink:href="#m0c34623295" x="141.12" y="53.334" style="stroke: #000000; stroke-width: 0.8"/>
      </g>
     </g>
     <g id="text_11">
      <!-- jQuery UI -->
      <g transform="translate(87.502813 57.133219) scale(0.1 -0.1)">
       <defs>
        <path id="DejaVuSans-20" transform="scale(0.015625)"/>
        <path id="DejaVuSans-55" d="M 556 4666 
L 1191 4666 
L 1191 1831 
Q 1191 1081 1462 751 
Q 1734 422 2344 422 
Q 2950 422 3222 751 
Q 3494 1081 3494 1831 
L 3494 4666 
L 4128 4666 
L 4128 1753 
Q 4128 841 3676 375 
Q 3225 -91 2344 -91 
Q 1459 -91 1007 375 
Q 556 841 556 1753 
L 556 4666 
z
" transform="scale(0.015625)"/>
        <path id="DejaVuSans-49" d="M 628 4666 
L 1259 4666 
L 1259 0 
L 628 0 
L 628 4666 
z
" transform="scale(0.015625)"/>
       </defs>
       <use xlink:href="#DejaVuSans-6a"/>
       <use xlink:href="#DejaVuSans-51" x="27.783203"/>
       <use xlink:href="#DejaVuSans-75" x="106.494141"/>
       <use xlink:href="#DejaVuSans-65" x="169.873047"/>
       <use xlink:href="#DejaVuSans-72" x="231.396484"/>
       <use xlink:href="#DejaVuSans-79" x="272.509766"/>
       <use xlink:href="#DejaVuSans-20" x="331.689453"/>
       <use xlink:href="#DejaVuSans-55" x="363.476562"/>
       <use xlink:href="#DejaVuSans-49" x="436.669922"/>
      </g>
     </g>
    </g>
    <g id="ytick_3">
     <g id="line2d_11">
      <g>
       <use xlink:href="#m0c34623295" x="141.12" y="67.77" style="stroke: #000000; stroke-width: 0.8"/>
      </g>
     </g>
     <g id="text_12">
      <!-- Modernizr -->
      <g transform="translate(84.460625 71.569219) scale(0.1 -0.1)">
       <defs>
        <path id="DejaVuSans-4d" d="M 628 4666 
L 1569 4666 
L 2759 1491 
L 3956 4666 
L 4897 4666 
L 4897 0 
L 4281 0 
L 4281 4097 
L 3078 897 
L 2444 897 
L 1241 4097 
L 1241 0 
L 628 0 
L 628 4666 
z
" transform="scale(0.015625)"/>
        <path id="DejaVuSans-64" d="M 2906 2969 
L 2906 4863 
L 3481 4863 
L 3481 0 
L 2906 0 
L 2906 525 
Q 2725 213 2448 61 
Q 2172 -91 1784 -91 
Q 1150 -91 751 415 
Q 353 922 353 1747 
Q 353 2572 751 3078 
Q 1150 3584 1784 3584 
Q 2172 3584 2448 3432 
Q 2725 3281 2906 2969 
z
M 947 1747 
Q 947 1113 1208 752 
Q 1469 391 1925 391 
Q 2381 391 2643 752 
Q 2906 1113 2906 1747 
Q 2906 2381 2643 2742 
Q 2381 3103 1925 3103 
Q 1469 3103 1208 2742 
Q 947 2381 947 1747 
z
" transform="scale(0.015625)"/>
        <path id="DejaVuSans-69" d="M 603 3500 
L 1178 3500 
L 1178 0 
L 603 0 
L 603 3500 
z
M 603 4863 
L 1178 4863 
L 1178 4134 
L 603 4134 
L 603 4863 
z
" transform="scale(0.015625)"/>
        <path id="DejaVuSans-7a" d="M 353 3500 
L 3084 3500 
L 3084 2975 
L 922 459 
L 3084 459 
L 3084 0 
L 275 0 
L 275 525 
L 2438 3041 
L 353 3041 
L 353 3500 
z
" transform="scale(0.015625)"/>
       </defs>
       <use xlink:href="#DejaVuSans-4d"/>
       <use xlink:href="#DejaVuSans-6f" x="86.279297"/>
       <use xlink:href="#DejaVuSans-64" x="147.460938"/>
       <use xlink:href="#DejaVuSans-65" x="210.9375"/>
       <use xlink:href="#DejaVuSans-72" x="272.460938"/>
       <use xlink:href="#DejaVuSans-6e" x="311.824219"/>
       <use xlink:href="#DejaVuSans-69" x="375.203125"/>
       <use xlink:href="#DejaVuSans-7a" x="402.986328"/>
       <use xlink:href="#DejaVuSans-72" x="455.476562"/>
      </g>
     </g>
    </g>
    <g id="ytick_4">
     <g id="line2d_12">
      <g>
       <use xlink:href="#m0c34623295" x="141.12" y="82.206" style="stroke: #000000; stroke-width: 0.8"/>
      </g>
     </g>
     <g id="text_13">
      <!-- React -->
      <g transform="translate(105.921563 86.005219) scale(0.1 -0.1)">
       <defs>
        <path id="DejaVuSans-52" d="M 2841 2188 
Q 3044 2119 3236 1894 
Q 3428 1669 3622 1275 
L 4263 0 
L 3584 0 
L 2988 1197 
Q 2756 1666 2539 1819 
Q 2322 1972 1947 1972 
L 1259 1972 
L 1259 0 
L 628 0 
L 628 4666 
L 2053 4666 
Q 2853 4666 3247 4331 
Q 3641 3997 3641 3322 
Q 3641 2881 3436 2590 
Q 3231 2300 2841 2188 
z
M 1259 4147 
L 1259 2491 
L 2053 2491 
Q 2509 2491 2742 2702 
Q 2975 2913 2975 3322 
Q 2975 3731 2742 3939 
Q 2509 4147 2053 4147 
L 1259 4147 
z
" transform="scale(0.015625)"/>
        <path id="DejaVuSans-61" d="M 2194 1759 
Q 1497 1759 1228 1600 
Q 959 1441 959 1056 
Q 959 750 1161 570 
Q 1363 391 1709 391 
Q 2188 391 2477 730 
Q 2766 1069 2766 1631 
L 2766 1759 
L 2194 1759 
z
M 3341 1997 
L 3341 0 
L 2766 0 
L 2766 531 
Q 2569 213 2275 61 
Q 1981 -91 1556 -91 
Q 1019 -91 701 211 
Q 384 513 384 1019 
Q 384 1609 779 1909 
Q 1175 2209 1959 2209 
L 2766 2209 
L 2766 2266 
Q 2766 2663 2505 2880 
Q 2244 3097 1772 3097 
Q 1472 3097 1187 3025 
Q 903 2953 641 2809 
L 641 3341 
Q 956 3463 1253 3523 
Q 1550 3584 1831 3584 
Q 2591 3584 2966 3190 
Q 3341 2797 3341 1997 
z
" transform="scale(0.015625)"/>
       </defs>
       <use xlink:href="#DejaVuSans-52"/>
       <use xlink:href="#DejaVuSans-65" x="64.982422"/>
       <use xlink:href="#DejaVuSans-61" x="126.505859"/>
       <use xlink:href="#DejaVuSans-63" x="187.785156"/>
       <use xlink:href="#DejaVuSans-74" x="242.765625"/>
      </g>
     </g>
    </g>
    <g id="ytick_5">
     <g id="line2d_13">
      <g>
       <use xlink:href="#m0c34623295" x="141.12" y="96.642" style="stroke: #000000; stroke-width: 0.8"/>
      </g>
     </g>
     <g id="text_14">
      <!-- Moment.js -->
      <g transform="translate(82.055937 100.441219) scale(0.1 -0.1)">
       <defs>
        <path id="DejaVuSans-6d" d="M 3328 2828 
Q 3544 3216 3844 3400 
Q 4144 3584 4550 3584 
Q 5097 3584 5394 3201 
Q 5691 2819 5691 2113 
L 5691 0 
L 5113 0 
L 5113 2094 
Q 5113 2597 4934 2840 
Q 4756 3084 4391 3084 
Q 3944 3084 3684 2787 
Q 3425 2491 3425 1978 
L 3425 0 
L 2847 0 
L 2847 2094 
Q 2847 2600 2669 2842 
Q 2491 3084 2119 3084 
Q 1678 3084 1418 2786 
Q 1159 2488 1159 1978 
L 1159 0 
L 581 0 
L 581 3500 
L 1159 3500 
L 1159 2956 
Q 1356 3278 1631 3431 
Q 1906 3584 2284 3584 
Q 2666 3584 2933 3390 
Q 3200 3197 3328 2828 
z
" transform="scale(0.015625)"/>
        <path id="DejaVuSans-2e" d="M 684 794 
L 1344 794 
L 1344 0 
L 684 0 
L 684 794 
z
" transform="scale(0.015625)"/>
        <path id="DejaVuSans-73" d="M 2834 3397 
L 2834 2853 
Q 2591 2978 2328 3040 
Q 2066 3103 1784 3103 
Q 1356 3103 1142 2972 
Q 928 2841 928 2578 
Q 928 2378 1081 2264 
Q 1234 2150 1697 2047 
L 1894 2003 
Q 2506 1872 2764 1633 
Q 3022 1394 3022 966 
Q 3022 478 2636 193 
Q 2250 -91 1575 -91 
Q 1294 -91 989 -36 
Q 684 19 347 128 
L 347 722 
Q 666 556 975 473 
Q 1284 391 1588 391 
Q 1994 391 2212 530 
Q 2431 669 2431 922 
Q 2431 1156 2273 1281 
Q 2116 1406 1581 1522 
L 1381 1569 
Q 847 1681 609 1914 
Q 372 2147 372 2553 
Q 372 3047 722 3315 
Q 1072 3584 1716 3584 
Q 2034 3584 2315 3537 
Q 2597 3491 2834 3397 
z
" transform="scale(0.015625)"/>
       </defs>
       <use xlink:href="#DejaVuSans-4d"/>
       <use xlink:href="#DejaVuSans-6f" x="86.279297"/>
       <use xlink:href="#DejaVuSans-6d" x="147.460938"/>
       <use xlink:href="#DejaVuSans-65" x="244.873047"/>
       <use xlink:href="#DejaVuSans-6e" x="306.396484"/>
       <use xlink:href="#DejaVuSans-74" x="369.775391"/>
       <use xlink:href="#DejaVuSans-2e" x="408.984375"/>
       <use xlink:href="#DejaVuSans-6a" x="440.771484"/>
       <use xlink:href="#DejaVuSans-73" x="468.554688"/>
      </g>
     </g>
    </g>
    <g id="ytick_6">
     <g id="line2d_14">
      <g>
       <use xlink:href="#m0c34623295" x="141.12" y="111.078" style="stroke: #000000; stroke-width: 0.8"/>
      </g>
     </g>
     <g id="text_15">
      <!-- fancybox -->
      <g transform="translate(88.643438 114.877219) scale(0.1 -0.1)">
       <defs>
        <path id="DejaVuSans-66" d="M 2375 4863 
L 2375 4384 
L 1825 4384 
Q 1516 4384 1395 4259 
Q 1275 4134 1275 3809 
L 1275 3500 
L 2222 3500 
L 2222 3053 
L 1275 3053 
L 1275 0 
L 697 0 
L 697 3053 
L 147 3053 
L 147 3500 
L 697 3500 
L 697 3744 
Q 697 4328 969 4595 
Q 1241 4863 1831 4863 
L 2375 4863 
z
" transform="scale(0.015625)"/>
        <path id="DejaVuSans-62" d="M 3116 1747 
Q 3116 2381 2855 2742 
Q 2594 3103 2138 3103 
Q 1681 3103 1420 2742 
Q 1159 2381 1159 1747 
Q 1159 1113 1420 752 
Q 1681 391 2138 391 
Q 2594 391 2855 752 
Q 3116 1113 3116 1747 
z
M 1159 2969 
Q 1341 3281 1617 3432 
Q 1894 3584 2278 3584 
Q 2916 3584 3314 3078 
Q 3713 2572 3713 1747 
Q 3713 922 3314 415 
Q 2916 -91 2278 -91 
Q 1894 -91 1617 61 
Q 1341 213 1159 525 
L 1159 0 
L 581 0 
L 581 4863 
L 1159 4863 
L 1159 2969 
z
" transform="scale(0.015625)"/>
        <path id="DejaVuSans-78" d="M 3513 3500 
L 2247 1797 
L 3578 0 
L 2900 0 
L 1881 1375 
L 863 0 
L 184 0 
L 1544 1831 
L 300 3500 
L 978 3500 
L 1906 2253 
L 2834 3500 
L 3513 3500 
z
" transform="scale(0.015625)"/>
       </defs>
       <use xlink:href="#DejaVuSans-66"/>
       <use xlink:href="#DejaVuSans-61" x="35.205078"/>
       <use xlink:href="#DejaVuSans-6e" x="96.484375"/>
       <use xlink:href="#DejaVuSans-63" x="159.863281"/>
       <use xlink:href="#DejaVuSans-79" x="214.84375"/>
       <use xlink:href="#DejaVuSans-62" x="274.023438"/>
       <use xlink:href="#DejaVuSans-6f" x="337.5"/>
       <use xlink:href="#DejaVuSans-78" x="395.556641"/>
      </g>
     </g>
    </g>
    <g id="ytick_7">
     <g id="line2d_15">
      <g>
       <use xlink:href="#m0c34623295" x="141.12" y="125.514" style="stroke: #000000; stroke-width: 0.8"/>
      </g>
     </g>
     <g id="text_16">
      <!-- Highcharts -->
      <g transform="translate(79.930937 129.313219) scale(0.1 -0.1)">
       <defs>
        <path id="DejaVuSans-48" d="M 628 4666 
L 1259 4666 
L 1259 2753 
L 3553 2753 
L 3553 4666 
L 4184 4666 
L 4184 0 
L 3553 0 
L 3553 2222 
L 1259 2222 
L 1259 0 
L 628 0 
L 628 4666 
z
" transform="scale(0.015625)"/>
        <path id="DejaVuSans-67" d="M 2906 1791 
Q 2906 2416 2648 2759 
Q 2391 3103 1925 3103 
Q 1463 3103 1205 2759 
Q 947 2416 947 1791 
Q 947 1169 1205 825 
Q 1463 481 1925 481 
Q 2391 481 2648 825 
Q 2906 1169 2906 1791 
z
M 3481 434 
Q 3481 -459 3084 -895 
Q 2688 -1331 1869 -1331 
Q 1566 -1331 1297 -1286 
Q 1028 -1241 775 -1147 
L 775 -588 
Q 1028 -725 1275 -790 
Q 1522 -856 1778 -856 
Q 2344 -856 2625 -561 
Q 2906 -266 2906 331 
L 2906 616 
Q 2728 306 2450 153 
Q 2172 0 1784 0 
Q 1141 0 747 490 
Q 353 981 353 1791 
Q 353 2603 747 3093 
Q 1141 3584 1784 3584 
Q 2172 3584 2450 3431 
Q 2728 3278 2906 2969 
L 2906 3500 
L 3481 3500 
L 3481 434 
z
" transform="scale(0.015625)"/>
        <path id="DejaVuSans-68" d="M 3513 2113 
L 3513 0 
L 2938 0 
L 2938 2094 
Q 2938 2591 2744 2837 
Q 2550 3084 2163 3084 
Q 1697 3084 1428 2787 
Q 1159 2491 1159 1978 
L 1159 0 
L 581 0 
L 581 4863 
L 1159 4863 
L 1159 2956 
Q 1366 3272 1645 3428 
Q 1925 3584 2291 3584 
Q 2894 3584 3203 3211 
Q 3513 2838 3513 2113 
z
" transform="scale(0.015625)"/>
       </defs>
       <use xlink:href="#DejaVuSans-48"/>
       <use xlink:href="#DejaVuSans-69" x="75.195312"/>
       <use xlink:href="#DejaVuSans-67" x="102.978516"/>
       <use xlink:href="#DejaVuSans-68" x="166.455078"/>
       <use xlink:href="#DejaVuSans-63" x="229.833984"/>
       <use xlink:href="#DejaVuSans-68" x="284.814453"/>
       <use xlink:href="#DejaVuSans-61" x="348.193359"/>
       <use xlink:href="#DejaVuSans-72" x="409.472656"/>
       <use xlink:href="#DejaVuSans-74" x="450.585938"/>
       <use xlink:href="#DejaVuSans-73" x="489.794922"/>
      </g>
     </g>
    </g>
    <g id="ytick_8">
     <g id="line2d_16">
      <g>
       <use xlink:href="#m0c34623295" x="141.12" y="139.95" style="stroke: #000000; stroke-width: 0.8"/>
      </g>
     </g>
     <g id="text_17">
      <!-- Vue.js -->
      <g transform="translate(104.298125 143.749219) scale(0.1 -0.1)">
       <defs>
        <path id="DejaVuSans-56" d="M 1831 0 
L 50 4666 
L 709 4666 
L 2188 738 
L 3669 4666 
L 4325 4666 
L 2547 0 
L 1831 0 
z
" transform="scale(0.015625)"/>
       </defs>
       <use xlink:href="#DejaVuSans-56"/>
       <use xlink:href="#DejaVuSans-75" x="61.658203"/>
       <use xlink:href="#DejaVuSans-65" x="125.037109"/>
       <use xlink:href="#DejaVuSans-2e" x="186.560547"/>
       <use xlink:href="#DejaVuSans-6a" x="218.347656"/>
       <use xlink:href="#DejaVuSans-73" x="246.130859"/>
      </g>
     </g>
    </g>
    <g id="ytick_9">
     <g id="line2d_17">
      <g>
       <use xlink:href="#m0c34623295" x="141.12" y="154.386" style="stroke: #000000; stroke-width: 0.8"/>
      </g>
     </g>
     <g id="text_18">
      <!-- Underscore -->
      <g transform="translate(76.985625 158.185219) scale(0.1 -0.1)">
       <use xlink:href="#DejaVuSans-55"/>
       <use xlink:href="#DejaVuSans-6e" x="73.193359"/>
       <use xlink:href="#DejaVuSans-64" x="136.572266"/>
       <use xlink:href="#DejaVuSans-65" x="200.048828"/>
       <use xlink:href="#DejaVuSans-72" x="261.572266"/>
       <use xlink:href="#DejaVuSans-73" x="302.685547"/>
       <use xlink:href="#DejaVuSans-63" x="354.785156"/>
       <use xlink:href="#DejaVuSans-6f" x="409.765625"/>
       <use xlink:href="#DejaVuSans-72" x="470.947266"/>
       <use xlink:href="#DejaVuSans-65" x="509.810547"/>
      </g>
     </g>
    </g>
    <g id="ytick_10">
     <g id="line2d_18">
      <g>
       <use xlink:href="#m0c34623295" x="141.12" y="168.822" style="stroke: #000000; stroke-width: 0.8"/>
      </g>
     </g>
     <g id="text_19">
      <!-- YUI Library -->
      <g transform="translate(79.598125 172.621219) scale(0.1 -0.1)">
       <defs>
        <path id="DejaVuSans-59" d="M -13 4666 
L 666 4666 
L 1959 2747 
L 3244 4666 
L 3922 4666 
L 2272 2222 
L 2272 0 
L 1638 0 
L 1638 2222 
L -13 4666 
z
" transform="scale(0.015625)"/>
        <path id="DejaVuSans-4c" d="M 628 4666 
L 1259 4666 
L 1259 531 
L 3531 531 
L 3531 0 
L 628 0 
L 628 4666 
z
" transform="scale(0.015625)"/>
       </defs>
       <use xlink:href="#DejaVuSans-59"/>
       <use xlink:href="#DejaVuSans-55" x="61.083984"/>
       <use xlink:href="#DejaVuSans-49" x="134.277344"/>
       <use xlink:href="#DejaVuSans-20" x="163.769531"/>
       <use xlink:href="#DejaVuSans-4c" x="195.556641"/>
       <use xlink:href="#DejaVuSans-69" x="251.269531"/>
       <use xlink:href="#DejaVuSans-62" x="279.052734"/>
       <use xlink:href="#DejaVuSans-72" x="342.529297"/>
       <use xlink:href="#DejaVuSans-61" x="383.642578"/>
       <use xlink:href="#DejaVuSans-72" x="444.921875"/>
       <use xlink:href="#DejaVuSans-79" x="486.035156"/>
      </g>
     </g>
    </g>
    <g id="ytick_11">
     <g id="line2d_19">
      <g>
       <use xlink:href="#m0c34623295" x="141.12" y="183.258" style="stroke: #000000; stroke-width: 0.8"/>
      </g>
     </g>
     <g id="text_20">
      <!-- Lodash -->
      <g transform="translate(98.580938 187.057219) scale(0.1 -0.1)">
       <use xlink:href="#DejaVuSans-4c"/>
       <use xlink:href="#DejaVuSans-6f" x="53.962891"/>
       <use xlink:href="#DejaVuSans-64" x="115.144531"/>
       <use xlink:href="#DejaVuSans-61" x="178.621094"/>
       <use xlink:href="#DejaVuSans-73" x="239.900391"/>
       <use xlink:href="#DejaVuSans-68" x="292"/>
      </g>
     </g>
    </g>
    <g id="ytick_12">
     <g id="line2d_20">
      <g>
       <use xlink:href="#m0c34623295" x="141.12" y="197.694" style="stroke: #000000; stroke-width: 0.8"/>
      </g>
     </g>
     <g id="text_21">
      <!-- Chart.js -->
      <g transform="translate(95.474688 201.493219) scale(0.1 -0.1)">
       <defs>
        <path id="DejaVuSans-43" d="M 4122 4306 
L 4122 3641 
Q 3803 3938 3442 4084 
Q 3081 4231 2675 4231 
Q 1875 4231 1450 3742 
Q 1025 3253 1025 2328 
Q 1025 1406 1450 917 
Q 1875 428 2675 428 
Q 3081 428 3442 575 
Q 3803 722 4122 1019 
L 4122 359 
Q 3791 134 3420 21 
Q 3050 -91 2638 -91 
Q 1578 -91 968 557 
Q 359 1206 359 2328 
Q 359 3453 968 4101 
Q 1578 4750 2638 4750 
Q 3056 4750 3426 4639 
Q 3797 4528 4122 4306 
z
" transform="scale(0.015625)"/>
       </defs>
       <use xlink:href="#DejaVuSans-43"/>
       <use xlink:href="#DejaVuSans-68" x="69.824219"/>
       <use xlink:href="#DejaVuSans-61" x="133.203125"/>
       <use xlink:href="#DejaVuSans-72" x="194.482422"/>
       <use xlink:href="#DejaVuSans-74" x="235.595703"/>
       <use xlink:href="#DejaVuSans-2e" x="274.804688"/>
       <use xlink:href="#DejaVuSans-6a" x="306.591797"/>
       <use xlink:href="#DejaVuSans-73" x="334.375"/>
      </g>
     </g>
    </g>
    <g id="ytick_13">
     <g id="line2d_21">
      <g>
       <use xlink:href="#m0c34623295" x="141.12" y="212.13" style="stroke: #000000; stroke-width: 0.8"/>
      </g>
     </g>
     <g id="text_22">
      <!-- DataTables -->
      <g transform="translate(79.168438 215.929219) scale(0.1 -0.1)">
       <defs>
        <path id="DejaVuSans-44" d="M 1259 4147 
L 1259 519 
L 2022 519 
Q 2988 519 3436 956 
Q 3884 1394 3884 2338 
Q 3884 3275 3436 3711 
Q 2988 4147 2022 4147 
L 1259 4147 
z
M 628 4666 
L 1925 4666 
Q 3281 4666 3915 4102 
Q 4550 3538 4550 2338 
Q 4550 1131 3912 565 
Q 3275 0 1925 0 
L 628 0 
L 628 4666 
z
" transform="scale(0.015625)"/>
        <path id="DejaVuSans-54" d="M -19 4666 
L 3928 4666 
L 3928 4134 
L 2272 4134 
L 2272 0 
L 1638 0 
L 1638 4134 
L -19 4134 
L -19 4666 
z
" transform="scale(0.015625)"/>
        <path id="DejaVuSans-6c" d="M 603 4863 
L 1178 4863 
L 1178 0 
L 603 0 
L 603 4863 
z
" transform="scale(0.015625)"/>
       </defs>
       <use xlink:href="#DejaVuSans-44"/>
       <use xlink:href="#DejaVuSans-61" x="77.001953"/>
       <use xlink:href="#DejaVuSans-74" x="138.28125"/>
       <use xlink:href="#DejaVuSans-61" x="177.490234"/>
       <use xlink:href="#DejaVuSans-54" x="238.769531"/>
       <use xlink:href="#DejaVuSans-61" x="283.353516"/>
       <use xlink:href="#DejaVuSans-62" x="344.632812"/>
       <use xlink:href="#DejaVuSans-6c" x="408.109375"/>
       <use xlink:href="#DejaVuSans-65" x="435.892578"/>
       <use xlink:href="#DejaVuSans-73" x="497.416016"/>
      </g>
     </g>
    </g>
    <g id="ytick_14">
     <g id="line2d_22">
      <g>
       <use xlink:href="#m0c34623295" x="141.12" y="226.566" style="stroke: #000000; stroke-width: 0.8"/>
      </g>
     </g>
     <g id="text_23">
      <!-- Prototype -->
      <g transform="translate(85.880938 230.365219) scale(0.1 -0.1)">
       <defs>
        <path id="DejaVuSans-50" d="M 1259 4147 
L 1259 2394 
L 2053 2394 
Q 2494 2394 2734 2622 
Q 2975 2850 2975 3272 
Q 2975 3691 2734 3919 
Q 2494 4147 2053 4147 
L 1259 4147 
z
M 628 4666 
L 2053 4666 
Q 2838 4666 3239 4311 
Q 3641 3956 3641 3272 
Q 3641 2581 3239 2228 
Q 2838 1875 2053 1875 
L 1259 1875 
L 1259 0 
L 628 0 
L 628 4666 
z
" transform="scale(0.015625)"/>
        <path id="DejaVuSans-70" d="M 1159 525 
L 1159 -1331 
L 581 -1331 
L 581 3500 
L 1159 3500 
L 1159 2969 
Q 1341 3281 1617 3432 
Q 1894 3584 2278 3584 
Q 2916 3584 3314 3078 
Q 3713 2572 3713 1747 
Q 3713 922 3314 415 
Q 2916 -91 2278 -91 
Q 1894 -91 1617 61 
Q 1341 213 1159 525 
z
M 3116 1747 
Q 3116 2381 2855 2742 
Q 2594 3103 2138 3103 
Q 1681 3103 1420 2742 
Q 1159 2381 1159 1747 
Q 1159 1113 1420 752 
Q 1681 391 2138 391 
Q 2594 391 2855 752 
Q 3116 1113 3116 1747 
z
" transform="scale(0.015625)"/>
       </defs>
       <use xlink:href="#DejaVuSans-50"/>
       <use xlink:href="#DejaVuSans-72" x="58.552734"/>
       <use xlink:href="#DejaVuSans-6f" x="97.416016"/>
       <use xlink:href="#DejaVuSans-74" x="158.597656"/>
       <use xlink:href="#DejaVuSans-6f" x="197.806641"/>
       <use xlink:href="#DejaVuSans-74" x="258.988281"/>
       <use xlink:href="#DejaVuSans-79" x="298.197266"/>
       <use xlink:href="#DejaVuSans-70" x="357.376953"/>
       <use xlink:href="#DejaVuSans-65" x="420.853516"/>
      </g>
     </g>
    </g>
    <g id="ytick_15">
     <g id="line2d_23">
      <g>
       <use xlink:href="#m0c34623295" x="141.12" y="241.002" style="stroke: #000000; stroke-width: 0.8"/>
      </g>
     </g>
     <g id="text_24">
      <!-- Select2 -->
      <g transform="translate(96.905937 244.801219) scale(0.1 -0.1)">
       <defs>
        <path id="DejaVuSans-53" d="M 3425 4513 
L 3425 3897 
Q 3066 4069 2747 4153 
Q 2428 4238 2131 4238 
Q 1616 4238 1336 4038 
Q 1056 3838 1056 3469 
Q 1056 3159 1242 3001 
Q 1428 2844 1947 2747 
L 2328 2669 
Q 3034 2534 3370 2195 
Q 3706 1856 3706 1288 
Q 3706 609 3251 259 
Q 2797 -91 1919 -91 
Q 1588 -91 1214 -16 
Q 841 59 441 206 
L 441 856 
Q 825 641 1194 531 
Q 1563 422 1919 422 
Q 2459 422 2753 634 
Q 3047 847 3047 1241 
Q 3047 1584 2836 1778 
Q 2625 1972 2144 2069 
L 1759 2144 
Q 1053 2284 737 2584 
Q 422 2884 422 3419 
Q 422 4038 858 4394 
Q 1294 4750 2059 4750 
Q 2388 4750 2728 4690 
Q 3069 4631 3425 4513 
z
" transform="scale(0.015625)"/>
       </defs>
       <use xlink:href="#DejaVuSans-53"/>
       <use xlink:href="#DejaVuSans-65" x="63.476562"/>
       <use xlink:href="#DejaVuSans-6c" x="125"/>
       <use xlink:href="#DejaVuSans-65" x="152.783203"/>
       <use xlink:href="#DejaVuSans-63" x="214.306641"/>
       <use xlink:href="#DejaVuSans-74" x="269.287109"/>
       <use xlink:href="#DejaVuSans-32" x="308.496094"/>
      </g>
     </g>
    </g>
    <g id="ytick_16">
     <g id="line2d_24">
      <g>
       <use xlink:href="#m0c34623295" x="141.12" y="255.438" style="stroke: #000000; stroke-width: 0.8"/>
      </g>
     </g>
     <g id="text_25">
      <!-- clipboard.js -->
      <g transform="translate(76.671562 259.237219) scale(0.1 -0.1)">
       <use xlink:href="#DejaVuSans-63"/>
       <use xlink:href="#DejaVuSans-6c" x="54.980469"/>
       <use xlink:href="#DejaVuSans-69" x="82.763672"/>
       <use xlink:href="#DejaVuSans-70" x="110.546875"/>
       <use xlink:href="#DejaVuSans-62" x="174.023438"/>
       <use xlink:href="#DejaVuSans-6f" x="237.5"/>
       <use xlink:href="#DejaVuSans-61" x="298.681641"/>
       <use xlink:href="#DejaVuSans-72" x="359.960938"/>
       <use xlink:href="#DejaVuSans-64" x="399.324219"/>
       <use xlink:href="#DejaVuSans-2e" x="462.800781"/>
       <use xlink:href="#DejaVuSans-6a" x="494.587891"/>
       <use xlink:href="#DejaVuSans-73" x="522.371094"/>
      </g>
     </g>
    </g>
    <g id="ytick_17">
     <g id="line2d_25">
      <g>
       <use xlink:href="#m0c34623295" x="141.12" y="269.874" style="stroke: #000000; stroke-width: 0.8"/>
      </g>
     </g>
     <g id="text_26">
      <!-- Kendo UI -->
      <g transform="translate(89.6575 273.673219) scale(0.1 -0.1)">
       <defs>
        <path id="DejaVuSans-4b" d="M 628 4666 
L 1259 4666 
L 1259 2694 
L 3353 4666 
L 4166 4666 
L 1850 2491 
L 4331 0 
L 3500 0 
L 1259 2247 
L 1259 0 
L 628 0 
L 628 4666 
z
" transform="scale(0.015625)"/>
       </defs>
       <use xlink:href="#DejaVuSans-4b"/>
       <use xlink:href="#DejaVuSans-65" x="60.576172"/>
       <use xlink:href="#DejaVuSans-6e" x="122.099609"/>
       <use xlink:href="#DejaVuSans-64" x="185.478516"/>
       <use xlink:href="#DejaVuSans-6f" x="248.955078"/>
       <use xlink:href="#DejaVuSans-20" x="310.136719"/>
       <use xlink:href="#DejaVuSans-55" x="341.923828"/>
       <use xlink:href="#DejaVuSans-49" x="415.117188"/>
      </g>
     </g>
    </g>
    <g id="ytick_18">
     <g id="line2d_26">
      <g>
       <use xlink:href="#m0c34623295" x="141.12" y="284.31" style="stroke: #000000; stroke-width: 0.8"/>
      </g>
     </g>
     <g id="text_27">
      <!-- Flask -->
      <g transform="translate(108.462187 288.109219) scale(0.1 -0.1)">
       <defs>
        <path id="DejaVuSans-46" d="M 628 4666 
L 3309 4666 
L 3309 4134 
L 1259 4134 
L 1259 2759 
L 3109 2759 
L 3109 2228 
L 1259 2228 
L 1259 0 
L 628 0 
L 628 4666 
z
" transform="scale(0.015625)"/>
        <path id="DejaVuSans-6b" d="M 581 4863 
L 1159 4863 
L 1159 1991 
L 2875 3500 
L 3609 3500 
L 1753 1863 
L 3688 0 
L 2938 0 
L 1159 1709 
L 1159 0 
L 581 0 
L 581 4863 
z
" transform="scale(0.015625)"/>
       </defs>
       <use xlink:href="#DejaVuSans-46"/>
       <use xlink:href="#DejaVuSans-6c" x="57.519531"/>
       <use xlink:href="#DejaVuSans-61" x="85.302734"/>
       <use xlink:href="#DejaVuSans-73" x="146.582031"/>
       <use xlink:href="#DejaVuSans-6b" x="198.681641"/>
      </g>
     </g>
    </g>
    <g id="ytick_19">
     <g id="line2d_27">
      <g>
       <use xlink:href="#m0c34623295" x="141.12" y="298.746" style="stroke: #000000; stroke-width: 0.8"/>
      </g>
     </g>
     <g id="text_28">
      <!-- CKEditor -->
      <g transform="translate(90.984062 302.545219) scale(0.1 -0.1)">
       <defs>
        <path id="DejaVuSans-45" d="M 628 4666 
L 3578 4666 
L 3578 4134 
L 1259 4134 
L 1259 2753 
L 3481 2753 
L 3481 2222 
L 1259 2222 
L 1259 531 
L 3634 531 
L 3634 0 
L 628 0 
L 628 4666 
z
" transform="scale(0.015625)"/>
       </defs>
       <use xlink:href="#DejaVuSans-43"/>
       <use xlink:href="#DejaVuSans-4b" x="69.824219"/>
       <use xlink:href="#DejaVuSans-45" x="135.400391"/>
       <use xlink:href="#DejaVuSans-64" x="198.583984"/>
       <use xlink:href="#DejaVuSans-69" x="262.060547"/>
       <use xlink:href="#DejaVuSans-74" x="289.84375"/>
       <use xlink:href="#DejaVuSans-6f" x="329.052734"/>
       <use xlink:href="#DejaVuSans-72" x="390.234375"/>
      </g>
     </g>
    </g>
    <g id="ytick_20">
     <g id="line2d_28">
      <g>
       <use xlink:href="#m0c34623295" x="141.12" y="313.182" style="stroke: #000000; stroke-width: 0.8"/>
      </g>
     </g>
     <g id="text_29">
      <!-- TinyMCE -->
      <g transform="translate(91.360625 316.981219) scale(0.1 -0.1)">
       <use xlink:href="#DejaVuSans-54"/>
       <use xlink:href="#DejaVuSans-69" x="57.958984"/>
       <use xlink:href="#DejaVuSans-6e" x="85.742188"/>
       <use xlink:href="#DejaVuSans-79" x="149.121094"/>
       <use xlink:href="#DejaVuSans-4d" x="208.300781"/>
       <use xlink:href="#DejaVuSans-43" x="294.580078"/>
       <use xlink:href="#DejaVuSans-45" x="364.404297"/>
      </g>
     </g>
    </g>
    <g id="text_30">
     <!-- name -->
     <g transform="translate(70.591875 190.219687) rotate(-90) scale(0.1 -0.1)">
      <use xlink:href="#DejaVuSans-6e"/>
      <use xlink:href="#DejaVuSans-61" x="63.378906"/>
      <use xlink:href="#DejaVuSans-6d" x="124.658203"/>
      <use xlink:href="#DejaVuSans-65" x="222.070312"/>
     </g>
    </g>
   </g>
   <g id="patch_123">
    <path d="M 141.12 320.4 
L 141.12 31.68 
" style="fill: none; stroke: #000000; stroke-width: 0.8; stroke-linejoin: miter; stroke-linecap: square"/>
   </g>
   <g id="patch_124">
    <path d="M 141.12 320.4 
L 453.6 320.4 
" style="fill: none; stroke: #000000; stroke-width: 0.8; stroke-linejoin: miter; stroke-linecap: square"/>
   </g>
   <g id="text_31">
    <!-- Top Libraries -->
    <g transform="translate(248.21125 25.68) scale(0.14 -0.14)">
     <defs>
      <path id="LibreBaskerville-Regular-54" d="M 5030 3706 
L 4768 3706 
Q 4749 3981 4678 4166 
Q 4608 4352 4477 4457 
Q 4346 4563 4147 4608 
Q 3949 4653 3674 4653 
Q 3437 4653 3293 4643 
Q 3149 4634 3072 4608 
Q 2995 4582 2972 4547 
Q 2950 4512 2950 4454 
L 2950 1030 
Q 2950 826 2979 678 
Q 3008 531 3094 438 
Q 3181 346 3344 298 
Q 3507 250 3776 243 
L 3776 0 
L 1357 0 
L 1357 243 
Q 1626 250 1792 298 
Q 1958 346 2044 438 
Q 2131 531 2160 678 
Q 2189 826 2189 1030 
L 2189 4454 
Q 2189 4512 2166 4547 
Q 2144 4582 2077 4608 
Q 2010 4634 1888 4643 
Q 1766 4653 1562 4653 
Q 1312 4653 1097 4633 
Q 883 4614 726 4521 
Q 570 4429 474 4237 
Q 378 4045 371 3706 
L 134 3706 
L 134 4928 
L 4966 4928 
L 5030 3706 
z
" transform="scale(0.015625)"/>
      <path id="LibreBaskerville-Regular-6f" d="M 2080 3456 
Q 2445 3456 2771 3325 
Q 3098 3194 3344 2963 
Q 3590 2733 3734 2416 
Q 3878 2099 3878 1722 
Q 3878 1331 3734 1004 
Q 3590 678 3344 441 
Q 3098 205 2771 70 
Q 2445 -64 2080 -64 
Q 1722 -64 1398 67 
Q 1075 198 832 435 
Q 589 672 448 1001 
Q 307 1331 307 1722 
Q 307 2099 448 2419 
Q 589 2739 832 2969 
Q 1075 3200 1398 3328 
Q 1722 3456 2080 3456 
z
M 2080 3149 
Q 1843 3149 1648 3046 
Q 1453 2944 1315 2755 
Q 1178 2566 1104 2300 
Q 1030 2035 1030 1715 
Q 1030 1382 1104 1113 
Q 1178 845 1315 656 
Q 1453 467 1645 364 
Q 1837 262 2080 262 
Q 2323 262 2521 364 
Q 2720 467 2861 659 
Q 3002 851 3078 1120 
Q 3155 1389 3155 1715 
Q 3155 2035 3078 2297 
Q 3002 2560 2861 2749 
Q 2720 2938 2521 3043 
Q 2323 3149 2080 3149 
z
" transform="scale(0.015625)"/>
      <path id="LibreBaskerville-Regular-70" d="M 1344 2931 
L 1370 2931 
Q 1574 3174 1811 3315 
Q 2048 3456 2362 3456 
Q 2726 3456 3030 3325 
Q 3334 3194 3558 2957 
Q 3782 2720 3907 2397 
Q 4032 2074 4032 1690 
Q 4032 1299 3904 976 
Q 3776 653 3552 422 
Q 3328 192 3021 64 
Q 2714 -64 2355 -64 
Q 2061 -64 1821 35 
Q 1581 134 1370 358 
L 1370 -576 
Q 1370 -832 1395 -985 
Q 1421 -1139 1497 -1222 
Q 1574 -1306 1718 -1338 
Q 1862 -1370 2099 -1376 
L 2099 -1600 
L 128 -1600 
L 128 -1376 
Q 320 -1370 438 -1338 
Q 557 -1306 624 -1222 
Q 691 -1139 716 -995 
Q 742 -851 742 -621 
L 742 1773 
Q 742 2144 732 2381 
Q 723 2618 698 2707 
Q 666 2861 550 2915 
Q 435 2970 115 2970 
L 115 3187 
L 1344 3430 
L 1344 2931 
z
M 1536 2746 
Q 1453 2618 1411 2442 
Q 1370 2266 1370 1984 
L 1370 1485 
Q 1370 1312 1379 1187 
Q 1389 1062 1408 972 
Q 1427 883 1459 812 
Q 1491 742 1542 678 
Q 1690 474 1894 362 
Q 2099 250 2323 250 
Q 2765 250 3037 621 
Q 3309 992 3309 1664 
Q 3309 1997 3235 2269 
Q 3162 2541 3027 2736 
Q 2893 2931 2704 3040 
Q 2515 3149 2285 3149 
Q 2054 3149 1859 3043 
Q 1664 2938 1536 2746 
z
" transform="scale(0.015625)"/>
      <path id="LibreBaskerville-Regular-20" transform="scale(0.015625)"/>
      <path id="LibreBaskerville-Regular-4c" d="M 4422 0 
L 288 0 
L 288 243 
Q 512 250 649 282 
Q 787 314 864 390 
Q 941 467 966 608 
Q 992 749 992 973 
L 992 3955 
Q 992 4179 969 4316 
Q 947 4454 880 4534 
Q 813 4614 685 4643 
Q 557 4672 352 4685 
L 352 4928 
L 2298 4928 
L 2298 4685 
Q 2093 4678 1968 4646 
Q 1843 4614 1776 4531 
Q 1709 4448 1686 4301 
Q 1664 4154 1664 3910 
L 1664 1152 
Q 1664 883 1718 713 
Q 1773 544 1904 451 
Q 2035 358 2252 323 
Q 2470 288 2803 288 
Q 3168 288 3417 329 
Q 3667 371 3836 476 
Q 4006 582 4105 771 
Q 4205 960 4275 1261 
L 4518 1261 
L 4422 0 
z
" transform="scale(0.015625)"/>
      <path id="LibreBaskerville-Regular-69" d="M 1459 1018 
Q 1459 768 1481 617 
Q 1504 467 1568 380 
Q 1632 294 1747 262 
Q 1862 230 2054 224 
L 2054 0 
L 218 0 
L 218 224 
Q 410 230 531 265 
Q 653 301 720 381 
Q 787 461 809 605 
Q 832 749 832 973 
L 832 1792 
Q 832 2163 822 2403 
Q 813 2643 787 2733 
Q 755 2880 640 2934 
Q 525 2989 205 2989 
L 205 3213 
L 1459 3456 
L 1459 1018 
z
M 723 4755 
Q 723 4922 838 5037 
Q 954 5152 1120 5152 
Q 1286 5152 1401 5037 
Q 1517 4922 1517 4755 
Q 1517 4589 1401 4473 
Q 1286 4358 1120 4358 
Q 954 4358 838 4473 
Q 723 4589 723 4755 
z
" transform="scale(0.015625)"/>
      <path id="LibreBaskerville-Regular-62" d="M 1210 1338 
Q 1210 1094 1280 892 
Q 1350 691 1475 547 
Q 1600 403 1776 320 
Q 1952 237 2157 237 
Q 2381 237 2563 339 
Q 2746 442 2877 630 
Q 3008 819 3081 1084 
Q 3155 1350 3155 1677 
Q 3155 2003 3078 2275 
Q 3002 2547 2867 2742 
Q 2733 2938 2544 3046 
Q 2355 3155 2131 3155 
Q 1869 3155 1664 3030 
Q 1459 2906 1350 2682 
Q 1210 2400 1210 1907 
L 1210 1338 
z
M 1197 2938 
L 1222 2938 
Q 1427 3206 1673 3331 
Q 1920 3456 2246 3456 
Q 2592 3456 2889 3321 
Q 3187 3187 3408 2950 
Q 3629 2714 3753 2390 
Q 3878 2067 3878 1696 
Q 3878 1318 3750 995 
Q 3622 672 3401 435 
Q 3181 198 2880 64 
Q 2579 -70 2227 -70 
Q 1862 -70 1545 64 
Q 1229 198 1024 429 
L 723 0 
L 582 0 
L 582 3866 
Q 582 4512 499 4691 
Q 480 4736 454 4765 
Q 429 4794 377 4816 
Q 326 4838 236 4857 
Q 147 4877 -6 4896 
L -6 5056 
L 1197 5312 
L 1197 2938 
z
" transform="scale(0.015625)"/>
      <path id="LibreBaskerville-Regular-72" d="M 1421 1018 
Q 1421 755 1433 601 
Q 1446 448 1500 368 
Q 1555 288 1657 262 
Q 1760 237 1946 224 
L 1946 0 
L 243 0 
L 243 224 
Q 429 230 537 259 
Q 646 288 704 365 
Q 762 442 778 586 
Q 794 730 794 973 
L 794 1722 
Q 794 2157 784 2400 
Q 774 2643 720 2758 
Q 666 2874 550 2896 
Q 435 2918 230 2918 
L 230 3142 
L 1350 3386 
L 1440 2592 
L 1466 2592 
Q 1549 2784 1673 2944 
Q 1798 3104 1945 3216 
Q 2093 3328 2253 3392 
Q 2413 3456 2579 3456 
Q 2784 3456 2902 3357 
Q 3021 3258 3021 3091 
Q 3021 2938 2925 2851 
Q 2829 2765 2650 2765 
Q 2547 2765 2476 2790 
Q 2406 2816 2352 2845 
Q 2298 2874 2250 2899 
Q 2202 2925 2144 2925 
Q 1971 2925 1798 2704 
Q 1626 2483 1530 2144 
Q 1478 1958 1449 1724 
Q 1421 1491 1421 1235 
L 1421 1018 
z
" transform="scale(0.015625)"/>
      <path id="LibreBaskerville-Regular-61" d="M 2234 1894 
Q 1869 1754 1616 1619 
Q 1363 1485 1209 1350 
Q 1056 1216 989 1081 
Q 922 947 922 806 
Q 922 595 1062 460 
Q 1203 326 1434 326 
Q 1600 326 1744 409 
Q 1888 493 1997 637 
Q 2106 781 2170 976 
Q 2234 1171 2234 1389 
L 2234 1894 
z
M 2234 2170 
L 2234 2432 
Q 2234 3213 1568 3213 
Q 1459 3213 1382 3193 
Q 1306 3174 1254 3129 
Q 1203 3085 1161 3001 
Q 1120 2918 1082 2797 
Q 1011 2611 944 2550 
Q 877 2490 749 2490 
Q 429 2490 429 2810 
Q 429 3117 755 3286 
Q 1082 3456 1683 3456 
Q 2323 3456 2592 3229 
Q 2861 3002 2861 2458 
L 2861 1024 
Q 2861 294 3149 294 
Q 3238 294 3321 316 
Q 3405 339 3462 435 
L 3552 282 
Q 3475 134 3270 35 
Q 3066 -64 2842 -64 
Q 2560 -64 2422 115 
Q 2285 294 2285 621 
L 2253 621 
Q 2086 307 1792 124 
Q 1498 -58 1139 -58 
Q 736 -58 505 147 
Q 275 352 275 698 
Q 275 851 329 992 
Q 384 1133 505 1261 
Q 627 1389 825 1513 
Q 1024 1638 1312 1766 
L 2234 2170 
z
" transform="scale(0.015625)"/>
      <path id="LibreBaskerville-Regular-65" d="M 3341 595 
Q 2797 -64 1990 -64 
Q 1613 -64 1305 61 
Q 998 186 777 413 
Q 557 640 435 957 
Q 314 1274 314 1658 
Q 314 2048 442 2381 
Q 570 2714 803 2950 
Q 1037 3187 1360 3321 
Q 1683 3456 2067 3456 
Q 2688 3456 3027 3120 
Q 3366 2784 3366 2157 
Q 3366 2067 3331 2048 
Q 3296 2029 3168 2029 
L 1062 2029 
Q 1050 1978 1043 1904 
Q 1037 1830 1037 1741 
Q 1037 1408 1117 1136 
Q 1197 864 1347 672 
Q 1498 480 1706 374 
Q 1914 269 2170 269 
Q 2438 269 2668 387 
Q 2899 506 3142 774 
L 3341 595 
z
M 2285 2323 
Q 2413 2323 2489 2329 
Q 2566 2336 2604 2355 
Q 2643 2374 2656 2409 
Q 2669 2445 2669 2502 
Q 2669 2797 2480 2973 
Q 2291 3149 1965 3149 
Q 1274 3149 1107 2323 
L 2285 2323 
z
" transform="scale(0.015625)"/>
      <path id="LibreBaskerville-Regular-73" d="M 550 0 
L 410 0 
L 410 1101 
L 570 1101 
Q 819 198 1478 198 
Q 1734 198 1884 323 
Q 2035 448 2035 704 
Q 2035 800 2006 867 
Q 1978 934 1898 1008 
Q 1818 1082 1674 1178 
Q 1530 1274 1293 1421 
Q 1075 1555 915 1670 
Q 755 1786 646 1904 
Q 538 2022 483 2156 
Q 429 2291 429 2470 
Q 429 2688 502 2870 
Q 576 3053 704 3181 
Q 832 3309 1005 3382 
Q 1178 3456 1382 3456 
Q 1555 3456 1740 3401 
Q 1926 3347 2067 3258 
L 2195 3392 
L 2317 3392 
L 2317 2470 
L 2150 2470 
Q 2010 2861 1843 3027 
Q 1677 3194 1434 3194 
Q 1216 3194 1085 3078 
Q 954 2963 954 2758 
Q 954 2650 989 2570 
Q 1024 2490 1101 2413 
Q 1178 2336 1296 2256 
Q 1414 2176 1581 2074 
Q 1856 1901 2051 1766 
Q 2246 1632 2368 1501 
Q 2490 1370 2547 1229 
Q 2605 1088 2605 909 
Q 2605 454 2310 195 
Q 2016 -64 1536 -64 
Q 1037 -64 678 224 
L 550 0 
z
" transform="scale(0.015625)"/>
     </defs>
     <use xlink:href="#LibreBaskerville-Regular-54"/>
     <use xlink:href="#LibreBaskerville-Regular-6f" x="80.299988"/>
     <use xlink:href="#LibreBaskerville-Regular-70" x="145.699982"/>
     <use xlink:href="#LibreBaskerville-Regular-20" x="213.599976"/>
     <use xlink:href="#LibreBaskerville-Regular-4c" x="242.299973"/>
     <use xlink:href="#LibreBaskerville-Regular-69" x="314.999954"/>
     <use xlink:href="#LibreBaskerville-Regular-62" x="349.099945"/>
     <use xlink:href="#LibreBaskerville-Regular-72" x="414.499939"/>
     <use xlink:href="#LibreBaskerville-Regular-61" x="462.199936"/>
     <use xlink:href="#LibreBaskerville-Regular-72" x="517.59993"/>
     <use xlink:href="#LibreBaskerville-Regular-69" x="565.299927"/>
     <use xlink:href="#LibreBaskerville-Regular-65" x="599.399918"/>
     <use xlink:href="#LibreBaskerville-Regular-73" x="656.699905"/>
    </g>
   </g>
   <g id="legend_1">
    <g id="patch_125">
     <path d="M 267.453125 315.4 
L 446.6 315.4 
Q 448.6 315.4 448.6 313.4 
L 448.6 211.375 
Q 448.6 209.375 446.6 209.375 
L 267.453125 209.375 
Q 265.453125 209.375 265.453125 211.375 
L 265.453125 313.4 
Q 265.453125 315.4 267.453125 315.4 
z
" style="fill: #ffffff; opacity: 0.8; stroke: #cccccc; stroke-linejoin: miter"/>
    </g>
    <g id="text_32">
     <!-- tool_function -->
     <g transform="translate(324.634375 220.973438) scale(0.1 -0.1)">
      <defs>
       <path id="DejaVuSans-5f" d="M 3263 -1063 
L 3263 -1509 
L -63 -1509 
L -63 -1063 
L 3263 -1063 
z
" transform="scale(0.015625)"/>
      </defs>
      <use xlink:href="#DejaVuSans-74"/>
      <use xlink:href="#DejaVuSans-6f" x="39.208984"/>
      <use xlink:href="#DejaVuSans-6f" x="100.390625"/>
      <use xlink:href="#DejaVuSans-6c" x="161.572266"/>
      <use xlink:href="#DejaVuSans-5f" x="189.355469"/>
      <use xlink:href="#DejaVuSans-66" x="239.355469"/>
      <use xlink:href="#DejaVuSans-75" x="274.560547"/>
      <use xlink:href="#DejaVuSans-6e" x="337.939453"/>
      <use xlink:href="#DejaVuSans-63" x="401.318359"/>
      <use xlink:href="#DejaVuSans-74" x="456.298828"/>
      <use xlink:href="#DejaVuSans-69" x="495.507812"/>
      <use xlink:href="#DejaVuSans-6f" x="523.291016"/>
      <use xlink:href="#DejaVuSans-6e" x="584.472656"/>
     </g>
    </g>
    <g id="patch_126">
     <path d="M 269.453125 235.929688 
L 289.453125 235.929688 
L 289.453125 228.929688 
L 269.453125 228.929688 
z
" style="fill: #176d9c"/>
    </g>
    <g id="text_33">
     <!-- Javascript UI Libraries -->
     <g transform="translate(297.453125 235.929688) scale(0.1 -0.1)">
      <defs>
       <path id="DejaVuSans-4a" d="M 628 4666 
L 1259 4666 
L 1259 325 
Q 1259 -519 939 -900 
Q 619 -1281 -91 -1281 
L -331 -1281 
L -331 -750 
L -134 -750 
Q 284 -750 456 -515 
Q 628 -281 628 325 
L 628 4666 
z
" transform="scale(0.015625)"/>
       <path id="DejaVuSans-76" d="M 191 3500 
L 800 3500 
L 1894 563 
L 2988 3500 
L 3597 3500 
L 2284 0 
L 1503 0 
L 191 3500 
z
" transform="scale(0.015625)"/>
      </defs>
      <use xlink:href="#DejaVuSans-4a"/>
      <use xlink:href="#DejaVuSans-61" x="29.492188"/>
      <use xlink:href="#DejaVuSans-76" x="90.771484"/>
      <use xlink:href="#DejaVuSans-61" x="149.951172"/>
      <use xlink:href="#DejaVuSans-73" x="211.230469"/>
      <use xlink:href="#DejaVuSans-63" x="263.330078"/>
      <use xlink:href="#DejaVuSans-72" x="318.310547"/>
      <use xlink:href="#DejaVuSans-69" x="359.423828"/>
      <use xlink:href="#DejaVuSans-70" x="387.207031"/>
      <use xlink:href="#DejaVuSans-74" x="450.683594"/>
      <use xlink:href="#DejaVuSans-20" x="489.892578"/>
      <use xlink:href="#DejaVuSans-55" x="521.679688"/>
      <use xlink:href="#DejaVuSans-49" x="594.873047"/>
      <use xlink:href="#DejaVuSans-20" x="624.365234"/>
      <use xlink:href="#DejaVuSans-4c" x="656.152344"/>
      <use xlink:href="#DejaVuSans-69" x="711.865234"/>
      <use xlink:href="#DejaVuSans-62" x="739.648438"/>
      <use xlink:href="#DejaVuSans-72" x="803.125"/>
      <use xlink:href="#DejaVuSans-61" x="844.238281"/>
      <use xlink:href="#DejaVuSans-72" x="905.517578"/>
      <use xlink:href="#DejaVuSans-69" x="946.630859"/>
      <use xlink:href="#DejaVuSans-65" x="974.414062"/>
      <use xlink:href="#DejaVuSans-73" x="1035.9375"/>
     </g>
    </g>
    <g id="patch_127">
     <path d="M 269.453125 250.607813 
L 289.453125 250.607813 
L 289.453125 243.607813 
L 269.453125 243.607813 
z
" style="fill: #c38820"/>
    </g>
    <g id="text_34">
     <!-- Javascript Utilities &amp; Libraries -->
     <g transform="translate(297.453125 250.607813) scale(0.1 -0.1)">
      <defs>
       <path id="DejaVuSans-26" d="M 1556 2509 
Q 1272 2256 1139 2004 
Q 1006 1753 1006 1478 
Q 1006 1022 1337 719 
Q 1669 416 2169 416 
Q 2466 416 2725 514 
Q 2984 613 3213 813 
L 1556 2509 
z
M 1997 2859 
L 3584 1234 
Q 3769 1513 3872 1830 
Q 3975 2147 3994 2503 
L 4575 2503 
Q 4538 2091 4375 1687 
Q 4213 1284 3922 891 
L 4794 0 
L 4006 0 
L 3559 459 
Q 3234 181 2878 45 
Q 2522 -91 2113 -91 
Q 1359 -91 881 339 
Q 403 769 403 1441 
Q 403 1841 612 2192 
Q 822 2544 1241 2853 
Q 1091 3050 1012 3245 
Q 934 3441 934 3628 
Q 934 4134 1281 4442 
Q 1628 4750 2203 4750 
Q 2463 4750 2720 4694 
Q 2978 4638 3244 4525 
L 3244 3956 
Q 2972 4103 2725 4179 
Q 2478 4256 2266 4256 
Q 1938 4256 1733 4082 
Q 1528 3909 1528 3634 
Q 1528 3475 1620 3314 
Q 1713 3153 1997 2859 
z
" transform="scale(0.015625)"/>
      </defs>
      <use xlink:href="#DejaVuSans-4a"/>
      <use xlink:href="#DejaVuSans-61" x="29.492188"/>
      <use xlink:href="#DejaVuSans-76" x="90.771484"/>
      <use xlink:href="#DejaVuSans-61" x="149.951172"/>
      <use xlink:href="#DejaVuSans-73" x="211.230469"/>
      <use xlink:href="#DejaVuSans-63" x="263.330078"/>
      <use xlink:href="#DejaVuSans-72" x="318.310547"/>
      <use xlink:href="#DejaVuSans-69" x="359.423828"/>
      <use xlink:href="#DejaVuSans-70" x="387.207031"/>
      <use xlink:href="#DejaVuSans-74" x="450.683594"/>
      <use xlink:href="#DejaVuSans-20" x="489.892578"/>
      <use xlink:href="#DejaVuSans-55" x="521.679688"/>
      <use xlink:href="#DejaVuSans-74" x="594.873047"/>
      <use xlink:href="#DejaVuSans-69" x="634.082031"/>
      <use xlink:href="#DejaVuSans-6c" x="661.865234"/>
      <use xlink:href="#DejaVuSans-69" x="689.648438"/>
      <use xlink:href="#DejaVuSans-74" x="717.431641"/>
      <use xlink:href="#DejaVuSans-69" x="756.640625"/>
      <use xlink:href="#DejaVuSans-65" x="784.423828"/>
      <use xlink:href="#DejaVuSans-73" x="845.947266"/>
      <use xlink:href="#DejaVuSans-20" x="898.046875"/>
      <use xlink:href="#DejaVuSans-26" x="929.833984"/>
      <use xlink:href="#DejaVuSans-20" x="1007.8125"/>
      <use xlink:href="#DejaVuSans-4c" x="1039.599609"/>
      <use xlink:href="#DejaVuSans-69" x="1095.3125"/>
      <use xlink:href="#DejaVuSans-62" x="1123.095703"/>
      <use xlink:href="#DejaVuSans-72" x="1186.572266"/>
      <use xlink:href="#DejaVuSans-61" x="1227.685547"/>
      <use xlink:href="#DejaVuSans-72" x="1288.964844"/>
      <use xlink:href="#DejaVuSans-69" x="1330.078125"/>
      <use xlink:href="#DejaVuSans-65" x="1357.861328"/>
      <use xlink:href="#DejaVuSans-73" x="1419.384766"/>
     </g>
    </g>
    <g id="patch_128">
     <path d="M 269.453125 265.285938 
L 289.453125 265.285938 
L 289.453125 258.285938 
L 269.453125 258.285938 
z
" style="fill: #158b6a"/>
    </g>
    <g id="text_35">
     <!-- Helm Charts -->
     <g transform="translate(297.453125 265.285938) scale(0.1 -0.1)">
      <use xlink:href="#DejaVuSans-48"/>
      <use xlink:href="#DejaVuSans-65" x="75.195312"/>
      <use xlink:href="#DejaVuSans-6c" x="136.71875"/>
      <use xlink:href="#DejaVuSans-6d" x="164.501953"/>
      <use xlink:href="#DejaVuSans-20" x="261.914062"/>
      <use xlink:href="#DejaVuSans-43" x="293.701172"/>
      <use xlink:href="#DejaVuSans-68" x="363.525391"/>
      <use xlink:href="#DejaVuSans-61" x="426.904297"/>
      <use xlink:href="#DejaVuSans-72" x="488.183594"/>
      <use xlink:href="#DejaVuSans-74" x="529.296875"/>
      <use xlink:href="#DejaVuSans-73" x="568.505859"/>
     </g>
    </g>
    <g id="patch_129">
     <path d="M 269.453125 279.964063 
L 289.453125 279.964063 
L 289.453125 272.964063 
L 269.453125 272.964063 
z
" style="fill: #ba611b"/>
    </g>
    <g id="text_36">
     <!-- Charting Libraries -->
     <g transform="translate(297.453125 279.964063) scale(0.1 -0.1)">
      <use xlink:href="#DejaVuSans-43"/>
      <use xlink:href="#DejaVuSans-68" x="69.824219"/>
      <use xlink:href="#DejaVuSans-61" x="133.203125"/>
      <use xlink:href="#DejaVuSans-72" x="194.482422"/>
      <use xlink:href="#DejaVuSans-74" x="235.595703"/>
      <use xlink:href="#DejaVuSans-69" x="274.804688"/>
      <use xlink:href="#DejaVuSans-6e" x="302.587891"/>
      <use xlink:href="#DejaVuSans-67" x="365.966797"/>
      <use xlink:href="#DejaVuSans-20" x="429.443359"/>
      <use xlink:href="#DejaVuSans-4c" x="461.230469"/>
      <use xlink:href="#DejaVuSans-69" x="516.943359"/>
      <use xlink:href="#DejaVuSans-62" x="544.726562"/>
      <use xlink:href="#DejaVuSans-72" x="608.203125"/>
      <use xlink:href="#DejaVuSans-61" x="649.316406"/>
      <use xlink:href="#DejaVuSans-72" x="710.595703"/>
      <use xlink:href="#DejaVuSans-69" x="751.708984"/>
      <use xlink:href="#DejaVuSans-65" x="779.492188"/>
      <use xlink:href="#DejaVuSans-73" x="841.015625"/>
     </g>
    </g>
    <g id="patch_130">
     <path d="M 269.453125 294.642188 
L 289.453125 294.642188 
L 289.453125 287.642188 
L 269.453125 287.642188 
z
" style="fill: #c282b5"/>
    </g>
    <g id="text_37">
     <!-- State Management Library -->
     <g transform="translate(297.453125 294.642188) scale(0.1 -0.1)">
      <use xlink:href="#DejaVuSans-53"/>
      <use xlink:href="#DejaVuSans-74" x="63.476562"/>
      <use xlink:href="#DejaVuSans-61" x="102.685547"/>
      <use xlink:href="#DejaVuSans-74" x="163.964844"/>
      <use xlink:href="#DejaVuSans-65" x="203.173828"/>
      <use xlink:href="#DejaVuSans-20" x="264.697266"/>
      <use xlink:href="#DejaVuSans-4d" x="296.484375"/>
      <use xlink:href="#DejaVuSans-61" x="382.763672"/>
      <use xlink:href="#DejaVuSans-6e" x="444.042969"/>
      <use xlink:href="#DejaVuSans-61" x="507.421875"/>
      <use xlink:href="#DejaVuSans-67" x="568.701172"/>
      <use xlink:href="#DejaVuSans-65" x="632.177734"/>
      <use xlink:href="#DejaVuSans-6d" x="693.701172"/>
      <use xlink:href="#DejaVuSans-65" x="791.113281"/>
      <use xlink:href="#DejaVuSans-6e" x="852.636719"/>
      <use xlink:href="#DejaVuSans-74" x="916.015625"/>
      <use xlink:href="#DejaVuSans-20" x="955.224609"/>
      <use xlink:href="#DejaVuSans-4c" x="987.011719"/>
      <use xlink:href="#DejaVuSans-69" x="1042.724609"/>
      <use xlink:href="#DejaVuSans-62" x="1070.507812"/>
      <use xlink:href="#DejaVuSans-72" x="1133.984375"/>
      <use xlink:href="#DejaVuSans-61" x="1175.097656"/>
      <use xlink:href="#DejaVuSans-72" x="1236.376953"/>
      <use xlink:href="#DejaVuSans-79" x="1277.490234"/>
     </g>
    </g>
    <g id="patch_131">
     <path d="M 269.453125 309.320312 
L 289.453125 309.320312 
L 289.453125 302.320312 
L 269.453125 302.320312 
z
" style="fill: #bd926e"/>
    </g>
    <g id="text_38">
     <!-- PyPI Packages -->
     <g transform="translate(297.453125 309.320312) scale(0.1 -0.1)">
      <use xlink:href="#DejaVuSans-50"/>
      <use xlink:href="#DejaVuSans-79" x="60.302734"/>
      <use xlink:href="#DejaVuSans-50" x="119.482422"/>
      <use xlink:href="#DejaVuSans-49" x="179.785156"/>
      <use xlink:href="#DejaVuSans-20" x="209.277344"/>
      <use xlink:href="#DejaVuSans-50" x="241.064453"/>
      <use xlink:href="#DejaVuSans-61" x="296.867188"/>
      <use xlink:href="#DejaVuSans-63" x="358.146484"/>
      <use xlink:href="#DejaVuSans-6b" x="413.126953"/>
      <use xlink:href="#DejaVuSans-61" x="469.287109"/>
      <use xlink:href="#DejaVuSans-67" x="530.566406"/>
      <use xlink:href="#DejaVuSans-65" x="594.042969"/>
      <use xlink:href="#DejaVuSans-73" x="655.566406"/>
     </g>
    </g>
   </g>
  </g>
 </g>
 <defs>
  <clipPath id="pa0ec3dd94a">
   <rect x="141.12" y="31.68" width="312.48" height="288.72"/>
  </clipPath>
 </defs>
</svg>
