<?xml version="1.0" encoding="utf-8" standalone="no"?>
<!DOCTYPE svg PUBLIC "-//W3C//DTD SVG 1.1//EN"
  "http://www.w3.org/Graphics/SVG/1.1/DTD/svg11.dtd">
<svg xmlns:xlink="http://www.w3.org/1999/xlink" width="504pt" height="360pt" viewBox="0 0 504 360" xmlns="http://www.w3.org/2000/svg" version="1.1">
 <metadata>
  <rdf:RDF xmlns:dc="http://purl.org/dc/elements/1.1/" xmlns:cc="http://creativecommons.org/ns#" xmlns:rdf="http://www.w3.org/1999/02/22-rdf-syntax-ns#">
   <cc:Work>
    <dc:type rdf:resource="http://purl.org/dc/dcmitype/StillImage"/>
    <dc:date>2023-03-01T13:46:31.687675</dc:date>
    <dc:format>image/svg+xml</dc:format>
    <dc:creator>
     <cc:Agent>
      <dc:title>Matplotlib v3.7.0, https://matplotlib.org/</dc:title>
     </cc:Agent>
    </dc:creator>
   </cc:Work>
  </rdf:RDF>
 </metadata>
 <defs>
  <style type="text/css">*{stroke-linejoin: round; stroke-linecap: butt}</style>
 </defs>
 <g id="figure_1">
  <g id="patch_1">
   <path d="M 0 360 
L 504 360 
L 504 0 
L 0 0 
z
" style="fill: #ffffff"/>
  </g>
  <g id="axes_1">
   <g id="patch_2">
    <path d="M 141.12 320.4 
L 453.6 320.4 
L 453.6 31.68 
L 141.12 31.68 
z
" style="fill: #ffffff"/>
   </g>
   <g id="patch_3">
    <path d="M 141.12 33.1236 
L 141.12 33.1236 
L 141.12 44.6724 
L 141.12 44.6724 
z
" clip-path="url(#p7631912eaa)" style="fill: #176d9c"/>
   </g>
   <g id="patch_4">
    <path d="M 141.12 47.5596 
L 313.414737 47.5596 
L 313.414737 59.1084 
L 141.12 59.1084 
z
" clip-path="url(#p7631912eaa)" style="fill: #176d9c"/>
   </g>
   <g id="patch_5">
    <path d="M 141.12 61.9956 
L 219.435789 61.9956 
L 219.435789 73.5444 
L 141.12 73.5444 
z
" clip-path="url(#p7631912eaa)" style="fill: #176d9c"/>
   </g>
   <g id="patch_6">
    <path d="M 141.12 76.4316 
L 141.12 76.4316 
L 141.12 87.9804 
L 141.12 87.9804 
z
" clip-path="url(#p7631912eaa)" style="fill: #176d9c"/>
   </g>
   <g id="patch_7">
    <path d="M 141.12 90.8676 
L 141.12 90.8676 
L 141.12 102.4164 
L 141.12 102.4164 
z
" clip-path="url(#p7631912eaa)" style="fill: #176d9c"/>
   </g>
   <g id="patch_8">
    <path d="M 141.12 105.3036 
L 141.12 105.3036 
L 141.12 116.8524 
L 141.12 116.8524 
z
" clip-path="url(#p7631912eaa)" style="fill: #176d9c"/>
   </g>
   <g id="patch_9">
    <path d="M 141.12 119.7396 
L 141.12 119.7396 
L 141.12 131.2884 
L 141.12 131.2884 
z
" clip-path="url(#p7631912eaa)" style="fill: #176d9c"/>
   </g>
   <g id="patch_10">
    <path d="M 141.12 134.1756 
L 172.446316 134.1756 
L 172.446316 145.7244 
L 141.12 145.7244 
z
" clip-path="url(#p7631912eaa)" style="fill: #176d9c"/>
   </g>
   <g id="patch_11">
    <path d="M 141.12 148.6116 
L 172.446316 148.6116 
L 172.446316 160.1604 
L 141.12 160.1604 
z
" clip-path="url(#p7631912eaa)" style="fill: #176d9c"/>
   </g>
   <g id="patch_12">
    <path d="M 141.12 163.0476 
L 141.12 163.0476 
L 141.12 174.5964 
L 141.12 174.5964 
z
" clip-path="url(#p7631912eaa)" style="fill: #176d9c"/>
   </g>
   <g id="patch_13">
    <path d="M 141.12 177.4836 
L 141.12 177.4836 
L 141.12 189.0324 
L 141.12 189.0324 
z
" clip-path="url(#p7631912eaa)" style="fill: #176d9c"/>
   </g>
   <g id="patch_14">
    <path d="M 141.12 191.9196 
L 141.12 191.9196 
L 141.12 203.4684 
L 141.12 203.4684 
z
" clip-path="url(#p7631912eaa)" style="fill: #176d9c"/>
   </g>
   <g id="patch_15">
    <path d="M 141.12 206.3556 
L 141.12 206.3556 
L 141.12 217.9044 
L 141.12 217.9044 
z
" clip-path="url(#p7631912eaa)" style="fill: #176d9c"/>
   </g>
   <g id="patch_16">
    <path d="M 141.12 220.7916 
L 141.12 220.7916 
L 141.12 232.3404 
L 141.12 232.3404 
z
" clip-path="url(#p7631912eaa)" style="fill: #176d9c"/>
   </g>
   <g id="patch_17">
    <path d="M 141.12 235.2276 
L 141.12 235.2276 
L 141.12 246.7764 
L 141.12 246.7764 
z
" clip-path="url(#p7631912eaa)" style="fill: #176d9c"/>
   </g>
   <g id="patch_18">
    <path d="M 141.12 249.6636 
L 141.12 249.6636 
L 141.12 261.2124 
L 141.12 261.2124 
z
" clip-path="url(#p7631912eaa)" style="fill: #176d9c"/>
   </g>
   <g id="patch_19">
    <path d="M 141.12 264.0996 
L 141.12 264.0996 
L 141.12 275.6484 
L 141.12 275.6484 
z
" clip-path="url(#p7631912eaa)" style="fill: #176d9c"/>
   </g>
   <g id="patch_20">
    <path d="M 141.12 278.5356 
L 141.12 278.5356 
L 141.12 290.0844 
L 141.12 290.0844 
z
" clip-path="url(#p7631912eaa)" style="fill: #176d9c"/>
   </g>
   <g id="patch_21">
    <path d="M 141.12 292.9716 
L 141.12 292.9716 
L 141.12 304.5204 
L 141.12 304.5204 
z
" clip-path="url(#p7631912eaa)" style="fill: #176d9c"/>
   </g>
   <g id="patch_22">
    <path d="M 141.12 307.4076 
L 141.12 307.4076 
L 141.12 318.9564 
L 141.12 318.9564 
z
" clip-path="url(#p7631912eaa)" style="fill: #176d9c"/>
   </g>
   <g id="patch_23">
    <path d="M 141.12 33.1236 
L 141.12 33.1236 
L 141.12 44.6724 
L 141.12 44.6724 
z
" clip-path="url(#p7631912eaa)" style="fill: #c38820"/>
   </g>
   <g id="patch_24">
    <path d="M 141.12 47.5596 
L 141.12 47.5596 
L 141.12 59.1084 
L 141.12 59.1084 
z
" clip-path="url(#p7631912eaa)" style="fill: #c38820"/>
   </g>
   <g id="patch_25">
    <path d="M 141.12 61.9956 
L 141.12 61.9956 
L 141.12 73.5444 
L 141.12 73.5444 
z
" clip-path="url(#p7631912eaa)" style="fill: #c38820"/>
   </g>
   <g id="patch_26">
    <path d="M 141.12 76.4316 
L 203.772632 76.4316 
L 203.772632 87.9804 
L 141.12 87.9804 
z
" clip-path="url(#p7631912eaa)" style="fill: #c38820"/>
   </g>
   <g id="patch_27">
    <path d="M 141.12 90.8676 
L 141.12 90.8676 
L 141.12 102.4164 
L 141.12 102.4164 
z
" clip-path="url(#p7631912eaa)" style="fill: #c38820"/>
   </g>
   <g id="patch_28">
    <path d="M 141.12 105.3036 
L 141.12 105.3036 
L 141.12 116.8524 
L 141.12 116.8524 
z
" clip-path="url(#p7631912eaa)" style="fill: #c38820"/>
   </g>
   <g id="patch_29">
    <path d="M 141.12 119.7396 
L 141.12 119.7396 
L 141.12 131.2884 
L 141.12 131.2884 
z
" clip-path="url(#p7631912eaa)" style="fill: #c38820"/>
   </g>
   <g id="patch_30">
    <path d="M 141.12 134.1756 
L 141.12 134.1756 
L 141.12 145.7244 
L 141.12 145.7244 
z
" clip-path="url(#p7631912eaa)" style="fill: #c38820"/>
   </g>
   <g id="patch_31">
    <path d="M 141.12 148.6116 
L 141.12 148.6116 
L 141.12 160.1604 
L 141.12 160.1604 
z
" clip-path="url(#p7631912eaa)" style="fill: #c38820"/>
   </g>
   <g id="patch_32">
    <path d="M 141.12 163.0476 
L 141.12 163.0476 
L 141.12 174.5964 
L 141.12 174.5964 
z
" clip-path="url(#p7631912eaa)" style="fill: #c38820"/>
   </g>
   <g id="patch_33">
    <path d="M 141.12 177.4836 
L 141.12 177.4836 
L 141.12 189.0324 
L 141.12 189.0324 
z
" clip-path="url(#p7631912eaa)" style="fill: #c38820"/>
   </g>
   <g id="patch_34">
    <path d="M 141.12 191.9196 
L 141.12 191.9196 
L 141.12 203.4684 
L 141.12 203.4684 
z
" clip-path="url(#p7631912eaa)" style="fill: #c38820"/>
   </g>
   <g id="patch_35">
    <path d="M 141.12 206.3556 
L 141.12 206.3556 
L 141.12 217.9044 
L 141.12 217.9044 
z
" clip-path="url(#p7631912eaa)" style="fill: #c38820"/>
   </g>
   <g id="patch_36">
    <path d="M 141.12 220.7916 
L 141.12 220.7916 
L 141.12 232.3404 
L 141.12 232.3404 
z
" clip-path="url(#p7631912eaa)" style="fill: #c38820"/>
   </g>
   <g id="patch_37">
    <path d="M 141.12 235.2276 
L 141.12 235.2276 
L 141.12 246.7764 
L 141.12 246.7764 
z
" clip-path="url(#p7631912eaa)" style="fill: #c38820"/>
   </g>
   <g id="patch_38">
    <path d="M 141.12 249.6636 
L 141.12 249.6636 
L 141.12 261.2124 
L 141.12 261.2124 
z
" clip-path="url(#p7631912eaa)" style="fill: #c38820"/>
   </g>
   <g id="patch_39">
    <path d="M 141.12 264.0996 
L 141.12 264.0996 
L 141.12 275.6484 
L 141.12 275.6484 
z
" clip-path="url(#p7631912eaa)" style="fill: #c38820"/>
   </g>
   <g id="patch_40">
    <path d="M 141.12 278.5356 
L 141.12 278.5356 
L 141.12 290.0844 
L 141.12 290.0844 
z
" clip-path="url(#p7631912eaa)" style="fill: #c38820"/>
   </g>
   <g id="patch_41">
    <path d="M 141.12 292.9716 
L 141.12 292.9716 
L 141.12 304.5204 
L 141.12 304.5204 
z
" clip-path="url(#p7631912eaa)" style="fill: #c38820"/>
   </g>
   <g id="patch_42">
    <path d="M 141.12 307.4076 
L 141.12 307.4076 
L 141.12 318.9564 
L 141.12 318.9564 
z
" clip-path="url(#p7631912eaa)" style="fill: #c38820"/>
   </g>
   <g id="patch_43">
    <path d="M 141.12 33.1236 
L 141.12 33.1236 
L 141.12 44.6724 
L 141.12 44.6724 
z
" clip-path="url(#p7631912eaa)" style="fill: #158b6a"/>
   </g>
   <g id="patch_44">
    <path d="M 141.12 47.5596 
L 141.12 47.5596 
L 141.12 59.1084 
L 141.12 59.1084 
z
" clip-path="url(#p7631912eaa)" style="fill: #158b6a"/>
   </g>
   <g id="patch_45">
    <path d="M 141.12 61.9956 
L 141.12 61.9956 
L 141.12 73.5444 
L 141.12 73.5444 
z
" clip-path="url(#p7631912eaa)" style="fill: #158b6a"/>
   </g>
   <g id="patch_46">
    <path d="M 141.12 76.4316 
L 141.12 76.4316 
L 141.12 87.9804 
L 141.12 87.9804 
z
" clip-path="url(#p7631912eaa)" style="fill: #158b6a"/>
   </g>
   <g id="patch_47">
    <path d="M 141.12 90.8676 
L 188.109474 90.8676 
L 188.109474 102.4164 
L 141.12 102.4164 
z
" clip-path="url(#p7631912eaa)" style="fill: #158b6a"/>
   </g>
   <g id="patch_48">
    <path d="M 141.12 105.3036 
L 141.12 105.3036 
L 141.12 116.8524 
L 141.12 116.8524 
z
" clip-path="url(#p7631912eaa)" style="fill: #158b6a"/>
   </g>
   <g id="patch_49">
    <path d="M 141.12 119.7396 
L 141.12 119.7396 
L 141.12 131.2884 
L 141.12 131.2884 
z
" clip-path="url(#p7631912eaa)" style="fill: #158b6a"/>
   </g>
   <g id="patch_50">
    <path d="M 141.12 134.1756 
L 141.12 134.1756 
L 141.12 145.7244 
L 141.12 145.7244 
z
" clip-path="url(#p7631912eaa)" style="fill: #158b6a"/>
   </g>
   <g id="patch_51">
    <path d="M 141.12 148.6116 
L 141.12 148.6116 
L 141.12 160.1604 
L 141.12 160.1604 
z
" clip-path="url(#p7631912eaa)" style="fill: #158b6a"/>
   </g>
   <g id="patch_52">
    <path d="M 141.12 163.0476 
L 141.12 163.0476 
L 141.12 174.5964 
L 141.12 174.5964 
z
" clip-path="url(#p7631912eaa)" style="fill: #158b6a"/>
   </g>
   <g id="patch_53">
    <path d="M 141.12 177.4836 
L 141.12 177.4836 
L 141.12 189.0324 
L 141.12 189.0324 
z
" clip-path="url(#p7631912eaa)" style="fill: #158b6a"/>
   </g>
   <g id="patch_54">
    <path d="M 141.12 191.9196 
L 141.12 191.9196 
L 141.12 203.4684 
L 141.12 203.4684 
z
" clip-path="url(#p7631912eaa)" style="fill: #158b6a"/>
   </g>
   <g id="patch_55">
    <path d="M 141.12 206.3556 
L 156.783158 206.3556 
L 156.783158 217.9044 
L 141.12 217.9044 
z
" clip-path="url(#p7631912eaa)" style="fill: #158b6a"/>
   </g>
   <g id="patch_56">
    <path d="M 141.12 220.7916 
L 141.12 220.7916 
L 141.12 232.3404 
L 141.12 232.3404 
z
" clip-path="url(#p7631912eaa)" style="fill: #158b6a"/>
   </g>
   <g id="patch_57">
    <path d="M 141.12 235.2276 
L 141.12 235.2276 
L 141.12 246.7764 
L 141.12 246.7764 
z
" clip-path="url(#p7631912eaa)" style="fill: #158b6a"/>
   </g>
   <g id="patch_58">
    <path d="M 141.12 249.6636 
L 141.12 249.6636 
L 141.12 261.2124 
L 141.12 261.2124 
z
" clip-path="url(#p7631912eaa)" style="fill: #158b6a"/>
   </g>
   <g id="patch_59">
    <path d="M 141.12 264.0996 
L 156.783158 264.0996 
L 156.783158 275.6484 
L 141.12 275.6484 
z
" clip-path="url(#p7631912eaa)" style="fill: #158b6a"/>
   </g>
   <g id="patch_60">
    <path d="M 141.12 278.5356 
L 141.12 278.5356 
L 141.12 290.0844 
L 141.12 290.0844 
z
" clip-path="url(#p7631912eaa)" style="fill: #158b6a"/>
   </g>
   <g id="patch_61">
    <path d="M 141.12 292.9716 
L 141.12 292.9716 
L 141.12 304.5204 
L 141.12 304.5204 
z
" clip-path="url(#p7631912eaa)" style="fill: #158b6a"/>
   </g>
   <g id="patch_62">
    <path d="M 141.12 307.4076 
L 141.12 307.4076 
L 141.12 318.9564 
L 141.12 318.9564 
z
" clip-path="url(#p7631912eaa)" style="fill: #158b6a"/>
   </g>
   <g id="patch_63">
    <path d="M 141.12 33.1236 
L 438.72 33.1236 
L 438.72 44.6724 
L 141.12 44.6724 
z
" clip-path="url(#p7631912eaa)" style="fill: #ba611b"/>
   </g>
   <g id="patch_64">
    <path d="M 141.12 47.5596 
L 141.12 47.5596 
L 141.12 59.1084 
L 141.12 59.1084 
z
" clip-path="url(#p7631912eaa)" style="fill: #ba611b"/>
   </g>
   <g id="patch_65">
    <path d="M 141.12 61.9956 
L 141.12 61.9956 
L 141.12 73.5444 
L 141.12 73.5444 
z
" clip-path="url(#p7631912eaa)" style="fill: #ba611b"/>
   </g>
   <g id="patch_66">
    <path d="M 141.12 76.4316 
L 141.12 76.4316 
L 141.12 87.9804 
L 141.12 87.9804 
z
" clip-path="url(#p7631912eaa)" style="fill: #ba611b"/>
   </g>
   <g id="patch_67">
    <path d="M 141.12 90.8676 
L 141.12 90.8676 
L 141.12 102.4164 
L 141.12 102.4164 
z
" clip-path="url(#p7631912eaa)" style="fill: #ba611b"/>
   </g>
   <g id="patch_68">
    <path d="M 141.12 105.3036 
L 141.12 105.3036 
L 141.12 116.8524 
L 141.12 116.8524 
z
" clip-path="url(#p7631912eaa)" style="fill: #ba611b"/>
   </g>
   <g id="patch_69">
    <path d="M 141.12 119.7396 
L 188.109474 119.7396 
L 188.109474 131.2884 
L 141.12 131.2884 
z
" clip-path="url(#p7631912eaa)" style="fill: #ba611b"/>
   </g>
   <g id="patch_70">
    <path d="M 141.12 134.1756 
L 141.12 134.1756 
L 141.12 145.7244 
L 141.12 145.7244 
z
" clip-path="url(#p7631912eaa)" style="fill: #ba611b"/>
   </g>
   <g id="patch_71">
    <path d="M 141.12 148.6116 
L 141.12 148.6116 
L 141.12 160.1604 
L 141.12 160.1604 
z
" clip-path="url(#p7631912eaa)" style="fill: #ba611b"/>
   </g>
   <g id="patch_72">
    <path d="M 141.12 163.0476 
L 141.12 163.0476 
L 141.12 174.5964 
L 141.12 174.5964 
z
" clip-path="url(#p7631912eaa)" style="fill: #ba611b"/>
   </g>
   <g id="patch_73">
    <path d="M 141.12 177.4836 
L 156.783158 177.4836 
L 156.783158 189.0324 
L 141.12 189.0324 
z
" clip-path="url(#p7631912eaa)" style="fill: #ba611b"/>
   </g>
   <g id="patch_74">
    <path d="M 141.12 191.9196 
L 141.12 191.9196 
L 141.12 203.4684 
L 141.12 203.4684 
z
" clip-path="url(#p7631912eaa)" style="fill: #ba611b"/>
   </g>
   <g id="patch_75">
    <path d="M 141.12 206.3556 
L 141.12 206.3556 
L 141.12 217.9044 
L 141.12 217.9044 
z
" clip-path="url(#p7631912eaa)" style="fill: #ba611b"/>
   </g>
   <g id="patch_76">
    <path d="M 141.12 220.7916 
L 141.12 220.7916 
L 141.12 232.3404 
L 141.12 232.3404 
z
" clip-path="url(#p7631912eaa)" style="fill: #ba611b"/>
   </g>
   <g id="patch_77">
    <path d="M 141.12 235.2276 
L 141.12 235.2276 
L 141.12 246.7764 
L 141.12 246.7764 
z
" clip-path="url(#p7631912eaa)" style="fill: #ba611b"/>
   </g>
   <g id="patch_78">
    <path d="M 141.12 249.6636 
L 141.12 249.6636 
L 141.12 261.2124 
L 141.12 261.2124 
z
" clip-path="url(#p7631912eaa)" style="fill: #ba611b"/>
   </g>
   <g id="patch_79">
    <path d="M 141.12 264.0996 
L 141.12 264.0996 
L 141.12 275.6484 
L 141.12 275.6484 
z
" clip-path="url(#p7631912eaa)" style="fill: #ba611b"/>
   </g>
   <g id="patch_80">
    <path d="M 141.12 278.5356 
L 141.12 278.5356 
L 141.12 290.0844 
L 141.12 290.0844 
z
" clip-path="url(#p7631912eaa)" style="fill: #ba611b"/>
   </g>
   <g id="patch_81">
    <path d="M 141.12 292.9716 
L 156.783158 292.9716 
L 156.783158 304.5204 
L 141.12 304.5204 
z
" clip-path="url(#p7631912eaa)" style="fill: #ba611b"/>
   </g>
   <g id="patch_82">
    <path d="M 141.12 307.4076 
L 156.783158 307.4076 
L 156.783158 318.9564 
L 141.12 318.9564 
z
" clip-path="url(#p7631912eaa)" style="fill: #ba611b"/>
   </g>
   <g id="patch_83">
    <path d="M 141.12 33.1236 
L 141.12 33.1236 
L 141.12 44.6724 
L 141.12 44.6724 
z
" clip-path="url(#p7631912eaa)" style="fill: #c282b5"/>
   </g>
   <g id="patch_84">
    <path d="M 141.12 47.5596 
L 141.12 47.5596 
L 141.12 59.1084 
L 141.12 59.1084 
z
" clip-path="url(#p7631912eaa)" style="fill: #c282b5"/>
   </g>
   <g id="patch_85">
    <path d="M 141.12 61.9956 
L 141.12 61.9956 
L 141.12 73.5444 
L 141.12 73.5444 
z
" clip-path="url(#p7631912eaa)" style="fill: #c282b5"/>
   </g>
   <g id="patch_86">
    <path d="M 141.12 76.4316 
L 141.12 76.4316 
L 141.12 87.9804 
L 141.12 87.9804 
z
" clip-path="url(#p7631912eaa)" style="fill: #c282b5"/>
   </g>
   <g id="patch_87">
    <path d="M 141.12 90.8676 
L 141.12 90.8676 
L 141.12 102.4164 
L 141.12 102.4164 
z
" clip-path="url(#p7631912eaa)" style="fill: #c282b5"/>
   </g>
   <g id="patch_88">
    <path d="M 141.12 105.3036 
L 188.109474 105.3036 
L 188.109474 116.8524 
L 141.12 116.8524 
z
" clip-path="url(#p7631912eaa)" style="fill: #c282b5"/>
   </g>
   <g id="patch_89">
    <path d="M 141.12 119.7396 
L 141.12 119.7396 
L 141.12 131.2884 
L 141.12 131.2884 
z
" clip-path="url(#p7631912eaa)" style="fill: #c282b5"/>
   </g>
   <g id="patch_90">
    <path d="M 141.12 134.1756 
L 141.12 134.1756 
L 141.12 145.7244 
L 141.12 145.7244 
z
" clip-path="url(#p7631912eaa)" style="fill: #c282b5"/>
   </g>
   <g id="patch_91">
    <path d="M 141.12 148.6116 
L 141.12 148.6116 
L 141.12 160.1604 
L 141.12 160.1604 
z
" clip-path="url(#p7631912eaa)" style="fill: #c282b5"/>
   </g>
   <g id="patch_92">
    <path d="M 141.12 163.0476 
L 141.12 163.0476 
L 141.12 174.5964 
L 141.12 174.5964 
z
" clip-path="url(#p7631912eaa)" style="fill: #c282b5"/>
   </g>
   <g id="patch_93">
    <path d="M 141.12 177.4836 
L 141.12 177.4836 
L 141.12 189.0324 
L 141.12 189.0324 
z
" clip-path="url(#p7631912eaa)" style="fill: #c282b5"/>
   </g>
   <g id="patch_94">
    <path d="M 141.12 191.9196 
L 156.783158 191.9196 
L 156.783158 203.4684 
L 141.12 203.4684 
z
" clip-path="url(#p7631912eaa)" style="fill: #c282b5"/>
   </g>
   <g id="patch_95">
    <path d="M 141.12 206.3556 
L 141.12 206.3556 
L 141.12 217.9044 
L 141.12 217.9044 
z
" clip-path="url(#p7631912eaa)" style="fill: #c282b5"/>
   </g>
   <g id="patch_96">
    <path d="M 141.12 220.7916 
L 141.12 220.7916 
L 141.12 232.3404 
L 141.12 232.3404 
z
" clip-path="url(#p7631912eaa)" style="fill: #c282b5"/>
   </g>
   <g id="patch_97">
    <path d="M 141.12 235.2276 
L 141.12 235.2276 
L 141.12 246.7764 
L 141.12 246.7764 
z
" clip-path="url(#p7631912eaa)" style="fill: #c282b5"/>
   </g>
   <g id="patch_98">
    <path d="M 141.12 249.6636 
L 141.12 249.6636 
L 141.12 261.2124 
L 141.12 261.2124 
z
" clip-path="url(#p7631912eaa)" style="fill: #c282b5"/>
   </g>
   <g id="patch_99">
    <path d="M 141.12 264.0996 
L 141.12 264.0996 
L 141.12 275.6484 
L 141.12 275.6484 
z
" clip-path="url(#p7631912eaa)" style="fill: #c282b5"/>
   </g>
   <g id="patch_100">
    <path d="M 141.12 278.5356 
L 141.12 278.5356 
L 141.12 290.0844 
L 141.12 290.0844 
z
" clip-path="url(#p7631912eaa)" style="fill: #c282b5"/>
   </g>
   <g id="patch_101">
    <path d="M 141.12 292.9716 
L 141.12 292.9716 
L 141.12 304.5204 
L 141.12 304.5204 
z
" clip-path="url(#p7631912eaa)" style="fill: #c282b5"/>
   </g>
   <g id="patch_102">
    <path d="M 141.12 307.4076 
L 141.12 307.4076 
L 141.12 318.9564 
L 141.12 318.9564 
z
" clip-path="url(#p7631912eaa)" style="fill: #c282b5"/>
   </g>
   <g id="patch_103">
    <path d="M 141.12 33.1236 
L 141.12 33.1236 
L 141.12 44.6724 
L 141.12 44.6724 
z
" clip-path="url(#p7631912eaa)" style="fill: #bd926e"/>
   </g>
   <g id="patch_104">
    <path d="M 141.12 47.5596 
L 141.12 47.5596 
L 141.12 59.1084 
L 141.12 59.1084 
z
" clip-path="url(#p7631912eaa)" style="fill: #bd926e"/>
   </g>
   <g id="patch_105">
    <path d="M 141.12 61.9956 
L 141.12 61.9956 
L 141.12 73.5444 
L 141.12 73.5444 
z
" clip-path="url(#p7631912eaa)" style="fill: #bd926e"/>
   </g>
   <g id="patch_106">
    <path d="M 141.12 76.4316 
L 141.12 76.4316 
L 141.12 87.9804 
L 141.12 87.9804 
z
" clip-path="url(#p7631912eaa)" style="fill: #bd926e"/>
   </g>
   <g id="patch_107">
    <path d="M 141.12 90.8676 
L 141.12 90.8676 
L 141.12 102.4164 
L 141.12 102.4164 
z
" clip-path="url(#p7631912eaa)" style="fill: #bd926e"/>
   </g>
   <g id="patch_108">
    <path d="M 141.12 105.3036 
L 141.12 105.3036 
L 141.12 116.8524 
L 141.12 116.8524 
z
" clip-path="url(#p7631912eaa)" style="fill: #bd926e"/>
   </g>
   <g id="patch_109">
    <path d="M 141.12 119.7396 
L 141.12 119.7396 
L 141.12 131.2884 
L 141.12 131.2884 
z
" clip-path="url(#p7631912eaa)" style="fill: #bd926e"/>
   </g>
   <g id="patch_110">
    <path d="M 141.12 134.1756 
L 141.12 134.1756 
L 141.12 145.7244 
L 141.12 145.7244 
z
" clip-path="url(#p7631912eaa)" style="fill: #bd926e"/>
   </g>
   <g id="patch_111">
    <path d="M 141.12 148.6116 
L 141.12 148.6116 
L 141.12 160.1604 
L 141.12 160.1604 
z
" clip-path="url(#p7631912eaa)" style="fill: #bd926e"/>
   </g>
   <g id="patch_112">
    <path d="M 141.12 163.0476 
L 141.12 163.0476 
L 141.12 174.5964 
L 141.12 174.5964 
z
" clip-path="url(#p7631912eaa)" style="fill: #bd926e"/>
   </g>
   <g id="patch_113">
    <path d="M 141.12 177.4836 
L 141.12 177.4836 
L 141.12 189.0324 
L 141.12 189.0324 
z
" clip-path="url(#p7631912eaa)" style="fill: #bd926e"/>
   </g>
   <g id="patch_114">
    <path d="M 141.12 191.9196 
L 141.12 191.9196 
L 141.12 203.4684 
L 141.12 203.4684 
z
" clip-path="url(#p7631912eaa)" style="fill: #bd926e"/>
   </g>
   <g id="patch_115">
    <path d="M 141.12 206.3556 
L 141.12 206.3556 
L 141.12 217.9044 
L 141.12 217.9044 
z
" clip-path="url(#p7631912eaa)" style="fill: #bd926e"/>
   </g>
   <g id="patch_116">
    <path d="M 141.12 220.7916 
L 141.12 220.7916 
L 141.12 232.3404 
L 141.12 232.3404 
z
" clip-path="url(#p7631912eaa)" style="fill: #bd926e"/>
   </g>
   <g id="patch_117">
    <path d="M 141.12 235.2276 
L 156.783158 235.2276 
L 156.783158 246.7764 
L 141.12 246.7764 
z
" clip-path="url(#p7631912eaa)" style="fill: #bd926e"/>
   </g>
   <g id="patch_118">
    <path d="M 141.12 249.6636 
L 141.12 249.6636 
L 141.12 261.2124 
L 141.12 261.2124 
z
" clip-path="url(#p7631912eaa)" style="fill: #bd926e"/>
   </g>
   <g id="patch_119">
    <path d="M 141.12 264.0996 
L 141.12 264.0996 
L 141.12 275.6484 
L 141.12 275.6484 
z
" clip-path="url(#p7631912eaa)" style="fill: #bd926e"/>
   </g>
   <g id="patch_120">
    <path d="M 141.12 278.5356 
L 141.12 278.5356 
L 141.12 290.0844 
L 141.12 290.0844 
z
" clip-path="url(#p7631912eaa)" style="fill: #bd926e"/>
   </g>
   <g id="patch_121">
    <path d="M 141.12 292.9716 
L 141.12 292.9716 
L 141.12 304.5204 
L 141.12 304.5204 
z
" clip-path="url(#p7631912eaa)" style="fill: #bd926e"/>
   </g>
   <g id="patch_122">
    <path d="M 141.12 307.4076 
L 141.12 307.4076 
L 141.12 318.9564 
L 141.12 318.9564 
z
" clip-path="url(#p7631912eaa)" style="fill: #bd926e"/>
   </g>
   <g id="patch_123">
    <path d="M 141.12 33.1236 
L 141.12 33.1236 
L 141.12 44.6724 
L 141.12 44.6724 
z
" clip-path="url(#p7631912eaa)" style="fill: #f2b8e0"/>
   </g>
   <g id="patch_124">
    <path d="M 141.12 47.5596 
L 141.12 47.5596 
L 141.12 59.1084 
L 141.12 59.1084 
z
" clip-path="url(#p7631912eaa)" style="fill: #f2b8e0"/>
   </g>
   <g id="patch_125">
    <path d="M 141.12 61.9956 
L 141.12 61.9956 
L 141.12 73.5444 
L 141.12 73.5444 
z
" clip-path="url(#p7631912eaa)" style="fill: #f2b8e0"/>
   </g>
   <g id="patch_126">
    <path d="M 141.12 76.4316 
L 141.12 76.4316 
L 141.12 87.9804 
L 141.12 87.9804 
z
" clip-path="url(#p7631912eaa)" style="fill: #f2b8e0"/>
   </g>
   <g id="patch_127">
    <path d="M 141.12 90.8676 
L 141.12 90.8676 
L 141.12 102.4164 
L 141.12 102.4164 
z
" clip-path="url(#p7631912eaa)" style="fill: #f2b8e0"/>
   </g>
   <g id="patch_128">
    <path d="M 141.12 105.3036 
L 141.12 105.3036 
L 141.12 116.8524 
L 141.12 116.8524 
z
" clip-path="url(#p7631912eaa)" style="fill: #f2b8e0"/>
   </g>
   <g id="patch_129">
    <path d="M 141.12 119.7396 
L 141.12 119.7396 
L 141.12 131.2884 
L 141.12 131.2884 
z
" clip-path="url(#p7631912eaa)" style="fill: #f2b8e0"/>
   </g>
   <g id="patch_130">
    <path d="M 141.12 134.1756 
L 141.12 134.1756 
L 141.12 145.7244 
L 141.12 145.7244 
z
" clip-path="url(#p7631912eaa)" style="fill: #f2b8e0"/>
   </g>
   <g id="patch_131">
    <path d="M 141.12 148.6116 
L 141.12 148.6116 
L 141.12 160.1604 
L 141.12 160.1604 
z
" clip-path="url(#p7631912eaa)" style="fill: #f2b8e0"/>
   </g>
   <g id="patch_132">
    <path d="M 141.12 163.0476 
L 141.12 163.0476 
L 141.12 174.5964 
L 141.12 174.5964 
z
" clip-path="url(#p7631912eaa)" style="fill: #f2b8e0"/>
   </g>
   <g id="patch_133">
    <path d="M 141.12 177.4836 
L 141.12 177.4836 
L 141.12 189.0324 
L 141.12 189.0324 
z
" clip-path="url(#p7631912eaa)" style="fill: #f2b8e0"/>
   </g>
   <g id="patch_134">
    <path d="M 141.12 191.9196 
L 141.12 191.9196 
L 141.12 203.4684 
L 141.12 203.4684 
z
" clip-path="url(#p7631912eaa)" style="fill: #f2b8e0"/>
   </g>
   <g id="patch_135">
    <path d="M 141.12 206.3556 
L 141.12 206.3556 
L 141.12 217.9044 
L 141.12 217.9044 
z
" clip-path="url(#p7631912eaa)" style="fill: #f2b8e0"/>
   </g>
   <g id="patch_136">
    <path d="M 141.12 220.7916 
L 156.783158 220.7916 
L 156.783158 232.3404 
L 141.12 232.3404 
z
" clip-path="url(#p7631912eaa)" style="fill: #f2b8e0"/>
   </g>
   <g id="patch_137">
    <path d="M 141.12 235.2276 
L 141.12 235.2276 
L 141.12 246.7764 
L 141.12 246.7764 
z
" clip-path="url(#p7631912eaa)" style="fill: #f2b8e0"/>
   </g>
   <g id="patch_138">
    <path d="M 141.12 249.6636 
L 141.12 249.6636 
L 141.12 261.2124 
L 141.12 261.2124 
z
" clip-path="url(#p7631912eaa)" style="fill: #f2b8e0"/>
   </g>
   <g id="patch_139">
    <path d="M 141.12 264.0996 
L 141.12 264.0996 
L 141.12 275.6484 
L 141.12 275.6484 
z
" clip-path="url(#p7631912eaa)" style="fill: #f2b8e0"/>
   </g>
   <g id="patch_140">
    <path d="M 141.12 278.5356 
L 156.783158 278.5356 
L 156.783158 290.0844 
L 141.12 290.0844 
z
" clip-path="url(#p7631912eaa)" style="fill: #f2b8e0"/>
   </g>
   <g id="patch_141">
    <path d="M 141.12 292.9716 
L 141.12 292.9716 
L 141.12 304.5204 
L 141.12 304.5204 
z
" clip-path="url(#p7631912eaa)" style="fill: #f2b8e0"/>
   </g>
   <g id="patch_142">
    <path d="M 141.12 307.4076 
L 141.12 307.4076 
L 141.12 318.9564 
L 141.12 318.9564 
z
" clip-path="url(#p7631912eaa)" style="fill: #f2b8e0"/>
   </g>
   <g id="patch_143">
    <path d="M 141.12 33.1236 
L 141.12 33.1236 
L 141.12 44.6724 
L 141.12 44.6724 
z
" clip-path="url(#p7631912eaa)" style="fill: #949494"/>
   </g>
   <g id="patch_144">
    <path d="M 141.12 47.5596 
L 141.12 47.5596 
L 141.12 59.1084 
L 141.12 59.1084 
z
" clip-path="url(#p7631912eaa)" style="fill: #949494"/>
   </g>
   <g id="patch_145">
    <path d="M 141.12 61.9956 
L 141.12 61.9956 
L 141.12 73.5444 
L 141.12 73.5444 
z
" clip-path="url(#p7631912eaa)" style="fill: #949494"/>
   </g>
   <g id="patch_146">
    <path d="M 141.12 76.4316 
L 141.12 76.4316 
L 141.12 87.9804 
L 141.12 87.9804 
z
" clip-path="url(#p7631912eaa)" style="fill: #949494"/>
   </g>
   <g id="patch_147">
    <path d="M 141.12 90.8676 
L 141.12 90.8676 
L 141.12 102.4164 
L 141.12 102.4164 
z
" clip-path="url(#p7631912eaa)" style="fill: #949494"/>
   </g>
   <g id="patch_148">
    <path d="M 141.12 105.3036 
L 141.12 105.3036 
L 141.12 116.8524 
L 141.12 116.8524 
z
" clip-path="url(#p7631912eaa)" style="fill: #949494"/>
   </g>
   <g id="patch_149">
    <path d="M 141.12 119.7396 
L 141.12 119.7396 
L 141.12 131.2884 
L 141.12 131.2884 
z
" clip-path="url(#p7631912eaa)" style="fill: #949494"/>
   </g>
   <g id="patch_150">
    <path d="M 141.12 134.1756 
L 141.12 134.1756 
L 141.12 145.7244 
L 141.12 145.7244 
z
" clip-path="url(#p7631912eaa)" style="fill: #949494"/>
   </g>
   <g id="patch_151">
    <path d="M 141.12 148.6116 
L 141.12 148.6116 
L 141.12 160.1604 
L 141.12 160.1604 
z
" clip-path="url(#p7631912eaa)" style="fill: #949494"/>
   </g>
   <g id="patch_152">
    <path d="M 141.12 163.0476 
L 156.783158 163.0476 
L 156.783158 174.5964 
L 141.12 174.5964 
z
" clip-path="url(#p7631912eaa)" style="fill: #949494"/>
   </g>
   <g id="patch_153">
    <path d="M 141.12 177.4836 
L 141.12 177.4836 
L 141.12 189.0324 
L 141.12 189.0324 
z
" clip-path="url(#p7631912eaa)" style="fill: #949494"/>
   </g>
   <g id="patch_154">
    <path d="M 141.12 191.9196 
L 141.12 191.9196 
L 141.12 203.4684 
L 141.12 203.4684 
z
" clip-path="url(#p7631912eaa)" style="fill: #949494"/>
   </g>
   <g id="patch_155">
    <path d="M 141.12 206.3556 
L 141.12 206.3556 
L 141.12 217.9044 
L 141.12 217.9044 
z
" clip-path="url(#p7631912eaa)" style="fill: #949494"/>
   </g>
   <g id="patch_156">
    <path d="M 141.12 220.7916 
L 141.12 220.7916 
L 141.12 232.3404 
L 141.12 232.3404 
z
" clip-path="url(#p7631912eaa)" style="fill: #949494"/>
   </g>
   <g id="patch_157">
    <path d="M 141.12 235.2276 
L 141.12 235.2276 
L 141.12 246.7764 
L 141.12 246.7764 
z
" clip-path="url(#p7631912eaa)" style="fill: #949494"/>
   </g>
   <g id="patch_158">
    <path d="M 141.12 249.6636 
L 141.12 249.6636 
L 141.12 261.2124 
L 141.12 261.2124 
z
" clip-path="url(#p7631912eaa)" style="fill: #949494"/>
   </g>
   <g id="patch_159">
    <path d="M 141.12 264.0996 
L 141.12 264.0996 
L 141.12 275.6484 
L 141.12 275.6484 
z
" clip-path="url(#p7631912eaa)" style="fill: #949494"/>
   </g>
   <g id="patch_160">
    <path d="M 141.12 278.5356 
L 141.12 278.5356 
L 141.12 290.0844 
L 141.12 290.0844 
z
" clip-path="url(#p7631912eaa)" style="fill: #949494"/>
   </g>
   <g id="patch_161">
    <path d="M 141.12 292.9716 
L 141.12 292.9716 
L 141.12 304.5204 
L 141.12 304.5204 
z
" clip-path="url(#p7631912eaa)" style="fill: #949494"/>
   </g>
   <g id="patch_162">
    <path d="M 141.12 307.4076 
L 141.12 307.4076 
L 141.12 318.9564 
L 141.12 318.9564 
z
" clip-path="url(#p7631912eaa)" style="fill: #949494"/>
   </g>
   <g id="patch_163">
    <path d="M 141.12 33.1236 
L 141.12 33.1236 
L 141.12 44.6724 
L 141.12 44.6724 
z
" clip-path="url(#p7631912eaa)" style="fill: #d5cd4a"/>
   </g>
   <g id="patch_164">
    <path d="M 141.12 47.5596 
L 141.12 47.5596 
L 141.12 59.1084 
L 141.12 59.1084 
z
" clip-path="url(#p7631912eaa)" style="fill: #d5cd4a"/>
   </g>
   <g id="patch_165">
    <path d="M 141.12 61.9956 
L 141.12 61.9956 
L 141.12 73.5444 
L 141.12 73.5444 
z
" clip-path="url(#p7631912eaa)" style="fill: #d5cd4a"/>
   </g>
   <g id="patch_166">
    <path d="M 141.12 76.4316 
L 141.12 76.4316 
L 141.12 87.9804 
L 141.12 87.9804 
z
" clip-path="url(#p7631912eaa)" style="fill: #d5cd4a"/>
   </g>
   <g id="patch_167">
    <path d="M 141.12 90.8676 
L 141.12 90.8676 
L 141.12 102.4164 
L 141.12 102.4164 
z
" clip-path="url(#p7631912eaa)" style="fill: #d5cd4a"/>
   </g>
   <g id="patch_168">
    <path d="M 141.12 105.3036 
L 141.12 105.3036 
L 141.12 116.8524 
L 141.12 116.8524 
z
" clip-path="url(#p7631912eaa)" style="fill: #d5cd4a"/>
   </g>
   <g id="patch_169">
    <path d="M 141.12 119.7396 
L 141.12 119.7396 
L 141.12 131.2884 
L 141.12 131.2884 
z
" clip-path="url(#p7631912eaa)" style="fill: #d5cd4a"/>
   </g>
   <g id="patch_170">
    <path d="M 141.12 134.1756 
L 141.12 134.1756 
L 141.12 145.7244 
L 141.12 145.7244 
z
" clip-path="url(#p7631912eaa)" style="fill: #d5cd4a"/>
   </g>
   <g id="patch_171">
    <path d="M 141.12 148.6116 
L 141.12 148.6116 
L 141.12 160.1604 
L 141.12 160.1604 
z
" clip-path="url(#p7631912eaa)" style="fill: #d5cd4a"/>
   </g>
   <g id="patch_172">
    <path d="M 141.12 163.0476 
L 141.12 163.0476 
L 141.12 174.5964 
L 141.12 174.5964 
z
" clip-path="url(#p7631912eaa)" style="fill: #d5cd4a"/>
   </g>
   <g id="patch_173">
    <path d="M 141.12 177.4836 
L 141.12 177.4836 
L 141.12 189.0324 
L 141.12 189.0324 
z
" clip-path="url(#p7631912eaa)" style="fill: #d5cd4a"/>
   </g>
   <g id="patch_174">
    <path d="M 141.12 191.9196 
L 141.12 191.9196 
L 141.12 203.4684 
L 141.12 203.4684 
z
" clip-path="url(#p7631912eaa)" style="fill: #d5cd4a"/>
   </g>
   <g id="patch_175">
    <path d="M 141.12 206.3556 
L 141.12 206.3556 
L 141.12 217.9044 
L 141.12 217.9044 
z
" clip-path="url(#p7631912eaa)" style="fill: #d5cd4a"/>
   </g>
   <g id="patch_176">
    <path d="M 141.12 220.7916 
L 141.12 220.7916 
L 141.12 232.3404 
L 141.12 232.3404 
z
" clip-path="url(#p7631912eaa)" style="fill: #d5cd4a"/>
   </g>
   <g id="patch_177">
    <path d="M 141.12 235.2276 
L 141.12 235.2276 
L 141.12 246.7764 
L 141.12 246.7764 
z
" clip-path="url(#p7631912eaa)" style="fill: #d5cd4a"/>
   </g>
   <g id="patch_178">
    <path d="M 141.12 249.6636 
L 156.783158 249.6636 
L 156.783158 261.2124 
L 141.12 261.2124 
z
" clip-path="url(#p7631912eaa)" style="fill: #d5cd4a"/>
   </g>
   <g id="patch_179">
    <path d="M 141.12 264.0996 
L 141.12 264.0996 
L 141.12 275.6484 
L 141.12 275.6484 
z
" clip-path="url(#p7631912eaa)" style="fill: #d5cd4a"/>
   </g>
   <g id="patch_180">
    <path d="M 141.12 278.5356 
L 141.12 278.5356 
L 141.12 290.0844 
L 141.12 290.0844 
z
" clip-path="url(#p7631912eaa)" style="fill: #d5cd4a"/>
   </g>
   <g id="patch_181">
    <path d="M 141.12 292.9716 
L 141.12 292.9716 
L 141.12 304.5204 
L 141.12 304.5204 
z
" clip-path="url(#p7631912eaa)" style="fill: #d5cd4a"/>
   </g>
   <g id="patch_182">
    <path d="M 141.12 307.4076 
L 141.12 307.4076 
L 141.12 318.9564 
L 141.12 318.9564 
z
" clip-path="url(#p7631912eaa)" style="fill: #d5cd4a"/>
   </g>
   <g id="matplotlib.axis_1">
    <g id="xtick_1">
     <g id="line2d_1">
      <defs>
       <path id="m061dadb844" d="M 0 0 
L 0 3.5 
" style="stroke: #000000; stroke-width: 0.8"/>
      </defs>
      <g>
       <use xlink:href="#m061dadb844" x="141.12" y="320.4" style="stroke: #000000; stroke-width: 0.8"/>
      </g>
     </g>
     <g id="text_1">
      <!-- 0.0 -->
      <g transform="translate(133.168438 334.998438) scale(0.1 -0.1)">
       <defs>
        <path id="DejaVuSans-30" d="M 2034 4250 
Q 1547 4250 1301 3770 
Q 1056 3291 1056 2328 
Q 1056 1369 1301 889 
Q 1547 409 2034 409 
Q 2525 409 2770 889 
Q 3016 1369 3016 2328 
Q 3016 3291 2770 3770 
Q 2525 4250 2034 4250 
z
M 2034 4750 
Q 2819 4750 3233 4129 
Q 3647 3509 3647 2328 
Q 3647 1150 3233 529 
Q 2819 -91 2034 -91 
Q 1250 -91 836 529 
Q 422 1150 422 2328 
Q 422 3509 836 4129 
Q 1250 4750 2034 4750 
z
" transform="scale(0.015625)"/>
        <path id="DejaVuSans-2e" d="M 684 794 
L 1344 794 
L 1344 0 
L 684 0 
L 684 794 
z
" transform="scale(0.015625)"/>
       </defs>
       <use xlink:href="#DejaVuSans-30"/>
       <use xlink:href="#DejaVuSans-2e" x="63.623047"/>
       <use xlink:href="#DejaVuSans-30" x="95.410156"/>
      </g>
     </g>
    </g>
    <g id="xtick_2">
     <g id="line2d_2">
      <g>
       <use xlink:href="#m061dadb844" x="180.277895" y="320.4" style="stroke: #000000; stroke-width: 0.8"/>
      </g>
     </g>
     <g id="text_2">
      <!-- 2.5 -->
      <g transform="translate(172.326332 334.998438) scale(0.1 -0.1)">
       <defs>
        <path id="DejaVuSans-32" d="M 1228 531 
L 3431 531 
L 3431 0 
L 469 0 
L 469 531 
Q 828 903 1448 1529 
Q 2069 2156 2228 2338 
Q 2531 2678 2651 2914 
Q 2772 3150 2772 3378 
Q 2772 3750 2511 3984 
Q 2250 4219 1831 4219 
Q 1534 4219 1204 4116 
Q 875 4013 500 3803 
L 500 4441 
Q 881 4594 1212 4672 
Q 1544 4750 1819 4750 
Q 2544 4750 2975 4387 
Q 3406 4025 3406 3419 
Q 3406 3131 3298 2873 
Q 3191 2616 2906 2266 
Q 2828 2175 2409 1742 
Q 1991 1309 1228 531 
z
" transform="scale(0.015625)"/>
        <path id="DejaVuSans-35" d="M 691 4666 
L 3169 4666 
L 3169 4134 
L 1269 4134 
L 1269 2991 
Q 1406 3038 1543 3061 
Q 1681 3084 1819 3084 
Q 2600 3084 3056 2656 
Q 3513 2228 3513 1497 
Q 3513 744 3044 326 
Q 2575 -91 1722 -91 
Q 1428 -91 1123 -41 
Q 819 9 494 109 
L 494 744 
Q 775 591 1075 516 
Q 1375 441 1709 441 
Q 2250 441 2565 725 
Q 2881 1009 2881 1497 
Q 2881 1984 2565 2268 
Q 2250 2553 1709 2553 
Q 1456 2553 1204 2497 
Q 953 2441 691 2322 
L 691 4666 
z
" transform="scale(0.015625)"/>
       </defs>
       <use xlink:href="#DejaVuSans-32"/>
       <use xlink:href="#DejaVuSans-2e" x="63.623047"/>
       <use xlink:href="#DejaVuSans-35" x="95.410156"/>
      </g>
     </g>
    </g>
    <g id="xtick_3">
     <g id="line2d_3">
      <g>
       <use xlink:href="#m061dadb844" x="219.435789" y="320.4" style="stroke: #000000; stroke-width: 0.8"/>
      </g>
     </g>
     <g id="text_3">
      <!-- 5.0 -->
      <g transform="translate(211.484227 334.998438) scale(0.1 -0.1)">
       <use xlink:href="#DejaVuSans-35"/>
       <use xlink:href="#DejaVuSans-2e" x="63.623047"/>
       <use xlink:href="#DejaVuSans-30" x="95.410156"/>
      </g>
     </g>
    </g>
    <g id="xtick_4">
     <g id="line2d_4">
      <g>
       <use xlink:href="#m061dadb844" x="258.593684" y="320.4" style="stroke: #000000; stroke-width: 0.8"/>
      </g>
     </g>
     <g id="text_4">
      <!-- 7.5 -->
      <g transform="translate(250.642122 334.998438) scale(0.1 -0.1)">
       <defs>
        <path id="DejaVuSans-37" d="M 525 4666 
L 3525 4666 
L 3525 4397 
L 1831 0 
L 1172 0 
L 2766 4134 
L 525 4134 
L 525 4666 
z
" transform="scale(0.015625)"/>
       </defs>
       <use xlink:href="#DejaVuSans-37"/>
       <use xlink:href="#DejaVuSans-2e" x="63.623047"/>
       <use xlink:href="#DejaVuSans-35" x="95.410156"/>
      </g>
     </g>
    </g>
    <g id="xtick_5">
     <g id="line2d_5">
      <g>
       <use xlink:href="#m061dadb844" x="297.751579" y="320.4" style="stroke: #000000; stroke-width: 0.8"/>
      </g>
     </g>
     <g id="text_5">
      <!-- 10.0 -->
      <g transform="translate(286.618766 334.998438) scale(0.1 -0.1)">
       <defs>
        <path id="DejaVuSans-31" d="M 794 531 
L 1825 531 
L 1825 4091 
L 703 3866 
L 703 4441 
L 1819 4666 
L 2450 4666 
L 2450 531 
L 3481 531 
L 3481 0 
L 794 0 
L 794 531 
z
" transform="scale(0.015625)"/>
       </defs>
       <use xlink:href="#DejaVuSans-31"/>
       <use xlink:href="#DejaVuSans-30" x="63.623047"/>
       <use xlink:href="#DejaVuSans-2e" x="127.246094"/>
       <use xlink:href="#DejaVuSans-30" x="159.033203"/>
      </g>
     </g>
    </g>
    <g id="xtick_6">
     <g id="line2d_6">
      <g>
       <use xlink:href="#m061dadb844" x="336.909474" y="320.4" style="stroke: #000000; stroke-width: 0.8"/>
      </g>
     </g>
     <g id="text_6">
      <!-- 12.5 -->
      <g transform="translate(325.776661 334.998438) scale(0.1 -0.1)">
       <use xlink:href="#DejaVuSans-31"/>
       <use xlink:href="#DejaVuSans-32" x="63.623047"/>
       <use xlink:href="#DejaVuSans-2e" x="127.246094"/>
       <use xlink:href="#DejaVuSans-35" x="159.033203"/>
      </g>
     </g>
    </g>
    <g id="xtick_7">
     <g id="line2d_7">
      <g>
       <use xlink:href="#m061dadb844" x="376.067368" y="320.4" style="stroke: #000000; stroke-width: 0.8"/>
      </g>
     </g>
     <g id="text_7">
      <!-- 15.0 -->
      <g transform="translate(364.934556 334.998438) scale(0.1 -0.1)">
       <use xlink:href="#DejaVuSans-31"/>
       <use xlink:href="#DejaVuSans-35" x="63.623047"/>
       <use xlink:href="#DejaVuSans-2e" x="127.246094"/>
       <use xlink:href="#DejaVuSans-30" x="159.033203"/>
      </g>
     </g>
    </g>
    <g id="xtick_8">
     <g id="line2d_8">
      <g>
       <use xlink:href="#m061dadb844" x="415.225263" y="320.4" style="stroke: #000000; stroke-width: 0.8"/>
      </g>
     </g>
     <g id="text_8">
      <!-- 17.5 -->
      <g transform="translate(404.092451 334.998438) scale(0.1 -0.1)">
       <use xlink:href="#DejaVuSans-31"/>
       <use xlink:href="#DejaVuSans-37" x="63.623047"/>
       <use xlink:href="#DejaVuSans-2e" x="127.246094"/>
       <use xlink:href="#DejaVuSans-35" x="159.033203"/>
      </g>
     </g>
    </g>
    <g id="text_9">
     <!-- count -->
     <g transform="translate(283.25375 348.676562) scale(0.1 -0.1)">
      <defs>
       <path id="DejaVuSans-63" d="M 3122 3366 
L 3122 2828 
Q 2878 2963 2633 3030 
Q 2388 3097 2138 3097 
Q 1578 3097 1268 2742 
Q 959 2388 959 1747 
Q 959 1106 1268 751 
Q 1578 397 2138 397 
Q 2388 397 2633 464 
Q 2878 531 3122 666 
L 3122 134 
Q 2881 22 2623 -34 
Q 2366 -91 2075 -91 
Q 1284 -91 818 406 
Q 353 903 353 1747 
Q 353 2603 823 3093 
Q 1294 3584 2113 3584 
Q 2378 3584 2631 3529 
Q 2884 3475 3122 3366 
z
" transform="scale(0.015625)"/>
       <path id="DejaVuSans-6f" d="M 1959 3097 
Q 1497 3097 1228 2736 
Q 959 2375 959 1747 
Q 959 1119 1226 758 
Q 1494 397 1959 397 
Q 2419 397 2687 759 
Q 2956 1122 2956 1747 
Q 2956 2369 2687 2733 
Q 2419 3097 1959 3097 
z
M 1959 3584 
Q 2709 3584 3137 3096 
Q 3566 2609 3566 1747 
Q 3566 888 3137 398 
Q 2709 -91 1959 -91 
Q 1206 -91 779 398 
Q 353 888 353 1747 
Q 353 2609 779 3096 
Q 1206 3584 1959 3584 
z
" transform="scale(0.015625)"/>
       <path id="DejaVuSans-75" d="M 544 1381 
L 544 3500 
L 1119 3500 
L 1119 1403 
Q 1119 906 1312 657 
Q 1506 409 1894 409 
Q 2359 409 2629 706 
Q 2900 1003 2900 1516 
L 2900 3500 
L 3475 3500 
L 3475 0 
L 2900 0 
L 2900 538 
Q 2691 219 2414 64 
Q 2138 -91 1772 -91 
Q 1169 -91 856 284 
Q 544 659 544 1381 
z
M 1991 3584 
L 1991 3584 
z
" transform="scale(0.015625)"/>
       <path id="DejaVuSans-6e" d="M 3513 2113 
L 3513 0 
L 2938 0 
L 2938 2094 
Q 2938 2591 2744 2837 
Q 2550 3084 2163 3084 
Q 1697 3084 1428 2787 
Q 1159 2491 1159 1978 
L 1159 0 
L 581 0 
L 581 3500 
L 1159 3500 
L 1159 2956 
Q 1366 3272 1645 3428 
Q 1925 3584 2291 3584 
Q 2894 3584 3203 3211 
Q 3513 2838 3513 2113 
z
" transform="scale(0.015625)"/>
       <path id="DejaVuSans-74" d="M 1172 4494 
L 1172 3500 
L 2356 3500 
L 2356 3053 
L 1172 3053 
L 1172 1153 
Q 1172 725 1289 603 
Q 1406 481 1766 481 
L 2356 481 
L 2356 0 
L 1766 0 
Q 1100 0 847 248 
Q 594 497 594 1153 
L 594 3053 
L 172 3053 
L 172 3500 
L 594 3500 
L 594 4494 
L 1172 4494 
z
" transform="scale(0.015625)"/>
      </defs>
      <use xlink:href="#DejaVuSans-63"/>
      <use xlink:href="#DejaVuSans-6f" x="54.980469"/>
      <use xlink:href="#DejaVuSans-75" x="116.162109"/>
      <use xlink:href="#DejaVuSans-6e" x="179.541016"/>
      <use xlink:href="#DejaVuSans-74" x="242.919922"/>
     </g>
    </g>
   </g>
   <g id="matplotlib.axis_2">
    <g id="ytick_1">
     <g id="line2d_9">
      <defs>
       <path id="m288c59fda0" d="M 0 0 
L -3.5 0 
" style="stroke: #000000; stroke-width: 0.8"/>
      </defs>
      <g>
       <use xlink:href="#m288c59fda0" x="141.12" y="38.898" style="stroke: #000000; stroke-width: 0.8"/>
      </g>
     </g>
     <g id="text_10">
      <!-- New Relic -->
      <g transform="translate(85.423125 42.697219) scale(0.1 -0.1)">
       <defs>
        <path id="DejaVuSans-4e" d="M 628 4666 
L 1478 4666 
L 3547 763 
L 3547 4666 
L 4159 4666 
L 4159 0 
L 3309 0 
L 1241 3903 
L 1241 0 
L 628 0 
L 628 4666 
z
" transform="scale(0.015625)"/>
        <path id="DejaVuSans-65" d="M 3597 1894 
L 3597 1613 
L 953 1613 
Q 991 1019 1311 708 
Q 1631 397 2203 397 
Q 2534 397 2845 478 
Q 3156 559 3463 722 
L 3463 178 
Q 3153 47 2828 -22 
Q 2503 -91 2169 -91 
Q 1331 -91 842 396 
Q 353 884 353 1716 
Q 353 2575 817 3079 
Q 1281 3584 2069 3584 
Q 2775 3584 3186 3129 
Q 3597 2675 3597 1894 
z
M 3022 2063 
Q 3016 2534 2758 2815 
Q 2500 3097 2075 3097 
Q 1594 3097 1305 2825 
Q 1016 2553 972 2059 
L 3022 2063 
z
" transform="scale(0.015625)"/>
        <path id="DejaVuSans-77" d="M 269 3500 
L 844 3500 
L 1563 769 
L 2278 3500 
L 2956 3500 
L 3675 769 
L 4391 3500 
L 4966 3500 
L 4050 0 
L 3372 0 
L 2619 2869 
L 1863 0 
L 1184 0 
L 269 3500 
z
" transform="scale(0.015625)"/>
        <path id="DejaVuSans-20" transform="scale(0.015625)"/>
        <path id="DejaVuSans-52" d="M 2841 2188 
Q 3044 2119 3236 1894 
Q 3428 1669 3622 1275 
L 4263 0 
L 3584 0 
L 2988 1197 
Q 2756 1666 2539 1819 
Q 2322 1972 1947 1972 
L 1259 1972 
L 1259 0 
L 628 0 
L 628 4666 
L 2053 4666 
Q 2853 4666 3247 4331 
Q 3641 3997 3641 3322 
Q 3641 2881 3436 2590 
Q 3231 2300 2841 2188 
z
M 1259 4147 
L 1259 2491 
L 2053 2491 
Q 2509 2491 2742 2702 
Q 2975 2913 2975 3322 
Q 2975 3731 2742 3939 
Q 2509 4147 2053 4147 
L 1259 4147 
z
" transform="scale(0.015625)"/>
        <path id="DejaVuSans-6c" d="M 603 4863 
L 1178 4863 
L 1178 0 
L 603 0 
L 603 4863 
z
" transform="scale(0.015625)"/>
        <path id="DejaVuSans-69" d="M 603 3500 
L 1178 3500 
L 1178 0 
L 603 0 
L 603 3500 
z
M 603 4863 
L 1178 4863 
L 1178 4134 
L 603 4134 
L 603 4863 
z
" transform="scale(0.015625)"/>
       </defs>
       <use xlink:href="#DejaVuSans-4e"/>
       <use xlink:href="#DejaVuSans-65" x="74.804688"/>
       <use xlink:href="#DejaVuSans-77" x="136.328125"/>
       <use xlink:href="#DejaVuSans-20" x="218.115234"/>
       <use xlink:href="#DejaVuSans-52" x="249.902344"/>
       <use xlink:href="#DejaVuSans-65" x="314.884766"/>
       <use xlink:href="#DejaVuSans-6c" x="376.408203"/>
       <use xlink:href="#DejaVuSans-69" x="404.191406"/>
       <use xlink:href="#DejaVuSans-63" x="431.974609"/>
      </g>
     </g>
    </g>
    <g id="ytick_2">
     <g id="line2d_10">
      <g>
       <use xlink:href="#m288c59fda0" x="141.12" y="53.334" style="stroke: #000000; stroke-width: 0.8"/>
      </g>
     </g>
     <g id="text_11">
      <!-- TrackJS -->
      <g transform="translate(98.660625 57.133219) scale(0.1 -0.1)">
       <defs>
        <path id="DejaVuSans-54" d="M -19 4666 
L 3928 4666 
L 3928 4134 
L 2272 4134 
L 2272 0 
L 1638 0 
L 1638 4134 
L -19 4134 
L -19 4666 
z
" transform="scale(0.015625)"/>
        <path id="DejaVuSans-72" d="M 2631 2963 
Q 2534 3019 2420 3045 
Q 2306 3072 2169 3072 
Q 1681 3072 1420 2755 
Q 1159 2438 1159 1844 
L 1159 0 
L 581 0 
L 581 3500 
L 1159 3500 
L 1159 2956 
Q 1341 3275 1631 3429 
Q 1922 3584 2338 3584 
Q 2397 3584 2469 3576 
Q 2541 3569 2628 3553 
L 2631 2963 
z
" transform="scale(0.015625)"/>
        <path id="DejaVuSans-61" d="M 2194 1759 
Q 1497 1759 1228 1600 
Q 959 1441 959 1056 
Q 959 750 1161 570 
Q 1363 391 1709 391 
Q 2188 391 2477 730 
Q 2766 1069 2766 1631 
L 2766 1759 
L 2194 1759 
z
M 3341 1997 
L 3341 0 
L 2766 0 
L 2766 531 
Q 2569 213 2275 61 
Q 1981 -91 1556 -91 
Q 1019 -91 701 211 
Q 384 513 384 1019 
Q 384 1609 779 1909 
Q 1175 2209 1959 2209 
L 2766 2209 
L 2766 2266 
Q 2766 2663 2505 2880 
Q 2244 3097 1772 3097 
Q 1472 3097 1187 3025 
Q 903 2953 641 2809 
L 641 3341 
Q 956 3463 1253 3523 
Q 1550 3584 1831 3584 
Q 2591 3584 2966 3190 
Q 3341 2797 3341 1997 
z
" transform="scale(0.015625)"/>
        <path id="DejaVuSans-6b" d="M 581 4863 
L 1159 4863 
L 1159 1991 
L 2875 3500 
L 3609 3500 
L 1753 1863 
L 3688 0 
L 2938 0 
L 1159 1709 
L 1159 0 
L 581 0 
L 581 4863 
z
" transform="scale(0.015625)"/>
        <path id="DejaVuSans-4a" d="M 628 4666 
L 1259 4666 
L 1259 325 
Q 1259 -519 939 -900 
Q 619 -1281 -91 -1281 
L -331 -1281 
L -331 -750 
L -134 -750 
Q 284 -750 456 -515 
Q 628 -281 628 325 
L 628 4666 
z
" transform="scale(0.015625)"/>
        <path id="DejaVuSans-53" d="M 3425 4513 
L 3425 3897 
Q 3066 4069 2747 4153 
Q 2428 4238 2131 4238 
Q 1616 4238 1336 4038 
Q 1056 3838 1056 3469 
Q 1056 3159 1242 3001 
Q 1428 2844 1947 2747 
L 2328 2669 
Q 3034 2534 3370 2195 
Q 3706 1856 3706 1288 
Q 3706 609 3251 259 
Q 2797 -91 1919 -91 
Q 1588 -91 1214 -16 
Q 841 59 441 206 
L 441 856 
Q 825 641 1194 531 
Q 1563 422 1919 422 
Q 2459 422 2753 634 
Q 3047 847 3047 1241 
Q 3047 1584 2836 1778 
Q 2625 1972 2144 2069 
L 1759 2144 
Q 1053 2284 737 2584 
Q 422 2884 422 3419 
Q 422 4038 858 4394 
Q 1294 4750 2059 4750 
Q 2388 4750 2728 4690 
Q 3069 4631 3425 4513 
z
" transform="scale(0.015625)"/>
       </defs>
       <use xlink:href="#DejaVuSans-54"/>
       <use xlink:href="#DejaVuSans-72" x="46.333984"/>
       <use xlink:href="#DejaVuSans-61" x="87.447266"/>
       <use xlink:href="#DejaVuSans-63" x="148.726562"/>
       <use xlink:href="#DejaVuSans-6b" x="203.707031"/>
       <use xlink:href="#DejaVuSans-4a" x="261.617188"/>
       <use xlink:href="#DejaVuSans-53" x="291.109375"/>
      </g>
     </g>
    </g>
    <g id="ytick_3">
     <g id="line2d_11">
      <g>
       <use xlink:href="#m288c59fda0" x="141.12" y="67.77" style="stroke: #000000; stroke-width: 0.8"/>
      </g>
     </g>
     <g id="text_12">
      <!-- Sentry -->
      <g transform="translate(101.330938 71.569219) scale(0.1 -0.1)">
       <defs>
        <path id="DejaVuSans-79" d="M 2059 -325 
Q 1816 -950 1584 -1140 
Q 1353 -1331 966 -1331 
L 506 -1331 
L 506 -850 
L 844 -850 
Q 1081 -850 1212 -737 
Q 1344 -625 1503 -206 
L 1606 56 
L 191 3500 
L 800 3500 
L 1894 763 
L 2988 3500 
L 3597 3500 
L 2059 -325 
z
" transform="scale(0.015625)"/>
       </defs>
       <use xlink:href="#DejaVuSans-53"/>
       <use xlink:href="#DejaVuSans-65" x="63.476562"/>
       <use xlink:href="#DejaVuSans-6e" x="125"/>
       <use xlink:href="#DejaVuSans-74" x="188.378906"/>
       <use xlink:href="#DejaVuSans-72" x="227.587891"/>
       <use xlink:href="#DejaVuSans-79" x="268.701172"/>
      </g>
     </g>
    </g>
    <g id="ytick_4">
     <g id="line2d_12">
      <g>
       <use xlink:href="#m288c59fda0" x="141.12" y="82.206" style="stroke: #000000; stroke-width: 0.8"/>
      </g>
     </g>
     <g id="text_13">
      <!-- PagerDuty -->
      <g transform="translate(81.923125 86.005219) scale(0.1 -0.1)">
       <defs>
        <path id="DejaVuSans-50" d="M 1259 4147 
L 1259 2394 
L 2053 2394 
Q 2494 2394 2734 2622 
Q 2975 2850 2975 3272 
Q 2975 3691 2734 3919 
Q 2494 4147 2053 4147 
L 1259 4147 
z
M 628 4666 
L 2053 4666 
Q 2838 4666 3239 4311 
Q 3641 3956 3641 3272 
Q 3641 2581 3239 2228 
Q 2838 1875 2053 1875 
L 1259 1875 
L 1259 0 
L 628 0 
L 628 4666 
z
" transform="scale(0.015625)"/>
        <path id="DejaVuSans-67" d="M 2906 1791 
Q 2906 2416 2648 2759 
Q 2391 3103 1925 3103 
Q 1463 3103 1205 2759 
Q 947 2416 947 1791 
Q 947 1169 1205 825 
Q 1463 481 1925 481 
Q 2391 481 2648 825 
Q 2906 1169 2906 1791 
z
M 3481 434 
Q 3481 -459 3084 -895 
Q 2688 -1331 1869 -1331 
Q 1566 -1331 1297 -1286 
Q 1028 -1241 775 -1147 
L 775 -588 
Q 1028 -725 1275 -790 
Q 1522 -856 1778 -856 
Q 2344 -856 2625 -561 
Q 2906 -266 2906 331 
L 2906 616 
Q 2728 306 2450 153 
Q 2172 0 1784 0 
Q 1141 0 747 490 
Q 353 981 353 1791 
Q 353 2603 747 3093 
Q 1141 3584 1784 3584 
Q 2172 3584 2450 3431 
Q 2728 3278 2906 2969 
L 2906 3500 
L 3481 3500 
L 3481 434 
z
" transform="scale(0.015625)"/>
        <path id="DejaVuSans-44" d="M 1259 4147 
L 1259 519 
L 2022 519 
Q 2988 519 3436 956 
Q 3884 1394 3884 2338 
Q 3884 3275 3436 3711 
Q 2988 4147 2022 4147 
L 1259 4147 
z
M 628 4666 
L 1925 4666 
Q 3281 4666 3915 4102 
Q 4550 3538 4550 2338 
Q 4550 1131 3912 565 
Q 3275 0 1925 0 
L 628 0 
L 628 4666 
z
" transform="scale(0.015625)"/>
       </defs>
       <use xlink:href="#DejaVuSans-50"/>
       <use xlink:href="#DejaVuSans-61" x="55.802734"/>
       <use xlink:href="#DejaVuSans-67" x="117.082031"/>
       <use xlink:href="#DejaVuSans-65" x="180.558594"/>
       <use xlink:href="#DejaVuSans-72" x="242.082031"/>
       <use xlink:href="#DejaVuSans-44" x="283.195312"/>
       <use xlink:href="#DejaVuSans-75" x="360.197266"/>
       <use xlink:href="#DejaVuSans-74" x="423.576172"/>
       <use xlink:href="#DejaVuSans-79" x="462.785156"/>
      </g>
     </g>
    </g>
    <g id="ytick_5">
     <g id="line2d_13">
      <g>
       <use xlink:href="#m288c59fda0" x="141.12" y="96.642" style="stroke: #000000; stroke-width: 0.8"/>
      </g>
     </g>
     <g id="text_14">
      <!-- Kibana -->
      <g transform="translate(99.841875 100.441219) scale(0.1 -0.1)">
       <defs>
        <path id="DejaVuSans-4b" d="M 628 4666 
L 1259 4666 
L 1259 2694 
L 3353 4666 
L 4166 4666 
L 1850 2491 
L 4331 0 
L 3500 0 
L 1259 2247 
L 1259 0 
L 628 0 
L 628 4666 
z
" transform="scale(0.015625)"/>
        <path id="DejaVuSans-62" d="M 3116 1747 
Q 3116 2381 2855 2742 
Q 2594 3103 2138 3103 
Q 1681 3103 1420 2742 
Q 1159 2381 1159 1747 
Q 1159 1113 1420 752 
Q 1681 391 2138 391 
Q 2594 391 2855 752 
Q 3116 1113 3116 1747 
z
M 1159 2969 
Q 1341 3281 1617 3432 
Q 1894 3584 2278 3584 
Q 2916 3584 3314 3078 
Q 3713 2572 3713 1747 
Q 3713 922 3314 415 
Q 2916 -91 2278 -91 
Q 1894 -91 1617 61 
Q 1341 213 1159 525 
L 1159 0 
L 581 0 
L 581 4863 
L 1159 4863 
L 1159 2969 
z
" transform="scale(0.015625)"/>
       </defs>
       <use xlink:href="#DejaVuSans-4b"/>
       <use xlink:href="#DejaVuSans-69" x="65.576172"/>
       <use xlink:href="#DejaVuSans-62" x="93.359375"/>
       <use xlink:href="#DejaVuSans-61" x="156.835938"/>
       <use xlink:href="#DejaVuSans-6e" x="218.115234"/>
       <use xlink:href="#DejaVuSans-61" x="281.494141"/>
      </g>
     </g>
    </g>
    <g id="ytick_6">
     <g id="line2d_14">
      <g>
       <use xlink:href="#m288c59fda0" x="141.12" y="111.078" style="stroke: #000000; stroke-width: 0.8"/>
      </g>
     </g>
     <g id="text_15">
      <!-- Sumo Logic -->
      <g transform="translate(76.255938 114.877219) scale(0.1 -0.1)">
       <defs>
        <path id="DejaVuSans-6d" d="M 3328 2828 
Q 3544 3216 3844 3400 
Q 4144 3584 4550 3584 
Q 5097 3584 5394 3201 
Q 5691 2819 5691 2113 
L 5691 0 
L 5113 0 
L 5113 2094 
Q 5113 2597 4934 2840 
Q 4756 3084 4391 3084 
Q 3944 3084 3684 2787 
Q 3425 2491 3425 1978 
L 3425 0 
L 2847 0 
L 2847 2094 
Q 2847 2600 2669 2842 
Q 2491 3084 2119 3084 
Q 1678 3084 1418 2786 
Q 1159 2488 1159 1978 
L 1159 0 
L 581 0 
L 581 3500 
L 1159 3500 
L 1159 2956 
Q 1356 3278 1631 3431 
Q 1906 3584 2284 3584 
Q 2666 3584 2933 3390 
Q 3200 3197 3328 2828 
z
" transform="scale(0.015625)"/>
        <path id="DejaVuSans-4c" d="M 628 4666 
L 1259 4666 
L 1259 531 
L 3531 531 
L 3531 0 
L 628 0 
L 628 4666 
z
" transform="scale(0.015625)"/>
       </defs>
       <use xlink:href="#DejaVuSans-53"/>
       <use xlink:href="#DejaVuSans-75" x="63.476562"/>
       <use xlink:href="#DejaVuSans-6d" x="126.855469"/>
       <use xlink:href="#DejaVuSans-6f" x="224.267578"/>
       <use xlink:href="#DejaVuSans-20" x="285.449219"/>
       <use xlink:href="#DejaVuSans-4c" x="317.236328"/>
       <use xlink:href="#DejaVuSans-6f" x="371.199219"/>
       <use xlink:href="#DejaVuSans-67" x="432.380859"/>
       <use xlink:href="#DejaVuSans-69" x="495.857422"/>
       <use xlink:href="#DejaVuSans-63" x="523.640625"/>
      </g>
     </g>
    </g>
    <g id="ytick_7">
     <g id="line2d_15">
      <g>
       <use xlink:href="#m288c59fda0" x="141.12" y="125.514" style="stroke: #000000; stroke-width: 0.8"/>
      </g>
     </g>
     <g id="text_16">
      <!-- Datadog -->
      <g transform="translate(91.427813 129.313219) scale(0.1 -0.1)">
       <defs>
        <path id="DejaVuSans-64" d="M 2906 2969 
L 2906 4863 
L 3481 4863 
L 3481 0 
L 2906 0 
L 2906 525 
Q 2725 213 2448 61 
Q 2172 -91 1784 -91 
Q 1150 -91 751 415 
Q 353 922 353 1747 
Q 353 2572 751 3078 
Q 1150 3584 1784 3584 
Q 2172 3584 2448 3432 
Q 2725 3281 2906 2969 
z
M 947 1747 
Q 947 1113 1208 752 
Q 1469 391 1925 391 
Q 2381 391 2643 752 
Q 2906 1113 2906 1747 
Q 2906 2381 2643 2742 
Q 2381 3103 1925 3103 
Q 1469 3103 1208 2742 
Q 947 2381 947 1747 
z
" transform="scale(0.015625)"/>
       </defs>
       <use xlink:href="#DejaVuSans-44"/>
       <use xlink:href="#DejaVuSans-61" x="77.001953"/>
       <use xlink:href="#DejaVuSans-74" x="138.28125"/>
       <use xlink:href="#DejaVuSans-61" x="177.490234"/>
       <use xlink:href="#DejaVuSans-64" x="238.769531"/>
       <use xlink:href="#DejaVuSans-6f" x="302.246094"/>
       <use xlink:href="#DejaVuSans-67" x="363.427734"/>
      </g>
     </g>
    </g>
    <g id="ytick_8">
     <g id="line2d_16">
      <g>
       <use xlink:href="#m288c59fda0" x="141.12" y="139.95" style="stroke: #000000; stroke-width: 0.8"/>
      </g>
     </g>
     <g id="text_17">
      <!-- Rollbar -->
      <g transform="translate(99.359062 143.749219) scale(0.1 -0.1)">
       <use xlink:href="#DejaVuSans-52"/>
       <use xlink:href="#DejaVuSans-6f" x="64.982422"/>
       <use xlink:href="#DejaVuSans-6c" x="126.164062"/>
       <use xlink:href="#DejaVuSans-6c" x="153.947266"/>
       <use xlink:href="#DejaVuSans-62" x="181.730469"/>
       <use xlink:href="#DejaVuSans-61" x="245.207031"/>
       <use xlink:href="#DejaVuSans-72" x="306.486328"/>
      </g>
     </g>
    </g>
    <g id="ytick_9">
     <g id="line2d_17">
      <g>
       <use xlink:href="#m288c59fda0" x="141.12" y="154.386" style="stroke: #000000; stroke-width: 0.8"/>
      </g>
     </g>
     <g id="text_18">
      <!-- Bugsnag -->
      <g transform="translate(90.549688 158.185219) scale(0.1 -0.1)">
       <defs>
        <path id="DejaVuSans-42" d="M 1259 2228 
L 1259 519 
L 2272 519 
Q 2781 519 3026 730 
Q 3272 941 3272 1375 
Q 3272 1813 3026 2020 
Q 2781 2228 2272 2228 
L 1259 2228 
z
M 1259 4147 
L 1259 2741 
L 2194 2741 
Q 2656 2741 2882 2914 
Q 3109 3088 3109 3444 
Q 3109 3797 2882 3972 
Q 2656 4147 2194 4147 
L 1259 4147 
z
M 628 4666 
L 2241 4666 
Q 2963 4666 3353 4366 
Q 3744 4066 3744 3513 
Q 3744 3084 3544 2831 
Q 3344 2578 2956 2516 
Q 3422 2416 3680 2098 
Q 3938 1781 3938 1306 
Q 3938 681 3513 340 
Q 3088 0 2303 0 
L 628 0 
L 628 4666 
z
" transform="scale(0.015625)"/>
        <path id="DejaVuSans-73" d="M 2834 3397 
L 2834 2853 
Q 2591 2978 2328 3040 
Q 2066 3103 1784 3103 
Q 1356 3103 1142 2972 
Q 928 2841 928 2578 
Q 928 2378 1081 2264 
Q 1234 2150 1697 2047 
L 1894 2003 
Q 2506 1872 2764 1633 
Q 3022 1394 3022 966 
Q 3022 478 2636 193 
Q 2250 -91 1575 -91 
Q 1294 -91 989 -36 
Q 684 19 347 128 
L 347 722 
Q 666 556 975 473 
Q 1284 391 1588 391 
Q 1994 391 2212 530 
Q 2431 669 2431 922 
Q 2431 1156 2273 1281 
Q 2116 1406 1581 1522 
L 1381 1569 
Q 847 1681 609 1914 
Q 372 2147 372 2553 
Q 372 3047 722 3315 
Q 1072 3584 1716 3584 
Q 2034 3584 2315 3537 
Q 2597 3491 2834 3397 
z
" transform="scale(0.015625)"/>
       </defs>
       <use xlink:href="#DejaVuSans-42"/>
       <use xlink:href="#DejaVuSans-75" x="68.603516"/>
       <use xlink:href="#DejaVuSans-67" x="131.982422"/>
       <use xlink:href="#DejaVuSans-73" x="195.458984"/>
       <use xlink:href="#DejaVuSans-6e" x="247.558594"/>
       <use xlink:href="#DejaVuSans-61" x="310.9375"/>
       <use xlink:href="#DejaVuSans-67" x="372.216797"/>
      </g>
     </g>
    </g>
    <g id="ytick_10">
     <g id="line2d_18">
      <g>
       <use xlink:href="#m288c59fda0" x="141.12" y="168.822" style="stroke: #000000; stroke-width: 0.8"/>
      </g>
     </g>
     <g id="text_19">
      <!-- Crashlytics -->
      <g transform="translate(79.248125 172.621219) scale(0.1 -0.1)">
       <defs>
        <path id="DejaVuSans-43" d="M 4122 4306 
L 4122 3641 
Q 3803 3938 3442 4084 
Q 3081 4231 2675 4231 
Q 1875 4231 1450 3742 
Q 1025 3253 1025 2328 
Q 1025 1406 1450 917 
Q 1875 428 2675 428 
Q 3081 428 3442 575 
Q 3803 722 4122 1019 
L 4122 359 
Q 3791 134 3420 21 
Q 3050 -91 2638 -91 
Q 1578 -91 968 557 
Q 359 1206 359 2328 
Q 359 3453 968 4101 
Q 1578 4750 2638 4750 
Q 3056 4750 3426 4639 
Q 3797 4528 4122 4306 
z
" transform="scale(0.015625)"/>
        <path id="DejaVuSans-68" d="M 3513 2113 
L 3513 0 
L 2938 0 
L 2938 2094 
Q 2938 2591 2744 2837 
Q 2550 3084 2163 3084 
Q 1697 3084 1428 2787 
Q 1159 2491 1159 1978 
L 1159 0 
L 581 0 
L 581 4863 
L 1159 4863 
L 1159 2956 
Q 1366 3272 1645 3428 
Q 1925 3584 2291 3584 
Q 2894 3584 3203 3211 
Q 3513 2838 3513 2113 
z
" transform="scale(0.015625)"/>
       </defs>
       <use xlink:href="#DejaVuSans-43"/>
       <use xlink:href="#DejaVuSans-72" x="69.824219"/>
       <use xlink:href="#DejaVuSans-61" x="110.9375"/>
       <use xlink:href="#DejaVuSans-73" x="172.216797"/>
       <use xlink:href="#DejaVuSans-68" x="224.316406"/>
       <use xlink:href="#DejaVuSans-6c" x="287.695312"/>
       <use xlink:href="#DejaVuSans-79" x="315.478516"/>
       <use xlink:href="#DejaVuSans-74" x="374.658203"/>
       <use xlink:href="#DejaVuSans-69" x="413.867188"/>
       <use xlink:href="#DejaVuSans-63" x="441.650391"/>
       <use xlink:href="#DejaVuSans-73" x="496.630859"/>
      </g>
     </g>
    </g>
    <g id="ytick_11">
     <g id="line2d_19">
      <g>
       <use xlink:href="#m288c59fda0" x="141.12" y="183.258" style="stroke: #000000; stroke-width: 0.8"/>
      </g>
     </g>
     <g id="text_20">
      <!-- ruxit -->
      <g transform="translate(111.054375 187.057219) scale(0.1 -0.1)">
       <defs>
        <path id="DejaVuSans-78" d="M 3513 3500 
L 2247 1797 
L 3578 0 
L 2900 0 
L 1881 1375 
L 863 0 
L 184 0 
L 1544 1831 
L 300 3500 
L 978 3500 
L 1906 2253 
L 2834 3500 
L 3513 3500 
z
" transform="scale(0.015625)"/>
       </defs>
       <use xlink:href="#DejaVuSans-72"/>
       <use xlink:href="#DejaVuSans-75" x="41.113281"/>
       <use xlink:href="#DejaVuSans-78" x="104.492188"/>
       <use xlink:href="#DejaVuSans-69" x="163.671875"/>
       <use xlink:href="#DejaVuSans-74" x="191.455078"/>
      </g>
     </g>
    </g>
    <g id="ytick_12">
     <g id="line2d_20">
      <g>
       <use xlink:href="#m288c59fda0" x="141.12" y="197.694" style="stroke: #000000; stroke-width: 0.8"/>
      </g>
     </g>
     <g id="text_21">
      <!-- Logstash -->
      <g transform="translate(89.45125 201.493219) scale(0.1 -0.1)">
       <use xlink:href="#DejaVuSans-4c"/>
       <use xlink:href="#DejaVuSans-6f" x="53.962891"/>
       <use xlink:href="#DejaVuSans-67" x="115.144531"/>
       <use xlink:href="#DejaVuSans-73" x="178.621094"/>
       <use xlink:href="#DejaVuSans-74" x="230.720703"/>
       <use xlink:href="#DejaVuSans-61" x="269.929688"/>
       <use xlink:href="#DejaVuSans-73" x="331.208984"/>
       <use xlink:href="#DejaVuSans-68" x="383.308594"/>
      </g>
     </g>
    </g>
    <g id="ytick_13">
     <g id="line2d_21">
      <g>
       <use xlink:href="#m288c59fda0" x="141.12" y="212.13" style="stroke: #000000; stroke-width: 0.8"/>
      </g>
     </g>
     <g id="text_22">
      <!-- Nagios -->
      <g transform="translate(100.055937 215.929219) scale(0.1 -0.1)">
       <use xlink:href="#DejaVuSans-4e"/>
       <use xlink:href="#DejaVuSans-61" x="74.804688"/>
       <use xlink:href="#DejaVuSans-67" x="136.083984"/>
       <use xlink:href="#DejaVuSans-69" x="199.560547"/>
       <use xlink:href="#DejaVuSans-6f" x="227.34375"/>
       <use xlink:href="#DejaVuSans-73" x="288.525391"/>
      </g>
     </g>
    </g>
    <g id="ytick_14">
     <g id="line2d_22">
      <g>
       <use xlink:href="#m288c59fda0" x="141.12" y="226.566" style="stroke: #000000; stroke-width: 0.8"/>
      </g>
     </g>
     <g id="text_23">
      <!-- Stackdriver -->
      <g transform="translate(77.01375 230.365219) scale(0.1 -0.1)">
       <defs>
        <path id="DejaVuSans-76" d="M 191 3500 
L 800 3500 
L 1894 563 
L 2988 3500 
L 3597 3500 
L 2284 0 
L 1503 0 
L 191 3500 
z
" transform="scale(0.015625)"/>
       </defs>
       <use xlink:href="#DejaVuSans-53"/>
       <use xlink:href="#DejaVuSans-74" x="63.476562"/>
       <use xlink:href="#DejaVuSans-61" x="102.685547"/>
       <use xlink:href="#DejaVuSans-63" x="163.964844"/>
       <use xlink:href="#DejaVuSans-6b" x="218.945312"/>
       <use xlink:href="#DejaVuSans-64" x="276.855469"/>
       <use xlink:href="#DejaVuSans-72" x="340.332031"/>
       <use xlink:href="#DejaVuSans-69" x="381.445312"/>
       <use xlink:href="#DejaVuSans-76" x="409.228516"/>
       <use xlink:href="#DejaVuSans-65" x="468.408203"/>
       <use xlink:href="#DejaVuSans-72" x="529.931641"/>
      </g>
     </g>
    </g>
    <g id="ytick_15">
     <g id="line2d_23">
      <g>
       <use xlink:href="#m288c59fda0" x="141.12" y="241.002" style="stroke: #000000; stroke-width: 0.8"/>
      </g>
     </g>
     <g id="text_24">
      <!-- StillAlive -->
      <g transform="translate(91.048125 244.801219) scale(0.1 -0.1)">
       <defs>
        <path id="DejaVuSans-41" d="M 2188 4044 
L 1331 1722 
L 3047 1722 
L 2188 4044 
z
M 1831 4666 
L 2547 4666 
L 4325 0 
L 3669 0 
L 3244 1197 
L 1141 1197 
L 716 0 
L 50 0 
L 1831 4666 
z
" transform="scale(0.015625)"/>
       </defs>
       <use xlink:href="#DejaVuSans-53"/>
       <use xlink:href="#DejaVuSans-74" x="63.476562"/>
       <use xlink:href="#DejaVuSans-69" x="102.685547"/>
       <use xlink:href="#DejaVuSans-6c" x="130.46875"/>
       <use xlink:href="#DejaVuSans-6c" x="158.251953"/>
       <use xlink:href="#DejaVuSans-41" x="186.035156"/>
       <use xlink:href="#DejaVuSans-6c" x="254.443359"/>
       <use xlink:href="#DejaVuSans-69" x="282.226562"/>
       <use xlink:href="#DejaVuSans-76" x="310.009766"/>
       <use xlink:href="#DejaVuSans-65" x="369.189453"/>
      </g>
     </g>
    </g>
    <g id="ytick_16">
     <g id="line2d_24">
      <g>
       <use xlink:href="#m288c59fda0" x="141.12" y="255.438" style="stroke: #000000; stroke-width: 0.8"/>
      </g>
     </g>
     <g id="text_25">
      <!-- Log4j -->
      <g transform="translate(107.115313 259.237219) scale(0.1 -0.1)">
       <defs>
        <path id="DejaVuSans-34" d="M 2419 4116 
L 825 1625 
L 2419 1625 
L 2419 4116 
z
M 2253 4666 
L 3047 4666 
L 3047 1625 
L 3713 1625 
L 3713 1100 
L 3047 1100 
L 3047 0 
L 2419 0 
L 2419 1100 
L 313 1100 
L 313 1709 
L 2253 4666 
z
" transform="scale(0.015625)"/>
        <path id="DejaVuSans-6a" d="M 603 3500 
L 1178 3500 
L 1178 -63 
Q 1178 -731 923 -1031 
Q 669 -1331 103 -1331 
L -116 -1331 
L -116 -844 
L 38 -844 
Q 366 -844 484 -692 
Q 603 -541 603 -63 
L 603 3500 
z
M 603 4863 
L 1178 4863 
L 1178 4134 
L 603 4134 
L 603 4863 
z
" transform="scale(0.015625)"/>
       </defs>
       <use xlink:href="#DejaVuSans-4c"/>
       <use xlink:href="#DejaVuSans-6f" x="53.962891"/>
       <use xlink:href="#DejaVuSans-67" x="115.144531"/>
       <use xlink:href="#DejaVuSans-34" x="178.621094"/>
       <use xlink:href="#DejaVuSans-6a" x="242.244141"/>
      </g>
     </g>
    </g>
    <g id="ytick_17">
     <g id="line2d_25">
      <g>
       <use xlink:href="#m288c59fda0" x="141.12" y="269.874" style="stroke: #000000; stroke-width: 0.8"/>
      </g>
     </g>
     <g id="text_26">
      <!-- Grafana -->
      <g transform="translate(94.018438 273.673219) scale(0.1 -0.1)">
       <defs>
        <path id="DejaVuSans-47" d="M 3809 666 
L 3809 1919 
L 2778 1919 
L 2778 2438 
L 4434 2438 
L 4434 434 
Q 4069 175 3628 42 
Q 3188 -91 2688 -91 
Q 1594 -91 976 548 
Q 359 1188 359 2328 
Q 359 3472 976 4111 
Q 1594 4750 2688 4750 
Q 3144 4750 3555 4637 
Q 3966 4525 4313 4306 
L 4313 3634 
Q 3963 3931 3569 4081 
Q 3175 4231 2741 4231 
Q 1884 4231 1454 3753 
Q 1025 3275 1025 2328 
Q 1025 1384 1454 906 
Q 1884 428 2741 428 
Q 3075 428 3337 486 
Q 3600 544 3809 666 
z
" transform="scale(0.015625)"/>
        <path id="DejaVuSans-66" d="M 2375 4863 
L 2375 4384 
L 1825 4384 
Q 1516 4384 1395 4259 
Q 1275 4134 1275 3809 
L 1275 3500 
L 2222 3500 
L 2222 3053 
L 1275 3053 
L 1275 0 
L 697 0 
L 697 3053 
L 147 3053 
L 147 3500 
L 697 3500 
L 697 3744 
Q 697 4328 969 4595 
Q 1241 4863 1831 4863 
L 2375 4863 
z
" transform="scale(0.015625)"/>
       </defs>
       <use xlink:href="#DejaVuSans-47"/>
       <use xlink:href="#DejaVuSans-72" x="77.490234"/>
       <use xlink:href="#DejaVuSans-61" x="118.603516"/>
       <use xlink:href="#DejaVuSans-66" x="179.882812"/>
       <use xlink:href="#DejaVuSans-61" x="215.087891"/>
       <use xlink:href="#DejaVuSans-6e" x="276.367188"/>
       <use xlink:href="#DejaVuSans-61" x="339.746094"/>
      </g>
     </g>
    </g>
    <g id="ytick_18">
     <g id="line2d_26">
      <g>
       <use xlink:href="#m288c59fda0" x="141.12" y="284.31" style="stroke: #000000; stroke-width: 0.8"/>
      </g>
     </g>
     <g id="text_27">
      <!-- Amazon CloudWatch -->
      <g transform="translate(30.827812 288.109219) scale(0.1 -0.1)">
       <defs>
        <path id="DejaVuSans-7a" d="M 353 3500 
L 3084 3500 
L 3084 2975 
L 922 459 
L 3084 459 
L 3084 0 
L 275 0 
L 275 525 
L 2438 3041 
L 353 3041 
L 353 3500 
z
" transform="scale(0.015625)"/>
        <path id="DejaVuSans-57" d="M 213 4666 
L 850 4666 
L 1831 722 
L 2809 4666 
L 3519 4666 
L 4500 722 
L 5478 4666 
L 6119 4666 
L 4947 0 
L 4153 0 
L 3169 4050 
L 2175 0 
L 1381 0 
L 213 4666 
z
" transform="scale(0.015625)"/>
       </defs>
       <use xlink:href="#DejaVuSans-41"/>
       <use xlink:href="#DejaVuSans-6d" x="68.408203"/>
       <use xlink:href="#DejaVuSans-61" x="165.820312"/>
       <use xlink:href="#DejaVuSans-7a" x="227.099609"/>
       <use xlink:href="#DejaVuSans-6f" x="279.589844"/>
       <use xlink:href="#DejaVuSans-6e" x="340.771484"/>
       <use xlink:href="#DejaVuSans-20" x="404.150391"/>
       <use xlink:href="#DejaVuSans-43" x="435.9375"/>
       <use xlink:href="#DejaVuSans-6c" x="505.761719"/>
       <use xlink:href="#DejaVuSans-6f" x="533.544922"/>
       <use xlink:href="#DejaVuSans-75" x="594.726562"/>
       <use xlink:href="#DejaVuSans-64" x="658.105469"/>
       <use xlink:href="#DejaVuSans-57" x="721.582031"/>
       <use xlink:href="#DejaVuSans-61" x="814.083984"/>
       <use xlink:href="#DejaVuSans-74" x="875.363281"/>
       <use xlink:href="#DejaVuSans-63" x="914.572266"/>
       <use xlink:href="#DejaVuSans-68" x="969.552734"/>
      </g>
     </g>
    </g>
    <g id="ytick_19">
     <g id="line2d_27">
      <g>
       <use xlink:href="#m288c59fda0" x="141.12" y="298.746" style="stroke: #000000; stroke-width: 0.8"/>
      </g>
     </g>
     <g id="text_28">
      <!-- AppDynamics -->
      <g transform="translate(65.271563 302.545219) scale(0.1 -0.1)">
       <defs>
        <path id="DejaVuSans-70" d="M 1159 525 
L 1159 -1331 
L 581 -1331 
L 581 3500 
L 1159 3500 
L 1159 2969 
Q 1341 3281 1617 3432 
Q 1894 3584 2278 3584 
Q 2916 3584 3314 3078 
Q 3713 2572 3713 1747 
Q 3713 922 3314 415 
Q 2916 -91 2278 -91 
Q 1894 -91 1617 61 
Q 1341 213 1159 525 
z
M 3116 1747 
Q 3116 2381 2855 2742 
Q 2594 3103 2138 3103 
Q 1681 3103 1420 2742 
Q 1159 2381 1159 1747 
Q 1159 1113 1420 752 
Q 1681 391 2138 391 
Q 2594 391 2855 752 
Q 3116 1113 3116 1747 
z
" transform="scale(0.015625)"/>
       </defs>
       <use xlink:href="#DejaVuSans-41"/>
       <use xlink:href="#DejaVuSans-70" x="68.408203"/>
       <use xlink:href="#DejaVuSans-70" x="131.884766"/>
       <use xlink:href="#DejaVuSans-44" x="195.361328"/>
       <use xlink:href="#DejaVuSans-79" x="272.363281"/>
       <use xlink:href="#DejaVuSans-6e" x="331.542969"/>
       <use xlink:href="#DejaVuSans-61" x="394.921875"/>
       <use xlink:href="#DejaVuSans-6d" x="456.201172"/>
       <use xlink:href="#DejaVuSans-69" x="553.613281"/>
       <use xlink:href="#DejaVuSans-63" x="581.396484"/>
       <use xlink:href="#DejaVuSans-73" x="636.376953"/>
      </g>
     </g>
    </g>
    <g id="ytick_20">
     <g id="line2d_28">
      <g>
       <use xlink:href="#m288c59fda0" x="141.12" y="313.182" style="stroke: #000000; stroke-width: 0.8"/>
      </g>
     </g>
     <g id="text_29">
      <!-- Wavefront -->
      <g transform="translate(82.887188 316.981219) scale(0.1 -0.1)">
       <use xlink:href="#DejaVuSans-57"/>
       <use xlink:href="#DejaVuSans-61" x="92.501953"/>
       <use xlink:href="#DejaVuSans-76" x="153.78125"/>
       <use xlink:href="#DejaVuSans-65" x="212.960938"/>
       <use xlink:href="#DejaVuSans-66" x="274.484375"/>
       <use xlink:href="#DejaVuSans-72" x="309.689453"/>
       <use xlink:href="#DejaVuSans-6f" x="348.552734"/>
       <use xlink:href="#DejaVuSans-6e" x="409.734375"/>
       <use xlink:href="#DejaVuSans-74" x="473.113281"/>
      </g>
     </g>
    </g>
    <g id="text_30">
     <!-- name -->
     <g transform="translate(24.748125 190.219687) rotate(-90) scale(0.1 -0.1)">
      <use xlink:href="#DejaVuSans-6e"/>
      <use xlink:href="#DejaVuSans-61" x="63.378906"/>
      <use xlink:href="#DejaVuSans-6d" x="124.658203"/>
      <use xlink:href="#DejaVuSans-65" x="222.070312"/>
     </g>
    </g>
   </g>
   <g id="patch_183">
    <path d="M 141.12 320.4 
L 141.12 31.68 
" style="fill: none; stroke: #000000; stroke-width: 0.8; stroke-linejoin: miter; stroke-linecap: square"/>
   </g>
   <g id="patch_184">
    <path d="M 141.12 320.4 
L 453.6 320.4 
" style="fill: none; stroke: #000000; stroke-width: 0.8; stroke-linejoin: miter; stroke-linecap: square"/>
   </g>
   <g id="text_31">
    <!-- Top Monitoring -->
    <g transform="translate(239.012812 25.68) scale(0.14 -0.14)">
     <defs>
      <path id="LibreBaskerville-Regular-54" d="M 5030 3706 
L 4768 3706 
Q 4749 3981 4678 4166 
Q 4608 4352 4477 4457 
Q 4346 4563 4147 4608 
Q 3949 4653 3674 4653 
Q 3437 4653 3293 4643 
Q 3149 4634 3072 4608 
Q 2995 4582 2972 4547 
Q 2950 4512 2950 4454 
L 2950 1030 
Q 2950 826 2979 678 
Q 3008 531 3094 438 
Q 3181 346 3344 298 
Q 3507 250 3776 243 
L 3776 0 
L 1357 0 
L 1357 243 
Q 1626 250 1792 298 
Q 1958 346 2044 438 
Q 2131 531 2160 678 
Q 2189 826 2189 1030 
L 2189 4454 
Q 2189 4512 2166 4547 
Q 2144 4582 2077 4608 
Q 2010 4634 1888 4643 
Q 1766 4653 1562 4653 
Q 1312 4653 1097 4633 
Q 883 4614 726 4521 
Q 570 4429 474 4237 
Q 378 4045 371 3706 
L 134 3706 
L 134 4928 
L 4966 4928 
L 5030 3706 
z
" transform="scale(0.015625)"/>
      <path id="LibreBaskerville-Regular-6f" d="M 2080 3456 
Q 2445 3456 2771 3325 
Q 3098 3194 3344 2963 
Q 3590 2733 3734 2416 
Q 3878 2099 3878 1722 
Q 3878 1331 3734 1004 
Q 3590 678 3344 441 
Q 3098 205 2771 70 
Q 2445 -64 2080 -64 
Q 1722 -64 1398 67 
Q 1075 198 832 435 
Q 589 672 448 1001 
Q 307 1331 307 1722 
Q 307 2099 448 2419 
Q 589 2739 832 2969 
Q 1075 3200 1398 3328 
Q 1722 3456 2080 3456 
z
M 2080 3149 
Q 1843 3149 1648 3046 
Q 1453 2944 1315 2755 
Q 1178 2566 1104 2300 
Q 1030 2035 1030 1715 
Q 1030 1382 1104 1113 
Q 1178 845 1315 656 
Q 1453 467 1645 364 
Q 1837 262 2080 262 
Q 2323 262 2521 364 
Q 2720 467 2861 659 
Q 3002 851 3078 1120 
Q 3155 1389 3155 1715 
Q 3155 2035 3078 2297 
Q 3002 2560 2861 2749 
Q 2720 2938 2521 3043 
Q 2323 3149 2080 3149 
z
" transform="scale(0.015625)"/>
      <path id="LibreBaskerville-Regular-70" d="M 1344 2931 
L 1370 2931 
Q 1574 3174 1811 3315 
Q 2048 3456 2362 3456 
Q 2726 3456 3030 3325 
Q 3334 3194 3558 2957 
Q 3782 2720 3907 2397 
Q 4032 2074 4032 1690 
Q 4032 1299 3904 976 
Q 3776 653 3552 422 
Q 3328 192 3021 64 
Q 2714 -64 2355 -64 
Q 2061 -64 1821 35 
Q 1581 134 1370 358 
L 1370 -576 
Q 1370 -832 1395 -985 
Q 1421 -1139 1497 -1222 
Q 1574 -1306 1718 -1338 
Q 1862 -1370 2099 -1376 
L 2099 -1600 
L 128 -1600 
L 128 -1376 
Q 320 -1370 438 -1338 
Q 557 -1306 624 -1222 
Q 691 -1139 716 -995 
Q 742 -851 742 -621 
L 742 1773 
Q 742 2144 732 2381 
Q 723 2618 698 2707 
Q 666 2861 550 2915 
Q 435 2970 115 2970 
L 115 3187 
L 1344 3430 
L 1344 2931 
z
M 1536 2746 
Q 1453 2618 1411 2442 
Q 1370 2266 1370 1984 
L 1370 1485 
Q 1370 1312 1379 1187 
Q 1389 1062 1408 972 
Q 1427 883 1459 812 
Q 1491 742 1542 678 
Q 1690 474 1894 362 
Q 2099 250 2323 250 
Q 2765 250 3037 621 
Q 3309 992 3309 1664 
Q 3309 1997 3235 2269 
Q 3162 2541 3027 2736 
Q 2893 2931 2704 3040 
Q 2515 3149 2285 3149 
Q 2054 3149 1859 3043 
Q 1664 2938 1536 2746 
z
" transform="scale(0.015625)"/>
      <path id="LibreBaskerville-Regular-20" transform="scale(0.015625)"/>
      <path id="LibreBaskerville-Regular-4d" d="M 3520 1146 
L 5184 4928 
L 6618 4928 
L 6618 4685 
Q 6413 4678 6288 4633 
Q 6163 4589 6096 4483 
Q 6029 4378 6006 4192 
Q 5984 4006 5984 3718 
L 5984 1210 
Q 5984 890 6009 704 
Q 6035 518 6108 416 
Q 6182 314 6320 282 
Q 6458 250 6682 243 
L 6682 0 
L 4608 0 
L 4608 243 
Q 4832 250 4969 285 
Q 5107 320 5184 416 
Q 5261 512 5286 688 
Q 5312 864 5312 1165 
L 5312 4134 
L 5248 4134 
L 3379 -64 
L 3238 -64 
L 1402 4134 
L 1376 4134 
L 1376 1210 
Q 1376 890 1401 704 
Q 1427 518 1500 416 
Q 1574 314 1712 282 
Q 1850 250 2074 243 
L 2074 0 
L 288 0 
L 288 243 
Q 512 250 649 285 
Q 787 320 864 416 
Q 941 512 966 688 
Q 992 864 992 1165 
L 992 3763 
Q 992 4032 969 4208 
Q 947 4384 880 4486 
Q 813 4589 685 4630 
Q 557 4672 352 4685 
L 352 4928 
L 1882 4928 
L 3494 1146 
L 3520 1146 
z
" transform="scale(0.015625)"/>
      <path id="LibreBaskerville-Regular-6e" d="M 1382 1005 
Q 1382 742 1395 592 
Q 1408 442 1462 362 
Q 1517 282 1622 256 
Q 1728 230 1914 218 
L 1914 0 
L 237 0 
L 237 218 
Q 416 230 521 256 
Q 627 282 684 358 
Q 742 435 758 576 
Q 774 717 774 960 
L 774 1811 
Q 774 2573 736 2739 
Q 717 2822 688 2876 
Q 659 2931 601 2960 
Q 544 2989 454 2998 
Q 365 3008 224 3008 
L 224 3213 
L 1248 3456 
L 1325 2822 
L 1350 2822 
Q 1594 3123 1920 3289 
Q 2246 3456 2630 3456 
Q 2925 3456 3168 3360 
Q 3411 3264 3539 3098 
Q 3648 2950 3693 2716 
Q 3738 2483 3738 2074 
L 3738 1005 
Q 3738 742 3754 592 
Q 3770 442 3821 362 
Q 3872 282 3977 256 
Q 4083 230 4256 218 
L 4256 0 
L 2598 0 
L 2598 218 
Q 2778 224 2883 253 
Q 2989 282 3043 358 
Q 3098 435 3114 579 
Q 3130 723 3130 960 
L 3130 1805 
Q 3130 2170 3091 2419 
Q 3053 2669 2966 2822 
Q 2880 2976 2739 3043 
Q 2598 3110 2400 3110 
Q 2112 3110 1872 2960 
Q 1632 2810 1498 2547 
Q 1466 2483 1443 2425 
Q 1421 2368 1408 2291 
Q 1395 2214 1388 2115 
Q 1382 2016 1382 1862 
L 1382 1005 
z
" transform="scale(0.015625)"/>
      <path id="LibreBaskerville-Regular-69" d="M 1459 1018 
Q 1459 768 1481 617 
Q 1504 467 1568 380 
Q 1632 294 1747 262 
Q 1862 230 2054 224 
L 2054 0 
L 218 0 
L 218 224 
Q 410 230 531 265 
Q 653 301 720 381 
Q 787 461 809 605 
Q 832 749 832 973 
L 832 1792 
Q 832 2163 822 2403 
Q 813 2643 787 2733 
Q 755 2880 640 2934 
Q 525 2989 205 2989 
L 205 3213 
L 1459 3456 
L 1459 1018 
z
M 723 4755 
Q 723 4922 838 5037 
Q 954 5152 1120 5152 
Q 1286 5152 1401 5037 
Q 1517 4922 1517 4755 
Q 1517 4589 1401 4473 
Q 1286 4358 1120 4358 
Q 954 4358 838 4473 
Q 723 4589 723 4755 
z
" transform="scale(0.015625)"/>
      <path id="LibreBaskerville-Regular-74" d="M 256 2989 
L 256 3226 
Q 595 3424 787 3622 
Q 979 3821 1082 4096 
L 1267 4096 
L 1267 3290 
L 2125 3290 
L 2125 2989 
L 1267 2989 
L 1267 1043 
Q 1267 819 1289 665 
Q 1312 512 1363 419 
Q 1414 326 1497 288 
Q 1581 250 1709 250 
Q 1869 250 1981 317 
Q 2093 384 2202 544 
L 2362 422 
Q 2272 186 2051 61 
Q 1830 -64 1504 -64 
Q 1082 -64 861 137 
Q 640 339 640 717 
L 640 2989 
L 256 2989 
z
" transform="scale(0.015625)"/>
      <path id="LibreBaskerville-Regular-72" d="M 1421 1018 
Q 1421 755 1433 601 
Q 1446 448 1500 368 
Q 1555 288 1657 262 
Q 1760 237 1946 224 
L 1946 0 
L 243 0 
L 243 224 
Q 429 230 537 259 
Q 646 288 704 365 
Q 762 442 778 586 
Q 794 730 794 973 
L 794 1722 
Q 794 2157 784 2400 
Q 774 2643 720 2758 
Q 666 2874 550 2896 
Q 435 2918 230 2918 
L 230 3142 
L 1350 3386 
L 1440 2592 
L 1466 2592 
Q 1549 2784 1673 2944 
Q 1798 3104 1945 3216 
Q 2093 3328 2253 3392 
Q 2413 3456 2579 3456 
Q 2784 3456 2902 3357 
Q 3021 3258 3021 3091 
Q 3021 2938 2925 2851 
Q 2829 2765 2650 2765 
Q 2547 2765 2476 2790 
Q 2406 2816 2352 2845 
Q 2298 2874 2250 2899 
Q 2202 2925 2144 2925 
Q 1971 2925 1798 2704 
Q 1626 2483 1530 2144 
Q 1478 1958 1449 1724 
Q 1421 1491 1421 1235 
L 1421 1018 
z
" transform="scale(0.015625)"/>
      <path id="LibreBaskerville-Regular-67" d="M 1754 1376 
Q 2022 1376 2172 1619 
Q 2323 1862 2323 2304 
Q 2323 2739 2172 2979 
Q 2022 3219 1747 3219 
Q 1472 3219 1309 2976 
Q 1146 2733 1146 2310 
Q 1146 1888 1312 1632 
Q 1478 1376 1754 1376 
z
M 1402 627 
Q 1555 614 1683 601 
Q 1811 589 1936 576 
Q 2061 563 2185 544 
Q 2310 525 2458 506 
Q 2918 435 3196 150 
Q 3475 -134 3475 -563 
Q 3475 -1101 3049 -1382 
Q 2624 -1664 1818 -1664 
Q 1459 -1664 1161 -1600 
Q 864 -1536 653 -1417 
Q 442 -1299 323 -1132 
Q 205 -966 205 -768 
Q 205 -634 249 -518 
Q 294 -403 371 -316 
Q 448 -230 553 -179 
Q 659 -128 774 -128 
Q 992 -128 1165 -262 
Q 992 -301 883 -451 
Q 774 -602 774 -794 
Q 774 -1075 1052 -1228 
Q 1331 -1382 1843 -1382 
Q 2938 -1382 2938 -710 
Q 2938 -454 2765 -284 
Q 2592 -115 2355 -83 
Q 2202 -64 2038 -41 
Q 1875 -19 1718 0 
Q 1562 19 1427 32 
Q 1293 45 1210 58 
Q 851 96 665 249 
Q 480 403 480 672 
Q 480 896 665 1069 
Q 851 1242 1133 1286 
L 1133 1312 
Q 992 1370 870 1475 
Q 749 1581 662 1715 
Q 576 1850 525 2006 
Q 474 2163 474 2330 
Q 474 2573 566 2777 
Q 659 2982 828 3132 
Q 998 3283 1228 3369 
Q 1459 3456 1734 3456 
Q 2016 3456 2265 3369 
Q 2515 3283 2694 3117 
Q 2912 3296 3078 3376 
Q 3245 3456 3392 3456 
Q 3622 3456 3760 3350 
Q 3898 3245 3898 3066 
Q 3898 2957 3824 2893 
Q 3750 2829 3642 2829 
Q 3552 2829 3494 2861 
Q 3437 2893 3389 2928 
Q 3341 2963 3289 2995 
Q 3238 3027 3162 3027 
Q 3008 3027 2848 2918 
Q 3002 2682 3002 2323 
Q 3002 1779 2662 1468 
Q 2323 1158 1645 1107 
Q 1254 1075 1100 1024 
Q 947 973 947 838 
Q 947 736 1062 688 
Q 1178 640 1402 627 
z
" transform="scale(0.015625)"/>
     </defs>
     <use xlink:href="#LibreBaskerville-Regular-54"/>
     <use xlink:href="#LibreBaskerville-Regular-6f" x="80.299988"/>
     <use xlink:href="#LibreBaskerville-Regular-70" x="145.699982"/>
     <use xlink:href="#LibreBaskerville-Regular-20" x="213.599976"/>
     <use xlink:href="#LibreBaskerville-Regular-4d" x="242.299973"/>
     <use xlink:href="#LibreBaskerville-Regular-6f" x="351.299957"/>
     <use xlink:href="#LibreBaskerville-Regular-6e" x="416.699951"/>
     <use xlink:href="#LibreBaskerville-Regular-69" x="485.599945"/>
     <use xlink:href="#LibreBaskerville-Regular-74" x="519.699936"/>
     <use xlink:href="#LibreBaskerville-Regular-6f" x="557.499924"/>
     <use xlink:href="#LibreBaskerville-Regular-72" x="622.899918"/>
     <use xlink:href="#LibreBaskerville-Regular-69" x="670.599915"/>
     <use xlink:href="#LibreBaskerville-Regular-6e" x="704.699905"/>
     <use xlink:href="#LibreBaskerville-Regular-67" x="773.599899"/>
    </g>
   </g>
   <g id="legend_1">
    <g id="patch_185">
     <path d="M 294.58125 315.4 
L 446.6 315.4 
Q 448.6 315.4 448.6 313.4 
L 448.6 167.340625 
Q 448.6 165.340625 446.6 165.340625 
L 294.58125 165.340625 
Q 292.58125 165.340625 292.58125 167.340625 
L 292.58125 313.4 
Q 292.58125 315.4 294.58125 315.4 
z
" style="fill: #ffffff; opacity: 0.8; stroke: #cccccc; stroke-linejoin: miter"/>
    </g>
    <g id="text_32">
     <!-- tool_function -->
     <g transform="translate(338.198438 176.939063) scale(0.1 -0.1)">
      <defs>
       <path id="DejaVuSans-5f" d="M 3263 -1063 
L 3263 -1509 
L -63 -1509 
L -63 -1063 
L 3263 -1063 
z
" transform="scale(0.015625)"/>
      </defs>
      <use xlink:href="#DejaVuSans-74"/>
      <use xlink:href="#DejaVuSans-6f" x="39.208984"/>
      <use xlink:href="#DejaVuSans-6f" x="100.390625"/>
      <use xlink:href="#DejaVuSans-6c" x="161.572266"/>
      <use xlink:href="#DejaVuSans-5f" x="189.355469"/>
      <use xlink:href="#DejaVuSans-66" x="239.355469"/>
      <use xlink:href="#DejaVuSans-75" x="274.560547"/>
      <use xlink:href="#DejaVuSans-6e" x="337.939453"/>
      <use xlink:href="#DejaVuSans-63" x="401.318359"/>
      <use xlink:href="#DejaVuSans-74" x="456.298828"/>
      <use xlink:href="#DejaVuSans-69" x="495.507812"/>
      <use xlink:href="#DejaVuSans-6f" x="523.291016"/>
      <use xlink:href="#DejaVuSans-6e" x="584.472656"/>
     </g>
    </g>
    <g id="patch_186">
     <path d="M 296.58125 191.895313 
L 316.58125 191.895313 
L 316.58125 184.895313 
L 296.58125 184.895313 
z
" style="fill: #176d9c"/>
    </g>
    <g id="text_33">
     <!-- Exception Monitoring -->
     <g transform="translate(324.58125 191.895313) scale(0.1 -0.1)">
      <defs>
       <path id="DejaVuSans-45" d="M 628 4666 
L 3578 4666 
L 3578 4134 
L 1259 4134 
L 1259 2753 
L 3481 2753 
L 3481 2222 
L 1259 2222 
L 1259 531 
L 3634 531 
L 3634 0 
L 628 0 
L 628 4666 
z
" transform="scale(0.015625)"/>
       <path id="DejaVuSans-4d" d="M 628 4666 
L 1569 4666 
L 2759 1491 
L 3956 4666 
L 4897 4666 
L 4897 0 
L 4281 0 
L 4281 4097 
L 3078 897 
L 2444 897 
L 1241 4097 
L 1241 0 
L 628 0 
L 628 4666 
z
" transform="scale(0.015625)"/>
      </defs>
      <use xlink:href="#DejaVuSans-45"/>
      <use xlink:href="#DejaVuSans-78" x="63.183594"/>
      <use xlink:href="#DejaVuSans-63" x="120.613281"/>
      <use xlink:href="#DejaVuSans-65" x="175.59375"/>
      <use xlink:href="#DejaVuSans-70" x="237.117188"/>
      <use xlink:href="#DejaVuSans-74" x="300.59375"/>
      <use xlink:href="#DejaVuSans-69" x="339.802734"/>
      <use xlink:href="#DejaVuSans-6f" x="367.585938"/>
      <use xlink:href="#DejaVuSans-6e" x="428.767578"/>
      <use xlink:href="#DejaVuSans-20" x="492.146484"/>
      <use xlink:href="#DejaVuSans-4d" x="523.933594"/>
      <use xlink:href="#DejaVuSans-6f" x="610.212891"/>
      <use xlink:href="#DejaVuSans-6e" x="671.394531"/>
      <use xlink:href="#DejaVuSans-69" x="734.773438"/>
      <use xlink:href="#DejaVuSans-74" x="762.556641"/>
      <use xlink:href="#DejaVuSans-6f" x="801.765625"/>
      <use xlink:href="#DejaVuSans-72" x="862.947266"/>
      <use xlink:href="#DejaVuSans-69" x="904.060547"/>
      <use xlink:href="#DejaVuSans-6e" x="931.84375"/>
      <use xlink:href="#DejaVuSans-67" x="995.222656"/>
     </g>
    </g>
    <g id="patch_187">
     <path d="M 296.58125 206.573438 
L 316.58125 206.573438 
L 316.58125 199.573438 
L 296.58125 199.573438 
z
" style="fill: #c38820"/>
    </g>
    <g id="text_34">
     <!-- Monitoring Aggregation -->
     <g transform="translate(324.58125 206.573438) scale(0.1 -0.1)">
      <use xlink:href="#DejaVuSans-4d"/>
      <use xlink:href="#DejaVuSans-6f" x="86.279297"/>
      <use xlink:href="#DejaVuSans-6e" x="147.460938"/>
      <use xlink:href="#DejaVuSans-69" x="210.839844"/>
      <use xlink:href="#DejaVuSans-74" x="238.623047"/>
      <use xlink:href="#DejaVuSans-6f" x="277.832031"/>
      <use xlink:href="#DejaVuSans-72" x="339.013672"/>
      <use xlink:href="#DejaVuSans-69" x="380.126953"/>
      <use xlink:href="#DejaVuSans-6e" x="407.910156"/>
      <use xlink:href="#DejaVuSans-67" x="471.289062"/>
      <use xlink:href="#DejaVuSans-20" x="534.765625"/>
      <use xlink:href="#DejaVuSans-41" x="566.552734"/>
      <use xlink:href="#DejaVuSans-67" x="634.960938"/>
      <use xlink:href="#DejaVuSans-67" x="698.4375"/>
      <use xlink:href="#DejaVuSans-72" x="761.914062"/>
      <use xlink:href="#DejaVuSans-65" x="800.777344"/>
      <use xlink:href="#DejaVuSans-67" x="862.300781"/>
      <use xlink:href="#DejaVuSans-61" x="925.777344"/>
      <use xlink:href="#DejaVuSans-74" x="987.056641"/>
      <use xlink:href="#DejaVuSans-69" x="1026.265625"/>
      <use xlink:href="#DejaVuSans-6f" x="1054.048828"/>
      <use xlink:href="#DejaVuSans-6e" x="1115.230469"/>
     </g>
    </g>
    <g id="patch_188">
     <path d="M 296.58125 221.251563 
L 316.58125 221.251563 
L 316.58125 214.251563 
L 296.58125 214.251563 
z
" style="fill: #158b6a"/>
    </g>
    <g id="text_35">
     <!-- Monitoring Tools -->
     <g transform="translate(324.58125 221.251563) scale(0.1 -0.1)">
      <use xlink:href="#DejaVuSans-4d"/>
      <use xlink:href="#DejaVuSans-6f" x="86.279297"/>
      <use xlink:href="#DejaVuSans-6e" x="147.460938"/>
      <use xlink:href="#DejaVuSans-69" x="210.839844"/>
      <use xlink:href="#DejaVuSans-74" x="238.623047"/>
      <use xlink:href="#DejaVuSans-6f" x="277.832031"/>
      <use xlink:href="#DejaVuSans-72" x="339.013672"/>
      <use xlink:href="#DejaVuSans-69" x="380.126953"/>
      <use xlink:href="#DejaVuSans-6e" x="407.910156"/>
      <use xlink:href="#DejaVuSans-67" x="471.289062"/>
      <use xlink:href="#DejaVuSans-20" x="534.765625"/>
      <use xlink:href="#DejaVuSans-54" x="566.552734"/>
      <use xlink:href="#DejaVuSans-6f" x="610.636719"/>
      <use xlink:href="#DejaVuSans-6f" x="671.818359"/>
      <use xlink:href="#DejaVuSans-6c" x="733"/>
      <use xlink:href="#DejaVuSans-73" x="760.783203"/>
     </g>
    </g>
    <g id="patch_189">
     <path d="M 296.58125 235.929688 
L 316.58125 235.929688 
L 316.58125 228.929688 
L 296.58125 228.929688 
z
" style="fill: #ba611b"/>
    </g>
    <g id="text_36">
     <!-- Performance Monitoring -->
     <g transform="translate(324.58125 235.929688) scale(0.1 -0.1)">
      <use xlink:href="#DejaVuSans-50"/>
      <use xlink:href="#DejaVuSans-65" x="56.677734"/>
      <use xlink:href="#DejaVuSans-72" x="118.201172"/>
      <use xlink:href="#DejaVuSans-66" x="159.314453"/>
      <use xlink:href="#DejaVuSans-6f" x="194.519531"/>
      <use xlink:href="#DejaVuSans-72" x="255.701172"/>
      <use xlink:href="#DejaVuSans-6d" x="295.064453"/>
      <use xlink:href="#DejaVuSans-61" x="392.476562"/>
      <use xlink:href="#DejaVuSans-6e" x="453.755859"/>
      <use xlink:href="#DejaVuSans-63" x="517.134766"/>
      <use xlink:href="#DejaVuSans-65" x="572.115234"/>
      <use xlink:href="#DejaVuSans-20" x="633.638672"/>
      <use xlink:href="#DejaVuSans-4d" x="665.425781"/>
      <use xlink:href="#DejaVuSans-6f" x="751.705078"/>
      <use xlink:href="#DejaVuSans-6e" x="812.886719"/>
      <use xlink:href="#DejaVuSans-69" x="876.265625"/>
      <use xlink:href="#DejaVuSans-74" x="904.048828"/>
      <use xlink:href="#DejaVuSans-6f" x="943.257812"/>
      <use xlink:href="#DejaVuSans-72" x="1004.439453"/>
      <use xlink:href="#DejaVuSans-69" x="1045.552734"/>
      <use xlink:href="#DejaVuSans-6e" x="1073.335938"/>
      <use xlink:href="#DejaVuSans-67" x="1136.714844"/>
     </g>
    </g>
    <g id="patch_190">
     <path d="M 296.58125 250.607813 
L 316.58125 250.607813 
L 316.58125 243.607813 
L 296.58125 243.607813 
z
" style="fill: #c282b5"/>
    </g>
    <g id="text_37">
     <!-- Log Management -->
     <g transform="translate(324.58125 250.607813) scale(0.1 -0.1)">
      <use xlink:href="#DejaVuSans-4c"/>
      <use xlink:href="#DejaVuSans-6f" x="53.962891"/>
      <use xlink:href="#DejaVuSans-67" x="115.144531"/>
      <use xlink:href="#DejaVuSans-20" x="178.621094"/>
      <use xlink:href="#DejaVuSans-4d" x="210.408203"/>
      <use xlink:href="#DejaVuSans-61" x="296.6875"/>
      <use xlink:href="#DejaVuSans-6e" x="357.966797"/>
      <use xlink:href="#DejaVuSans-61" x="421.345703"/>
      <use xlink:href="#DejaVuSans-67" x="482.625"/>
      <use xlink:href="#DejaVuSans-65" x="546.101562"/>
      <use xlink:href="#DejaVuSans-6d" x="607.625"/>
      <use xlink:href="#DejaVuSans-65" x="705.037109"/>
      <use xlink:href="#DejaVuSans-6e" x="766.560547"/>
      <use xlink:href="#DejaVuSans-74" x="829.939453"/>
     </g>
    </g>
    <g id="patch_191">
     <path d="M 296.58125 265.285938 
L 316.58125 265.285938 
L 316.58125 258.285938 
L 296.58125 258.285938 
z
" style="fill: #bd926e"/>
    </g>
    <g id="text_38">
     <!-- Website Monitoring -->
     <g transform="translate(324.58125 265.285938) scale(0.1 -0.1)">
      <use xlink:href="#DejaVuSans-57"/>
      <use xlink:href="#DejaVuSans-65" x="93.001953"/>
      <use xlink:href="#DejaVuSans-62" x="154.525391"/>
      <use xlink:href="#DejaVuSans-73" x="218.001953"/>
      <use xlink:href="#DejaVuSans-69" x="270.101562"/>
      <use xlink:href="#DejaVuSans-74" x="297.884766"/>
      <use xlink:href="#DejaVuSans-65" x="337.09375"/>
      <use xlink:href="#DejaVuSans-20" x="398.617188"/>
      <use xlink:href="#DejaVuSans-4d" x="430.404297"/>
      <use xlink:href="#DejaVuSans-6f" x="516.683594"/>
      <use xlink:href="#DejaVuSans-6e" x="577.865234"/>
      <use xlink:href="#DejaVuSans-69" x="641.244141"/>
      <use xlink:href="#DejaVuSans-74" x="669.027344"/>
      <use xlink:href="#DejaVuSans-6f" x="708.236328"/>
      <use xlink:href="#DejaVuSans-72" x="769.417969"/>
      <use xlink:href="#DejaVuSans-69" x="810.53125"/>
      <use xlink:href="#DejaVuSans-6e" x="838.314453"/>
      <use xlink:href="#DejaVuSans-67" x="901.693359"/>
     </g>
    </g>
    <g id="patch_192">
     <path d="M 296.58125 279.964063 
L 316.58125 279.964063 
L 316.58125 272.964063 
L 296.58125 272.964063 
z
" style="fill: #f2b8e0"/>
    </g>
    <g id="text_39">
     <!-- Cloud Monitoring -->
     <g transform="translate(324.58125 279.964063) scale(0.1 -0.1)">
      <use xlink:href="#DejaVuSans-43"/>
      <use xlink:href="#DejaVuSans-6c" x="69.824219"/>
      <use xlink:href="#DejaVuSans-6f" x="97.607422"/>
      <use xlink:href="#DejaVuSans-75" x="158.789062"/>
      <use xlink:href="#DejaVuSans-64" x="222.167969"/>
      <use xlink:href="#DejaVuSans-20" x="285.644531"/>
      <use xlink:href="#DejaVuSans-4d" x="317.431641"/>
      <use xlink:href="#DejaVuSans-6f" x="403.710938"/>
      <use xlink:href="#DejaVuSans-6e" x="464.892578"/>
      <use xlink:href="#DejaVuSans-69" x="528.271484"/>
      <use xlink:href="#DejaVuSans-74" x="556.054688"/>
      <use xlink:href="#DejaVuSans-6f" x="595.263672"/>
      <use xlink:href="#DejaVuSans-72" x="656.445312"/>
      <use xlink:href="#DejaVuSans-69" x="697.558594"/>
      <use xlink:href="#DejaVuSans-6e" x="725.341797"/>
      <use xlink:href="#DejaVuSans-67" x="788.720703"/>
     </g>
    </g>
    <g id="patch_193">
     <path d="M 296.58125 294.642187 
L 316.58125 294.642187 
L 316.58125 287.642187 
L 296.58125 287.642187 
z
" style="fill: #949494"/>
    </g>
    <g id="text_40">
     <!-- Mobile Error Monitoring -->
     <g transform="translate(324.58125 294.642187) scale(0.1 -0.1)">
      <use xlink:href="#DejaVuSans-4d"/>
      <use xlink:href="#DejaVuSans-6f" x="86.279297"/>
      <use xlink:href="#DejaVuSans-62" x="147.460938"/>
      <use xlink:href="#DejaVuSans-69" x="210.9375"/>
      <use xlink:href="#DejaVuSans-6c" x="238.720703"/>
      <use xlink:href="#DejaVuSans-65" x="266.503906"/>
      <use xlink:href="#DejaVuSans-20" x="328.027344"/>
      <use xlink:href="#DejaVuSans-45" x="359.814453"/>
      <use xlink:href="#DejaVuSans-72" x="422.998047"/>
      <use xlink:href="#DejaVuSans-72" x="462.361328"/>
      <use xlink:href="#DejaVuSans-6f" x="501.224609"/>
      <use xlink:href="#DejaVuSans-72" x="562.40625"/>
      <use xlink:href="#DejaVuSans-20" x="603.519531"/>
      <use xlink:href="#DejaVuSans-4d" x="635.306641"/>
      <use xlink:href="#DejaVuSans-6f" x="721.585938"/>
      <use xlink:href="#DejaVuSans-6e" x="782.767578"/>
      <use xlink:href="#DejaVuSans-69" x="846.146484"/>
      <use xlink:href="#DejaVuSans-74" x="873.929688"/>
      <use xlink:href="#DejaVuSans-6f" x="913.138672"/>
      <use xlink:href="#DejaVuSans-72" x="974.320312"/>
      <use xlink:href="#DejaVuSans-69" x="1015.433594"/>
      <use xlink:href="#DejaVuSans-6e" x="1043.216797"/>
      <use xlink:href="#DejaVuSans-67" x="1106.595703"/>
     </g>
    </g>
    <g id="patch_194">
     <path d="M 296.58125 309.320312 
L 316.58125 309.320312 
L 316.58125 302.320312 
L 296.58125 302.320312 
z
" style="fill: #d5cd4a"/>
    </g>
    <g id="text_41">
     <!-- Logging Tools -->
     <g transform="translate(324.58125 309.320312) scale(0.1 -0.1)">
      <use xlink:href="#DejaVuSans-4c"/>
      <use xlink:href="#DejaVuSans-6f" x="53.962891"/>
      <use xlink:href="#DejaVuSans-67" x="115.144531"/>
      <use xlink:href="#DejaVuSans-67" x="178.621094"/>
      <use xlink:href="#DejaVuSans-69" x="242.097656"/>
      <use xlink:href="#DejaVuSans-6e" x="269.880859"/>
      <use xlink:href="#DejaVuSans-67" x="333.259766"/>
      <use xlink:href="#DejaVuSans-20" x="396.736328"/>
      <use xlink:href="#DejaVuSans-54" x="428.523438"/>
      <use xlink:href="#DejaVuSans-6f" x="472.607422"/>
      <use xlink:href="#DejaVuSans-6f" x="533.789062"/>
      <use xlink:href="#DejaVuSans-6c" x="594.970703"/>
      <use xlink:href="#DejaVuSans-73" x="622.753906"/>
     </g>
    </g>
   </g>
  </g>
 </g>
 <defs>
  <clipPath id="p7631912eaa">
   <rect x="141.12" y="31.68" width="312.48" height="288.72"/>
  </clipPath>
 </defs>
</svg>
