<?xml version="1.0" encoding="utf-8" standalone="no"?>
<!DOCTYPE svg PUBLIC "-//W3C//DTD SVG 1.1//EN"
  "http://www.w3.org/Graphics/SVG/1.1/DTD/svg11.dtd">
<svg xmlns:xlink="http://www.w3.org/1999/xlink" width="504pt" height="360pt" viewBox="0 0 504 360" xmlns="http://www.w3.org/2000/svg" version="1.1">
 <metadata>
  <rdf:RDF xmlns:dc="http://purl.org/dc/elements/1.1/" xmlns:cc="http://creativecommons.org/ns#" xmlns:rdf="http://www.w3.org/1999/02/22-rdf-syntax-ns#">
   <cc:Work>
    <dc:type rdf:resource="http://purl.org/dc/dcmitype/StillImage"/>
    <dc:date>2023-03-01T13:46:28.233077</dc:date>
    <dc:format>image/svg+xml</dc:format>
    <dc:creator>
     <cc:Agent>
      <dc:title>Matplotlib v3.7.0, https://matplotlib.org/</dc:title>
     </cc:Agent>
    </dc:creator>
   </cc:Work>
  </rdf:RDF>
 </metadata>
 <defs>
  <style type="text/css">*{stroke-linejoin: round; stroke-linecap: butt}</style>
 </defs>
 <g id="figure_1">
  <g id="patch_1">
   <path d="M 0 360 
L 504 360 
L 504 0 
L 0 0 
z
" style="fill: #ffffff"/>
  </g>
  <g id="axes_1">
   <g id="patch_2">
    <path d="M 141.12 320.4 
L 453.6 320.4 
L 453.6 31.68 
L 141.12 31.68 
z
" style="fill: #ffffff"/>
   </g>
   <g id="patch_3">
    <path d="M 141.12 33.199579 
L 141.12 33.199579 
L 141.12 45.356211 
L 141.12 45.356211 
z
" clip-path="url(#pda7397ca30)" style="fill: #176d9c"/>
   </g>
   <g id="patch_4">
    <path d="M 141.12 48.395368 
L 380.175738 48.395368 
L 380.175738 60.552 
L 141.12 60.552 
z
" clip-path="url(#pda7397ca30)" style="fill: #176d9c"/>
   </g>
   <g id="patch_5">
    <path d="M 141.12 63.591158 
L 141.12 63.591158 
L 141.12 75.747789 
L 141.12 75.747789 
z
" clip-path="url(#pda7397ca30)" style="fill: #176d9c"/>
   </g>
   <g id="patch_6">
    <path d="M 141.12 78.786947 
L 141.12 78.786947 
L 141.12 90.943579 
L 141.12 90.943579 
z
" clip-path="url(#pda7397ca30)" style="fill: #176d9c"/>
   </g>
   <g id="patch_7">
    <path d="M 141.12 93.982737 
L 165.513443 93.982737 
L 165.513443 106.139368 
L 141.12 106.139368 
z
" clip-path="url(#pda7397ca30)" style="fill: #176d9c"/>
   </g>
   <g id="patch_8">
    <path d="M 141.12 109.178526 
L 141.12 109.178526 
L 141.12 121.335158 
L 141.12 121.335158 
z
" clip-path="url(#pda7397ca30)" style="fill: #176d9c"/>
   </g>
   <g id="patch_9">
    <path d="M 141.12 124.374316 
L 141.12 124.374316 
L 141.12 136.530947 
L 141.12 136.530947 
z
" clip-path="url(#pda7397ca30)" style="fill: #176d9c"/>
   </g>
   <g id="patch_10">
    <path d="M 141.12 139.570105 
L 141.12 139.570105 
L 141.12 151.726737 
L 141.12 151.726737 
z
" clip-path="url(#pda7397ca30)" style="fill: #176d9c"/>
   </g>
   <g id="patch_11">
    <path d="M 141.12 154.765895 
L 141.12 154.765895 
L 141.12 166.922526 
L 141.12 166.922526 
z
" clip-path="url(#pda7397ca30)" style="fill: #176d9c"/>
   </g>
   <g id="patch_12">
    <path d="M 141.12 169.961684 
L 141.12 169.961684 
L 141.12 182.118316 
L 141.12 182.118316 
z
" clip-path="url(#pda7397ca30)" style="fill: #176d9c"/>
   </g>
   <g id="patch_13">
    <path d="M 141.12 185.157474 
L 141.12 185.157474 
L 141.12 197.314105 
L 141.12 197.314105 
z
" clip-path="url(#pda7397ca30)" style="fill: #176d9c"/>
   </g>
   <g id="patch_14">
    <path d="M 141.12 200.353263 
L 141.12 200.353263 
L 141.12 212.509895 
L 141.12 212.509895 
z
" clip-path="url(#pda7397ca30)" style="fill: #176d9c"/>
   </g>
   <g id="patch_15">
    <path d="M 141.12 215.549053 
L 141.12 215.549053 
L 141.12 227.705684 
L 141.12 227.705684 
z
" clip-path="url(#pda7397ca30)" style="fill: #176d9c"/>
   </g>
   <g id="patch_16">
    <path d="M 141.12 230.744842 
L 141.12 230.744842 
L 141.12 242.901474 
L 141.12 242.901474 
z
" clip-path="url(#pda7397ca30)" style="fill: #176d9c"/>
   </g>
   <g id="patch_17">
    <path d="M 141.12 245.940632 
L 141.12 245.940632 
L 141.12 258.097263 
L 141.12 258.097263 
z
" clip-path="url(#pda7397ca30)" style="fill: #176d9c"/>
   </g>
   <g id="patch_18">
    <path d="M 141.12 261.136421 
L 141.12 261.136421 
L 141.12 273.293053 
L 141.12 273.293053 
z
" clip-path="url(#pda7397ca30)" style="fill: #176d9c"/>
   </g>
   <g id="patch_19">
    <path d="M 141.12 276.332211 
L 141.12 276.332211 
L 141.12 288.488842 
L 141.12 288.488842 
z
" clip-path="url(#pda7397ca30)" style="fill: #176d9c"/>
   </g>
   <g id="patch_20">
    <path d="M 141.12 291.528 
L 141.12 291.528 
L 141.12 303.684632 
L 141.12 303.684632 
z
" clip-path="url(#pda7397ca30)" style="fill: #176d9c"/>
   </g>
   <g id="patch_21">
    <path d="M 141.12 306.723789 
L 141.12 306.723789 
L 141.12 318.880421 
L 141.12 318.880421 
z
" clip-path="url(#pda7397ca30)" style="fill: #176d9c"/>
   </g>
   <g id="patch_22">
    <path d="M 141.12 33.199579 
L 438.72 33.199579 
L 438.72 45.356211 
L 141.12 45.356211 
z
" clip-path="url(#pda7397ca30)" style="fill: #c38820"/>
   </g>
   <g id="patch_23">
    <path d="M 141.12 48.395368 
L 141.12 48.395368 
L 141.12 60.552 
L 141.12 60.552 
z
" clip-path="url(#pda7397ca30)" style="fill: #c38820"/>
   </g>
   <g id="patch_24">
    <path d="M 141.12 63.591158 
L 141.12 63.591158 
L 141.12 75.747789 
L 141.12 75.747789 
z
" clip-path="url(#pda7397ca30)" style="fill: #c38820"/>
   </g>
   <g id="patch_25">
    <path d="M 141.12 78.786947 
L 141.12 78.786947 
L 141.12 90.943579 
L 141.12 90.943579 
z
" clip-path="url(#pda7397ca30)" style="fill: #c38820"/>
   </g>
   <g id="patch_26">
    <path d="M 141.12 93.982737 
L 141.12 93.982737 
L 141.12 106.139368 
L 141.12 106.139368 
z
" clip-path="url(#pda7397ca30)" style="fill: #c38820"/>
   </g>
   <g id="patch_27">
    <path d="M 141.12 109.178526 
L 141.12 109.178526 
L 141.12 121.335158 
L 141.12 121.335158 
z
" clip-path="url(#pda7397ca30)" style="fill: #c38820"/>
   </g>
   <g id="patch_28">
    <path d="M 141.12 124.374316 
L 155.756066 124.374316 
L 155.756066 136.530947 
L 141.12 136.530947 
z
" clip-path="url(#pda7397ca30)" style="fill: #c38820"/>
   </g>
   <g id="patch_29">
    <path d="M 141.12 139.570105 
L 141.12 139.570105 
L 141.12 151.726737 
L 141.12 151.726737 
z
" clip-path="url(#pda7397ca30)" style="fill: #c38820"/>
   </g>
   <g id="patch_30">
    <path d="M 141.12 154.765895 
L 141.12 154.765895 
L 141.12 166.922526 
L 141.12 166.922526 
z
" clip-path="url(#pda7397ca30)" style="fill: #c38820"/>
   </g>
   <g id="patch_31">
    <path d="M 141.12 169.961684 
L 150.877377 169.961684 
L 150.877377 182.118316 
L 141.12 182.118316 
z
" clip-path="url(#pda7397ca30)" style="fill: #c38820"/>
   </g>
   <g id="patch_32">
    <path d="M 141.12 185.157474 
L 141.12 185.157474 
L 141.12 197.314105 
L 141.12 197.314105 
z
" clip-path="url(#pda7397ca30)" style="fill: #c38820"/>
   </g>
   <g id="patch_33">
    <path d="M 141.12 200.353263 
L 141.12 200.353263 
L 141.12 212.509895 
L 141.12 212.509895 
z
" clip-path="url(#pda7397ca30)" style="fill: #c38820"/>
   </g>
   <g id="patch_34">
    <path d="M 141.12 215.549053 
L 141.12 215.549053 
L 141.12 227.705684 
L 141.12 227.705684 
z
" clip-path="url(#pda7397ca30)" style="fill: #c38820"/>
   </g>
   <g id="patch_35">
    <path d="M 141.12 230.744842 
L 141.12 230.744842 
L 141.12 242.901474 
L 141.12 242.901474 
z
" clip-path="url(#pda7397ca30)" style="fill: #c38820"/>
   </g>
   <g id="patch_36">
    <path d="M 141.12 245.940632 
L 141.12 245.940632 
L 141.12 258.097263 
L 141.12 258.097263 
z
" clip-path="url(#pda7397ca30)" style="fill: #c38820"/>
   </g>
   <g id="patch_37">
    <path d="M 141.12 261.136421 
L 141.12 261.136421 
L 141.12 273.293053 
L 141.12 273.293053 
z
" clip-path="url(#pda7397ca30)" style="fill: #c38820"/>
   </g>
   <g id="patch_38">
    <path d="M 141.12 276.332211 
L 141.12 276.332211 
L 141.12 288.488842 
L 141.12 288.488842 
z
" clip-path="url(#pda7397ca30)" style="fill: #c38820"/>
   </g>
   <g id="patch_39">
    <path d="M 141.12 291.528 
L 141.12 291.528 
L 141.12 303.684632 
L 141.12 303.684632 
z
" clip-path="url(#pda7397ca30)" style="fill: #c38820"/>
   </g>
   <g id="patch_40">
    <path d="M 141.12 306.723789 
L 141.12 306.723789 
L 141.12 318.880421 
L 141.12 318.880421 
z
" clip-path="url(#pda7397ca30)" style="fill: #c38820"/>
   </g>
   <g id="patch_41">
    <path d="M 141.12 33.199579 
L 141.12 33.199579 
L 141.12 45.356211 
L 141.12 45.356211 
z
" clip-path="url(#pda7397ca30)" style="fill: #158b6a"/>
   </g>
   <g id="patch_42">
    <path d="M 141.12 48.395368 
L 141.12 48.395368 
L 141.12 60.552 
L 141.12 60.552 
z
" clip-path="url(#pda7397ca30)" style="fill: #158b6a"/>
   </g>
   <g id="patch_43">
    <path d="M 141.12 63.591158 
L 185.028197 63.591158 
L 185.028197 75.747789 
L 141.12 75.747789 
z
" clip-path="url(#pda7397ca30)" style="fill: #158b6a"/>
   </g>
   <g id="patch_44">
    <path d="M 141.12 78.786947 
L 141.12 78.786947 
L 141.12 90.943579 
L 141.12 90.943579 
z
" clip-path="url(#pda7397ca30)" style="fill: #158b6a"/>
   </g>
   <g id="patch_45">
    <path d="M 141.12 93.982737 
L 141.12 93.982737 
L 141.12 106.139368 
L 141.12 106.139368 
z
" clip-path="url(#pda7397ca30)" style="fill: #158b6a"/>
   </g>
   <g id="patch_46">
    <path d="M 141.12 109.178526 
L 141.12 109.178526 
L 141.12 121.335158 
L 141.12 121.335158 
z
" clip-path="url(#pda7397ca30)" style="fill: #158b6a"/>
   </g>
   <g id="patch_47">
    <path d="M 141.12 124.374316 
L 141.12 124.374316 
L 141.12 136.530947 
L 141.12 136.530947 
z
" clip-path="url(#pda7397ca30)" style="fill: #158b6a"/>
   </g>
   <g id="patch_48">
    <path d="M 141.12 139.570105 
L 141.12 139.570105 
L 141.12 151.726737 
L 141.12 151.726737 
z
" clip-path="url(#pda7397ca30)" style="fill: #158b6a"/>
   </g>
   <g id="patch_49">
    <path d="M 141.12 154.765895 
L 150.877377 154.765895 
L 150.877377 166.922526 
L 141.12 166.922526 
z
" clip-path="url(#pda7397ca30)" style="fill: #158b6a"/>
   </g>
   <g id="patch_50">
    <path d="M 141.12 169.961684 
L 141.12 169.961684 
L 141.12 182.118316 
L 141.12 182.118316 
z
" clip-path="url(#pda7397ca30)" style="fill: #158b6a"/>
   </g>
   <g id="patch_51">
    <path d="M 141.12 185.157474 
L 141.12 185.157474 
L 141.12 197.314105 
L 141.12 197.314105 
z
" clip-path="url(#pda7397ca30)" style="fill: #158b6a"/>
   </g>
   <g id="patch_52">
    <path d="M 141.12 200.353263 
L 141.12 200.353263 
L 141.12 212.509895 
L 141.12 212.509895 
z
" clip-path="url(#pda7397ca30)" style="fill: #158b6a"/>
   </g>
   <g id="patch_53">
    <path d="M 141.12 215.549053 
L 141.12 215.549053 
L 141.12 227.705684 
L 141.12 227.705684 
z
" clip-path="url(#pda7397ca30)" style="fill: #158b6a"/>
   </g>
   <g id="patch_54">
    <path d="M 141.12 230.744842 
L 141.12 230.744842 
L 141.12 242.901474 
L 141.12 242.901474 
z
" clip-path="url(#pda7397ca30)" style="fill: #158b6a"/>
   </g>
   <g id="patch_55">
    <path d="M 141.12 245.940632 
L 141.12 245.940632 
L 141.12 258.097263 
L 141.12 258.097263 
z
" clip-path="url(#pda7397ca30)" style="fill: #158b6a"/>
   </g>
   <g id="patch_56">
    <path d="M 141.12 261.136421 
L 141.12 261.136421 
L 141.12 273.293053 
L 141.12 273.293053 
z
" clip-path="url(#pda7397ca30)" style="fill: #158b6a"/>
   </g>
   <g id="patch_57">
    <path d="M 141.12 276.332211 
L 141.12 276.332211 
L 141.12 288.488842 
L 141.12 288.488842 
z
" clip-path="url(#pda7397ca30)" style="fill: #158b6a"/>
   </g>
   <g id="patch_58">
    <path d="M 141.12 291.528 
L 141.12 291.528 
L 141.12 303.684632 
L 141.12 303.684632 
z
" clip-path="url(#pda7397ca30)" style="fill: #158b6a"/>
   </g>
   <g id="patch_59">
    <path d="M 141.12 306.723789 
L 141.12 306.723789 
L 141.12 318.880421 
L 141.12 318.880421 
z
" clip-path="url(#pda7397ca30)" style="fill: #158b6a"/>
   </g>
   <g id="patch_60">
    <path d="M 141.12 33.199579 
L 141.12 33.199579 
L 141.12 45.356211 
L 141.12 45.356211 
z
" clip-path="url(#pda7397ca30)" style="fill: #ba611b"/>
   </g>
   <g id="patch_61">
    <path d="M 141.12 48.395368 
L 141.12 48.395368 
L 141.12 60.552 
L 141.12 60.552 
z
" clip-path="url(#pda7397ca30)" style="fill: #ba611b"/>
   </g>
   <g id="patch_62">
    <path d="M 141.12 63.591158 
L 141.12 63.591158 
L 141.12 75.747789 
L 141.12 75.747789 
z
" clip-path="url(#pda7397ca30)" style="fill: #ba611b"/>
   </g>
   <g id="patch_63">
    <path d="M 141.12 78.786947 
L 165.513443 78.786947 
L 165.513443 90.943579 
L 141.12 90.943579 
z
" clip-path="url(#pda7397ca30)" style="fill: #ba611b"/>
   </g>
   <g id="patch_64">
    <path d="M 141.12 93.982737 
L 141.12 93.982737 
L 141.12 106.139368 
L 141.12 106.139368 
z
" clip-path="url(#pda7397ca30)" style="fill: #ba611b"/>
   </g>
   <g id="patch_65">
    <path d="M 141.12 109.178526 
L 141.12 109.178526 
L 141.12 121.335158 
L 141.12 121.335158 
z
" clip-path="url(#pda7397ca30)" style="fill: #ba611b"/>
   </g>
   <g id="patch_66">
    <path d="M 141.12 124.374316 
L 141.12 124.374316 
L 141.12 136.530947 
L 141.12 136.530947 
z
" clip-path="url(#pda7397ca30)" style="fill: #ba611b"/>
   </g>
   <g id="patch_67">
    <path d="M 141.12 139.570105 
L 141.12 139.570105 
L 141.12 151.726737 
L 141.12 151.726737 
z
" clip-path="url(#pda7397ca30)" style="fill: #ba611b"/>
   </g>
   <g id="patch_68">
    <path d="M 141.12 154.765895 
L 141.12 154.765895 
L 141.12 166.922526 
L 141.12 166.922526 
z
" clip-path="url(#pda7397ca30)" style="fill: #ba611b"/>
   </g>
   <g id="patch_69">
    <path d="M 141.12 169.961684 
L 141.12 169.961684 
L 141.12 182.118316 
L 141.12 182.118316 
z
" clip-path="url(#pda7397ca30)" style="fill: #ba611b"/>
   </g>
   <g id="patch_70">
    <path d="M 141.12 185.157474 
L 145.998689 185.157474 
L 145.998689 197.314105 
L 141.12 197.314105 
z
" clip-path="url(#pda7397ca30)" style="fill: #ba611b"/>
   </g>
   <g id="patch_71">
    <path d="M 141.12 200.353263 
L 141.12 200.353263 
L 141.12 212.509895 
L 141.12 212.509895 
z
" clip-path="url(#pda7397ca30)" style="fill: #ba611b"/>
   </g>
   <g id="patch_72">
    <path d="M 141.12 215.549053 
L 141.12 215.549053 
L 141.12 227.705684 
L 141.12 227.705684 
z
" clip-path="url(#pda7397ca30)" style="fill: #ba611b"/>
   </g>
   <g id="patch_73">
    <path d="M 141.12 230.744842 
L 141.12 230.744842 
L 141.12 242.901474 
L 141.12 242.901474 
z
" clip-path="url(#pda7397ca30)" style="fill: #ba611b"/>
   </g>
   <g id="patch_74">
    <path d="M 141.12 245.940632 
L 141.12 245.940632 
L 141.12 258.097263 
L 141.12 258.097263 
z
" clip-path="url(#pda7397ca30)" style="fill: #ba611b"/>
   </g>
   <g id="patch_75">
    <path d="M 141.12 261.136421 
L 141.12 261.136421 
L 141.12 273.293053 
L 141.12 273.293053 
z
" clip-path="url(#pda7397ca30)" style="fill: #ba611b"/>
   </g>
   <g id="patch_76">
    <path d="M 141.12 276.332211 
L 141.12 276.332211 
L 141.12 288.488842 
L 141.12 288.488842 
z
" clip-path="url(#pda7397ca30)" style="fill: #ba611b"/>
   </g>
   <g id="patch_77">
    <path d="M 141.12 291.528 
L 141.12 291.528 
L 141.12 303.684632 
L 141.12 303.684632 
z
" clip-path="url(#pda7397ca30)" style="fill: #ba611b"/>
   </g>
   <g id="patch_78">
    <path d="M 141.12 306.723789 
L 141.12 306.723789 
L 141.12 318.880421 
L 141.12 318.880421 
z
" clip-path="url(#pda7397ca30)" style="fill: #ba611b"/>
   </g>
   <g id="patch_79">
    <path d="M 141.12 33.199579 
L 141.12 33.199579 
L 141.12 45.356211 
L 141.12 45.356211 
z
" clip-path="url(#pda7397ca30)" style="fill: #c282b5"/>
   </g>
   <g id="patch_80">
    <path d="M 141.12 48.395368 
L 141.12 48.395368 
L 141.12 60.552 
L 141.12 60.552 
z
" clip-path="url(#pda7397ca30)" style="fill: #c282b5"/>
   </g>
   <g id="patch_81">
    <path d="M 141.12 63.591158 
L 141.12 63.591158 
L 141.12 75.747789 
L 141.12 75.747789 
z
" clip-path="url(#pda7397ca30)" style="fill: #c282b5"/>
   </g>
   <g id="patch_82">
    <path d="M 141.12 78.786947 
L 141.12 78.786947 
L 141.12 90.943579 
L 141.12 90.943579 
z
" clip-path="url(#pda7397ca30)" style="fill: #c282b5"/>
   </g>
   <g id="patch_83">
    <path d="M 141.12 93.982737 
L 141.12 93.982737 
L 141.12 106.139368 
L 141.12 106.139368 
z
" clip-path="url(#pda7397ca30)" style="fill: #c282b5"/>
   </g>
   <g id="patch_84">
    <path d="M 141.12 109.178526 
L 141.12 109.178526 
L 141.12 121.335158 
L 141.12 121.335158 
z
" clip-path="url(#pda7397ca30)" style="fill: #c282b5"/>
   </g>
   <g id="patch_85">
    <path d="M 141.12 124.374316 
L 141.12 124.374316 
L 141.12 136.530947 
L 141.12 136.530947 
z
" clip-path="url(#pda7397ca30)" style="fill: #c282b5"/>
   </g>
   <g id="patch_86">
    <path d="M 141.12 139.570105 
L 141.12 139.570105 
L 141.12 151.726737 
L 141.12 151.726737 
z
" clip-path="url(#pda7397ca30)" style="fill: #c282b5"/>
   </g>
   <g id="patch_87">
    <path d="M 141.12 154.765895 
L 141.12 154.765895 
L 141.12 166.922526 
L 141.12 166.922526 
z
" clip-path="url(#pda7397ca30)" style="fill: #c282b5"/>
   </g>
   <g id="patch_88">
    <path d="M 141.12 169.961684 
L 141.12 169.961684 
L 141.12 182.118316 
L 141.12 182.118316 
z
" clip-path="url(#pda7397ca30)" style="fill: #c282b5"/>
   </g>
   <g id="patch_89">
    <path d="M 141.12 185.157474 
L 141.12 185.157474 
L 141.12 197.314105 
L 141.12 197.314105 
z
" clip-path="url(#pda7397ca30)" style="fill: #c282b5"/>
   </g>
   <g id="patch_90">
    <path d="M 141.12 200.353263 
L 141.12 200.353263 
L 141.12 212.509895 
L 141.12 212.509895 
z
" clip-path="url(#pda7397ca30)" style="fill: #c282b5"/>
   </g>
   <g id="patch_91">
    <path d="M 141.12 215.549053 
L 141.12 215.549053 
L 141.12 227.705684 
L 141.12 227.705684 
z
" clip-path="url(#pda7397ca30)" style="fill: #c282b5"/>
   </g>
   <g id="patch_92">
    <path d="M 141.12 230.744842 
L 141.12 230.744842 
L 141.12 242.901474 
L 141.12 242.901474 
z
" clip-path="url(#pda7397ca30)" style="fill: #c282b5"/>
   </g>
   <g id="patch_93">
    <path d="M 141.12 245.940632 
L 141.12 245.940632 
L 141.12 258.097263 
L 141.12 258.097263 
z
" clip-path="url(#pda7397ca30)" style="fill: #c282b5"/>
   </g>
   <g id="patch_94">
    <path d="M 141.12 261.136421 
L 141.12 261.136421 
L 141.12 273.293053 
L 141.12 273.293053 
z
" clip-path="url(#pda7397ca30)" style="fill: #c282b5"/>
   </g>
   <g id="patch_95">
    <path d="M 141.12 276.332211 
L 141.12 276.332211 
L 141.12 288.488842 
L 141.12 288.488842 
z
" clip-path="url(#pda7397ca30)" style="fill: #c282b5"/>
   </g>
   <g id="patch_96">
    <path d="M 141.12 291.528 
L 145.998689 291.528 
L 145.998689 303.684632 
L 141.12 303.684632 
z
" clip-path="url(#pda7397ca30)" style="fill: #c282b5"/>
   </g>
   <g id="patch_97">
    <path d="M 141.12 306.723789 
L 141.12 306.723789 
L 141.12 318.880421 
L 141.12 318.880421 
z
" clip-path="url(#pda7397ca30)" style="fill: #c282b5"/>
   </g>
   <g id="patch_98">
    <path d="M 141.12 33.199579 
L 141.12 33.199579 
L 141.12 45.356211 
L 141.12 45.356211 
z
" clip-path="url(#pda7397ca30)" style="fill: #bd926e"/>
   </g>
   <g id="patch_99">
    <path d="M 141.12 48.395368 
L 141.12 48.395368 
L 141.12 60.552 
L 141.12 60.552 
z
" clip-path="url(#pda7397ca30)" style="fill: #bd926e"/>
   </g>
   <g id="patch_100">
    <path d="M 141.12 63.591158 
L 141.12 63.591158 
L 141.12 75.747789 
L 141.12 75.747789 
z
" clip-path="url(#pda7397ca30)" style="fill: #bd926e"/>
   </g>
   <g id="patch_101">
    <path d="M 141.12 78.786947 
L 141.12 78.786947 
L 141.12 90.943579 
L 141.12 90.943579 
z
" clip-path="url(#pda7397ca30)" style="fill: #bd926e"/>
   </g>
   <g id="patch_102">
    <path d="M 141.12 93.982737 
L 141.12 93.982737 
L 141.12 106.139368 
L 141.12 106.139368 
z
" clip-path="url(#pda7397ca30)" style="fill: #bd926e"/>
   </g>
   <g id="patch_103">
    <path d="M 141.12 109.178526 
L 141.12 109.178526 
L 141.12 121.335158 
L 141.12 121.335158 
z
" clip-path="url(#pda7397ca30)" style="fill: #bd926e"/>
   </g>
   <g id="patch_104">
    <path d="M 141.12 124.374316 
L 141.12 124.374316 
L 141.12 136.530947 
L 141.12 136.530947 
z
" clip-path="url(#pda7397ca30)" style="fill: #bd926e"/>
   </g>
   <g id="patch_105">
    <path d="M 141.12 139.570105 
L 141.12 139.570105 
L 141.12 151.726737 
L 141.12 151.726737 
z
" clip-path="url(#pda7397ca30)" style="fill: #bd926e"/>
   </g>
   <g id="patch_106">
    <path d="M 141.12 154.765895 
L 141.12 154.765895 
L 141.12 166.922526 
L 141.12 166.922526 
z
" clip-path="url(#pda7397ca30)" style="fill: #bd926e"/>
   </g>
   <g id="patch_107">
    <path d="M 141.12 169.961684 
L 141.12 169.961684 
L 141.12 182.118316 
L 141.12 182.118316 
z
" clip-path="url(#pda7397ca30)" style="fill: #bd926e"/>
   </g>
   <g id="patch_108">
    <path d="M 141.12 185.157474 
L 141.12 185.157474 
L 141.12 197.314105 
L 141.12 197.314105 
z
" clip-path="url(#pda7397ca30)" style="fill: #bd926e"/>
   </g>
   <g id="patch_109">
    <path d="M 141.12 200.353263 
L 145.998689 200.353263 
L 145.998689 212.509895 
L 141.12 212.509895 
z
" clip-path="url(#pda7397ca30)" style="fill: #bd926e"/>
   </g>
   <g id="patch_110">
    <path d="M 141.12 215.549053 
L 141.12 215.549053 
L 141.12 227.705684 
L 141.12 227.705684 
z
" clip-path="url(#pda7397ca30)" style="fill: #bd926e"/>
   </g>
   <g id="patch_111">
    <path d="M 141.12 230.744842 
L 141.12 230.744842 
L 141.12 242.901474 
L 141.12 242.901474 
z
" clip-path="url(#pda7397ca30)" style="fill: #bd926e"/>
   </g>
   <g id="patch_112">
    <path d="M 141.12 245.940632 
L 145.998689 245.940632 
L 145.998689 258.097263 
L 141.12 258.097263 
z
" clip-path="url(#pda7397ca30)" style="fill: #bd926e"/>
   </g>
   <g id="patch_113">
    <path d="M 141.12 261.136421 
L 145.998689 261.136421 
L 145.998689 273.293053 
L 141.12 273.293053 
z
" clip-path="url(#pda7397ca30)" style="fill: #bd926e"/>
   </g>
   <g id="patch_114">
    <path d="M 141.12 276.332211 
L 145.998689 276.332211 
L 145.998689 288.488842 
L 141.12 288.488842 
z
" clip-path="url(#pda7397ca30)" style="fill: #bd926e"/>
   </g>
   <g id="patch_115">
    <path d="M 141.12 291.528 
L 141.12 291.528 
L 141.12 303.684632 
L 141.12 303.684632 
z
" clip-path="url(#pda7397ca30)" style="fill: #bd926e"/>
   </g>
   <g id="patch_116">
    <path d="M 141.12 306.723789 
L 145.998689 306.723789 
L 145.998689 318.880421 
L 141.12 318.880421 
z
" clip-path="url(#pda7397ca30)" style="fill: #bd926e"/>
   </g>
   <g id="patch_117">
    <path d="M 141.12 33.199579 
L 141.12 33.199579 
L 141.12 45.356211 
L 141.12 45.356211 
z
" clip-path="url(#pda7397ca30)" style="fill: #f2b8e0"/>
   </g>
   <g id="patch_118">
    <path d="M 141.12 48.395368 
L 141.12 48.395368 
L 141.12 60.552 
L 141.12 60.552 
z
" clip-path="url(#pda7397ca30)" style="fill: #f2b8e0"/>
   </g>
   <g id="patch_119">
    <path d="M 141.12 63.591158 
L 141.12 63.591158 
L 141.12 75.747789 
L 141.12 75.747789 
z
" clip-path="url(#pda7397ca30)" style="fill: #f2b8e0"/>
   </g>
   <g id="patch_120">
    <path d="M 141.12 78.786947 
L 141.12 78.786947 
L 141.12 90.943579 
L 141.12 90.943579 
z
" clip-path="url(#pda7397ca30)" style="fill: #f2b8e0"/>
   </g>
   <g id="patch_121">
    <path d="M 141.12 93.982737 
L 141.12 93.982737 
L 141.12 106.139368 
L 141.12 106.139368 
z
" clip-path="url(#pda7397ca30)" style="fill: #f2b8e0"/>
   </g>
   <g id="patch_122">
    <path d="M 141.12 109.178526 
L 160.634754 109.178526 
L 160.634754 121.335158 
L 141.12 121.335158 
z
" clip-path="url(#pda7397ca30)" style="fill: #f2b8e0"/>
   </g>
   <g id="patch_123">
    <path d="M 141.12 124.374316 
L 141.12 124.374316 
L 141.12 136.530947 
L 141.12 136.530947 
z
" clip-path="url(#pda7397ca30)" style="fill: #f2b8e0"/>
   </g>
   <g id="patch_124">
    <path d="M 141.12 139.570105 
L 141.12 139.570105 
L 141.12 151.726737 
L 141.12 151.726737 
z
" clip-path="url(#pda7397ca30)" style="fill: #f2b8e0"/>
   </g>
   <g id="patch_125">
    <path d="M 141.12 154.765895 
L 141.12 154.765895 
L 141.12 166.922526 
L 141.12 166.922526 
z
" clip-path="url(#pda7397ca30)" style="fill: #f2b8e0"/>
   </g>
   <g id="patch_126">
    <path d="M 141.12 169.961684 
L 141.12 169.961684 
L 141.12 182.118316 
L 141.12 182.118316 
z
" clip-path="url(#pda7397ca30)" style="fill: #f2b8e0"/>
   </g>
   <g id="patch_127">
    <path d="M 141.12 185.157474 
L 141.12 185.157474 
L 141.12 197.314105 
L 141.12 197.314105 
z
" clip-path="url(#pda7397ca30)" style="fill: #f2b8e0"/>
   </g>
   <g id="patch_128">
    <path d="M 141.12 200.353263 
L 141.12 200.353263 
L 141.12 212.509895 
L 141.12 212.509895 
z
" clip-path="url(#pda7397ca30)" style="fill: #f2b8e0"/>
   </g>
   <g id="patch_129">
    <path d="M 141.12 215.549053 
L 141.12 215.549053 
L 141.12 227.705684 
L 141.12 227.705684 
z
" clip-path="url(#pda7397ca30)" style="fill: #f2b8e0"/>
   </g>
   <g id="patch_130">
    <path d="M 141.12 230.744842 
L 145.998689 230.744842 
L 145.998689 242.901474 
L 141.12 242.901474 
z
" clip-path="url(#pda7397ca30)" style="fill: #f2b8e0"/>
   </g>
   <g id="patch_131">
    <path d="M 141.12 245.940632 
L 141.12 245.940632 
L 141.12 258.097263 
L 141.12 258.097263 
z
" clip-path="url(#pda7397ca30)" style="fill: #f2b8e0"/>
   </g>
   <g id="patch_132">
    <path d="M 141.12 261.136421 
L 141.12 261.136421 
L 141.12 273.293053 
L 141.12 273.293053 
z
" clip-path="url(#pda7397ca30)" style="fill: #f2b8e0"/>
   </g>
   <g id="patch_133">
    <path d="M 141.12 276.332211 
L 141.12 276.332211 
L 141.12 288.488842 
L 141.12 288.488842 
z
" clip-path="url(#pda7397ca30)" style="fill: #f2b8e0"/>
   </g>
   <g id="patch_134">
    <path d="M 141.12 291.528 
L 141.12 291.528 
L 141.12 303.684632 
L 141.12 303.684632 
z
" clip-path="url(#pda7397ca30)" style="fill: #f2b8e0"/>
   </g>
   <g id="patch_135">
    <path d="M 141.12 306.723789 
L 141.12 306.723789 
L 141.12 318.880421 
L 141.12 318.880421 
z
" clip-path="url(#pda7397ca30)" style="fill: #f2b8e0"/>
   </g>
   <g id="patch_136">
    <path d="M 141.12 33.199579 
L 141.12 33.199579 
L 141.12 45.356211 
L 141.12 45.356211 
z
" clip-path="url(#pda7397ca30)" style="fill: #949494"/>
   </g>
   <g id="patch_137">
    <path d="M 141.12 48.395368 
L 141.12 48.395368 
L 141.12 60.552 
L 141.12 60.552 
z
" clip-path="url(#pda7397ca30)" style="fill: #949494"/>
   </g>
   <g id="patch_138">
    <path d="M 141.12 63.591158 
L 141.12 63.591158 
L 141.12 75.747789 
L 141.12 75.747789 
z
" clip-path="url(#pda7397ca30)" style="fill: #949494"/>
   </g>
   <g id="patch_139">
    <path d="M 141.12 78.786947 
L 141.12 78.786947 
L 141.12 90.943579 
L 141.12 90.943579 
z
" clip-path="url(#pda7397ca30)" style="fill: #949494"/>
   </g>
   <g id="patch_140">
    <path d="M 141.12 93.982737 
L 141.12 93.982737 
L 141.12 106.139368 
L 141.12 106.139368 
z
" clip-path="url(#pda7397ca30)" style="fill: #949494"/>
   </g>
   <g id="patch_141">
    <path d="M 141.12 109.178526 
L 141.12 109.178526 
L 141.12 121.335158 
L 141.12 121.335158 
z
" clip-path="url(#pda7397ca30)" style="fill: #949494"/>
   </g>
   <g id="patch_142">
    <path d="M 141.12 124.374316 
L 141.12 124.374316 
L 141.12 136.530947 
L 141.12 136.530947 
z
" clip-path="url(#pda7397ca30)" style="fill: #949494"/>
   </g>
   <g id="patch_143">
    <path d="M 141.12 139.570105 
L 155.756066 139.570105 
L 155.756066 151.726737 
L 141.12 151.726737 
z
" clip-path="url(#pda7397ca30)" style="fill: #949494"/>
   </g>
   <g id="patch_144">
    <path d="M 141.12 154.765895 
L 141.12 154.765895 
L 141.12 166.922526 
L 141.12 166.922526 
z
" clip-path="url(#pda7397ca30)" style="fill: #949494"/>
   </g>
   <g id="patch_145">
    <path d="M 141.12 169.961684 
L 141.12 169.961684 
L 141.12 182.118316 
L 141.12 182.118316 
z
" clip-path="url(#pda7397ca30)" style="fill: #949494"/>
   </g>
   <g id="patch_146">
    <path d="M 141.12 185.157474 
L 141.12 185.157474 
L 141.12 197.314105 
L 141.12 197.314105 
z
" clip-path="url(#pda7397ca30)" style="fill: #949494"/>
   </g>
   <g id="patch_147">
    <path d="M 141.12 200.353263 
L 141.12 200.353263 
L 141.12 212.509895 
L 141.12 212.509895 
z
" clip-path="url(#pda7397ca30)" style="fill: #949494"/>
   </g>
   <g id="patch_148">
    <path d="M 141.12 215.549053 
L 141.12 215.549053 
L 141.12 227.705684 
L 141.12 227.705684 
z
" clip-path="url(#pda7397ca30)" style="fill: #949494"/>
   </g>
   <g id="patch_149">
    <path d="M 141.12 230.744842 
L 141.12 230.744842 
L 141.12 242.901474 
L 141.12 242.901474 
z
" clip-path="url(#pda7397ca30)" style="fill: #949494"/>
   </g>
   <g id="patch_150">
    <path d="M 141.12 245.940632 
L 141.12 245.940632 
L 141.12 258.097263 
L 141.12 258.097263 
z
" clip-path="url(#pda7397ca30)" style="fill: #949494"/>
   </g>
   <g id="patch_151">
    <path d="M 141.12 261.136421 
L 141.12 261.136421 
L 141.12 273.293053 
L 141.12 273.293053 
z
" clip-path="url(#pda7397ca30)" style="fill: #949494"/>
   </g>
   <g id="patch_152">
    <path d="M 141.12 276.332211 
L 141.12 276.332211 
L 141.12 288.488842 
L 141.12 288.488842 
z
" clip-path="url(#pda7397ca30)" style="fill: #949494"/>
   </g>
   <g id="patch_153">
    <path d="M 141.12 291.528 
L 141.12 291.528 
L 141.12 303.684632 
L 141.12 303.684632 
z
" clip-path="url(#pda7397ca30)" style="fill: #949494"/>
   </g>
   <g id="patch_154">
    <path d="M 141.12 306.723789 
L 141.12 306.723789 
L 141.12 318.880421 
L 141.12 318.880421 
z
" clip-path="url(#pda7397ca30)" style="fill: #949494"/>
   </g>
   <g id="patch_155">
    <path d="M 141.12 33.199579 
L 141.12 33.199579 
L 141.12 45.356211 
L 141.12 45.356211 
z
" clip-path="url(#pda7397ca30)" style="fill: #d5cd4a"/>
   </g>
   <g id="patch_156">
    <path d="M 141.12 48.395368 
L 141.12 48.395368 
L 141.12 60.552 
L 141.12 60.552 
z
" clip-path="url(#pda7397ca30)" style="fill: #d5cd4a"/>
   </g>
   <g id="patch_157">
    <path d="M 141.12 63.591158 
L 141.12 63.591158 
L 141.12 75.747789 
L 141.12 75.747789 
z
" clip-path="url(#pda7397ca30)" style="fill: #d5cd4a"/>
   </g>
   <g id="patch_158">
    <path d="M 141.12 78.786947 
L 141.12 78.786947 
L 141.12 90.943579 
L 141.12 90.943579 
z
" clip-path="url(#pda7397ca30)" style="fill: #d5cd4a"/>
   </g>
   <g id="patch_159">
    <path d="M 141.12 93.982737 
L 141.12 93.982737 
L 141.12 106.139368 
L 141.12 106.139368 
z
" clip-path="url(#pda7397ca30)" style="fill: #d5cd4a"/>
   </g>
   <g id="patch_160">
    <path d="M 141.12 109.178526 
L 141.12 109.178526 
L 141.12 121.335158 
L 141.12 121.335158 
z
" clip-path="url(#pda7397ca30)" style="fill: #d5cd4a"/>
   </g>
   <g id="patch_161">
    <path d="M 141.12 124.374316 
L 141.12 124.374316 
L 141.12 136.530947 
L 141.12 136.530947 
z
" clip-path="url(#pda7397ca30)" style="fill: #d5cd4a"/>
   </g>
   <g id="patch_162">
    <path d="M 141.12 139.570105 
L 141.12 139.570105 
L 141.12 151.726737 
L 141.12 151.726737 
z
" clip-path="url(#pda7397ca30)" style="fill: #d5cd4a"/>
   </g>
   <g id="patch_163">
    <path d="M 141.12 154.765895 
L 141.12 154.765895 
L 141.12 166.922526 
L 141.12 166.922526 
z
" clip-path="url(#pda7397ca30)" style="fill: #d5cd4a"/>
   </g>
   <g id="patch_164">
    <path d="M 141.12 169.961684 
L 141.12 169.961684 
L 141.12 182.118316 
L 141.12 182.118316 
z
" clip-path="url(#pda7397ca30)" style="fill: #d5cd4a"/>
   </g>
   <g id="patch_165">
    <path d="M 141.12 185.157474 
L 141.12 185.157474 
L 141.12 197.314105 
L 141.12 197.314105 
z
" clip-path="url(#pda7397ca30)" style="fill: #d5cd4a"/>
   </g>
   <g id="patch_166">
    <path d="M 141.12 200.353263 
L 141.12 200.353263 
L 141.12 212.509895 
L 141.12 212.509895 
z
" clip-path="url(#pda7397ca30)" style="fill: #d5cd4a"/>
   </g>
   <g id="patch_167">
    <path d="M 141.12 215.549053 
L 145.998689 215.549053 
L 145.998689 227.705684 
L 141.12 227.705684 
z
" clip-path="url(#pda7397ca30)" style="fill: #d5cd4a"/>
   </g>
   <g id="patch_168">
    <path d="M 141.12 230.744842 
L 141.12 230.744842 
L 141.12 242.901474 
L 141.12 242.901474 
z
" clip-path="url(#pda7397ca30)" style="fill: #d5cd4a"/>
   </g>
   <g id="patch_169">
    <path d="M 141.12 245.940632 
L 141.12 245.940632 
L 141.12 258.097263 
L 141.12 258.097263 
z
" clip-path="url(#pda7397ca30)" style="fill: #d5cd4a"/>
   </g>
   <g id="patch_170">
    <path d="M 141.12 261.136421 
L 141.12 261.136421 
L 141.12 273.293053 
L 141.12 273.293053 
z
" clip-path="url(#pda7397ca30)" style="fill: #d5cd4a"/>
   </g>
   <g id="patch_171">
    <path d="M 141.12 276.332211 
L 141.12 276.332211 
L 141.12 288.488842 
L 141.12 288.488842 
z
" clip-path="url(#pda7397ca30)" style="fill: #d5cd4a"/>
   </g>
   <g id="patch_172">
    <path d="M 141.12 291.528 
L 141.12 291.528 
L 141.12 303.684632 
L 141.12 303.684632 
z
" clip-path="url(#pda7397ca30)" style="fill: #d5cd4a"/>
   </g>
   <g id="patch_173">
    <path d="M 141.12 306.723789 
L 141.12 306.723789 
L 141.12 318.880421 
L 141.12 318.880421 
z
" clip-path="url(#pda7397ca30)" style="fill: #d5cd4a"/>
   </g>
   <g id="matplotlib.axis_1">
    <g id="xtick_1">
     <g id="line2d_1">
      <defs>
       <path id="mfbaef84cfe" d="M 0 0 
L 0 3.5 
" style="stroke: #000000; stroke-width: 0.8"/>
      </defs>
      <g>
       <use xlink:href="#mfbaef84cfe" x="141.12" y="320.4" style="stroke: #000000; stroke-width: 0.8"/>
      </g>
     </g>
     <g id="text_1">
      <!-- 0 -->
      <g transform="translate(137.93875 334.998438) scale(0.1 -0.1)">
       <defs>
        <path id="DejaVuSans-30" d="M 2034 4250 
Q 1547 4250 1301 3770 
Q 1056 3291 1056 2328 
Q 1056 1369 1301 889 
Q 1547 409 2034 409 
Q 2525 409 2770 889 
Q 3016 1369 3016 2328 
Q 3016 3291 2770 3770 
Q 2525 4250 2034 4250 
z
M 2034 4750 
Q 2819 4750 3233 4129 
Q 3647 3509 3647 2328 
Q 3647 1150 3233 529 
Q 2819 -91 2034 -91 
Q 1250 -91 836 529 
Q 422 1150 422 2328 
Q 422 3509 836 4129 
Q 1250 4750 2034 4750 
z
" transform="scale(0.015625)"/>
       </defs>
       <use xlink:href="#DejaVuSans-30"/>
      </g>
     </g>
    </g>
    <g id="xtick_2">
     <g id="line2d_2">
      <g>
       <use xlink:href="#mfbaef84cfe" x="189.906885" y="320.4" style="stroke: #000000; stroke-width: 0.8"/>
      </g>
     </g>
     <g id="text_2">
      <!-- 10 -->
      <g transform="translate(183.544385 334.998438) scale(0.1 -0.1)">
       <defs>
        <path id="DejaVuSans-31" d="M 794 531 
L 1825 531 
L 1825 4091 
L 703 3866 
L 703 4441 
L 1819 4666 
L 2450 4666 
L 2450 531 
L 3481 531 
L 3481 0 
L 794 0 
L 794 531 
z
" transform="scale(0.015625)"/>
       </defs>
       <use xlink:href="#DejaVuSans-31"/>
       <use xlink:href="#DejaVuSans-30" x="63.623047"/>
      </g>
     </g>
    </g>
    <g id="xtick_3">
     <g id="line2d_3">
      <g>
       <use xlink:href="#mfbaef84cfe" x="238.69377" y="320.4" style="stroke: #000000; stroke-width: 0.8"/>
      </g>
     </g>
     <g id="text_3">
      <!-- 20 -->
      <g transform="translate(232.33127 334.998438) scale(0.1 -0.1)">
       <defs>
        <path id="DejaVuSans-32" d="M 1228 531 
L 3431 531 
L 3431 0 
L 469 0 
L 469 531 
Q 828 903 1448 1529 
Q 2069 2156 2228 2338 
Q 2531 2678 2651 2914 
Q 2772 3150 2772 3378 
Q 2772 3750 2511 3984 
Q 2250 4219 1831 4219 
Q 1534 4219 1204 4116 
Q 875 4013 500 3803 
L 500 4441 
Q 881 4594 1212 4672 
Q 1544 4750 1819 4750 
Q 2544 4750 2975 4387 
Q 3406 4025 3406 3419 
Q 3406 3131 3298 2873 
Q 3191 2616 2906 2266 
Q 2828 2175 2409 1742 
Q 1991 1309 1228 531 
z
" transform="scale(0.015625)"/>
       </defs>
       <use xlink:href="#DejaVuSans-32"/>
       <use xlink:href="#DejaVuSans-30" x="63.623047"/>
      </g>
     </g>
    </g>
    <g id="xtick_4">
     <g id="line2d_4">
      <g>
       <use xlink:href="#mfbaef84cfe" x="287.480656" y="320.4" style="stroke: #000000; stroke-width: 0.8"/>
      </g>
     </g>
     <g id="text_4">
      <!-- 30 -->
      <g transform="translate(281.118156 334.998438) scale(0.1 -0.1)">
       <defs>
        <path id="DejaVuSans-33" d="M 2597 2516 
Q 3050 2419 3304 2112 
Q 3559 1806 3559 1356 
Q 3559 666 3084 287 
Q 2609 -91 1734 -91 
Q 1441 -91 1130 -33 
Q 819 25 488 141 
L 488 750 
Q 750 597 1062 519 
Q 1375 441 1716 441 
Q 2309 441 2620 675 
Q 2931 909 2931 1356 
Q 2931 1769 2642 2001 
Q 2353 2234 1838 2234 
L 1294 2234 
L 1294 2753 
L 1863 2753 
Q 2328 2753 2575 2939 
Q 2822 3125 2822 3475 
Q 2822 3834 2567 4026 
Q 2313 4219 1838 4219 
Q 1578 4219 1281 4162 
Q 984 4106 628 3988 
L 628 4550 
Q 988 4650 1302 4700 
Q 1616 4750 1894 4750 
Q 2613 4750 3031 4423 
Q 3450 4097 3450 3541 
Q 3450 3153 3228 2886 
Q 3006 2619 2597 2516 
z
" transform="scale(0.015625)"/>
       </defs>
       <use xlink:href="#DejaVuSans-33"/>
       <use xlink:href="#DejaVuSans-30" x="63.623047"/>
      </g>
     </g>
    </g>
    <g id="xtick_5">
     <g id="line2d_5">
      <g>
       <use xlink:href="#mfbaef84cfe" x="336.267541" y="320.4" style="stroke: #000000; stroke-width: 0.8"/>
      </g>
     </g>
     <g id="text_5">
      <!-- 40 -->
      <g transform="translate(329.905041 334.998438) scale(0.1 -0.1)">
       <defs>
        <path id="DejaVuSans-34" d="M 2419 4116 
L 825 1625 
L 2419 1625 
L 2419 4116 
z
M 2253 4666 
L 3047 4666 
L 3047 1625 
L 3713 1625 
L 3713 1100 
L 3047 1100 
L 3047 0 
L 2419 0 
L 2419 1100 
L 313 1100 
L 313 1709 
L 2253 4666 
z
" transform="scale(0.015625)"/>
       </defs>
       <use xlink:href="#DejaVuSans-34"/>
       <use xlink:href="#DejaVuSans-30" x="63.623047"/>
      </g>
     </g>
    </g>
    <g id="xtick_6">
     <g id="line2d_6">
      <g>
       <use xlink:href="#mfbaef84cfe" x="385.054426" y="320.4" style="stroke: #000000; stroke-width: 0.8"/>
      </g>
     </g>
     <g id="text_6">
      <!-- 50 -->
      <g transform="translate(378.691926 334.998438) scale(0.1 -0.1)">
       <defs>
        <path id="DejaVuSans-35" d="M 691 4666 
L 3169 4666 
L 3169 4134 
L 1269 4134 
L 1269 2991 
Q 1406 3038 1543 3061 
Q 1681 3084 1819 3084 
Q 2600 3084 3056 2656 
Q 3513 2228 3513 1497 
Q 3513 744 3044 326 
Q 2575 -91 1722 -91 
Q 1428 -91 1123 -41 
Q 819 9 494 109 
L 494 744 
Q 775 591 1075 516 
Q 1375 441 1709 441 
Q 2250 441 2565 725 
Q 2881 1009 2881 1497 
Q 2881 1984 2565 2268 
Q 2250 2553 1709 2553 
Q 1456 2553 1204 2497 
Q 953 2441 691 2322 
L 691 4666 
z
" transform="scale(0.015625)"/>
       </defs>
       <use xlink:href="#DejaVuSans-35"/>
       <use xlink:href="#DejaVuSans-30" x="63.623047"/>
      </g>
     </g>
    </g>
    <g id="xtick_7">
     <g id="line2d_7">
      <g>
       <use xlink:href="#mfbaef84cfe" x="433.841311" y="320.4" style="stroke: #000000; stroke-width: 0.8"/>
      </g>
     </g>
     <g id="text_7">
      <!-- 60 -->
      <g transform="translate(427.478811 334.998438) scale(0.1 -0.1)">
       <defs>
        <path id="DejaVuSans-36" d="M 2113 2584 
Q 1688 2584 1439 2293 
Q 1191 2003 1191 1497 
Q 1191 994 1439 701 
Q 1688 409 2113 409 
Q 2538 409 2786 701 
Q 3034 994 3034 1497 
Q 3034 2003 2786 2293 
Q 2538 2584 2113 2584 
z
M 3366 4563 
L 3366 3988 
Q 3128 4100 2886 4159 
Q 2644 4219 2406 4219 
Q 1781 4219 1451 3797 
Q 1122 3375 1075 2522 
Q 1259 2794 1537 2939 
Q 1816 3084 2150 3084 
Q 2853 3084 3261 2657 
Q 3669 2231 3669 1497 
Q 3669 778 3244 343 
Q 2819 -91 2113 -91 
Q 1303 -91 875 529 
Q 447 1150 447 2328 
Q 447 3434 972 4092 
Q 1497 4750 2381 4750 
Q 2619 4750 2861 4703 
Q 3103 4656 3366 4563 
z
" transform="scale(0.015625)"/>
       </defs>
       <use xlink:href="#DejaVuSans-36"/>
       <use xlink:href="#DejaVuSans-30" x="63.623047"/>
      </g>
     </g>
    </g>
    <g id="text_8">
     <!-- count -->
     <g transform="translate(283.25375 348.676562) scale(0.1 -0.1)">
      <defs>
       <path id="DejaVuSans-63" d="M 3122 3366 
L 3122 2828 
Q 2878 2963 2633 3030 
Q 2388 3097 2138 3097 
Q 1578 3097 1268 2742 
Q 959 2388 959 1747 
Q 959 1106 1268 751 
Q 1578 397 2138 397 
Q 2388 397 2633 464 
Q 2878 531 3122 666 
L 3122 134 
Q 2881 22 2623 -34 
Q 2366 -91 2075 -91 
Q 1284 -91 818 406 
Q 353 903 353 1747 
Q 353 2603 823 3093 
Q 1294 3584 2113 3584 
Q 2378 3584 2631 3529 
Q 2884 3475 3122 3366 
z
" transform="scale(0.015625)"/>
       <path id="DejaVuSans-6f" d="M 1959 3097 
Q 1497 3097 1228 2736 
Q 959 2375 959 1747 
Q 959 1119 1226 758 
Q 1494 397 1959 397 
Q 2419 397 2687 759 
Q 2956 1122 2956 1747 
Q 2956 2369 2687 2733 
Q 2419 3097 1959 3097 
z
M 1959 3584 
Q 2709 3584 3137 3096 
Q 3566 2609 3566 1747 
Q 3566 888 3137 398 
Q 2709 -91 1959 -91 
Q 1206 -91 779 398 
Q 353 888 353 1747 
Q 353 2609 779 3096 
Q 1206 3584 1959 3584 
z
" transform="scale(0.015625)"/>
       <path id="DejaVuSans-75" d="M 544 1381 
L 544 3500 
L 1119 3500 
L 1119 1403 
Q 1119 906 1312 657 
Q 1506 409 1894 409 
Q 2359 409 2629 706 
Q 2900 1003 2900 1516 
L 2900 3500 
L 3475 3500 
L 3475 0 
L 2900 0 
L 2900 538 
Q 2691 219 2414 64 
Q 2138 -91 1772 -91 
Q 1169 -91 856 284 
Q 544 659 544 1381 
z
M 1991 3584 
L 1991 3584 
z
" transform="scale(0.015625)"/>
       <path id="DejaVuSans-6e" d="M 3513 2113 
L 3513 0 
L 2938 0 
L 2938 2094 
Q 2938 2591 2744 2837 
Q 2550 3084 2163 3084 
Q 1697 3084 1428 2787 
Q 1159 2491 1159 1978 
L 1159 0 
L 581 0 
L 581 3500 
L 1159 3500 
L 1159 2956 
Q 1366 3272 1645 3428 
Q 1925 3584 2291 3584 
Q 2894 3584 3203 3211 
Q 3513 2838 3513 2113 
z
" transform="scale(0.015625)"/>
       <path id="DejaVuSans-74" d="M 1172 4494 
L 1172 3500 
L 2356 3500 
L 2356 3053 
L 1172 3053 
L 1172 1153 
Q 1172 725 1289 603 
Q 1406 481 1766 481 
L 2356 481 
L 2356 0 
L 1766 0 
Q 1100 0 847 248 
Q 594 497 594 1153 
L 594 3053 
L 172 3053 
L 172 3500 
L 594 3500 
L 594 4494 
L 1172 4494 
z
" transform="scale(0.015625)"/>
      </defs>
      <use xlink:href="#DejaVuSans-63"/>
      <use xlink:href="#DejaVuSans-6f" x="54.980469"/>
      <use xlink:href="#DejaVuSans-75" x="116.162109"/>
      <use xlink:href="#DejaVuSans-6e" x="179.541016"/>
      <use xlink:href="#DejaVuSans-74" x="242.919922"/>
     </g>
    </g>
   </g>
   <g id="matplotlib.axis_2">
    <g id="ytick_1">
     <g id="line2d_8">
      <defs>
       <path id="m992c41353e" d="M 0 0 
L -3.5 0 
" style="stroke: #000000; stroke-width: 0.8"/>
      </defs>
      <g>
       <use xlink:href="#m992c41353e" x="141.12" y="39.277895" style="stroke: #000000; stroke-width: 0.8"/>
      </g>
     </g>
     <g id="text_9">
      <!-- Google Analytics -->
      <g transform="translate(50.266875 43.077113) scale(0.1 -0.1)">
       <defs>
        <path id="DejaVuSans-47" d="M 3809 666 
L 3809 1919 
L 2778 1919 
L 2778 2438 
L 4434 2438 
L 4434 434 
Q 4069 175 3628 42 
Q 3188 -91 2688 -91 
Q 1594 -91 976 548 
Q 359 1188 359 2328 
Q 359 3472 976 4111 
Q 1594 4750 2688 4750 
Q 3144 4750 3555 4637 
Q 3966 4525 4313 4306 
L 4313 3634 
Q 3963 3931 3569 4081 
Q 3175 4231 2741 4231 
Q 1884 4231 1454 3753 
Q 1025 3275 1025 2328 
Q 1025 1384 1454 906 
Q 1884 428 2741 428 
Q 3075 428 3337 486 
Q 3600 544 3809 666 
z
" transform="scale(0.015625)"/>
        <path id="DejaVuSans-67" d="M 2906 1791 
Q 2906 2416 2648 2759 
Q 2391 3103 1925 3103 
Q 1463 3103 1205 2759 
Q 947 2416 947 1791 
Q 947 1169 1205 825 
Q 1463 481 1925 481 
Q 2391 481 2648 825 
Q 2906 1169 2906 1791 
z
M 3481 434 
Q 3481 -459 3084 -895 
Q 2688 -1331 1869 -1331 
Q 1566 -1331 1297 -1286 
Q 1028 -1241 775 -1147 
L 775 -588 
Q 1028 -725 1275 -790 
Q 1522 -856 1778 -856 
Q 2344 -856 2625 -561 
Q 2906 -266 2906 331 
L 2906 616 
Q 2728 306 2450 153 
Q 2172 0 1784 0 
Q 1141 0 747 490 
Q 353 981 353 1791 
Q 353 2603 747 3093 
Q 1141 3584 1784 3584 
Q 2172 3584 2450 3431 
Q 2728 3278 2906 2969 
L 2906 3500 
L 3481 3500 
L 3481 434 
z
" transform="scale(0.015625)"/>
        <path id="DejaVuSans-6c" d="M 603 4863 
L 1178 4863 
L 1178 0 
L 603 0 
L 603 4863 
z
" transform="scale(0.015625)"/>
        <path id="DejaVuSans-65" d="M 3597 1894 
L 3597 1613 
L 953 1613 
Q 991 1019 1311 708 
Q 1631 397 2203 397 
Q 2534 397 2845 478 
Q 3156 559 3463 722 
L 3463 178 
Q 3153 47 2828 -22 
Q 2503 -91 2169 -91 
Q 1331 -91 842 396 
Q 353 884 353 1716 
Q 353 2575 817 3079 
Q 1281 3584 2069 3584 
Q 2775 3584 3186 3129 
Q 3597 2675 3597 1894 
z
M 3022 2063 
Q 3016 2534 2758 2815 
Q 2500 3097 2075 3097 
Q 1594 3097 1305 2825 
Q 1016 2553 972 2059 
L 3022 2063 
z
" transform="scale(0.015625)"/>
        <path id="DejaVuSans-20" transform="scale(0.015625)"/>
        <path id="DejaVuSans-41" d="M 2188 4044 
L 1331 1722 
L 3047 1722 
L 2188 4044 
z
M 1831 4666 
L 2547 4666 
L 4325 0 
L 3669 0 
L 3244 1197 
L 1141 1197 
L 716 0 
L 50 0 
L 1831 4666 
z
" transform="scale(0.015625)"/>
        <path id="DejaVuSans-61" d="M 2194 1759 
Q 1497 1759 1228 1600 
Q 959 1441 959 1056 
Q 959 750 1161 570 
Q 1363 391 1709 391 
Q 2188 391 2477 730 
Q 2766 1069 2766 1631 
L 2766 1759 
L 2194 1759 
z
M 3341 1997 
L 3341 0 
L 2766 0 
L 2766 531 
Q 2569 213 2275 61 
Q 1981 -91 1556 -91 
Q 1019 -91 701 211 
Q 384 513 384 1019 
Q 384 1609 779 1909 
Q 1175 2209 1959 2209 
L 2766 2209 
L 2766 2266 
Q 2766 2663 2505 2880 
Q 2244 3097 1772 3097 
Q 1472 3097 1187 3025 
Q 903 2953 641 2809 
L 641 3341 
Q 956 3463 1253 3523 
Q 1550 3584 1831 3584 
Q 2591 3584 2966 3190 
Q 3341 2797 3341 1997 
z
" transform="scale(0.015625)"/>
        <path id="DejaVuSans-79" d="M 2059 -325 
Q 1816 -950 1584 -1140 
Q 1353 -1331 966 -1331 
L 506 -1331 
L 506 -850 
L 844 -850 
Q 1081 -850 1212 -737 
Q 1344 -625 1503 -206 
L 1606 56 
L 191 3500 
L 800 3500 
L 1894 763 
L 2988 3500 
L 3597 3500 
L 2059 -325 
z
" transform="scale(0.015625)"/>
        <path id="DejaVuSans-69" d="M 603 3500 
L 1178 3500 
L 1178 0 
L 603 0 
L 603 3500 
z
M 603 4863 
L 1178 4863 
L 1178 4134 
L 603 4134 
L 603 4863 
z
" transform="scale(0.015625)"/>
        <path id="DejaVuSans-73" d="M 2834 3397 
L 2834 2853 
Q 2591 2978 2328 3040 
Q 2066 3103 1784 3103 
Q 1356 3103 1142 2972 
Q 928 2841 928 2578 
Q 928 2378 1081 2264 
Q 1234 2150 1697 2047 
L 1894 2003 
Q 2506 1872 2764 1633 
Q 3022 1394 3022 966 
Q 3022 478 2636 193 
Q 2250 -91 1575 -91 
Q 1294 -91 989 -36 
Q 684 19 347 128 
L 347 722 
Q 666 556 975 473 
Q 1284 391 1588 391 
Q 1994 391 2212 530 
Q 2431 669 2431 922 
Q 2431 1156 2273 1281 
Q 2116 1406 1581 1522 
L 1381 1569 
Q 847 1681 609 1914 
Q 372 2147 372 2553 
Q 372 3047 722 3315 
Q 1072 3584 1716 3584 
Q 2034 3584 2315 3537 
Q 2597 3491 2834 3397 
z
" transform="scale(0.015625)"/>
       </defs>
       <use xlink:href="#DejaVuSans-47"/>
       <use xlink:href="#DejaVuSans-6f" x="77.490234"/>
       <use xlink:href="#DejaVuSans-6f" x="138.671875"/>
       <use xlink:href="#DejaVuSans-67" x="199.853516"/>
       <use xlink:href="#DejaVuSans-6c" x="263.330078"/>
       <use xlink:href="#DejaVuSans-65" x="291.113281"/>
       <use xlink:href="#DejaVuSans-20" x="352.636719"/>
       <use xlink:href="#DejaVuSans-41" x="384.423828"/>
       <use xlink:href="#DejaVuSans-6e" x="452.832031"/>
       <use xlink:href="#DejaVuSans-61" x="516.210938"/>
       <use xlink:href="#DejaVuSans-6c" x="577.490234"/>
       <use xlink:href="#DejaVuSans-79" x="605.273438"/>
       <use xlink:href="#DejaVuSans-74" x="664.453125"/>
       <use xlink:href="#DejaVuSans-69" x="703.662109"/>
       <use xlink:href="#DejaVuSans-63" x="731.445312"/>
       <use xlink:href="#DejaVuSans-73" x="786.425781"/>
      </g>
     </g>
    </g>
    <g id="ytick_2">
     <g id="line2d_9">
      <g>
       <use xlink:href="#m992c41353e" x="141.12" y="54.473684" style="stroke: #000000; stroke-width: 0.8"/>
      </g>
     </g>
     <g id="text_10">
      <!-- Google Tag Manager -->
      <g transform="translate(31.729375 58.272903) scale(0.1 -0.1)">
       <defs>
        <path id="DejaVuSans-54" d="M -19 4666 
L 3928 4666 
L 3928 4134 
L 2272 4134 
L 2272 0 
L 1638 0 
L 1638 4134 
L -19 4134 
L -19 4666 
z
" transform="scale(0.015625)"/>
        <path id="DejaVuSans-4d" d="M 628 4666 
L 1569 4666 
L 2759 1491 
L 3956 4666 
L 4897 4666 
L 4897 0 
L 4281 0 
L 4281 4097 
L 3078 897 
L 2444 897 
L 1241 4097 
L 1241 0 
L 628 0 
L 628 4666 
z
" transform="scale(0.015625)"/>
        <path id="DejaVuSans-72" d="M 2631 2963 
Q 2534 3019 2420 3045 
Q 2306 3072 2169 3072 
Q 1681 3072 1420 2755 
Q 1159 2438 1159 1844 
L 1159 0 
L 581 0 
L 581 3500 
L 1159 3500 
L 1159 2956 
Q 1341 3275 1631 3429 
Q 1922 3584 2338 3584 
Q 2397 3584 2469 3576 
Q 2541 3569 2628 3553 
L 2631 2963 
z
" transform="scale(0.015625)"/>
       </defs>
       <use xlink:href="#DejaVuSans-47"/>
       <use xlink:href="#DejaVuSans-6f" x="77.490234"/>
       <use xlink:href="#DejaVuSans-6f" x="138.671875"/>
       <use xlink:href="#DejaVuSans-67" x="199.853516"/>
       <use xlink:href="#DejaVuSans-6c" x="263.330078"/>
       <use xlink:href="#DejaVuSans-65" x="291.113281"/>
       <use xlink:href="#DejaVuSans-20" x="352.636719"/>
       <use xlink:href="#DejaVuSans-54" x="384.423828"/>
       <use xlink:href="#DejaVuSans-61" x="429.007812"/>
       <use xlink:href="#DejaVuSans-67" x="490.287109"/>
       <use xlink:href="#DejaVuSans-20" x="553.763672"/>
       <use xlink:href="#DejaVuSans-4d" x="585.550781"/>
       <use xlink:href="#DejaVuSans-61" x="671.830078"/>
       <use xlink:href="#DejaVuSans-6e" x="733.109375"/>
       <use xlink:href="#DejaVuSans-61" x="796.488281"/>
       <use xlink:href="#DejaVuSans-67" x="857.767578"/>
       <use xlink:href="#DejaVuSans-65" x="921.244141"/>
       <use xlink:href="#DejaVuSans-72" x="982.767578"/>
      </g>
     </g>
    </g>
    <g id="ytick_3">
     <g id="line2d_10">
      <g>
       <use xlink:href="#m992c41353e" x="141.12" y="69.669474" style="stroke: #000000; stroke-width: 0.8"/>
      </g>
     </g>
     <g id="text_11">
      <!-- Optimizely -->
      <g transform="translate(80.584063 73.468692) scale(0.1 -0.1)">
       <defs>
        <path id="DejaVuSans-4f" d="M 2522 4238 
Q 1834 4238 1429 3725 
Q 1025 3213 1025 2328 
Q 1025 1447 1429 934 
Q 1834 422 2522 422 
Q 3209 422 3611 934 
Q 4013 1447 4013 2328 
Q 4013 3213 3611 3725 
Q 3209 4238 2522 4238 
z
M 2522 4750 
Q 3503 4750 4090 4092 
Q 4678 3434 4678 2328 
Q 4678 1225 4090 567 
Q 3503 -91 2522 -91 
Q 1538 -91 948 565 
Q 359 1222 359 2328 
Q 359 3434 948 4092 
Q 1538 4750 2522 4750 
z
" transform="scale(0.015625)"/>
        <path id="DejaVuSans-70" d="M 1159 525 
L 1159 -1331 
L 581 -1331 
L 581 3500 
L 1159 3500 
L 1159 2969 
Q 1341 3281 1617 3432 
Q 1894 3584 2278 3584 
Q 2916 3584 3314 3078 
Q 3713 2572 3713 1747 
Q 3713 922 3314 415 
Q 2916 -91 2278 -91 
Q 1894 -91 1617 61 
Q 1341 213 1159 525 
z
M 3116 1747 
Q 3116 2381 2855 2742 
Q 2594 3103 2138 3103 
Q 1681 3103 1420 2742 
Q 1159 2381 1159 1747 
Q 1159 1113 1420 752 
Q 1681 391 2138 391 
Q 2594 391 2855 752 
Q 3116 1113 3116 1747 
z
" transform="scale(0.015625)"/>
        <path id="DejaVuSans-6d" d="M 3328 2828 
Q 3544 3216 3844 3400 
Q 4144 3584 4550 3584 
Q 5097 3584 5394 3201 
Q 5691 2819 5691 2113 
L 5691 0 
L 5113 0 
L 5113 2094 
Q 5113 2597 4934 2840 
Q 4756 3084 4391 3084 
Q 3944 3084 3684 2787 
Q 3425 2491 3425 1978 
L 3425 0 
L 2847 0 
L 2847 2094 
Q 2847 2600 2669 2842 
Q 2491 3084 2119 3084 
Q 1678 3084 1418 2786 
Q 1159 2488 1159 1978 
L 1159 0 
L 581 0 
L 581 3500 
L 1159 3500 
L 1159 2956 
Q 1356 3278 1631 3431 
Q 1906 3584 2284 3584 
Q 2666 3584 2933 3390 
Q 3200 3197 3328 2828 
z
" transform="scale(0.015625)"/>
        <path id="DejaVuSans-7a" d="M 353 3500 
L 3084 3500 
L 3084 2975 
L 922 459 
L 3084 459 
L 3084 0 
L 275 0 
L 275 525 
L 2438 3041 
L 353 3041 
L 353 3500 
z
" transform="scale(0.015625)"/>
       </defs>
       <use xlink:href="#DejaVuSans-4f"/>
       <use xlink:href="#DejaVuSans-70" x="78.710938"/>
       <use xlink:href="#DejaVuSans-74" x="142.1875"/>
       <use xlink:href="#DejaVuSans-69" x="181.396484"/>
       <use xlink:href="#DejaVuSans-6d" x="209.179688"/>
       <use xlink:href="#DejaVuSans-69" x="306.591797"/>
       <use xlink:href="#DejaVuSans-7a" x="334.375"/>
       <use xlink:href="#DejaVuSans-65" x="386.865234"/>
       <use xlink:href="#DejaVuSans-6c" x="448.388672"/>
       <use xlink:href="#DejaVuSans-79" x="476.171875"/>
      </g>
     </g>
    </g>
    <g id="ytick_4">
     <g id="line2d_11">
      <g>
       <use xlink:href="#m992c41353e" x="141.12" y="84.865263" style="stroke: #000000; stroke-width: 0.8"/>
      </g>
     </g>
     <g id="text_12">
      <!-- Crazy Egg -->
      <g transform="translate(83.537188 88.664482) scale(0.1 -0.1)">
       <defs>
        <path id="DejaVuSans-43" d="M 4122 4306 
L 4122 3641 
Q 3803 3938 3442 4084 
Q 3081 4231 2675 4231 
Q 1875 4231 1450 3742 
Q 1025 3253 1025 2328 
Q 1025 1406 1450 917 
Q 1875 428 2675 428 
Q 3081 428 3442 575 
Q 3803 722 4122 1019 
L 4122 359 
Q 3791 134 3420 21 
Q 3050 -91 2638 -91 
Q 1578 -91 968 557 
Q 359 1206 359 2328 
Q 359 3453 968 4101 
Q 1578 4750 2638 4750 
Q 3056 4750 3426 4639 
Q 3797 4528 4122 4306 
z
" transform="scale(0.015625)"/>
        <path id="DejaVuSans-45" d="M 628 4666 
L 3578 4666 
L 3578 4134 
L 1259 4134 
L 1259 2753 
L 3481 2753 
L 3481 2222 
L 1259 2222 
L 1259 531 
L 3634 531 
L 3634 0 
L 628 0 
L 628 4666 
z
" transform="scale(0.015625)"/>
       </defs>
       <use xlink:href="#DejaVuSans-43"/>
       <use xlink:href="#DejaVuSans-72" x="69.824219"/>
       <use xlink:href="#DejaVuSans-61" x="110.9375"/>
       <use xlink:href="#DejaVuSans-7a" x="172.216797"/>
       <use xlink:href="#DejaVuSans-79" x="224.707031"/>
       <use xlink:href="#DejaVuSans-20" x="283.886719"/>
       <use xlink:href="#DejaVuSans-45" x="315.673828"/>
       <use xlink:href="#DejaVuSans-67" x="378.857422"/>
       <use xlink:href="#DejaVuSans-67" x="442.333984"/>
      </g>
     </g>
    </g>
    <g id="ytick_5">
     <g id="line2d_12">
      <g>
       <use xlink:href="#m992c41353e" x="141.12" y="100.061053" style="stroke: #000000; stroke-width: 0.8"/>
      </g>
     </g>
     <g id="text_13">
      <!-- Segment -->
      <g transform="translate(89.118437 103.860271) scale(0.1 -0.1)">
       <defs>
        <path id="DejaVuSans-53" d="M 3425 4513 
L 3425 3897 
Q 3066 4069 2747 4153 
Q 2428 4238 2131 4238 
Q 1616 4238 1336 4038 
Q 1056 3838 1056 3469 
Q 1056 3159 1242 3001 
Q 1428 2844 1947 2747 
L 2328 2669 
Q 3034 2534 3370 2195 
Q 3706 1856 3706 1288 
Q 3706 609 3251 259 
Q 2797 -91 1919 -91 
Q 1588 -91 1214 -16 
Q 841 59 441 206 
L 441 856 
Q 825 641 1194 531 
Q 1563 422 1919 422 
Q 2459 422 2753 634 
Q 3047 847 3047 1241 
Q 3047 1584 2836 1778 
Q 2625 1972 2144 2069 
L 1759 2144 
Q 1053 2284 737 2584 
Q 422 2884 422 3419 
Q 422 4038 858 4394 
Q 1294 4750 2059 4750 
Q 2388 4750 2728 4690 
Q 3069 4631 3425 4513 
z
" transform="scale(0.015625)"/>
       </defs>
       <use xlink:href="#DejaVuSans-53"/>
       <use xlink:href="#DejaVuSans-65" x="63.476562"/>
       <use xlink:href="#DejaVuSans-67" x="125"/>
       <use xlink:href="#DejaVuSans-6d" x="188.476562"/>
       <use xlink:href="#DejaVuSans-65" x="285.888672"/>
       <use xlink:href="#DejaVuSans-6e" x="347.412109"/>
       <use xlink:href="#DejaVuSans-74" x="410.791016"/>
      </g>
     </g>
    </g>
    <g id="ytick_6">
     <g id="line2d_13">
      <g>
       <use xlink:href="#m992c41353e" x="141.12" y="115.256842" style="stroke: #000000; stroke-width: 0.8"/>
      </g>
     </g>
     <g id="text_14">
      <!-- Mixpanel -->
      <g transform="translate(89.049688 119.056061) scale(0.1 -0.1)">
       <defs>
        <path id="DejaVuSans-78" d="M 3513 3500 
L 2247 1797 
L 3578 0 
L 2900 0 
L 1881 1375 
L 863 0 
L 184 0 
L 1544 1831 
L 300 3500 
L 978 3500 
L 1906 2253 
L 2834 3500 
L 3513 3500 
z
" transform="scale(0.015625)"/>
       </defs>
       <use xlink:href="#DejaVuSans-4d"/>
       <use xlink:href="#DejaVuSans-69" x="86.279297"/>
       <use xlink:href="#DejaVuSans-78" x="114.0625"/>
       <use xlink:href="#DejaVuSans-70" x="173.242188"/>
       <use xlink:href="#DejaVuSans-61" x="236.71875"/>
       <use xlink:href="#DejaVuSans-6e" x="297.998047"/>
       <use xlink:href="#DejaVuSans-65" x="361.376953"/>
       <use xlink:href="#DejaVuSans-6c" x="422.900391"/>
      </g>
     </g>
    </g>
    <g id="ytick_7">
     <g id="line2d_14">
      <g>
       <use xlink:href="#m992c41353e" x="141.12" y="130.452632" style="stroke: #000000; stroke-width: 0.8"/>
      </g>
     </g>
     <g id="text_15">
      <!-- Piwik -->
      <g transform="translate(108.790312 134.25185) scale(0.1 -0.1)">
       <defs>
        <path id="DejaVuSans-50" d="M 1259 4147 
L 1259 2394 
L 2053 2394 
Q 2494 2394 2734 2622 
Q 2975 2850 2975 3272 
Q 2975 3691 2734 3919 
Q 2494 4147 2053 4147 
L 1259 4147 
z
M 628 4666 
L 2053 4666 
Q 2838 4666 3239 4311 
Q 3641 3956 3641 3272 
Q 3641 2581 3239 2228 
Q 2838 1875 2053 1875 
L 1259 1875 
L 1259 0 
L 628 0 
L 628 4666 
z
" transform="scale(0.015625)"/>
        <path id="DejaVuSans-77" d="M 269 3500 
L 844 3500 
L 1563 769 
L 2278 3500 
L 2956 3500 
L 3675 769 
L 4391 3500 
L 4966 3500 
L 4050 0 
L 3372 0 
L 2619 2869 
L 1863 0 
L 1184 0 
L 269 3500 
z
" transform="scale(0.015625)"/>
        <path id="DejaVuSans-6b" d="M 581 4863 
L 1159 4863 
L 1159 1991 
L 2875 3500 
L 3609 3500 
L 1753 1863 
L 3688 0 
L 2938 0 
L 1159 1709 
L 1159 0 
L 581 0 
L 581 4863 
z
" transform="scale(0.015625)"/>
       </defs>
       <use xlink:href="#DejaVuSans-50"/>
       <use xlink:href="#DejaVuSans-69" x="58.052734"/>
       <use xlink:href="#DejaVuSans-77" x="85.835938"/>
       <use xlink:href="#DejaVuSans-69" x="167.623047"/>
       <use xlink:href="#DejaVuSans-6b" x="195.40625"/>
      </g>
     </g>
    </g>
    <g id="ytick_8">
     <g id="line2d_15">
      <g>
       <use xlink:href="#m992c41353e" x="141.12" y="145.648421" style="stroke: #000000; stroke-width: 0.8"/>
      </g>
     </g>
     <g id="text_16">
      <!-- Heap -->
      <g transform="translate(107.97 149.44764) scale(0.1 -0.1)">
       <defs>
        <path id="DejaVuSans-48" d="M 628 4666 
L 1259 4666 
L 1259 2753 
L 3553 2753 
L 3553 4666 
L 4184 4666 
L 4184 0 
L 3553 0 
L 3553 2222 
L 1259 2222 
L 1259 0 
L 628 0 
L 628 4666 
z
" transform="scale(0.015625)"/>
       </defs>
       <use xlink:href="#DejaVuSans-48"/>
       <use xlink:href="#DejaVuSans-65" x="75.195312"/>
       <use xlink:href="#DejaVuSans-61" x="136.71875"/>
       <use xlink:href="#DejaVuSans-70" x="197.998047"/>
      </g>
     </g>
    </g>
    <g id="ytick_9">
     <g id="line2d_16">
      <g>
       <use xlink:href="#m992c41353e" x="141.12" y="160.844211" style="stroke: #000000; stroke-width: 0.8"/>
      </g>
     </g>
     <g id="text_17">
      <!-- Visual Website Optimizer -->
      <g transform="translate(9.104375 164.643429) scale(0.1 -0.1)">
       <defs>
        <path id="DejaVuSans-56" d="M 1831 0 
L 50 4666 
L 709 4666 
L 2188 738 
L 3669 4666 
L 4325 4666 
L 2547 0 
L 1831 0 
z
" transform="scale(0.015625)"/>
        <path id="DejaVuSans-57" d="M 213 4666 
L 850 4666 
L 1831 722 
L 2809 4666 
L 3519 4666 
L 4500 722 
L 5478 4666 
L 6119 4666 
L 4947 0 
L 4153 0 
L 3169 4050 
L 2175 0 
L 1381 0 
L 213 4666 
z
" transform="scale(0.015625)"/>
        <path id="DejaVuSans-62" d="M 3116 1747 
Q 3116 2381 2855 2742 
Q 2594 3103 2138 3103 
Q 1681 3103 1420 2742 
Q 1159 2381 1159 1747 
Q 1159 1113 1420 752 
Q 1681 391 2138 391 
Q 2594 391 2855 752 
Q 3116 1113 3116 1747 
z
M 1159 2969 
Q 1341 3281 1617 3432 
Q 1894 3584 2278 3584 
Q 2916 3584 3314 3078 
Q 3713 2572 3713 1747 
Q 3713 922 3314 415 
Q 2916 -91 2278 -91 
Q 1894 -91 1617 61 
Q 1341 213 1159 525 
L 1159 0 
L 581 0 
L 581 4863 
L 1159 4863 
L 1159 2969 
z
" transform="scale(0.015625)"/>
       </defs>
       <use xlink:href="#DejaVuSans-56"/>
       <use xlink:href="#DejaVuSans-69" x="66.158203"/>
       <use xlink:href="#DejaVuSans-73" x="93.941406"/>
       <use xlink:href="#DejaVuSans-75" x="146.041016"/>
       <use xlink:href="#DejaVuSans-61" x="209.419922"/>
       <use xlink:href="#DejaVuSans-6c" x="270.699219"/>
       <use xlink:href="#DejaVuSans-20" x="298.482422"/>
       <use xlink:href="#DejaVuSans-57" x="330.269531"/>
       <use xlink:href="#DejaVuSans-65" x="423.271484"/>
       <use xlink:href="#DejaVuSans-62" x="484.794922"/>
       <use xlink:href="#DejaVuSans-73" x="548.271484"/>
       <use xlink:href="#DejaVuSans-69" x="600.371094"/>
       <use xlink:href="#DejaVuSans-74" x="628.154297"/>
       <use xlink:href="#DejaVuSans-65" x="667.363281"/>
       <use xlink:href="#DejaVuSans-20" x="728.886719"/>
       <use xlink:href="#DejaVuSans-4f" x="760.673828"/>
       <use xlink:href="#DejaVuSans-70" x="839.384766"/>
       <use xlink:href="#DejaVuSans-74" x="902.861328"/>
       <use xlink:href="#DejaVuSans-69" x="942.070312"/>
       <use xlink:href="#DejaVuSans-6d" x="969.853516"/>
       <use xlink:href="#DejaVuSans-69" x="1067.265625"/>
       <use xlink:href="#DejaVuSans-7a" x="1095.048828"/>
       <use xlink:href="#DejaVuSans-65" x="1147.539062"/>
       <use xlink:href="#DejaVuSans-72" x="1209.0625"/>
      </g>
     </g>
    </g>
    <g id="ytick_10">
     <g id="line2d_17">
      <g>
       <use xlink:href="#m992c41353e" x="141.12" y="176.04" style="stroke: #000000; stroke-width: 0.8"/>
      </g>
     </g>
     <g id="text_18">
      <!-- Matomo -->
      <g transform="translate(93.465313 179.839219) scale(0.1 -0.1)">
       <use xlink:href="#DejaVuSans-4d"/>
       <use xlink:href="#DejaVuSans-61" x="86.279297"/>
       <use xlink:href="#DejaVuSans-74" x="147.558594"/>
       <use xlink:href="#DejaVuSans-6f" x="186.767578"/>
       <use xlink:href="#DejaVuSans-6d" x="247.949219"/>
       <use xlink:href="#DejaVuSans-6f" x="345.361328"/>
      </g>
     </g>
    </g>
    <g id="ytick_11">
     <g id="line2d_18">
      <g>
       <use xlink:href="#m992c41353e" x="141.12" y="191.235789" style="stroke: #000000; stroke-width: 0.8"/>
      </g>
     </g>
     <g id="text_19">
      <!-- Hotjar -->
      <g transform="translate(103.543438 195.035008) scale(0.1 -0.1)">
       <defs>
        <path id="DejaVuSans-6a" d="M 603 3500 
L 1178 3500 
L 1178 -63 
Q 1178 -731 923 -1031 
Q 669 -1331 103 -1331 
L -116 -1331 
L -116 -844 
L 38 -844 
Q 366 -844 484 -692 
Q 603 -541 603 -63 
L 603 3500 
z
M 603 4863 
L 1178 4863 
L 1178 4134 
L 603 4134 
L 603 4863 
z
" transform="scale(0.015625)"/>
       </defs>
       <use xlink:href="#DejaVuSans-48"/>
       <use xlink:href="#DejaVuSans-6f" x="75.195312"/>
       <use xlink:href="#DejaVuSans-74" x="136.376953"/>
       <use xlink:href="#DejaVuSans-6a" x="175.585938"/>
       <use xlink:href="#DejaVuSans-61" x="203.369141"/>
       <use xlink:href="#DejaVuSans-72" x="264.648438"/>
      </g>
     </g>
    </g>
    <g id="ytick_12">
     <g id="line2d_19">
      <g>
       <use xlink:href="#m992c41353e" x="141.12" y="206.431579" style="stroke: #000000; stroke-width: 0.8"/>
      </g>
     </g>
     <g id="text_20">
      <!-- Microsoft SSRS -->
      <g transform="translate(59.445 210.230798) scale(0.1 -0.1)">
       <defs>
        <path id="DejaVuSans-66" d="M 2375 4863 
L 2375 4384 
L 1825 4384 
Q 1516 4384 1395 4259 
Q 1275 4134 1275 3809 
L 1275 3500 
L 2222 3500 
L 2222 3053 
L 1275 3053 
L 1275 0 
L 697 0 
L 697 3053 
L 147 3053 
L 147 3500 
L 697 3500 
L 697 3744 
Q 697 4328 969 4595 
Q 1241 4863 1831 4863 
L 2375 4863 
z
" transform="scale(0.015625)"/>
        <path id="DejaVuSans-52" d="M 2841 2188 
Q 3044 2119 3236 1894 
Q 3428 1669 3622 1275 
L 4263 0 
L 3584 0 
L 2988 1197 
Q 2756 1666 2539 1819 
Q 2322 1972 1947 1972 
L 1259 1972 
L 1259 0 
L 628 0 
L 628 4666 
L 2053 4666 
Q 2853 4666 3247 4331 
Q 3641 3997 3641 3322 
Q 3641 2881 3436 2590 
Q 3231 2300 2841 2188 
z
M 1259 4147 
L 1259 2491 
L 2053 2491 
Q 2509 2491 2742 2702 
Q 2975 2913 2975 3322 
Q 2975 3731 2742 3939 
Q 2509 4147 2053 4147 
L 1259 4147 
z
" transform="scale(0.015625)"/>
       </defs>
       <use xlink:href="#DejaVuSans-4d"/>
       <use xlink:href="#DejaVuSans-69" x="86.279297"/>
       <use xlink:href="#DejaVuSans-63" x="114.0625"/>
       <use xlink:href="#DejaVuSans-72" x="169.042969"/>
       <use xlink:href="#DejaVuSans-6f" x="207.90625"/>
       <use xlink:href="#DejaVuSans-73" x="269.087891"/>
       <use xlink:href="#DejaVuSans-6f" x="321.1875"/>
       <use xlink:href="#DejaVuSans-66" x="382.369141"/>
       <use xlink:href="#DejaVuSans-74" x="415.824219"/>
       <use xlink:href="#DejaVuSans-20" x="455.033203"/>
       <use xlink:href="#DejaVuSans-53" x="486.820312"/>
       <use xlink:href="#DejaVuSans-53" x="550.296875"/>
       <use xlink:href="#DejaVuSans-52" x="613.773438"/>
       <use xlink:href="#DejaVuSans-53" x="683.255859"/>
      </g>
     </g>
    </g>
    <g id="ytick_13">
     <g id="line2d_20">
      <g>
       <use xlink:href="#m992c41353e" x="141.12" y="221.627368" style="stroke: #000000; stroke-width: 0.8"/>
      </g>
     </g>
     <g id="text_21">
      <!-- Cyfe -->
      <g transform="translate(111.545 225.426587) scale(0.1 -0.1)">
       <use xlink:href="#DejaVuSans-43"/>
       <use xlink:href="#DejaVuSans-79" x="69.824219"/>
       <use xlink:href="#DejaVuSans-66" x="129.003906"/>
       <use xlink:href="#DejaVuSans-65" x="164.208984"/>
      </g>
     </g>
    </g>
    <g id="ytick_14">
     <g id="line2d_21">
      <g>
       <use xlink:href="#m992c41353e" x="141.12" y="236.823158" style="stroke: #000000; stroke-width: 0.8"/>
      </g>
     </g>
     <g id="text_22">
      <!-- Amplitude -->
      <g transform="translate(82.874687 240.622377) scale(0.1 -0.1)">
       <defs>
        <path id="DejaVuSans-64" d="M 2906 2969 
L 2906 4863 
L 3481 4863 
L 3481 0 
L 2906 0 
L 2906 525 
Q 2725 213 2448 61 
Q 2172 -91 1784 -91 
Q 1150 -91 751 415 
Q 353 922 353 1747 
Q 353 2572 751 3078 
Q 1150 3584 1784 3584 
Q 2172 3584 2448 3432 
Q 2725 3281 2906 2969 
z
M 947 1747 
Q 947 1113 1208 752 
Q 1469 391 1925 391 
Q 2381 391 2643 752 
Q 2906 1113 2906 1747 
Q 2906 2381 2643 2742 
Q 2381 3103 1925 3103 
Q 1469 3103 1208 2742 
Q 947 2381 947 1747 
z
" transform="scale(0.015625)"/>
       </defs>
       <use xlink:href="#DejaVuSans-41"/>
       <use xlink:href="#DejaVuSans-6d" x="68.408203"/>
       <use xlink:href="#DejaVuSans-70" x="165.820312"/>
       <use xlink:href="#DejaVuSans-6c" x="229.296875"/>
       <use xlink:href="#DejaVuSans-69" x="257.080078"/>
       <use xlink:href="#DejaVuSans-74" x="284.863281"/>
       <use xlink:href="#DejaVuSans-75" x="324.072266"/>
       <use xlink:href="#DejaVuSans-64" x="387.451172"/>
       <use xlink:href="#DejaVuSans-65" x="450.927734"/>
      </g>
     </g>
    </g>
    <g id="ytick_15">
     <g id="line2d_22">
      <g>
       <use xlink:href="#m992c41353e" x="141.12" y="252.018947" style="stroke: #000000; stroke-width: 0.8"/>
      </g>
     </g>
     <g id="text_23">
      <!-- Metabase -->
      <g transform="translate(85.45125 255.818166) scale(0.1 -0.1)">
       <use xlink:href="#DejaVuSans-4d"/>
       <use xlink:href="#DejaVuSans-65" x="86.279297"/>
       <use xlink:href="#DejaVuSans-74" x="147.802734"/>
       <use xlink:href="#DejaVuSans-61" x="187.011719"/>
       <use xlink:href="#DejaVuSans-62" x="248.291016"/>
       <use xlink:href="#DejaVuSans-61" x="311.767578"/>
       <use xlink:href="#DejaVuSans-73" x="373.046875"/>
       <use xlink:href="#DejaVuSans-65" x="425.146484"/>
      </g>
     </g>
    </g>
    <g id="ytick_16">
     <g id="line2d_23">
      <g>
       <use xlink:href="#m992c41353e" x="141.12" y="267.214737" style="stroke: #000000; stroke-width: 0.8"/>
      </g>
     </g>
     <g id="text_24">
      <!-- Interana -->
      <g transform="translate(92.054375 271.013956) scale(0.1 -0.1)">
       <defs>
        <path id="DejaVuSans-49" d="M 628 4666 
L 1259 4666 
L 1259 0 
L 628 0 
L 628 4666 
z
" transform="scale(0.015625)"/>
       </defs>
       <use xlink:href="#DejaVuSans-49"/>
       <use xlink:href="#DejaVuSans-6e" x="29.492188"/>
       <use xlink:href="#DejaVuSans-74" x="92.871094"/>
       <use xlink:href="#DejaVuSans-65" x="132.080078"/>
       <use xlink:href="#DejaVuSans-72" x="193.603516"/>
       <use xlink:href="#DejaVuSans-61" x="234.716797"/>
       <use xlink:href="#DejaVuSans-6e" x="295.996094"/>
       <use xlink:href="#DejaVuSans-61" x="359.375"/>
      </g>
     </g>
    </g>
    <g id="ytick_17">
     <g id="line2d_24">
      <g>
       <use xlink:href="#m992c41353e" x="141.12" y="282.410526" style="stroke: #000000; stroke-width: 0.8"/>
      </g>
     </g>
     <g id="text_25">
      <!-- Looker -->
      <g transform="translate(100.793438 286.209745) scale(0.1 -0.1)">
       <defs>
        <path id="DejaVuSans-4c" d="M 628 4666 
L 1259 4666 
L 1259 531 
L 3531 531 
L 3531 0 
L 628 0 
L 628 4666 
z
" transform="scale(0.015625)"/>
       </defs>
       <use xlink:href="#DejaVuSans-4c"/>
       <use xlink:href="#DejaVuSans-6f" x="53.962891"/>
       <use xlink:href="#DejaVuSans-6f" x="115.144531"/>
       <use xlink:href="#DejaVuSans-6b" x="176.326172"/>
       <use xlink:href="#DejaVuSans-65" x="230.611328"/>
       <use xlink:href="#DejaVuSans-72" x="292.134766"/>
      </g>
     </g>
    </g>
    <g id="ytick_18">
     <g id="line2d_25">
      <g>
       <use xlink:href="#m992c41353e" x="141.12" y="297.606316" style="stroke: #000000; stroke-width: 0.8"/>
      </g>
     </g>
     <g id="text_26">
      <!-- Chartbeat -->
      <g transform="translate(84.090313 301.405535) scale(0.1 -0.1)">
       <defs>
        <path id="DejaVuSans-68" d="M 3513 2113 
L 3513 0 
L 2938 0 
L 2938 2094 
Q 2938 2591 2744 2837 
Q 2550 3084 2163 3084 
Q 1697 3084 1428 2787 
Q 1159 2491 1159 1978 
L 1159 0 
L 581 0 
L 581 4863 
L 1159 4863 
L 1159 2956 
Q 1366 3272 1645 3428 
Q 1925 3584 2291 3584 
Q 2894 3584 3203 3211 
Q 3513 2838 3513 2113 
z
" transform="scale(0.015625)"/>
       </defs>
       <use xlink:href="#DejaVuSans-43"/>
       <use xlink:href="#DejaVuSans-68" x="69.824219"/>
       <use xlink:href="#DejaVuSans-61" x="133.203125"/>
       <use xlink:href="#DejaVuSans-72" x="194.482422"/>
       <use xlink:href="#DejaVuSans-74" x="235.595703"/>
       <use xlink:href="#DejaVuSans-62" x="274.804688"/>
       <use xlink:href="#DejaVuSans-65" x="338.28125"/>
       <use xlink:href="#DejaVuSans-61" x="399.804688"/>
       <use xlink:href="#DejaVuSans-74" x="461.083984"/>
      </g>
     </g>
    </g>
    <g id="ytick_19">
     <g id="line2d_26">
      <g>
       <use xlink:href="#m992c41353e" x="141.12" y="312.802105" style="stroke: #000000; stroke-width: 0.8"/>
      </g>
     </g>
     <g id="text_27">
      <!-- Google Datastudio -->
      <g transform="translate(41.087187 316.601324) scale(0.1 -0.1)">
       <defs>
        <path id="DejaVuSans-44" d="M 1259 4147 
L 1259 519 
L 2022 519 
Q 2988 519 3436 956 
Q 3884 1394 3884 2338 
Q 3884 3275 3436 3711 
Q 2988 4147 2022 4147 
L 1259 4147 
z
M 628 4666 
L 1925 4666 
Q 3281 4666 3915 4102 
Q 4550 3538 4550 2338 
Q 4550 1131 3912 565 
Q 3275 0 1925 0 
L 628 0 
L 628 4666 
z
" transform="scale(0.015625)"/>
       </defs>
       <use xlink:href="#DejaVuSans-47"/>
       <use xlink:href="#DejaVuSans-6f" x="77.490234"/>
       <use xlink:href="#DejaVuSans-6f" x="138.671875"/>
       <use xlink:href="#DejaVuSans-67" x="199.853516"/>
       <use xlink:href="#DejaVuSans-6c" x="263.330078"/>
       <use xlink:href="#DejaVuSans-65" x="291.113281"/>
       <use xlink:href="#DejaVuSans-20" x="352.636719"/>
       <use xlink:href="#DejaVuSans-44" x="384.423828"/>
       <use xlink:href="#DejaVuSans-61" x="461.425781"/>
       <use xlink:href="#DejaVuSans-74" x="522.705078"/>
       <use xlink:href="#DejaVuSans-61" x="561.914062"/>
       <use xlink:href="#DejaVuSans-73" x="623.193359"/>
       <use xlink:href="#DejaVuSans-74" x="675.292969"/>
       <use xlink:href="#DejaVuSans-75" x="714.501953"/>
       <use xlink:href="#DejaVuSans-64" x="777.880859"/>
       <use xlink:href="#DejaVuSans-69" x="841.357422"/>
       <use xlink:href="#DejaVuSans-6f" x="869.140625"/>
      </g>
     </g>
    </g>
    <g id="text_28">
     <!-- name -->
     <g transform="translate(3.024688 190.219687) rotate(-90) scale(0.1 -0.1)">
      <use xlink:href="#DejaVuSans-6e"/>
      <use xlink:href="#DejaVuSans-61" x="63.378906"/>
      <use xlink:href="#DejaVuSans-6d" x="124.658203"/>
      <use xlink:href="#DejaVuSans-65" x="222.070312"/>
     </g>
    </g>
   </g>
   <g id="patch_174">
    <path d="M 141.12 320.4 
L 141.12 31.68 
" style="fill: none; stroke: #000000; stroke-width: 0.8; stroke-linejoin: miter; stroke-linecap: square"/>
   </g>
   <g id="patch_175">
    <path d="M 141.12 320.4 
L 453.6 320.4 
" style="fill: none; stroke: #000000; stroke-width: 0.8; stroke-linejoin: miter; stroke-linecap: square"/>
   </g>
   <g id="text_29">
    <!-- Top Analytics -->
    <g transform="translate(247.58125 25.68) scale(0.14 -0.14)">
     <defs>
      <path id="LibreBaskerville-Regular-54" d="M 5030 3706 
L 4768 3706 
Q 4749 3981 4678 4166 
Q 4608 4352 4477 4457 
Q 4346 4563 4147 4608 
Q 3949 4653 3674 4653 
Q 3437 4653 3293 4643 
Q 3149 4634 3072 4608 
Q 2995 4582 2972 4547 
Q 2950 4512 2950 4454 
L 2950 1030 
Q 2950 826 2979 678 
Q 3008 531 3094 438 
Q 3181 346 3344 298 
Q 3507 250 3776 243 
L 3776 0 
L 1357 0 
L 1357 243 
Q 1626 250 1792 298 
Q 1958 346 2044 438 
Q 2131 531 2160 678 
Q 2189 826 2189 1030 
L 2189 4454 
Q 2189 4512 2166 4547 
Q 2144 4582 2077 4608 
Q 2010 4634 1888 4643 
Q 1766 4653 1562 4653 
Q 1312 4653 1097 4633 
Q 883 4614 726 4521 
Q 570 4429 474 4237 
Q 378 4045 371 3706 
L 134 3706 
L 134 4928 
L 4966 4928 
L 5030 3706 
z
" transform="scale(0.015625)"/>
      <path id="LibreBaskerville-Regular-6f" d="M 2080 3456 
Q 2445 3456 2771 3325 
Q 3098 3194 3344 2963 
Q 3590 2733 3734 2416 
Q 3878 2099 3878 1722 
Q 3878 1331 3734 1004 
Q 3590 678 3344 441 
Q 3098 205 2771 70 
Q 2445 -64 2080 -64 
Q 1722 -64 1398 67 
Q 1075 198 832 435 
Q 589 672 448 1001 
Q 307 1331 307 1722 
Q 307 2099 448 2419 
Q 589 2739 832 2969 
Q 1075 3200 1398 3328 
Q 1722 3456 2080 3456 
z
M 2080 3149 
Q 1843 3149 1648 3046 
Q 1453 2944 1315 2755 
Q 1178 2566 1104 2300 
Q 1030 2035 1030 1715 
Q 1030 1382 1104 1113 
Q 1178 845 1315 656 
Q 1453 467 1645 364 
Q 1837 262 2080 262 
Q 2323 262 2521 364 
Q 2720 467 2861 659 
Q 3002 851 3078 1120 
Q 3155 1389 3155 1715 
Q 3155 2035 3078 2297 
Q 3002 2560 2861 2749 
Q 2720 2938 2521 3043 
Q 2323 3149 2080 3149 
z
" transform="scale(0.015625)"/>
      <path id="LibreBaskerville-Regular-70" d="M 1344 2931 
L 1370 2931 
Q 1574 3174 1811 3315 
Q 2048 3456 2362 3456 
Q 2726 3456 3030 3325 
Q 3334 3194 3558 2957 
Q 3782 2720 3907 2397 
Q 4032 2074 4032 1690 
Q 4032 1299 3904 976 
Q 3776 653 3552 422 
Q 3328 192 3021 64 
Q 2714 -64 2355 -64 
Q 2061 -64 1821 35 
Q 1581 134 1370 358 
L 1370 -576 
Q 1370 -832 1395 -985 
Q 1421 -1139 1497 -1222 
Q 1574 -1306 1718 -1338 
Q 1862 -1370 2099 -1376 
L 2099 -1600 
L 128 -1600 
L 128 -1376 
Q 320 -1370 438 -1338 
Q 557 -1306 624 -1222 
Q 691 -1139 716 -995 
Q 742 -851 742 -621 
L 742 1773 
Q 742 2144 732 2381 
Q 723 2618 698 2707 
Q 666 2861 550 2915 
Q 435 2970 115 2970 
L 115 3187 
L 1344 3430 
L 1344 2931 
z
M 1536 2746 
Q 1453 2618 1411 2442 
Q 1370 2266 1370 1984 
L 1370 1485 
Q 1370 1312 1379 1187 
Q 1389 1062 1408 972 
Q 1427 883 1459 812 
Q 1491 742 1542 678 
Q 1690 474 1894 362 
Q 2099 250 2323 250 
Q 2765 250 3037 621 
Q 3309 992 3309 1664 
Q 3309 1997 3235 2269 
Q 3162 2541 3027 2736 
Q 2893 2931 2704 3040 
Q 2515 3149 2285 3149 
Q 2054 3149 1859 3043 
Q 1664 2938 1536 2746 
z
" transform="scale(0.015625)"/>
      <path id="LibreBaskerville-Regular-20" transform="scale(0.015625)"/>
      <path id="LibreBaskerville-Regular-41" d="M 3123 1786 
L 1414 1786 
Q 1306 1523 1229 1321 
Q 1152 1120 1104 973 
Q 1056 826 1037 723 
Q 1018 621 1018 557 
Q 1018 378 1133 310 
Q 1248 243 1517 243 
L 1517 0 
L -38 0 
L -38 243 
Q 109 262 214 294 
Q 320 326 400 384 
Q 480 442 541 534 
Q 602 627 659 762 
L 2323 4928 
L 2598 4928 
L 4051 1318 
Q 4198 960 4307 745 
Q 4416 531 4518 422 
Q 4621 314 4739 282 
Q 4858 250 5024 250 
L 5024 0 
L 2938 0 
L 2938 250 
Q 3277 250 3405 314 
Q 3533 378 3533 525 
Q 3533 589 3526 643 
Q 3520 698 3504 762 
Q 3488 826 3459 906 
Q 3430 986 3386 1094 
L 3123 1786 
z
M 1542 2106 
L 3002 2106 
L 2291 3994 
L 1542 2106 
z
" transform="scale(0.015625)"/>
      <path id="LibreBaskerville-Regular-6e" d="M 1382 1005 
Q 1382 742 1395 592 
Q 1408 442 1462 362 
Q 1517 282 1622 256 
Q 1728 230 1914 218 
L 1914 0 
L 237 0 
L 237 218 
Q 416 230 521 256 
Q 627 282 684 358 
Q 742 435 758 576 
Q 774 717 774 960 
L 774 1811 
Q 774 2573 736 2739 
Q 717 2822 688 2876 
Q 659 2931 601 2960 
Q 544 2989 454 2998 
Q 365 3008 224 3008 
L 224 3213 
L 1248 3456 
L 1325 2822 
L 1350 2822 
Q 1594 3123 1920 3289 
Q 2246 3456 2630 3456 
Q 2925 3456 3168 3360 
Q 3411 3264 3539 3098 
Q 3648 2950 3693 2716 
Q 3738 2483 3738 2074 
L 3738 1005 
Q 3738 742 3754 592 
Q 3770 442 3821 362 
Q 3872 282 3977 256 
Q 4083 230 4256 218 
L 4256 0 
L 2598 0 
L 2598 218 
Q 2778 224 2883 253 
Q 2989 282 3043 358 
Q 3098 435 3114 579 
Q 3130 723 3130 960 
L 3130 1805 
Q 3130 2170 3091 2419 
Q 3053 2669 2966 2822 
Q 2880 2976 2739 3043 
Q 2598 3110 2400 3110 
Q 2112 3110 1872 2960 
Q 1632 2810 1498 2547 
Q 1466 2483 1443 2425 
Q 1421 2368 1408 2291 
Q 1395 2214 1388 2115 
Q 1382 2016 1382 1862 
L 1382 1005 
z
" transform="scale(0.015625)"/>
      <path id="LibreBaskerville-Regular-61" d="M 2234 1894 
Q 1869 1754 1616 1619 
Q 1363 1485 1209 1350 
Q 1056 1216 989 1081 
Q 922 947 922 806 
Q 922 595 1062 460 
Q 1203 326 1434 326 
Q 1600 326 1744 409 
Q 1888 493 1997 637 
Q 2106 781 2170 976 
Q 2234 1171 2234 1389 
L 2234 1894 
z
M 2234 2170 
L 2234 2432 
Q 2234 3213 1568 3213 
Q 1459 3213 1382 3193 
Q 1306 3174 1254 3129 
Q 1203 3085 1161 3001 
Q 1120 2918 1082 2797 
Q 1011 2611 944 2550 
Q 877 2490 749 2490 
Q 429 2490 429 2810 
Q 429 3117 755 3286 
Q 1082 3456 1683 3456 
Q 2323 3456 2592 3229 
Q 2861 3002 2861 2458 
L 2861 1024 
Q 2861 294 3149 294 
Q 3238 294 3321 316 
Q 3405 339 3462 435 
L 3552 282 
Q 3475 134 3270 35 
Q 3066 -64 2842 -64 
Q 2560 -64 2422 115 
Q 2285 294 2285 621 
L 2253 621 
Q 2086 307 1792 124 
Q 1498 -58 1139 -58 
Q 736 -58 505 147 
Q 275 352 275 698 
Q 275 851 329 992 
Q 384 1133 505 1261 
Q 627 1389 825 1513 
Q 1024 1638 1312 1766 
L 2234 2170 
z
" transform="scale(0.015625)"/>
      <path id="LibreBaskerville-Regular-6c" d="M 1338 998 
Q 1338 755 1357 608 
Q 1376 461 1437 377 
Q 1498 294 1610 262 
Q 1722 230 1907 224 
L 1907 0 
L 141 0 
L 141 224 
Q 333 230 448 265 
Q 563 301 630 377 
Q 698 454 720 592 
Q 742 730 742 954 
L 742 3712 
Q 742 4058 732 4291 
Q 723 4525 704 4608 
Q 672 4755 553 4806 
Q 435 4858 128 4858 
L 128 5075 
L 1338 5312 
L 1338 998 
z
" transform="scale(0.015625)"/>
      <path id="LibreBaskerville-Regular-79" d="M 1798 -1005 
Q 1504 -1664 883 -1664 
Q 480 -1664 480 -1363 
Q 480 -1203 592 -1129 
Q 704 -1056 1005 -1005 
Q 1139 -986 1235 -950 
Q 1331 -915 1408 -860 
Q 1485 -806 1545 -723 
Q 1606 -640 1664 -518 
L 1888 -70 
L 659 2598 
Q 576 2778 515 2883 
Q 454 2989 387 3049 
Q 320 3110 237 3132 
Q 154 3155 26 3168 
L 26 3392 
L 1722 3392 
L 1722 3168 
Q 1293 3168 1293 2957 
Q 1293 2874 1344 2694 
Q 1395 2515 1472 2330 
L 2176 627 
L 2208 627 
L 2790 2067 
Q 2874 2278 2928 2412 
Q 2982 2547 3011 2633 
Q 3040 2720 3049 2777 
Q 3059 2835 3059 2886 
Q 3059 3053 2966 3110 
Q 2874 3168 2611 3168 
L 2611 3392 
L 4019 3392 
L 4019 3168 
Q 3898 3168 3814 3136 
Q 3731 3104 3644 2992 
Q 3558 2880 3452 2669 
Q 3347 2458 3194 2099 
L 1798 -1005 
z
" transform="scale(0.015625)"/>
      <path id="LibreBaskerville-Regular-74" d="M 256 2989 
L 256 3226 
Q 595 3424 787 3622 
Q 979 3821 1082 4096 
L 1267 4096 
L 1267 3290 
L 2125 3290 
L 2125 2989 
L 1267 2989 
L 1267 1043 
Q 1267 819 1289 665 
Q 1312 512 1363 419 
Q 1414 326 1497 288 
Q 1581 250 1709 250 
Q 1869 250 1981 317 
Q 2093 384 2202 544 
L 2362 422 
Q 2272 186 2051 61 
Q 1830 -64 1504 -64 
Q 1082 -64 861 137 
Q 640 339 640 717 
L 640 2989 
L 256 2989 
z
" transform="scale(0.015625)"/>
      <path id="LibreBaskerville-Regular-69" d="M 1459 1018 
Q 1459 768 1481 617 
Q 1504 467 1568 380 
Q 1632 294 1747 262 
Q 1862 230 2054 224 
L 2054 0 
L 218 0 
L 218 224 
Q 410 230 531 265 
Q 653 301 720 381 
Q 787 461 809 605 
Q 832 749 832 973 
L 832 1792 
Q 832 2163 822 2403 
Q 813 2643 787 2733 
Q 755 2880 640 2934 
Q 525 2989 205 2989 
L 205 3213 
L 1459 3456 
L 1459 1018 
z
M 723 4755 
Q 723 4922 838 5037 
Q 954 5152 1120 5152 
Q 1286 5152 1401 5037 
Q 1517 4922 1517 4755 
Q 1517 4589 1401 4473 
Q 1286 4358 1120 4358 
Q 954 4358 838 4473 
Q 723 4589 723 4755 
z
" transform="scale(0.015625)"/>
      <path id="LibreBaskerville-Regular-63" d="M 3238 531 
Q 3008 250 2643 93 
Q 2278 -64 1856 -64 
Q 1517 -64 1232 61 
Q 947 186 742 413 
Q 538 640 426 960 
Q 314 1280 314 1670 
Q 314 2080 442 2409 
Q 570 2739 803 2972 
Q 1037 3206 1366 3331 
Q 1696 3456 2093 3456 
Q 2342 3456 2547 3414 
Q 2752 3373 2902 3299 
Q 3053 3226 3136 3120 
Q 3219 3014 3219 2893 
Q 3219 2765 3136 2694 
Q 3053 2624 2906 2624 
Q 2790 2624 2713 2672 
Q 2637 2720 2515 2886 
Q 2387 3034 2268 3094 
Q 2150 3155 1965 3155 
Q 1510 3155 1276 2803 
Q 1043 2451 1043 1766 
Q 1043 1030 1302 649 
Q 1562 269 2061 269 
Q 2330 269 2566 374 
Q 2803 480 3046 717 
L 3238 531 
z
" transform="scale(0.015625)"/>
      <path id="LibreBaskerville-Regular-73" d="M 550 0 
L 410 0 
L 410 1101 
L 570 1101 
Q 819 198 1478 198 
Q 1734 198 1884 323 
Q 2035 448 2035 704 
Q 2035 800 2006 867 
Q 1978 934 1898 1008 
Q 1818 1082 1674 1178 
Q 1530 1274 1293 1421 
Q 1075 1555 915 1670 
Q 755 1786 646 1904 
Q 538 2022 483 2156 
Q 429 2291 429 2470 
Q 429 2688 502 2870 
Q 576 3053 704 3181 
Q 832 3309 1005 3382 
Q 1178 3456 1382 3456 
Q 1555 3456 1740 3401 
Q 1926 3347 2067 3258 
L 2195 3392 
L 2317 3392 
L 2317 2470 
L 2150 2470 
Q 2010 2861 1843 3027 
Q 1677 3194 1434 3194 
Q 1216 3194 1085 3078 
Q 954 2963 954 2758 
Q 954 2650 989 2570 
Q 1024 2490 1101 2413 
Q 1178 2336 1296 2256 
Q 1414 2176 1581 2074 
Q 1856 1901 2051 1766 
Q 2246 1632 2368 1501 
Q 2490 1370 2547 1229 
Q 2605 1088 2605 909 
Q 2605 454 2310 195 
Q 2016 -64 1536 -64 
Q 1037 -64 678 224 
L 550 0 
z
" transform="scale(0.015625)"/>
     </defs>
     <use xlink:href="#LibreBaskerville-Regular-54"/>
     <use xlink:href="#LibreBaskerville-Regular-6f" x="80.299988"/>
     <use xlink:href="#LibreBaskerville-Regular-70" x="145.699982"/>
     <use xlink:href="#LibreBaskerville-Regular-20" x="213.599976"/>
     <use xlink:href="#LibreBaskerville-Regular-41" x="242.299973"/>
     <use xlink:href="#LibreBaskerville-Regular-6e" x="319.499954"/>
     <use xlink:href="#LibreBaskerville-Regular-61" x="388.399948"/>
     <use xlink:href="#LibreBaskerville-Regular-6c" x="443.799942"/>
     <use xlink:href="#LibreBaskerville-Regular-79" x="476.299927"/>
     <use xlink:href="#LibreBaskerville-Regular-74" x="540.199921"/>
     <use xlink:href="#LibreBaskerville-Regular-69" x="577.999908"/>
     <use xlink:href="#LibreBaskerville-Regular-63" x="612.099899"/>
     <use xlink:href="#LibreBaskerville-Regular-73" x="665.69989"/>
    </g>
   </g>
   <g id="legend_1">
    <g id="patch_176">
     <path d="M 288.489063 315.4 
L 446.6 315.4 
Q 448.6 315.4 448.6 313.4 
L 448.6 167.340625 
Q 448.6 165.340625 446.6 165.340625 
L 288.489063 165.340625 
Q 286.489063 165.340625 286.489063 167.340625 
L 286.489063 313.4 
Q 286.489063 315.4 288.489063 315.4 
z
" style="fill: #ffffff; opacity: 0.8; stroke: #cccccc; stroke-linejoin: miter"/>
    </g>
    <g id="text_30">
     <!-- tool_function -->
     <g transform="translate(335.152344 176.939063) scale(0.1 -0.1)">
      <defs>
       <path id="DejaVuSans-5f" d="M 3263 -1063 
L 3263 -1509 
L -63 -1509 
L -63 -1063 
L 3263 -1063 
z
" transform="scale(0.015625)"/>
      </defs>
      <use xlink:href="#DejaVuSans-74"/>
      <use xlink:href="#DejaVuSans-6f" x="39.208984"/>
      <use xlink:href="#DejaVuSans-6f" x="100.390625"/>
      <use xlink:href="#DejaVuSans-6c" x="161.572266"/>
      <use xlink:href="#DejaVuSans-5f" x="189.355469"/>
      <use xlink:href="#DejaVuSans-66" x="239.355469"/>
      <use xlink:href="#DejaVuSans-75" x="274.560547"/>
      <use xlink:href="#DejaVuSans-6e" x="337.939453"/>
      <use xlink:href="#DejaVuSans-63" x="401.318359"/>
      <use xlink:href="#DejaVuSans-74" x="456.298828"/>
      <use xlink:href="#DejaVuSans-69" x="495.507812"/>
      <use xlink:href="#DejaVuSans-6f" x="523.291016"/>
      <use xlink:href="#DejaVuSans-6e" x="584.472656"/>
     </g>
    </g>
    <g id="patch_177">
     <path d="M 290.489063 191.895313 
L 310.489063 191.895313 
L 310.489063 184.895313 
L 290.489063 184.895313 
z
" style="fill: #176d9c"/>
    </g>
    <g id="text_31">
     <!-- Analytics Integrator -->
     <g transform="translate(318.489063 191.895313) scale(0.1 -0.1)">
      <use xlink:href="#DejaVuSans-41"/>
      <use xlink:href="#DejaVuSans-6e" x="68.408203"/>
      <use xlink:href="#DejaVuSans-61" x="131.787109"/>
      <use xlink:href="#DejaVuSans-6c" x="193.066406"/>
      <use xlink:href="#DejaVuSans-79" x="220.849609"/>
      <use xlink:href="#DejaVuSans-74" x="280.029297"/>
      <use xlink:href="#DejaVuSans-69" x="319.238281"/>
      <use xlink:href="#DejaVuSans-63" x="347.021484"/>
      <use xlink:href="#DejaVuSans-73" x="402.001953"/>
      <use xlink:href="#DejaVuSans-20" x="454.101562"/>
      <use xlink:href="#DejaVuSans-49" x="485.888672"/>
      <use xlink:href="#DejaVuSans-6e" x="515.380859"/>
      <use xlink:href="#DejaVuSans-74" x="578.759766"/>
      <use xlink:href="#DejaVuSans-65" x="617.96875"/>
      <use xlink:href="#DejaVuSans-67" x="679.492188"/>
      <use xlink:href="#DejaVuSans-72" x="742.96875"/>
      <use xlink:href="#DejaVuSans-61" x="784.082031"/>
      <use xlink:href="#DejaVuSans-74" x="845.361328"/>
      <use xlink:href="#DejaVuSans-6f" x="884.570312"/>
      <use xlink:href="#DejaVuSans-72" x="945.751953"/>
     </g>
    </g>
    <g id="patch_178">
     <path d="M 290.489063 206.573438 
L 310.489063 206.573438 
L 310.489063 199.573438 
L 290.489063 199.573438 
z
" style="fill: #c38820"/>
    </g>
    <g id="text_32">
     <!-- General Analytics -->
     <g transform="translate(318.489063 206.573438) scale(0.1 -0.1)">
      <use xlink:href="#DejaVuSans-47"/>
      <use xlink:href="#DejaVuSans-65" x="77.490234"/>
      <use xlink:href="#DejaVuSans-6e" x="139.013672"/>
      <use xlink:href="#DejaVuSans-65" x="202.392578"/>
      <use xlink:href="#DejaVuSans-72" x="263.916016"/>
      <use xlink:href="#DejaVuSans-61" x="305.029297"/>
      <use xlink:href="#DejaVuSans-6c" x="366.308594"/>
      <use xlink:href="#DejaVuSans-20" x="394.091797"/>
      <use xlink:href="#DejaVuSans-41" x="425.878906"/>
      <use xlink:href="#DejaVuSans-6e" x="494.287109"/>
      <use xlink:href="#DejaVuSans-61" x="557.666016"/>
      <use xlink:href="#DejaVuSans-6c" x="618.945312"/>
      <use xlink:href="#DejaVuSans-79" x="646.728516"/>
      <use xlink:href="#DejaVuSans-74" x="705.908203"/>
      <use xlink:href="#DejaVuSans-69" x="745.117188"/>
      <use xlink:href="#DejaVuSans-63" x="772.900391"/>
      <use xlink:href="#DejaVuSans-73" x="827.880859"/>
     </g>
    </g>
    <g id="patch_179">
     <path d="M 290.489063 221.251563 
L 310.489063 221.251563 
L 310.489063 214.251563 
L 290.489063 214.251563 
z
" style="fill: #158b6a"/>
    </g>
    <g id="text_33">
     <!-- A/B Testing Analytics -->
     <g transform="translate(318.489063 221.251563) scale(0.1 -0.1)">
      <defs>
       <path id="DejaVuSans-2f" d="M 1625 4666 
L 2156 4666 
L 531 -594 
L 0 -594 
L 1625 4666 
z
" transform="scale(0.015625)"/>
       <path id="DejaVuSans-42" d="M 1259 2228 
L 1259 519 
L 2272 519 
Q 2781 519 3026 730 
Q 3272 941 3272 1375 
Q 3272 1813 3026 2020 
Q 2781 2228 2272 2228 
L 1259 2228 
z
M 1259 4147 
L 1259 2741 
L 2194 2741 
Q 2656 2741 2882 2914 
Q 3109 3088 3109 3444 
Q 3109 3797 2882 3972 
Q 2656 4147 2194 4147 
L 1259 4147 
z
M 628 4666 
L 2241 4666 
Q 2963 4666 3353 4366 
Q 3744 4066 3744 3513 
Q 3744 3084 3544 2831 
Q 3344 2578 2956 2516 
Q 3422 2416 3680 2098 
Q 3938 1781 3938 1306 
Q 3938 681 3513 340 
Q 3088 0 2303 0 
L 628 0 
L 628 4666 
z
" transform="scale(0.015625)"/>
      </defs>
      <use xlink:href="#DejaVuSans-41"/>
      <use xlink:href="#DejaVuSans-2f" x="68.408203"/>
      <use xlink:href="#DejaVuSans-42" x="102.099609"/>
      <use xlink:href="#DejaVuSans-20" x="170.703125"/>
      <use xlink:href="#DejaVuSans-54" x="202.490234"/>
      <use xlink:href="#DejaVuSans-65" x="246.574219"/>
      <use xlink:href="#DejaVuSans-73" x="308.097656"/>
      <use xlink:href="#DejaVuSans-74" x="360.197266"/>
      <use xlink:href="#DejaVuSans-69" x="399.40625"/>
      <use xlink:href="#DejaVuSans-6e" x="427.189453"/>
      <use xlink:href="#DejaVuSans-67" x="490.568359"/>
      <use xlink:href="#DejaVuSans-20" x="554.044922"/>
      <use xlink:href="#DejaVuSans-41" x="585.832031"/>
      <use xlink:href="#DejaVuSans-6e" x="654.240234"/>
      <use xlink:href="#DejaVuSans-61" x="717.619141"/>
      <use xlink:href="#DejaVuSans-6c" x="778.898438"/>
      <use xlink:href="#DejaVuSans-79" x="806.681641"/>
      <use xlink:href="#DejaVuSans-74" x="865.861328"/>
      <use xlink:href="#DejaVuSans-69" x="905.070312"/>
      <use xlink:href="#DejaVuSans-63" x="932.853516"/>
      <use xlink:href="#DejaVuSans-73" x="987.833984"/>
     </g>
    </g>
    <g id="patch_180">
     <path d="M 290.489063 235.929688 
L 310.489063 235.929688 
L 310.489063 228.929688 
L 290.489063 228.929688 
z
" style="fill: #ba611b"/>
    </g>
    <g id="text_34">
     <!-- Heatmap Analytics -->
     <g transform="translate(318.489063 235.929688) scale(0.1 -0.1)">
      <use xlink:href="#DejaVuSans-48"/>
      <use xlink:href="#DejaVuSans-65" x="75.195312"/>
      <use xlink:href="#DejaVuSans-61" x="136.71875"/>
      <use xlink:href="#DejaVuSans-74" x="197.998047"/>
      <use xlink:href="#DejaVuSans-6d" x="237.207031"/>
      <use xlink:href="#DejaVuSans-61" x="334.619141"/>
      <use xlink:href="#DejaVuSans-70" x="395.898438"/>
      <use xlink:href="#DejaVuSans-20" x="459.375"/>
      <use xlink:href="#DejaVuSans-41" x="491.162109"/>
      <use xlink:href="#DejaVuSans-6e" x="559.570312"/>
      <use xlink:href="#DejaVuSans-61" x="622.949219"/>
      <use xlink:href="#DejaVuSans-6c" x="684.228516"/>
      <use xlink:href="#DejaVuSans-79" x="712.011719"/>
      <use xlink:href="#DejaVuSans-74" x="771.191406"/>
      <use xlink:href="#DejaVuSans-69" x="810.400391"/>
      <use xlink:href="#DejaVuSans-63" x="838.183594"/>
      <use xlink:href="#DejaVuSans-73" x="893.164062"/>
     </g>
    </g>
    <g id="patch_181">
     <path d="M 290.489063 250.607813 
L 310.489063 250.607813 
L 310.489063 243.607813 
L 290.489063 243.607813 
z
" style="fill: #c282b5"/>
    </g>
    <g id="text_35">
     <!-- Realtime Analytics -->
     <g transform="translate(318.489063 250.607813) scale(0.1 -0.1)">
      <use xlink:href="#DejaVuSans-52"/>
      <use xlink:href="#DejaVuSans-65" x="64.982422"/>
      <use xlink:href="#DejaVuSans-61" x="126.505859"/>
      <use xlink:href="#DejaVuSans-6c" x="187.785156"/>
      <use xlink:href="#DejaVuSans-74" x="215.568359"/>
      <use xlink:href="#DejaVuSans-69" x="254.777344"/>
      <use xlink:href="#DejaVuSans-6d" x="282.560547"/>
      <use xlink:href="#DejaVuSans-65" x="379.972656"/>
      <use xlink:href="#DejaVuSans-20" x="441.496094"/>
      <use xlink:href="#DejaVuSans-41" x="473.283203"/>
      <use xlink:href="#DejaVuSans-6e" x="541.691406"/>
      <use xlink:href="#DejaVuSans-61" x="605.070312"/>
      <use xlink:href="#DejaVuSans-6c" x="666.349609"/>
      <use xlink:href="#DejaVuSans-79" x="694.132812"/>
      <use xlink:href="#DejaVuSans-74" x="753.3125"/>
      <use xlink:href="#DejaVuSans-69" x="792.521484"/>
      <use xlink:href="#DejaVuSans-63" x="820.304688"/>
      <use xlink:href="#DejaVuSans-73" x="875.285156"/>
     </g>
    </g>
    <g id="patch_182">
     <path d="M 290.489063 265.285938 
L 310.489063 265.285938 
L 310.489063 258.285938 
L 290.489063 258.285938 
z
" style="fill: #bd926e"/>
    </g>
    <g id="text_36">
     <!-- Business Intelligence -->
     <g transform="translate(318.489063 265.285938) scale(0.1 -0.1)">
      <use xlink:href="#DejaVuSans-42"/>
      <use xlink:href="#DejaVuSans-75" x="68.603516"/>
      <use xlink:href="#DejaVuSans-73" x="131.982422"/>
      <use xlink:href="#DejaVuSans-69" x="184.082031"/>
      <use xlink:href="#DejaVuSans-6e" x="211.865234"/>
      <use xlink:href="#DejaVuSans-65" x="275.244141"/>
      <use xlink:href="#DejaVuSans-73" x="336.767578"/>
      <use xlink:href="#DejaVuSans-73" x="388.867188"/>
      <use xlink:href="#DejaVuSans-20" x="440.966797"/>
      <use xlink:href="#DejaVuSans-49" x="472.753906"/>
      <use xlink:href="#DejaVuSans-6e" x="502.246094"/>
      <use xlink:href="#DejaVuSans-74" x="565.625"/>
      <use xlink:href="#DejaVuSans-65" x="604.833984"/>
      <use xlink:href="#DejaVuSans-6c" x="666.357422"/>
      <use xlink:href="#DejaVuSans-6c" x="694.140625"/>
      <use xlink:href="#DejaVuSans-69" x="721.923828"/>
      <use xlink:href="#DejaVuSans-67" x="749.707031"/>
      <use xlink:href="#DejaVuSans-65" x="813.183594"/>
      <use xlink:href="#DejaVuSans-6e" x="874.707031"/>
      <use xlink:href="#DejaVuSans-63" x="938.085938"/>
      <use xlink:href="#DejaVuSans-65" x="993.066406"/>
     </g>
    </g>
    <g id="patch_183">
     <path d="M 290.489063 279.964063 
L 310.489063 279.964063 
L 310.489063 272.964063 
L 290.489063 272.964063 
z
" style="fill: #f2b8e0"/>
    </g>
    <g id="text_37">
     <!-- Mobile Analytics -->
     <g transform="translate(318.489063 279.964063) scale(0.1 -0.1)">
      <use xlink:href="#DejaVuSans-4d"/>
      <use xlink:href="#DejaVuSans-6f" x="86.279297"/>
      <use xlink:href="#DejaVuSans-62" x="147.460938"/>
      <use xlink:href="#DejaVuSans-69" x="210.9375"/>
      <use xlink:href="#DejaVuSans-6c" x="238.720703"/>
      <use xlink:href="#DejaVuSans-65" x="266.503906"/>
      <use xlink:href="#DejaVuSans-20" x="328.027344"/>
      <use xlink:href="#DejaVuSans-41" x="359.814453"/>
      <use xlink:href="#DejaVuSans-6e" x="428.222656"/>
      <use xlink:href="#DejaVuSans-61" x="491.601562"/>
      <use xlink:href="#DejaVuSans-6c" x="552.880859"/>
      <use xlink:href="#DejaVuSans-79" x="580.664062"/>
      <use xlink:href="#DejaVuSans-74" x="639.84375"/>
      <use xlink:href="#DejaVuSans-69" x="679.052734"/>
      <use xlink:href="#DejaVuSans-63" x="706.835938"/>
      <use xlink:href="#DejaVuSans-73" x="761.816406"/>
     </g>
    </g>
    <g id="patch_184">
     <path d="M 290.489063 294.642187 
L 310.489063 294.642187 
L 310.489063 287.642187 
L 290.489063 287.642187 
z
" style="fill: #949494"/>
    </g>
    <g id="text_38">
     <!-- Funnel Analysis Analytics -->
     <g transform="translate(318.489063 294.642187) scale(0.1 -0.1)">
      <defs>
       <path id="DejaVuSans-46" d="M 628 4666 
L 3309 4666 
L 3309 4134 
L 1259 4134 
L 1259 2759 
L 3109 2759 
L 3109 2228 
L 1259 2228 
L 1259 0 
L 628 0 
L 628 4666 
z
" transform="scale(0.015625)"/>
      </defs>
      <use xlink:href="#DejaVuSans-46"/>
      <use xlink:href="#DejaVuSans-75" x="52.019531"/>
      <use xlink:href="#DejaVuSans-6e" x="115.398438"/>
      <use xlink:href="#DejaVuSans-6e" x="178.777344"/>
      <use xlink:href="#DejaVuSans-65" x="242.15625"/>
      <use xlink:href="#DejaVuSans-6c" x="303.679688"/>
      <use xlink:href="#DejaVuSans-20" x="331.462891"/>
      <use xlink:href="#DejaVuSans-41" x="363.25"/>
      <use xlink:href="#DejaVuSans-6e" x="431.658203"/>
      <use xlink:href="#DejaVuSans-61" x="495.037109"/>
      <use xlink:href="#DejaVuSans-6c" x="556.316406"/>
      <use xlink:href="#DejaVuSans-79" x="584.099609"/>
      <use xlink:href="#DejaVuSans-73" x="643.279297"/>
      <use xlink:href="#DejaVuSans-69" x="695.378906"/>
      <use xlink:href="#DejaVuSans-73" x="723.162109"/>
      <use xlink:href="#DejaVuSans-20" x="775.261719"/>
      <use xlink:href="#DejaVuSans-41" x="807.048828"/>
      <use xlink:href="#DejaVuSans-6e" x="875.457031"/>
      <use xlink:href="#DejaVuSans-61" x="938.835938"/>
      <use xlink:href="#DejaVuSans-6c" x="1000.115234"/>
      <use xlink:href="#DejaVuSans-79" x="1027.898438"/>
      <use xlink:href="#DejaVuSans-74" x="1087.078125"/>
      <use xlink:href="#DejaVuSans-69" x="1126.287109"/>
      <use xlink:href="#DejaVuSans-63" x="1154.070312"/>
      <use xlink:href="#DejaVuSans-73" x="1209.050781"/>
     </g>
    </g>
    <g id="patch_185">
     <path d="M 290.489063 309.320312 
L 310.489063 309.320312 
L 310.489063 302.320312 
L 290.489063 302.320312 
z
" style="fill: #d5cd4a"/>
    </g>
    <g id="text_39">
     <!-- Business Dashboards -->
     <g transform="translate(318.489063 309.320312) scale(0.1 -0.1)">
      <use xlink:href="#DejaVuSans-42"/>
      <use xlink:href="#DejaVuSans-75" x="68.603516"/>
      <use xlink:href="#DejaVuSans-73" x="131.982422"/>
      <use xlink:href="#DejaVuSans-69" x="184.082031"/>
      <use xlink:href="#DejaVuSans-6e" x="211.865234"/>
      <use xlink:href="#DejaVuSans-65" x="275.244141"/>
      <use xlink:href="#DejaVuSans-73" x="336.767578"/>
      <use xlink:href="#DejaVuSans-73" x="388.867188"/>
      <use xlink:href="#DejaVuSans-20" x="440.966797"/>
      <use xlink:href="#DejaVuSans-44" x="472.753906"/>
      <use xlink:href="#DejaVuSans-61" x="549.755859"/>
      <use xlink:href="#DejaVuSans-73" x="611.035156"/>
      <use xlink:href="#DejaVuSans-68" x="663.134766"/>
      <use xlink:href="#DejaVuSans-62" x="726.513672"/>
      <use xlink:href="#DejaVuSans-6f" x="789.990234"/>
      <use xlink:href="#DejaVuSans-61" x="851.171875"/>
      <use xlink:href="#DejaVuSans-72" x="912.451172"/>
      <use xlink:href="#DejaVuSans-64" x="951.814453"/>
      <use xlink:href="#DejaVuSans-73" x="1015.291016"/>
     </g>
    </g>
   </g>
  </g>
 </g>
 <defs>
  <clipPath id="pda7397ca30">
   <rect x="141.12" y="31.68" width="312.48" height="288.72"/>
  </clipPath>
 </defs>
</svg>
