<?xml version="1.0" encoding="utf-8" standalone="no"?>
<!DOCTYPE svg PUBLIC "-//W3C//DTD SVG 1.1//EN"
  "http://www.w3.org/Graphics/SVG/1.1/DTD/svg11.dtd">
<svg xmlns:xlink="http://www.w3.org/1999/xlink" width="504pt" height="360pt" viewBox="0 0 504 360" xmlns="http://www.w3.org/2000/svg" version="1.1">
 <metadata>
  <rdf:RDF xmlns:dc="http://purl.org/dc/elements/1.1/" xmlns:cc="http://creativecommons.org/ns#" xmlns:rdf="http://www.w3.org/1999/02/22-rdf-syntax-ns#">
   <cc:Work>
    <dc:type rdf:resource="http://purl.org/dc/dcmitype/StillImage"/>
    <dc:date>2023-02-28T13:03:37.835334</dc:date>
    <dc:format>image/svg+xml</dc:format>
    <dc:creator>
     <cc:Agent>
      <dc:title>Matplotlib v3.7.0, https://matplotlib.org/</dc:title>
     </cc:Agent>
    </dc:creator>
   </cc:Work>
  </rdf:RDF>
 </metadata>
 <defs>
  <style type="text/css">*{stroke-linejoin: round; stroke-linecap: butt}</style>
 </defs>
 <g id="figure_1">
  <g id="patch_1">
   <path d="M 0 360 
L 504 360 
L 504 0 
L 0 0 
z
" style="fill: #ffffff"/>
  </g>
  <g id="axes_1">
   <g id="patch_2">
    <path d="M 63 320.4 
L 453.6 320.4 
L 453.6 43.2 
L 63 43.2 
z
" style="fill: #ffffff"/>
   </g>
   <g id="patch_3">
    <path d="M 80.754545 320.4 
L 102.947727 320.4 
L 102.947727 308.921739 
L 80.754545 308.921739 
z
" clip-path="url(#p41b6441b2c)" style="fill: #f6c19f; fill-opacity: 0.75; stroke: #4c4c4c; stroke-width: 0.5; stroke-linejoin: miter"/>
   </g>
   <g id="patch_4">
    <path d="M 102.947727 320.4 
L 125.140909 320.4 
L 125.140909 320.4 
L 102.947727 320.4 
z
" clip-path="url(#p41b6441b2c)" style="fill: #f6c19f; fill-opacity: 0.75; stroke: #4c4c4c; stroke-width: 0.5; stroke-linejoin: miter"/>
   </g>
   <g id="patch_5">
    <path d="M 125.140909 320.4 
L 147.334091 320.4 
L 147.334091 320.4 
L 125.140909 320.4 
z
" clip-path="url(#p41b6441b2c)" style="fill: #f6c19f; fill-opacity: 0.75; stroke: #4c4c4c; stroke-width: 0.5; stroke-linejoin: miter"/>
   </g>
   <g id="patch_6">
    <path d="M 147.334091 320.4 
L 169.527273 320.4 
L 169.527273 320.4 
L 147.334091 320.4 
z
" clip-path="url(#p41b6441b2c)" style="fill: #f6c19f; fill-opacity: 0.75; stroke: #4c4c4c; stroke-width: 0.5; stroke-linejoin: miter"/>
   </g>
   <g id="patch_7">
    <path d="M 169.527273 320.4 
L 191.720455 320.4 
L 191.720455 297.443478 
L 169.527273 297.443478 
z
" clip-path="url(#p41b6441b2c)" style="fill: #f6c19f; fill-opacity: 0.75; stroke: #4c4c4c; stroke-width: 0.5; stroke-linejoin: miter"/>
   </g>
   <g id="patch_8">
    <path d="M 191.720455 320.4 
L 213.913636 320.4 
L 213.913636 314.66087 
L 191.720455 314.66087 
z
" clip-path="url(#p41b6441b2c)" style="fill: #f6c19f; fill-opacity: 0.75; stroke: #4c4c4c; stroke-width: 0.5; stroke-linejoin: miter"/>
   </g>
   <g id="patch_9">
    <path d="M 213.913636 320.4 
L 236.106818 320.4 
L 236.106818 320.4 
L 213.913636 320.4 
z
" clip-path="url(#p41b6441b2c)" style="fill: #f6c19f; fill-opacity: 0.75; stroke: #4c4c4c; stroke-width: 0.5; stroke-linejoin: miter"/>
   </g>
   <g id="patch_10">
    <path d="M 236.106818 320.4 
L 258.3 320.4 
L 258.3 308.921739 
L 236.106818 308.921739 
z
" clip-path="url(#p41b6441b2c)" style="fill: #f6c19f; fill-opacity: 0.75; stroke: #4c4c4c; stroke-width: 0.5; stroke-linejoin: miter"/>
   </g>
   <g id="patch_11">
    <path d="M 258.3 320.4 
L 280.493182 320.4 
L 280.493182 297.443478 
L 258.3 297.443478 
z
" clip-path="url(#p41b6441b2c)" style="fill: #f6c19f; fill-opacity: 0.75; stroke: #4c4c4c; stroke-width: 0.5; stroke-linejoin: miter"/>
   </g>
   <g id="patch_12">
    <path d="M 280.493182 320.4 
L 302.686364 320.4 
L 302.686364 303.182609 
L 280.493182 303.182609 
z
" clip-path="url(#p41b6441b2c)" style="fill: #f6c19f; fill-opacity: 0.75; stroke: #4c4c4c; stroke-width: 0.5; stroke-linejoin: miter"/>
   </g>
   <g id="patch_13">
    <path d="M 302.686364 320.4 
L 324.879545 320.4 
L 324.879545 320.4 
L 302.686364 320.4 
z
" clip-path="url(#p41b6441b2c)" style="fill: #f6c19f; fill-opacity: 0.75; stroke: #4c4c4c; stroke-width: 0.5; stroke-linejoin: miter"/>
   </g>
   <g id="patch_14">
    <path d="M 324.879545 320.4 
L 347.072727 320.4 
L 347.072727 274.486957 
L 324.879545 274.486957 
z
" clip-path="url(#p41b6441b2c)" style="fill: #f6c19f; fill-opacity: 0.75; stroke: #4c4c4c; stroke-width: 0.5; stroke-linejoin: miter"/>
   </g>
   <g id="patch_15">
    <path d="M 347.072727 320.4 
L 369.265909 320.4 
L 369.265909 251.530435 
L 347.072727 251.530435 
z
" clip-path="url(#p41b6441b2c)" style="fill: #f6c19f; fill-opacity: 0.75; stroke: #4c4c4c; stroke-width: 0.5; stroke-linejoin: miter"/>
   </g>
   <g id="patch_16">
    <path d="M 369.265909 320.4 
L 391.459091 320.4 
L 391.459091 297.443478 
L 369.265909 297.443478 
z
" clip-path="url(#p41b6441b2c)" style="fill: #f6c19f; fill-opacity: 0.75; stroke: #4c4c4c; stroke-width: 0.5; stroke-linejoin: miter"/>
   </g>
   <g id="patch_17">
    <path d="M 391.459091 320.4 
L 413.652273 320.4 
L 413.652273 285.965217 
L 391.459091 285.965217 
z
" clip-path="url(#p41b6441b2c)" style="fill: #f6c19f; fill-opacity: 0.75; stroke: #4c4c4c; stroke-width: 0.5; stroke-linejoin: miter"/>
   </g>
   <g id="patch_18">
    <path d="M 413.652273 320.4 
L 435.845455 320.4 
L 435.845455 308.921739 
L 413.652273 308.921739 
z
" clip-path="url(#p41b6441b2c)" style="fill: #f6c19f; fill-opacity: 0.75; stroke: #4c4c4c; stroke-width: 0.5; stroke-linejoin: miter"/>
   </g>
   <g id="patch_19">
    <path d="M 80.754545 308.921739 
L 102.947727 308.921739 
L 102.947727 308.921739 
L 80.754545 308.921739 
z
" clip-path="url(#p41b6441b2c)" style="fill: #f5946b; fill-opacity: 0.75; stroke: #4c4c4c; stroke-width: 0.5; stroke-linejoin: miter"/>
   </g>
   <g id="patch_20">
    <path d="M 102.947727 320.4 
L 125.140909 320.4 
L 125.140909 320.4 
L 102.947727 320.4 
z
" clip-path="url(#p41b6441b2c)" style="fill: #f5946b; fill-opacity: 0.75; stroke: #4c4c4c; stroke-width: 0.5; stroke-linejoin: miter"/>
   </g>
   <g id="patch_21">
    <path d="M 125.140909 320.4 
L 147.334091 320.4 
L 147.334091 320.4 
L 125.140909 320.4 
z
" clip-path="url(#p41b6441b2c)" style="fill: #f5946b; fill-opacity: 0.75; stroke: #4c4c4c; stroke-width: 0.5; stroke-linejoin: miter"/>
   </g>
   <g id="patch_22">
    <path d="M 147.334091 320.4 
L 169.527273 320.4 
L 169.527273 320.4 
L 147.334091 320.4 
z
" clip-path="url(#p41b6441b2c)" style="fill: #f5946b; fill-opacity: 0.75; stroke: #4c4c4c; stroke-width: 0.5; stroke-linejoin: miter"/>
   </g>
   <g id="patch_23">
    <path d="M 169.527273 297.443478 
L 191.720455 297.443478 
L 191.720455 297.443478 
L 169.527273 297.443478 
z
" clip-path="url(#p41b6441b2c)" style="fill: #f5946b; fill-opacity: 0.75; stroke: #4c4c4c; stroke-width: 0.5; stroke-linejoin: miter"/>
   </g>
   <g id="patch_24">
    <path d="M 191.720455 314.66087 
L 213.913636 314.66087 
L 213.913636 314.66087 
L 191.720455 314.66087 
z
" clip-path="url(#p41b6441b2c)" style="fill: #f5946b; fill-opacity: 0.75; stroke: #4c4c4c; stroke-width: 0.5; stroke-linejoin: miter"/>
   </g>
   <g id="patch_25">
    <path d="M 213.913636 320.4 
L 236.106818 320.4 
L 236.106818 320.4 
L 213.913636 320.4 
z
" clip-path="url(#p41b6441b2c)" style="fill: #f5946b; fill-opacity: 0.75; stroke: #4c4c4c; stroke-width: 0.5; stroke-linejoin: miter"/>
   </g>
   <g id="patch_26">
    <path d="M 236.106818 308.921739 
L 258.3 308.921739 
L 258.3 308.921739 
L 236.106818 308.921739 
z
" clip-path="url(#p41b6441b2c)" style="fill: #f5946b; fill-opacity: 0.75; stroke: #4c4c4c; stroke-width: 0.5; stroke-linejoin: miter"/>
   </g>
   <g id="patch_27">
    <path d="M 258.3 297.443478 
L 280.493182 297.443478 
L 280.493182 291.704348 
L 258.3 291.704348 
z
" clip-path="url(#p41b6441b2c)" style="fill: #f5946b; fill-opacity: 0.75; stroke: #4c4c4c; stroke-width: 0.5; stroke-linejoin: miter"/>
   </g>
   <g id="patch_28">
    <path d="M 280.493182 303.182609 
L 302.686364 303.182609 
L 302.686364 303.182609 
L 280.493182 303.182609 
z
" clip-path="url(#p41b6441b2c)" style="fill: #f5946b; fill-opacity: 0.75; stroke: #4c4c4c; stroke-width: 0.5; stroke-linejoin: miter"/>
   </g>
   <g id="patch_29">
    <path d="M 302.686364 320.4 
L 324.879545 320.4 
L 324.879545 314.66087 
L 302.686364 314.66087 
z
" clip-path="url(#p41b6441b2c)" style="fill: #f5946b; fill-opacity: 0.75; stroke: #4c4c4c; stroke-width: 0.5; stroke-linejoin: miter"/>
   </g>
   <g id="patch_30">
    <path d="M 324.879545 274.486957 
L 347.072727 274.486957 
L 347.072727 268.747826 
L 324.879545 268.747826 
z
" clip-path="url(#p41b6441b2c)" style="fill: #f5946b; fill-opacity: 0.75; stroke: #4c4c4c; stroke-width: 0.5; stroke-linejoin: miter"/>
   </g>
   <g id="patch_31">
    <path d="M 347.072727 251.530435 
L 369.265909 251.530435 
L 369.265909 240.052174 
L 347.072727 240.052174 
z
" clip-path="url(#p41b6441b2c)" style="fill: #f5946b; fill-opacity: 0.75; stroke: #4c4c4c; stroke-width: 0.5; stroke-linejoin: miter"/>
   </g>
   <g id="patch_32">
    <path d="M 369.265909 297.443478 
L 391.459091 297.443478 
L 391.459091 268.747826 
L 369.265909 268.747826 
z
" clip-path="url(#p41b6441b2c)" style="fill: #f5946b; fill-opacity: 0.75; stroke: #4c4c4c; stroke-width: 0.5; stroke-linejoin: miter"/>
   </g>
   <g id="patch_33">
    <path d="M 391.459091 285.965217 
L 413.652273 285.965217 
L 413.652273 268.747826 
L 391.459091 268.747826 
z
" clip-path="url(#p41b6441b2c)" style="fill: #f5946b; fill-opacity: 0.75; stroke: #4c4c4c; stroke-width: 0.5; stroke-linejoin: miter"/>
   </g>
   <g id="patch_34">
    <path d="M 413.652273 308.921739 
L 435.845455 308.921739 
L 435.845455 303.182609 
L 413.652273 303.182609 
z
" clip-path="url(#p41b6441b2c)" style="fill: #f5946b; fill-opacity: 0.75; stroke: #4c4c4c; stroke-width: 0.5; stroke-linejoin: miter"/>
   </g>
   <g id="patch_35">
    <path d="M 80.754545 308.921739 
L 102.947727 308.921739 
L 102.947727 308.921739 
L 80.754545 308.921739 
z
" clip-path="url(#p41b6441b2c)" style="fill: #f06043; fill-opacity: 0.75; stroke: #4c4c4c; stroke-width: 0.5; stroke-linejoin: miter"/>
   </g>
   <g id="patch_36">
    <path d="M 102.947727 320.4 
L 125.140909 320.4 
L 125.140909 320.4 
L 102.947727 320.4 
z
" clip-path="url(#p41b6441b2c)" style="fill: #f06043; fill-opacity: 0.75; stroke: #4c4c4c; stroke-width: 0.5; stroke-linejoin: miter"/>
   </g>
   <g id="patch_37">
    <path d="M 125.140909 320.4 
L 147.334091 320.4 
L 147.334091 308.921739 
L 125.140909 308.921739 
z
" clip-path="url(#p41b6441b2c)" style="fill: #f06043; fill-opacity: 0.75; stroke: #4c4c4c; stroke-width: 0.5; stroke-linejoin: miter"/>
   </g>
   <g id="patch_38">
    <path d="M 147.334091 320.4 
L 169.527273 320.4 
L 169.527273 320.4 
L 147.334091 320.4 
z
" clip-path="url(#p41b6441b2c)" style="fill: #f06043; fill-opacity: 0.75; stroke: #4c4c4c; stroke-width: 0.5; stroke-linejoin: miter"/>
   </g>
   <g id="patch_39">
    <path d="M 169.527273 297.443478 
L 191.720455 297.443478 
L 191.720455 291.704348 
L 169.527273 291.704348 
z
" clip-path="url(#p41b6441b2c)" style="fill: #f06043; fill-opacity: 0.75; stroke: #4c4c4c; stroke-width: 0.5; stroke-linejoin: miter"/>
   </g>
   <g id="patch_40">
    <path d="M 191.720455 314.66087 
L 213.913636 314.66087 
L 213.913636 314.66087 
L 191.720455 314.66087 
z
" clip-path="url(#p41b6441b2c)" style="fill: #f06043; fill-opacity: 0.75; stroke: #4c4c4c; stroke-width: 0.5; stroke-linejoin: miter"/>
   </g>
   <g id="patch_41">
    <path d="M 213.913636 320.4 
L 236.106818 320.4 
L 236.106818 314.66087 
L 213.913636 314.66087 
z
" clip-path="url(#p41b6441b2c)" style="fill: #f06043; fill-opacity: 0.75; stroke: #4c4c4c; stroke-width: 0.5; stroke-linejoin: miter"/>
   </g>
   <g id="patch_42">
    <path d="M 236.106818 308.921739 
L 258.3 308.921739 
L 258.3 308.921739 
L 236.106818 308.921739 
z
" clip-path="url(#p41b6441b2c)" style="fill: #f06043; fill-opacity: 0.75; stroke: #4c4c4c; stroke-width: 0.5; stroke-linejoin: miter"/>
   </g>
   <g id="patch_43">
    <path d="M 258.3 291.704348 
L 280.493182 291.704348 
L 280.493182 285.965217 
L 258.3 285.965217 
z
" clip-path="url(#p41b6441b2c)" style="fill: #f06043; fill-opacity: 0.75; stroke: #4c4c4c; stroke-width: 0.5; stroke-linejoin: miter"/>
   </g>
   <g id="patch_44">
    <path d="M 280.493182 303.182609 
L 302.686364 303.182609 
L 302.686364 291.704348 
L 280.493182 291.704348 
z
" clip-path="url(#p41b6441b2c)" style="fill: #f06043; fill-opacity: 0.75; stroke: #4c4c4c; stroke-width: 0.5; stroke-linejoin: miter"/>
   </g>
   <g id="patch_45">
    <path d="M 302.686364 314.66087 
L 324.879545 314.66087 
L 324.879545 308.921739 
L 302.686364 308.921739 
z
" clip-path="url(#p41b6441b2c)" style="fill: #f06043; fill-opacity: 0.75; stroke: #4c4c4c; stroke-width: 0.5; stroke-linejoin: miter"/>
   </g>
   <g id="patch_46">
    <path d="M 324.879545 268.747826 
L 347.072727 268.747826 
L 347.072727 263.008696 
L 324.879545 263.008696 
z
" clip-path="url(#p41b6441b2c)" style="fill: #f06043; fill-opacity: 0.75; stroke: #4c4c4c; stroke-width: 0.5; stroke-linejoin: miter"/>
   </g>
   <g id="patch_47">
    <path d="M 347.072727 240.052174 
L 369.265909 240.052174 
L 369.265909 228.573913 
L 347.072727 228.573913 
z
" clip-path="url(#p41b6441b2c)" style="fill: #f06043; fill-opacity: 0.75; stroke: #4c4c4c; stroke-width: 0.5; stroke-linejoin: miter"/>
   </g>
   <g id="patch_48">
    <path d="M 369.265909 268.747826 
L 391.459091 268.747826 
L 391.459091 240.052174 
L 369.265909 240.052174 
z
" clip-path="url(#p41b6441b2c)" style="fill: #f06043; fill-opacity: 0.75; stroke: #4c4c4c; stroke-width: 0.5; stroke-linejoin: miter"/>
   </g>
   <g id="patch_49">
    <path d="M 391.459091 268.747826 
L 413.652273 268.747826 
L 413.652273 194.13913 
L 391.459091 194.13913 
z
" clip-path="url(#p41b6441b2c)" style="fill: #f06043; fill-opacity: 0.75; stroke: #4c4c4c; stroke-width: 0.5; stroke-linejoin: miter"/>
   </g>
   <g id="patch_50">
    <path d="M 413.652273 303.182609 
L 435.845455 303.182609 
L 435.845455 263.008696 
L 413.652273 263.008696 
z
" clip-path="url(#p41b6441b2c)" style="fill: #f06043; fill-opacity: 0.75; stroke: #4c4c4c; stroke-width: 0.5; stroke-linejoin: miter"/>
   </g>
   <g id="patch_51">
    <path d="M 80.754545 308.921739 
L 102.947727 308.921739 
L 102.947727 308.921739 
L 80.754545 308.921739 
z
" clip-path="url(#p41b6441b2c)" style="fill: #dd2c45; fill-opacity: 0.75; stroke: #4c4c4c; stroke-width: 0.5; stroke-linejoin: miter"/>
   </g>
   <g id="patch_52">
    <path d="M 102.947727 320.4 
L 125.140909 320.4 
L 125.140909 320.4 
L 102.947727 320.4 
z
" clip-path="url(#p41b6441b2c)" style="fill: #dd2c45; fill-opacity: 0.75; stroke: #4c4c4c; stroke-width: 0.5; stroke-linejoin: miter"/>
   </g>
   <g id="patch_53">
    <path d="M 125.140909 308.921739 
L 147.334091 308.921739 
L 147.334091 308.921739 
L 125.140909 308.921739 
z
" clip-path="url(#p41b6441b2c)" style="fill: #dd2c45; fill-opacity: 0.75; stroke: #4c4c4c; stroke-width: 0.5; stroke-linejoin: miter"/>
   </g>
   <g id="patch_54">
    <path d="M 147.334091 320.4 
L 169.527273 320.4 
L 169.527273 320.4 
L 147.334091 320.4 
z
" clip-path="url(#p41b6441b2c)" style="fill: #dd2c45; fill-opacity: 0.75; stroke: #4c4c4c; stroke-width: 0.5; stroke-linejoin: miter"/>
   </g>
   <g id="patch_55">
    <path d="M 169.527273 291.704348 
L 191.720455 291.704348 
L 191.720455 291.704348 
L 169.527273 291.704348 
z
" clip-path="url(#p41b6441b2c)" style="fill: #dd2c45; fill-opacity: 0.75; stroke: #4c4c4c; stroke-width: 0.5; stroke-linejoin: miter"/>
   </g>
   <g id="patch_56">
    <path d="M 191.720455 314.66087 
L 213.913636 314.66087 
L 213.913636 314.66087 
L 191.720455 314.66087 
z
" clip-path="url(#p41b6441b2c)" style="fill: #dd2c45; fill-opacity: 0.75; stroke: #4c4c4c; stroke-width: 0.5; stroke-linejoin: miter"/>
   </g>
   <g id="patch_57">
    <path d="M 213.913636 314.66087 
L 236.106818 314.66087 
L 236.106818 314.66087 
L 213.913636 314.66087 
z
" clip-path="url(#p41b6441b2c)" style="fill: #dd2c45; fill-opacity: 0.75; stroke: #4c4c4c; stroke-width: 0.5; stroke-linejoin: miter"/>
   </g>
   <g id="patch_58">
    <path d="M 236.106818 308.921739 
L 258.3 308.921739 
L 258.3 308.921739 
L 236.106818 308.921739 
z
" clip-path="url(#p41b6441b2c)" style="fill: #dd2c45; fill-opacity: 0.75; stroke: #4c4c4c; stroke-width: 0.5; stroke-linejoin: miter"/>
   </g>
   <g id="patch_59">
    <path d="M 258.3 285.965217 
L 280.493182 285.965217 
L 280.493182 285.965217 
L 258.3 285.965217 
z
" clip-path="url(#p41b6441b2c)" style="fill: #dd2c45; fill-opacity: 0.75; stroke: #4c4c4c; stroke-width: 0.5; stroke-linejoin: miter"/>
   </g>
   <g id="patch_60">
    <path d="M 280.493182 291.704348 
L 302.686364 291.704348 
L 302.686364 285.965217 
L 280.493182 285.965217 
z
" clip-path="url(#p41b6441b2c)" style="fill: #dd2c45; fill-opacity: 0.75; stroke: #4c4c4c; stroke-width: 0.5; stroke-linejoin: miter"/>
   </g>
   <g id="patch_61">
    <path d="M 302.686364 308.921739 
L 324.879545 308.921739 
L 324.879545 308.921739 
L 302.686364 308.921739 
z
" clip-path="url(#p41b6441b2c)" style="fill: #dd2c45; fill-opacity: 0.75; stroke: #4c4c4c; stroke-width: 0.5; stroke-linejoin: miter"/>
   </g>
   <g id="patch_62">
    <path d="M 324.879545 263.008696 
L 347.072727 263.008696 
L 347.072727 263.008696 
L 324.879545 263.008696 
z
" clip-path="url(#p41b6441b2c)" style="fill: #dd2c45; fill-opacity: 0.75; stroke: #4c4c4c; stroke-width: 0.5; stroke-linejoin: miter"/>
   </g>
   <g id="patch_63">
    <path d="M 347.072727 228.573913 
L 369.265909 228.573913 
L 369.265909 222.834783 
L 347.072727 222.834783 
z
" clip-path="url(#p41b6441b2c)" style="fill: #dd2c45; fill-opacity: 0.75; stroke: #4c4c4c; stroke-width: 0.5; stroke-linejoin: miter"/>
   </g>
   <g id="patch_64">
    <path d="M 369.265909 240.052174 
L 391.459091 240.052174 
L 391.459091 240.052174 
L 369.265909 240.052174 
z
" clip-path="url(#p41b6441b2c)" style="fill: #dd2c45; fill-opacity: 0.75; stroke: #4c4c4c; stroke-width: 0.5; stroke-linejoin: miter"/>
   </g>
   <g id="patch_65">
    <path d="M 391.459091 194.13913 
L 413.652273 194.13913 
L 413.652273 159.704348 
L 391.459091 159.704348 
z
" clip-path="url(#p41b6441b2c)" style="fill: #dd2c45; fill-opacity: 0.75; stroke: #4c4c4c; stroke-width: 0.5; stroke-linejoin: miter"/>
   </g>
   <g id="patch_66">
    <path d="M 413.652273 263.008696 
L 435.845455 263.008696 
L 435.845455 240.052174 
L 413.652273 240.052174 
z
" clip-path="url(#p41b6441b2c)" style="fill: #dd2c45; fill-opacity: 0.75; stroke: #4c4c4c; stroke-width: 0.5; stroke-linejoin: miter"/>
   </g>
   <g id="patch_67">
    <path d="M 80.754545 308.921739 
L 102.947727 308.921739 
L 102.947727 308.921739 
L 80.754545 308.921739 
z
" clip-path="url(#p41b6441b2c)" style="fill: #b41658; fill-opacity: 0.75; stroke: #4c4c4c; stroke-width: 0.5; stroke-linejoin: miter"/>
   </g>
   <g id="patch_68">
    <path d="M 102.947727 320.4 
L 125.140909 320.4 
L 125.140909 320.4 
L 102.947727 320.4 
z
" clip-path="url(#p41b6441b2c)" style="fill: #b41658; fill-opacity: 0.75; stroke: #4c4c4c; stroke-width: 0.5; stroke-linejoin: miter"/>
   </g>
   <g id="patch_69">
    <path d="M 125.140909 308.921739 
L 147.334091 308.921739 
L 147.334091 308.921739 
L 125.140909 308.921739 
z
" clip-path="url(#p41b6441b2c)" style="fill: #b41658; fill-opacity: 0.75; stroke: #4c4c4c; stroke-width: 0.5; stroke-linejoin: miter"/>
   </g>
   <g id="patch_70">
    <path d="M 147.334091 320.4 
L 169.527273 320.4 
L 169.527273 320.4 
L 147.334091 320.4 
z
" clip-path="url(#p41b6441b2c)" style="fill: #b41658; fill-opacity: 0.75; stroke: #4c4c4c; stroke-width: 0.5; stroke-linejoin: miter"/>
   </g>
   <g id="patch_71">
    <path d="M 169.527273 291.704348 
L 191.720455 291.704348 
L 191.720455 291.704348 
L 169.527273 291.704348 
z
" clip-path="url(#p41b6441b2c)" style="fill: #b41658; fill-opacity: 0.75; stroke: #4c4c4c; stroke-width: 0.5; stroke-linejoin: miter"/>
   </g>
   <g id="patch_72">
    <path d="M 191.720455 314.66087 
L 213.913636 314.66087 
L 213.913636 314.66087 
L 191.720455 314.66087 
z
" clip-path="url(#p41b6441b2c)" style="fill: #b41658; fill-opacity: 0.75; stroke: #4c4c4c; stroke-width: 0.5; stroke-linejoin: miter"/>
   </g>
   <g id="patch_73">
    <path d="M 213.913636 314.66087 
L 236.106818 314.66087 
L 236.106818 314.66087 
L 213.913636 314.66087 
z
" clip-path="url(#p41b6441b2c)" style="fill: #b41658; fill-opacity: 0.75; stroke: #4c4c4c; stroke-width: 0.5; stroke-linejoin: miter"/>
   </g>
   <g id="patch_74">
    <path d="M 236.106818 308.921739 
L 258.3 308.921739 
L 258.3 308.921739 
L 236.106818 308.921739 
z
" clip-path="url(#p41b6441b2c)" style="fill: #b41658; fill-opacity: 0.75; stroke: #4c4c4c; stroke-width: 0.5; stroke-linejoin: miter"/>
   </g>
   <g id="patch_75">
    <path d="M 258.3 285.965217 
L 280.493182 285.965217 
L 280.493182 285.965217 
L 258.3 285.965217 
z
" clip-path="url(#p41b6441b2c)" style="fill: #b41658; fill-opacity: 0.75; stroke: #4c4c4c; stroke-width: 0.5; stroke-linejoin: miter"/>
   </g>
   <g id="patch_76">
    <path d="M 280.493182 285.965217 
L 302.686364 285.965217 
L 302.686364 285.965217 
L 280.493182 285.965217 
z
" clip-path="url(#p41b6441b2c)" style="fill: #b41658; fill-opacity: 0.75; stroke: #4c4c4c; stroke-width: 0.5; stroke-linejoin: miter"/>
   </g>
   <g id="patch_77">
    <path d="M 302.686364 308.921739 
L 324.879545 308.921739 
L 324.879545 303.182609 
L 302.686364 303.182609 
z
" clip-path="url(#p41b6441b2c)" style="fill: #b41658; fill-opacity: 0.75; stroke: #4c4c4c; stroke-width: 0.5; stroke-linejoin: miter"/>
   </g>
   <g id="patch_78">
    <path d="M 324.879545 263.008696 
L 347.072727 263.008696 
L 347.072727 263.008696 
L 324.879545 263.008696 
z
" clip-path="url(#p41b6441b2c)" style="fill: #b41658; fill-opacity: 0.75; stroke: #4c4c4c; stroke-width: 0.5; stroke-linejoin: miter"/>
   </g>
   <g id="patch_79">
    <path d="M 347.072727 222.834783 
L 369.265909 222.834783 
L 369.265909 222.834783 
L 347.072727 222.834783 
z
" clip-path="url(#p41b6441b2c)" style="fill: #b41658; fill-opacity: 0.75; stroke: #4c4c4c; stroke-width: 0.5; stroke-linejoin: miter"/>
   </g>
   <g id="patch_80">
    <path d="M 369.265909 240.052174 
L 391.459091 240.052174 
L 391.459091 228.573913 
L 369.265909 228.573913 
z
" clip-path="url(#p41b6441b2c)" style="fill: #b41658; fill-opacity: 0.75; stroke: #4c4c4c; stroke-width: 0.5; stroke-linejoin: miter"/>
   </g>
   <g id="patch_81">
    <path d="M 391.459091 159.704348 
L 413.652273 159.704348 
L 413.652273 131.008696 
L 391.459091 131.008696 
z
" clip-path="url(#p41b6441b2c)" style="fill: #b41658; fill-opacity: 0.75; stroke: #4c4c4c; stroke-width: 0.5; stroke-linejoin: miter"/>
   </g>
   <g id="patch_82">
    <path d="M 413.652273 240.052174 
L 435.845455 240.052174 
L 435.845455 211.356522 
L 413.652273 211.356522 
z
" clip-path="url(#p41b6441b2c)" style="fill: #b41658; fill-opacity: 0.75; stroke: #4c4c4c; stroke-width: 0.5; stroke-linejoin: miter"/>
   </g>
   <g id="patch_83">
    <path d="M 80.754545 308.921739 
L 102.947727 308.921739 
L 102.947727 308.921739 
L 80.754545 308.921739 
z
" clip-path="url(#p41b6441b2c)" style="fill: #841e5a; fill-opacity: 0.75; stroke: #4c4c4c; stroke-width: 0.5; stroke-linejoin: miter"/>
   </g>
   <g id="patch_84">
    <path d="M 102.947727 320.4 
L 125.140909 320.4 
L 125.140909 320.4 
L 102.947727 320.4 
z
" clip-path="url(#p41b6441b2c)" style="fill: #841e5a; fill-opacity: 0.75; stroke: #4c4c4c; stroke-width: 0.5; stroke-linejoin: miter"/>
   </g>
   <g id="patch_85">
    <path d="M 125.140909 308.921739 
L 147.334091 308.921739 
L 147.334091 308.921739 
L 125.140909 308.921739 
z
" clip-path="url(#p41b6441b2c)" style="fill: #841e5a; fill-opacity: 0.75; stroke: #4c4c4c; stroke-width: 0.5; stroke-linejoin: miter"/>
   </g>
   <g id="patch_86">
    <path d="M 147.334091 320.4 
L 169.527273 320.4 
L 169.527273 320.4 
L 147.334091 320.4 
z
" clip-path="url(#p41b6441b2c)" style="fill: #841e5a; fill-opacity: 0.75; stroke: #4c4c4c; stroke-width: 0.5; stroke-linejoin: miter"/>
   </g>
   <g id="patch_87">
    <path d="M 169.527273 291.704348 
L 191.720455 291.704348 
L 191.720455 285.965217 
L 169.527273 285.965217 
z
" clip-path="url(#p41b6441b2c)" style="fill: #841e5a; fill-opacity: 0.75; stroke: #4c4c4c; stroke-width: 0.5; stroke-linejoin: miter"/>
   </g>
   <g id="patch_88">
    <path d="M 191.720455 314.66087 
L 213.913636 314.66087 
L 213.913636 314.66087 
L 191.720455 314.66087 
z
" clip-path="url(#p41b6441b2c)" style="fill: #841e5a; fill-opacity: 0.75; stroke: #4c4c4c; stroke-width: 0.5; stroke-linejoin: miter"/>
   </g>
   <g id="patch_89">
    <path d="M 213.913636 314.66087 
L 236.106818 314.66087 
L 236.106818 314.66087 
L 213.913636 314.66087 
z
" clip-path="url(#p41b6441b2c)" style="fill: #841e5a; fill-opacity: 0.75; stroke: #4c4c4c; stroke-width: 0.5; stroke-linejoin: miter"/>
   </g>
   <g id="patch_90">
    <path d="M 236.106818 308.921739 
L 258.3 308.921739 
L 258.3 308.921739 
L 236.106818 308.921739 
z
" clip-path="url(#p41b6441b2c)" style="fill: #841e5a; fill-opacity: 0.75; stroke: #4c4c4c; stroke-width: 0.5; stroke-linejoin: miter"/>
   </g>
   <g id="patch_91">
    <path d="M 258.3 285.965217 
L 280.493182 285.965217 
L 280.493182 285.965217 
L 258.3 285.965217 
z
" clip-path="url(#p41b6441b2c)" style="fill: #841e5a; fill-opacity: 0.75; stroke: #4c4c4c; stroke-width: 0.5; stroke-linejoin: miter"/>
   </g>
   <g id="patch_92">
    <path d="M 280.493182 285.965217 
L 302.686364 285.965217 
L 302.686364 285.965217 
L 280.493182 285.965217 
z
" clip-path="url(#p41b6441b2c)" style="fill: #841e5a; fill-opacity: 0.75; stroke: #4c4c4c; stroke-width: 0.5; stroke-linejoin: miter"/>
   </g>
   <g id="patch_93">
    <path d="M 302.686364 303.182609 
L 324.879545 303.182609 
L 324.879545 303.182609 
L 302.686364 303.182609 
z
" clip-path="url(#p41b6441b2c)" style="fill: #841e5a; fill-opacity: 0.75; stroke: #4c4c4c; stroke-width: 0.5; stroke-linejoin: miter"/>
   </g>
   <g id="patch_94">
    <path d="M 324.879545 263.008696 
L 347.072727 263.008696 
L 347.072727 263.008696 
L 324.879545 263.008696 
z
" clip-path="url(#p41b6441b2c)" style="fill: #841e5a; fill-opacity: 0.75; stroke: #4c4c4c; stroke-width: 0.5; stroke-linejoin: miter"/>
   </g>
   <g id="patch_95">
    <path d="M 347.072727 222.834783 
L 369.265909 222.834783 
L 369.265909 217.095652 
L 347.072727 217.095652 
z
" clip-path="url(#p41b6441b2c)" style="fill: #841e5a; fill-opacity: 0.75; stroke: #4c4c4c; stroke-width: 0.5; stroke-linejoin: miter"/>
   </g>
   <g id="patch_96">
    <path d="M 369.265909 228.573913 
L 391.459091 228.573913 
L 391.459091 222.834783 
L 369.265909 222.834783 
z
" clip-path="url(#p41b6441b2c)" style="fill: #841e5a; fill-opacity: 0.75; stroke: #4c4c4c; stroke-width: 0.5; stroke-linejoin: miter"/>
   </g>
   <g id="patch_97">
    <path d="M 391.459091 131.008696 
L 413.652273 131.008696 
L 413.652273 96.573913 
L 391.459091 96.573913 
z
" clip-path="url(#p41b6441b2c)" style="fill: #841e5a; fill-opacity: 0.75; stroke: #4c4c4c; stroke-width: 0.5; stroke-linejoin: miter"/>
   </g>
   <g id="patch_98">
    <path d="M 413.652273 211.356522 
L 435.845455 211.356522 
L 435.845455 125.269565 
L 413.652273 125.269565 
z
" clip-path="url(#p41b6441b2c)" style="fill: #841e5a; fill-opacity: 0.75; stroke: #4c4c4c; stroke-width: 0.5; stroke-linejoin: miter"/>
   </g>
   <g id="patch_99">
    <path d="M 80.754545 308.921739 
L 102.947727 308.921739 
L 102.947727 308.921739 
L 80.754545 308.921739 
z
" clip-path="url(#p41b6441b2c)" style="fill: #541e4e; fill-opacity: 0.75; stroke: #4c4c4c; stroke-width: 0.5; stroke-linejoin: miter"/>
   </g>
   <g id="patch_100">
    <path d="M 102.947727 320.4 
L 125.140909 320.4 
L 125.140909 320.4 
L 102.947727 320.4 
z
" clip-path="url(#p41b6441b2c)" style="fill: #541e4e; fill-opacity: 0.75; stroke: #4c4c4c; stroke-width: 0.5; stroke-linejoin: miter"/>
   </g>
   <g id="patch_101">
    <path d="M 125.140909 308.921739 
L 147.334091 308.921739 
L 147.334091 308.921739 
L 125.140909 308.921739 
z
" clip-path="url(#p41b6441b2c)" style="fill: #541e4e; fill-opacity: 0.75; stroke: #4c4c4c; stroke-width: 0.5; stroke-linejoin: miter"/>
   </g>
   <g id="patch_102">
    <path d="M 147.334091 320.4 
L 169.527273 320.4 
L 169.527273 320.4 
L 147.334091 320.4 
z
" clip-path="url(#p41b6441b2c)" style="fill: #541e4e; fill-opacity: 0.75; stroke: #4c4c4c; stroke-width: 0.5; stroke-linejoin: miter"/>
   </g>
   <g id="patch_103">
    <path d="M 169.527273 285.965217 
L 191.720455 285.965217 
L 191.720455 285.965217 
L 169.527273 285.965217 
z
" clip-path="url(#p41b6441b2c)" style="fill: #541e4e; fill-opacity: 0.75; stroke: #4c4c4c; stroke-width: 0.5; stroke-linejoin: miter"/>
   </g>
   <g id="patch_104">
    <path d="M 191.720455 314.66087 
L 213.913636 314.66087 
L 213.913636 314.66087 
L 191.720455 314.66087 
z
" clip-path="url(#p41b6441b2c)" style="fill: #541e4e; fill-opacity: 0.75; stroke: #4c4c4c; stroke-width: 0.5; stroke-linejoin: miter"/>
   </g>
   <g id="patch_105">
    <path d="M 213.913636 314.66087 
L 236.106818 314.66087 
L 236.106818 314.66087 
L 213.913636 314.66087 
z
" clip-path="url(#p41b6441b2c)" style="fill: #541e4e; fill-opacity: 0.75; stroke: #4c4c4c; stroke-width: 0.5; stroke-linejoin: miter"/>
   </g>
   <g id="patch_106">
    <path d="M 236.106818 308.921739 
L 258.3 308.921739 
L 258.3 308.921739 
L 236.106818 308.921739 
z
" clip-path="url(#p41b6441b2c)" style="fill: #541e4e; fill-opacity: 0.75; stroke: #4c4c4c; stroke-width: 0.5; stroke-linejoin: miter"/>
   </g>
   <g id="patch_107">
    <path d="M 258.3 285.965217 
L 280.493182 285.965217 
L 280.493182 285.965217 
L 258.3 285.965217 
z
" clip-path="url(#p41b6441b2c)" style="fill: #541e4e; fill-opacity: 0.75; stroke: #4c4c4c; stroke-width: 0.5; stroke-linejoin: miter"/>
   </g>
   <g id="patch_108">
    <path d="M 280.493182 285.965217 
L 302.686364 285.965217 
L 302.686364 285.965217 
L 280.493182 285.965217 
z
" clip-path="url(#p41b6441b2c)" style="fill: #541e4e; fill-opacity: 0.75; stroke: #4c4c4c; stroke-width: 0.5; stroke-linejoin: miter"/>
   </g>
   <g id="patch_109">
    <path d="M 302.686364 303.182609 
L 324.879545 303.182609 
L 324.879545 303.182609 
L 302.686364 303.182609 
z
" clip-path="url(#p41b6441b2c)" style="fill: #541e4e; fill-opacity: 0.75; stroke: #4c4c4c; stroke-width: 0.5; stroke-linejoin: miter"/>
   </g>
   <g id="patch_110">
    <path d="M 324.879545 263.008696 
L 347.072727 263.008696 
L 347.072727 263.008696 
L 324.879545 263.008696 
z
" clip-path="url(#p41b6441b2c)" style="fill: #541e4e; fill-opacity: 0.75; stroke: #4c4c4c; stroke-width: 0.5; stroke-linejoin: miter"/>
   </g>
   <g id="patch_111">
    <path d="M 347.072727 217.095652 
L 369.265909 217.095652 
L 369.265909 217.095652 
L 347.072727 217.095652 
z
" clip-path="url(#p41b6441b2c)" style="fill: #541e4e; fill-opacity: 0.75; stroke: #4c4c4c; stroke-width: 0.5; stroke-linejoin: miter"/>
   </g>
   <g id="patch_112">
    <path d="M 369.265909 222.834783 
L 391.459091 222.834783 
L 391.459091 222.834783 
L 369.265909 222.834783 
z
" clip-path="url(#p41b6441b2c)" style="fill: #541e4e; fill-opacity: 0.75; stroke: #4c4c4c; stroke-width: 0.5; stroke-linejoin: miter"/>
   </g>
   <g id="patch_113">
    <path d="M 391.459091 96.573913 
L 413.652273 96.573913 
L 413.652273 56.4 
L 391.459091 56.4 
z
" clip-path="url(#p41b6441b2c)" style="fill: #541e4e; fill-opacity: 0.75; stroke: #4c4c4c; stroke-width: 0.5; stroke-linejoin: miter"/>
   </g>
   <g id="patch_114">
    <path d="M 413.652273 125.269565 
L 435.845455 125.269565 
L 435.845455 73.617391 
L 413.652273 73.617391 
z
" clip-path="url(#p41b6441b2c)" style="fill: #541e4e; fill-opacity: 0.75; stroke: #4c4c4c; stroke-width: 0.5; stroke-linejoin: miter"/>
   </g>
   <g id="patch_115">
    <path d="M 80.754545 308.921739 
L 102.947727 308.921739 
L 102.947727 308.921739 
L 80.754545 308.921739 
z
" clip-path="url(#p41b6441b2c)" style="fill: #2a1636; fill-opacity: 0.75; stroke: #4c4c4c; stroke-width: 0.5; stroke-linejoin: miter"/>
   </g>
   <g id="patch_116">
    <path d="M 102.947727 320.4 
L 125.140909 320.4 
L 125.140909 320.4 
L 102.947727 320.4 
z
" clip-path="url(#p41b6441b2c)" style="fill: #2a1636; fill-opacity: 0.75; stroke: #4c4c4c; stroke-width: 0.5; stroke-linejoin: miter"/>
   </g>
   <g id="patch_117">
    <path d="M 125.140909 308.921739 
L 147.334091 308.921739 
L 147.334091 308.921739 
L 125.140909 308.921739 
z
" clip-path="url(#p41b6441b2c)" style="fill: #2a1636; fill-opacity: 0.75; stroke: #4c4c4c; stroke-width: 0.5; stroke-linejoin: miter"/>
   </g>
   <g id="patch_118">
    <path d="M 147.334091 320.4 
L 169.527273 320.4 
L 169.527273 320.4 
L 147.334091 320.4 
z
" clip-path="url(#p41b6441b2c)" style="fill: #2a1636; fill-opacity: 0.75; stroke: #4c4c4c; stroke-width: 0.5; stroke-linejoin: miter"/>
   </g>
   <g id="patch_119">
    <path d="M 169.527273 285.965217 
L 191.720455 285.965217 
L 191.720455 285.965217 
L 169.527273 285.965217 
z
" clip-path="url(#p41b6441b2c)" style="fill: #2a1636; fill-opacity: 0.75; stroke: #4c4c4c; stroke-width: 0.5; stroke-linejoin: miter"/>
   </g>
   <g id="patch_120">
    <path d="M 191.720455 314.66087 
L 213.913636 314.66087 
L 213.913636 314.66087 
L 191.720455 314.66087 
z
" clip-path="url(#p41b6441b2c)" style="fill: #2a1636; fill-opacity: 0.75; stroke: #4c4c4c; stroke-width: 0.5; stroke-linejoin: miter"/>
   </g>
   <g id="patch_121">
    <path d="M 213.913636 314.66087 
L 236.106818 314.66087 
L 236.106818 314.66087 
L 213.913636 314.66087 
z
" clip-path="url(#p41b6441b2c)" style="fill: #2a1636; fill-opacity: 0.75; stroke: #4c4c4c; stroke-width: 0.5; stroke-linejoin: miter"/>
   </g>
   <g id="patch_122">
    <path d="M 236.106818 308.921739 
L 258.3 308.921739 
L 258.3 308.921739 
L 236.106818 308.921739 
z
" clip-path="url(#p41b6441b2c)" style="fill: #2a1636; fill-opacity: 0.75; stroke: #4c4c4c; stroke-width: 0.5; stroke-linejoin: miter"/>
   </g>
   <g id="patch_123">
    <path d="M 258.3 285.965217 
L 280.493182 285.965217 
L 280.493182 285.965217 
L 258.3 285.965217 
z
" clip-path="url(#p41b6441b2c)" style="fill: #2a1636; fill-opacity: 0.75; stroke: #4c4c4c; stroke-width: 0.5; stroke-linejoin: miter"/>
   </g>
   <g id="patch_124">
    <path d="M 280.493182 285.965217 
L 302.686364 285.965217 
L 302.686364 285.965217 
L 280.493182 285.965217 
z
" clip-path="url(#p41b6441b2c)" style="fill: #2a1636; fill-opacity: 0.75; stroke: #4c4c4c; stroke-width: 0.5; stroke-linejoin: miter"/>
   </g>
   <g id="patch_125">
    <path d="M 302.686364 303.182609 
L 324.879545 303.182609 
L 324.879545 303.182609 
L 302.686364 303.182609 
z
" clip-path="url(#p41b6441b2c)" style="fill: #2a1636; fill-opacity: 0.75; stroke: #4c4c4c; stroke-width: 0.5; stroke-linejoin: miter"/>
   </g>
   <g id="patch_126">
    <path d="M 324.879545 263.008696 
L 347.072727 263.008696 
L 347.072727 263.008696 
L 324.879545 263.008696 
z
" clip-path="url(#p41b6441b2c)" style="fill: #2a1636; fill-opacity: 0.75; stroke: #4c4c4c; stroke-width: 0.5; stroke-linejoin: miter"/>
   </g>
   <g id="patch_127">
    <path d="M 347.072727 217.095652 
L 369.265909 217.095652 
L 369.265909 217.095652 
L 347.072727 217.095652 
z
" clip-path="url(#p41b6441b2c)" style="fill: #2a1636; fill-opacity: 0.75; stroke: #4c4c4c; stroke-width: 0.5; stroke-linejoin: miter"/>
   </g>
   <g id="patch_128">
    <path d="M 369.265909 222.834783 
L 391.459091 222.834783 
L 391.459091 222.834783 
L 369.265909 222.834783 
z
" clip-path="url(#p41b6441b2c)" style="fill: #2a1636; fill-opacity: 0.75; stroke: #4c4c4c; stroke-width: 0.5; stroke-linejoin: miter"/>
   </g>
   <g id="patch_129">
    <path d="M 391.459091 56.4 
L 413.652273 56.4 
L 413.652273 56.4 
L 391.459091 56.4 
z
" clip-path="url(#p41b6441b2c)" style="fill: #2a1636; fill-opacity: 0.75; stroke: #4c4c4c; stroke-width: 0.5; stroke-linejoin: miter"/>
   </g>
   <g id="patch_130">
    <path d="M 413.652273 73.617391 
L 435.845455 73.617391 
L 435.845455 67.878261 
L 413.652273 67.878261 
z
" clip-path="url(#p41b6441b2c)" style="fill: #2a1636; fill-opacity: 0.75; stroke: #4c4c4c; stroke-width: 0.5; stroke-linejoin: miter"/>
   </g>
   <g id="matplotlib.axis_1">
    <g id="xtick_1">
     <g id="line2d_1">
      <defs>
       <path id="m83e2b48703" d="M 0 0 
L 0 3.5 
" style="stroke: #000000; stroke-width: 0.8"/>
      </defs>
      <g>
       <use xlink:href="#m83e2b48703" x="107.91997" y="320.4" style="stroke: #000000; stroke-width: 0.8"/>
      </g>
     </g>
     <g id="text_1">
      <!-- 1850 -->
      <g transform="translate(95.19497 334.998438) scale(0.1 -0.1)">
       <defs>
        <path id="DejaVuSans-31" d="M 794 531 
L 1825 531 
L 1825 4091 
L 703 3866 
L 703 4441 
L 1819 4666 
L 2450 4666 
L 2450 531 
L 3481 531 
L 3481 0 
L 794 0 
L 794 531 
z
" transform="scale(0.015625)"/>
        <path id="DejaVuSans-38" d="M 2034 2216 
Q 1584 2216 1326 1975 
Q 1069 1734 1069 1313 
Q 1069 891 1326 650 
Q 1584 409 2034 409 
Q 2484 409 2743 651 
Q 3003 894 3003 1313 
Q 3003 1734 2745 1975 
Q 2488 2216 2034 2216 
z
M 1403 2484 
Q 997 2584 770 2862 
Q 544 3141 544 3541 
Q 544 4100 942 4425 
Q 1341 4750 2034 4750 
Q 2731 4750 3128 4425 
Q 3525 4100 3525 3541 
Q 3525 3141 3298 2862 
Q 3072 2584 2669 2484 
Q 3125 2378 3379 2068 
Q 3634 1759 3634 1313 
Q 3634 634 3220 271 
Q 2806 -91 2034 -91 
Q 1263 -91 848 271 
Q 434 634 434 1313 
Q 434 1759 690 2068 
Q 947 2378 1403 2484 
z
M 1172 3481 
Q 1172 3119 1398 2916 
Q 1625 2713 2034 2713 
Q 2441 2713 2670 2916 
Q 2900 3119 2900 3481 
Q 2900 3844 2670 4047 
Q 2441 4250 2034 4250 
Q 1625 4250 1398 4047 
Q 1172 3844 1172 3481 
z
" transform="scale(0.015625)"/>
        <path id="DejaVuSans-35" d="M 691 4666 
L 3169 4666 
L 3169 4134 
L 1269 4134 
L 1269 2991 
Q 1406 3038 1543 3061 
Q 1681 3084 1819 3084 
Q 2600 3084 3056 2656 
Q 3513 2228 3513 1497 
Q 3513 744 3044 326 
Q 2575 -91 1722 -91 
Q 1428 -91 1123 -41 
Q 819 9 494 109 
L 494 744 
Q 775 591 1075 516 
Q 1375 441 1709 441 
Q 2250 441 2565 725 
Q 2881 1009 2881 1497 
Q 2881 1984 2565 2268 
Q 2250 2553 1709 2553 
Q 1456 2553 1204 2497 
Q 953 2441 691 2322 
L 691 4666 
z
" transform="scale(0.015625)"/>
        <path id="DejaVuSans-30" d="M 2034 4250 
Q 1547 4250 1301 3770 
Q 1056 3291 1056 2328 
Q 1056 1369 1301 889 
Q 1547 409 2034 409 
Q 2525 409 2770 889 
Q 3016 1369 3016 2328 
Q 3016 3291 2770 3770 
Q 2525 4250 2034 4250 
z
M 2034 4750 
Q 2819 4750 3233 4129 
Q 3647 3509 3647 2328 
Q 3647 1150 3233 529 
Q 2819 -91 2034 -91 
Q 1250 -91 836 529 
Q 422 1150 422 2328 
Q 422 3509 836 4129 
Q 1250 4750 2034 4750 
z
" transform="scale(0.015625)"/>
       </defs>
       <use xlink:href="#DejaVuSans-31"/>
       <use xlink:href="#DejaVuSans-38" x="63.623047"/>
       <use xlink:href="#DejaVuSans-35" x="127.246094"/>
       <use xlink:href="#DejaVuSans-30" x="190.869141"/>
      </g>
     </g>
    </g>
    <g id="xtick_2">
     <g id="line2d_2">
      <g>
       <use xlink:href="#m83e2b48703" x="156.429657" y="320.4" style="stroke: #000000; stroke-width: 0.8"/>
      </g>
     </g>
     <g id="text_2">
      <!-- 1875 -->
      <g transform="translate(143.704657 334.998438) scale(0.1 -0.1)">
       <defs>
        <path id="DejaVuSans-37" d="M 525 4666 
L 3525 4666 
L 3525 4397 
L 1831 0 
L 1172 0 
L 2766 4134 
L 525 4134 
L 525 4666 
z
" transform="scale(0.015625)"/>
       </defs>
       <use xlink:href="#DejaVuSans-31"/>
       <use xlink:href="#DejaVuSans-38" x="63.623047"/>
       <use xlink:href="#DejaVuSans-37" x="127.246094"/>
       <use xlink:href="#DejaVuSans-35" x="190.869141"/>
      </g>
     </g>
    </g>
    <g id="xtick_3">
     <g id="line2d_3">
      <g>
       <use xlink:href="#m83e2b48703" x="204.939344" y="320.4" style="stroke: #000000; stroke-width: 0.8"/>
      </g>
     </g>
     <g id="text_3">
      <!-- 1900 -->
      <g transform="translate(192.214344 334.998438) scale(0.1 -0.1)">
       <defs>
        <path id="DejaVuSans-39" d="M 703 97 
L 703 672 
Q 941 559 1184 500 
Q 1428 441 1663 441 
Q 2288 441 2617 861 
Q 2947 1281 2994 2138 
Q 2813 1869 2534 1725 
Q 2256 1581 1919 1581 
Q 1219 1581 811 2004 
Q 403 2428 403 3163 
Q 403 3881 828 4315 
Q 1253 4750 1959 4750 
Q 2769 4750 3195 4129 
Q 3622 3509 3622 2328 
Q 3622 1225 3098 567 
Q 2575 -91 1691 -91 
Q 1453 -91 1209 -44 
Q 966 3 703 97 
z
M 1959 2075 
Q 2384 2075 2632 2365 
Q 2881 2656 2881 3163 
Q 2881 3666 2632 3958 
Q 2384 4250 1959 4250 
Q 1534 4250 1286 3958 
Q 1038 3666 1038 3163 
Q 1038 2656 1286 2365 
Q 1534 2075 1959 2075 
z
" transform="scale(0.015625)"/>
       </defs>
       <use xlink:href="#DejaVuSans-31"/>
       <use xlink:href="#DejaVuSans-39" x="63.623047"/>
       <use xlink:href="#DejaVuSans-30" x="127.246094"/>
       <use xlink:href="#DejaVuSans-30" x="190.869141"/>
      </g>
     </g>
    </g>
    <g id="xtick_4">
     <g id="line2d_4">
      <g>
       <use xlink:href="#m83e2b48703" x="253.449031" y="320.4" style="stroke: #000000; stroke-width: 0.8"/>
      </g>
     </g>
     <g id="text_4">
      <!-- 1925 -->
      <g transform="translate(240.724031 334.998438) scale(0.1 -0.1)">
       <defs>
        <path id="DejaVuSans-32" d="M 1228 531 
L 3431 531 
L 3431 0 
L 469 0 
L 469 531 
Q 828 903 1448 1529 
Q 2069 2156 2228 2338 
Q 2531 2678 2651 2914 
Q 2772 3150 2772 3378 
Q 2772 3750 2511 3984 
Q 2250 4219 1831 4219 
Q 1534 4219 1204 4116 
Q 875 4013 500 3803 
L 500 4441 
Q 881 4594 1212 4672 
Q 1544 4750 1819 4750 
Q 2544 4750 2975 4387 
Q 3406 4025 3406 3419 
Q 3406 3131 3298 2873 
Q 3191 2616 2906 2266 
Q 2828 2175 2409 1742 
Q 1991 1309 1228 531 
z
" transform="scale(0.015625)"/>
       </defs>
       <use xlink:href="#DejaVuSans-31"/>
       <use xlink:href="#DejaVuSans-39" x="63.623047"/>
       <use xlink:href="#DejaVuSans-32" x="127.246094"/>
       <use xlink:href="#DejaVuSans-35" x="190.869141"/>
      </g>
     </g>
    </g>
    <g id="xtick_5">
     <g id="line2d_5">
      <g>
       <use xlink:href="#m83e2b48703" x="301.958718" y="320.4" style="stroke: #000000; stroke-width: 0.8"/>
      </g>
     </g>
     <g id="text_5">
      <!-- 1950 -->
      <g transform="translate(289.233718 334.998438) scale(0.1 -0.1)">
       <use xlink:href="#DejaVuSans-31"/>
       <use xlink:href="#DejaVuSans-39" x="63.623047"/>
       <use xlink:href="#DejaVuSans-35" x="127.246094"/>
       <use xlink:href="#DejaVuSans-30" x="190.869141"/>
      </g>
     </g>
    </g>
    <g id="xtick_6">
     <g id="line2d_6">
      <g>
       <use xlink:href="#m83e2b48703" x="350.468405" y="320.4" style="stroke: #000000; stroke-width: 0.8"/>
      </g>
     </g>
     <g id="text_6">
      <!-- 1975 -->
      <g transform="translate(337.743405 334.998438) scale(0.1 -0.1)">
       <use xlink:href="#DejaVuSans-31"/>
       <use xlink:href="#DejaVuSans-39" x="63.623047"/>
       <use xlink:href="#DejaVuSans-37" x="127.246094"/>
       <use xlink:href="#DejaVuSans-35" x="190.869141"/>
      </g>
     </g>
    </g>
    <g id="xtick_7">
     <g id="line2d_7">
      <g>
       <use xlink:href="#m83e2b48703" x="398.978092" y="320.4" style="stroke: #000000; stroke-width: 0.8"/>
      </g>
     </g>
     <g id="text_7">
      <!-- 2000 -->
      <g transform="translate(386.253092 334.998438) scale(0.1 -0.1)">
       <use xlink:href="#DejaVuSans-32"/>
       <use xlink:href="#DejaVuSans-30" x="63.623047"/>
       <use xlink:href="#DejaVuSans-30" x="127.246094"/>
       <use xlink:href="#DejaVuSans-30" x="190.869141"/>
      </g>
     </g>
    </g>
    <g id="xtick_8">
     <g id="line2d_8">
      <g>
       <use xlink:href="#m83e2b48703" x="447.487779" y="320.4" style="stroke: #000000; stroke-width: 0.8"/>
      </g>
     </g>
     <g id="text_8">
      <!-- 2025 -->
      <g transform="translate(434.762779 334.998438) scale(0.1 -0.1)">
       <use xlink:href="#DejaVuSans-32"/>
       <use xlink:href="#DejaVuSans-30" x="63.623047"/>
       <use xlink:href="#DejaVuSans-32" x="127.246094"/>
       <use xlink:href="#DejaVuSans-35" x="190.869141"/>
      </g>
     </g>
    </g>
    <g id="text_9">
     <!-- founded -->
     <g transform="translate(237.717969 348.676562) scale(0.1 -0.1)">
      <defs>
       <path id="DejaVuSans-66" d="M 2375 4863 
L 2375 4384 
L 1825 4384 
Q 1516 4384 1395 4259 
Q 1275 4134 1275 3809 
L 1275 3500 
L 2222 3500 
L 2222 3053 
L 1275 3053 
L 1275 0 
L 697 0 
L 697 3053 
L 147 3053 
L 147 3500 
L 697 3500 
L 697 3744 
Q 697 4328 969 4595 
Q 1241 4863 1831 4863 
L 2375 4863 
z
" transform="scale(0.015625)"/>
       <path id="DejaVuSans-6f" d="M 1959 3097 
Q 1497 3097 1228 2736 
Q 959 2375 959 1747 
Q 959 1119 1226 758 
Q 1494 397 1959 397 
Q 2419 397 2687 759 
Q 2956 1122 2956 1747 
Q 2956 2369 2687 2733 
Q 2419 3097 1959 3097 
z
M 1959 3584 
Q 2709 3584 3137 3096 
Q 3566 2609 3566 1747 
Q 3566 888 3137 398 
Q 2709 -91 1959 -91 
Q 1206 -91 779 398 
Q 353 888 353 1747 
Q 353 2609 779 3096 
Q 1206 3584 1959 3584 
z
" transform="scale(0.015625)"/>
       <path id="DejaVuSans-75" d="M 544 1381 
L 544 3500 
L 1119 3500 
L 1119 1403 
Q 1119 906 1312 657 
Q 1506 409 1894 409 
Q 2359 409 2629 706 
Q 2900 1003 2900 1516 
L 2900 3500 
L 3475 3500 
L 3475 0 
L 2900 0 
L 2900 538 
Q 2691 219 2414 64 
Q 2138 -91 1772 -91 
Q 1169 -91 856 284 
Q 544 659 544 1381 
z
M 1991 3584 
L 1991 3584 
z
" transform="scale(0.015625)"/>
       <path id="DejaVuSans-6e" d="M 3513 2113 
L 3513 0 
L 2938 0 
L 2938 2094 
Q 2938 2591 2744 2837 
Q 2550 3084 2163 3084 
Q 1697 3084 1428 2787 
Q 1159 2491 1159 1978 
L 1159 0 
L 581 0 
L 581 3500 
L 1159 3500 
L 1159 2956 
Q 1366 3272 1645 3428 
Q 1925 3584 2291 3584 
Q 2894 3584 3203 3211 
Q 3513 2838 3513 2113 
z
" transform="scale(0.015625)"/>
       <path id="DejaVuSans-64" d="M 2906 2969 
L 2906 4863 
L 3481 4863 
L 3481 0 
L 2906 0 
L 2906 525 
Q 2725 213 2448 61 
Q 2172 -91 1784 -91 
Q 1150 -91 751 415 
Q 353 922 353 1747 
Q 353 2572 751 3078 
Q 1150 3584 1784 3584 
Q 2172 3584 2448 3432 
Q 2725 3281 2906 2969 
z
M 947 1747 
Q 947 1113 1208 752 
Q 1469 391 1925 391 
Q 2381 391 2643 752 
Q 2906 1113 2906 1747 
Q 2906 2381 2643 2742 
Q 2381 3103 1925 3103 
Q 1469 3103 1208 2742 
Q 947 2381 947 1747 
z
" transform="scale(0.015625)"/>
       <path id="DejaVuSans-65" d="M 3597 1894 
L 3597 1613 
L 953 1613 
Q 991 1019 1311 708 
Q 1631 397 2203 397 
Q 2534 397 2845 478 
Q 3156 559 3463 722 
L 3463 178 
Q 3153 47 2828 -22 
Q 2503 -91 2169 -91 
Q 1331 -91 842 396 
Q 353 884 353 1716 
Q 353 2575 817 3079 
Q 1281 3584 2069 3584 
Q 2775 3584 3186 3129 
Q 3597 2675 3597 1894 
z
M 3022 2063 
Q 3016 2534 2758 2815 
Q 2500 3097 2075 3097 
Q 1594 3097 1305 2825 
Q 1016 2553 972 2059 
L 3022 2063 
z
" transform="scale(0.015625)"/>
      </defs>
      <use xlink:href="#DejaVuSans-66"/>
      <use xlink:href="#DejaVuSans-6f" x="35.205078"/>
      <use xlink:href="#DejaVuSans-75" x="96.386719"/>
      <use xlink:href="#DejaVuSans-6e" x="159.765625"/>
      <use xlink:href="#DejaVuSans-64" x="223.144531"/>
      <use xlink:href="#DejaVuSans-65" x="286.621094"/>
      <use xlink:href="#DejaVuSans-64" x="348.144531"/>
     </g>
    </g>
   </g>
   <g id="matplotlib.axis_2">
    <g id="ytick_1">
     <g id="line2d_9">
      <defs>
       <path id="m0920e3f58c" d="M 0 0 
L -3.5 0 
" style="stroke: #000000; stroke-width: 0.8"/>
      </defs>
      <g>
       <use xlink:href="#m0920e3f58c" x="63" y="320.4" style="stroke: #000000; stroke-width: 0.8"/>
      </g>
     </g>
     <g id="text_10">
      <!-- 0 -->
      <g transform="translate(49.6375 324.199219) scale(0.1 -0.1)">
       <use xlink:href="#DejaVuSans-30"/>
      </g>
     </g>
    </g>
    <g id="ytick_2">
     <g id="line2d_10">
      <g>
       <use xlink:href="#m0920e3f58c" x="63" y="263.008696" style="stroke: #000000; stroke-width: 0.8"/>
      </g>
     </g>
     <g id="text_11">
      <!-- 10 -->
      <g transform="translate(43.275 266.807914) scale(0.1 -0.1)">
       <use xlink:href="#DejaVuSans-31"/>
       <use xlink:href="#DejaVuSans-30" x="63.623047"/>
      </g>
     </g>
    </g>
    <g id="ytick_3">
     <g id="line2d_11">
      <g>
       <use xlink:href="#m0920e3f58c" x="63" y="205.617391" style="stroke: #000000; stroke-width: 0.8"/>
      </g>
     </g>
     <g id="text_12">
      <!-- 20 -->
      <g transform="translate(43.275 209.41661) scale(0.1 -0.1)">
       <use xlink:href="#DejaVuSans-32"/>
       <use xlink:href="#DejaVuSans-30" x="63.623047"/>
      </g>
     </g>
    </g>
    <g id="ytick_4">
     <g id="line2d_12">
      <g>
       <use xlink:href="#m0920e3f58c" x="63" y="148.226087" style="stroke: #000000; stroke-width: 0.8"/>
      </g>
     </g>
     <g id="text_13">
      <!-- 30 -->
      <g transform="translate(43.275 152.025306) scale(0.1 -0.1)">
       <defs>
        <path id="DejaVuSans-33" d="M 2597 2516 
Q 3050 2419 3304 2112 
Q 3559 1806 3559 1356 
Q 3559 666 3084 287 
Q 2609 -91 1734 -91 
Q 1441 -91 1130 -33 
Q 819 25 488 141 
L 488 750 
Q 750 597 1062 519 
Q 1375 441 1716 441 
Q 2309 441 2620 675 
Q 2931 909 2931 1356 
Q 2931 1769 2642 2001 
Q 2353 2234 1838 2234 
L 1294 2234 
L 1294 2753 
L 1863 2753 
Q 2328 2753 2575 2939 
Q 2822 3125 2822 3475 
Q 2822 3834 2567 4026 
Q 2313 4219 1838 4219 
Q 1578 4219 1281 4162 
Q 984 4106 628 3988 
L 628 4550 
Q 988 4650 1302 4700 
Q 1616 4750 1894 4750 
Q 2613 4750 3031 4423 
Q 3450 4097 3450 3541 
Q 3450 3153 3228 2886 
Q 3006 2619 2597 2516 
z
" transform="scale(0.015625)"/>
       </defs>
       <use xlink:href="#DejaVuSans-33"/>
       <use xlink:href="#DejaVuSans-30" x="63.623047"/>
      </g>
     </g>
    </g>
    <g id="ytick_5">
     <g id="line2d_13">
      <g>
       <use xlink:href="#m0920e3f58c" x="63" y="90.834783" style="stroke: #000000; stroke-width: 0.8"/>
      </g>
     </g>
     <g id="text_14">
      <!-- 40 -->
      <g transform="translate(43.275 94.634001) scale(0.1 -0.1)">
       <defs>
        <path id="DejaVuSans-34" d="M 2419 4116 
L 825 1625 
L 2419 1625 
L 2419 4116 
z
M 2253 4666 
L 3047 4666 
L 3047 1625 
L 3713 1625 
L 3713 1100 
L 3047 1100 
L 3047 0 
L 2419 0 
L 2419 1100 
L 313 1100 
L 313 1709 
L 2253 4666 
z
" transform="scale(0.015625)"/>
       </defs>
       <use xlink:href="#DejaVuSans-34"/>
       <use xlink:href="#DejaVuSans-30" x="63.623047"/>
      </g>
     </g>
    </g>
    <g id="text_15">
     <!-- Count -->
     <g transform="translate(37.195312 196.648437) rotate(-90) scale(0.1 -0.1)">
      <defs>
       <path id="DejaVuSans-43" d="M 4122 4306 
L 4122 3641 
Q 3803 3938 3442 4084 
Q 3081 4231 2675 4231 
Q 1875 4231 1450 3742 
Q 1025 3253 1025 2328 
Q 1025 1406 1450 917 
Q 1875 428 2675 428 
Q 3081 428 3442 575 
Q 3803 722 4122 1019 
L 4122 359 
Q 3791 134 3420 21 
Q 3050 -91 2638 -91 
Q 1578 -91 968 557 
Q 359 1206 359 2328 
Q 359 3453 968 4101 
Q 1578 4750 2638 4750 
Q 3056 4750 3426 4639 
Q 3797 4528 4122 4306 
z
" transform="scale(0.015625)"/>
       <path id="DejaVuSans-74" d="M 1172 4494 
L 1172 3500 
L 2356 3500 
L 2356 3053 
L 1172 3053 
L 1172 1153 
Q 1172 725 1289 603 
Q 1406 481 1766 481 
L 2356 481 
L 2356 0 
L 1766 0 
Q 1100 0 847 248 
Q 594 497 594 1153 
L 594 3053 
L 172 3053 
L 172 3500 
L 594 3500 
L 594 4494 
L 1172 4494 
z
" transform="scale(0.015625)"/>
      </defs>
      <use xlink:href="#DejaVuSans-43"/>
      <use xlink:href="#DejaVuSans-6f" x="69.824219"/>
      <use xlink:href="#DejaVuSans-75" x="131.005859"/>
      <use xlink:href="#DejaVuSans-6e" x="194.384766"/>
      <use xlink:href="#DejaVuSans-74" x="257.763672"/>
     </g>
    </g>
   </g>
   <g id="patch_131">
    <path d="M 63 320.4 
L 63 43.2 
" style="fill: none; stroke: #000000; stroke-width: 0.8; stroke-linejoin: miter; stroke-linecap: square"/>
   </g>
   <g id="patch_132">
    <path d="M 63 320.4 
L 453.6 320.4 
" style="fill: none; stroke: #000000; stroke-width: 0.8; stroke-linejoin: miter; stroke-linecap: square"/>
   </g>
   <g id="text_16">
    <!-- Organizations by Founded Date and Grouped by Size -->
    <g transform="translate(66.107344 37.2) scale(0.14 -0.14)">
     <defs>
      <path id="LibreBaskerville-Regular-4f" d="M 3027 4992 
Q 3590 4992 4076 4793 
Q 4563 4595 4921 4249 
Q 5280 3904 5485 3437 
Q 5690 2970 5690 2426 
Q 5690 1907 5482 1452 
Q 5274 998 4915 662 
Q 4557 326 4070 131 
Q 3584 -64 3027 -64 
Q 2470 -64 1984 131 
Q 1498 326 1139 662 
Q 781 998 573 1452 
Q 365 1907 365 2426 
Q 365 2970 569 3437 
Q 774 3904 1132 4249 
Q 1491 4595 1977 4793 
Q 2464 4992 3027 4992 
z
M 3027 288 
Q 3450 288 3786 435 
Q 4122 582 4362 857 
Q 4602 1133 4730 1526 
Q 4858 1920 4858 2406 
Q 4858 2918 4730 3331 
Q 4602 3744 4365 4035 
Q 4128 4326 3789 4483 
Q 3450 4640 3027 4640 
Q 2605 4640 2265 4483 
Q 1926 4326 1689 4035 
Q 1453 3744 1325 3331 
Q 1197 2918 1197 2406 
Q 1197 1920 1325 1526 
Q 1453 1133 1689 857 
Q 1926 582 2265 435 
Q 2605 288 3027 288 
z
" transform="scale(0.015625)"/>
      <path id="LibreBaskerville-Regular-72" d="M 1421 1018 
Q 1421 755 1433 601 
Q 1446 448 1500 368 
Q 1555 288 1657 262 
Q 1760 237 1946 224 
L 1946 0 
L 243 0 
L 243 224 
Q 429 230 537 259 
Q 646 288 704 365 
Q 762 442 778 586 
Q 794 730 794 973 
L 794 1722 
Q 794 2157 784 2400 
Q 774 2643 720 2758 
Q 666 2874 550 2896 
Q 435 2918 230 2918 
L 230 3142 
L 1350 3386 
L 1440 2592 
L 1466 2592 
Q 1549 2784 1673 2944 
Q 1798 3104 1945 3216 
Q 2093 3328 2253 3392 
Q 2413 3456 2579 3456 
Q 2784 3456 2902 3357 
Q 3021 3258 3021 3091 
Q 3021 2938 2925 2851 
Q 2829 2765 2650 2765 
Q 2547 2765 2476 2790 
Q 2406 2816 2352 2845 
Q 2298 2874 2250 2899 
Q 2202 2925 2144 2925 
Q 1971 2925 1798 2704 
Q 1626 2483 1530 2144 
Q 1478 1958 1449 1724 
Q 1421 1491 1421 1235 
L 1421 1018 
z
" transform="scale(0.015625)"/>
      <path id="LibreBaskerville-Regular-67" d="M 1754 1376 
Q 2022 1376 2172 1619 
Q 2323 1862 2323 2304 
Q 2323 2739 2172 2979 
Q 2022 3219 1747 3219 
Q 1472 3219 1309 2976 
Q 1146 2733 1146 2310 
Q 1146 1888 1312 1632 
Q 1478 1376 1754 1376 
z
M 1402 627 
Q 1555 614 1683 601 
Q 1811 589 1936 576 
Q 2061 563 2185 544 
Q 2310 525 2458 506 
Q 2918 435 3196 150 
Q 3475 -134 3475 -563 
Q 3475 -1101 3049 -1382 
Q 2624 -1664 1818 -1664 
Q 1459 -1664 1161 -1600 
Q 864 -1536 653 -1417 
Q 442 -1299 323 -1132 
Q 205 -966 205 -768 
Q 205 -634 249 -518 
Q 294 -403 371 -316 
Q 448 -230 553 -179 
Q 659 -128 774 -128 
Q 992 -128 1165 -262 
Q 992 -301 883 -451 
Q 774 -602 774 -794 
Q 774 -1075 1052 -1228 
Q 1331 -1382 1843 -1382 
Q 2938 -1382 2938 -710 
Q 2938 -454 2765 -284 
Q 2592 -115 2355 -83 
Q 2202 -64 2038 -41 
Q 1875 -19 1718 0 
Q 1562 19 1427 32 
Q 1293 45 1210 58 
Q 851 96 665 249 
Q 480 403 480 672 
Q 480 896 665 1069 
Q 851 1242 1133 1286 
L 1133 1312 
Q 992 1370 870 1475 
Q 749 1581 662 1715 
Q 576 1850 525 2006 
Q 474 2163 474 2330 
Q 474 2573 566 2777 
Q 659 2982 828 3132 
Q 998 3283 1228 3369 
Q 1459 3456 1734 3456 
Q 2016 3456 2265 3369 
Q 2515 3283 2694 3117 
Q 2912 3296 3078 3376 
Q 3245 3456 3392 3456 
Q 3622 3456 3760 3350 
Q 3898 3245 3898 3066 
Q 3898 2957 3824 2893 
Q 3750 2829 3642 2829 
Q 3552 2829 3494 2861 
Q 3437 2893 3389 2928 
Q 3341 2963 3289 2995 
Q 3238 3027 3162 3027 
Q 3008 3027 2848 2918 
Q 3002 2682 3002 2323 
Q 3002 1779 2662 1468 
Q 2323 1158 1645 1107 
Q 1254 1075 1100 1024 
Q 947 973 947 838 
Q 947 736 1062 688 
Q 1178 640 1402 627 
z
" transform="scale(0.015625)"/>
      <path id="LibreBaskerville-Regular-61" d="M 2234 1894 
Q 1869 1754 1616 1619 
Q 1363 1485 1209 1350 
Q 1056 1216 989 1081 
Q 922 947 922 806 
Q 922 595 1062 460 
Q 1203 326 1434 326 
Q 1600 326 1744 409 
Q 1888 493 1997 637 
Q 2106 781 2170 976 
Q 2234 1171 2234 1389 
L 2234 1894 
z
M 2234 2170 
L 2234 2432 
Q 2234 3213 1568 3213 
Q 1459 3213 1382 3193 
Q 1306 3174 1254 3129 
Q 1203 3085 1161 3001 
Q 1120 2918 1082 2797 
Q 1011 2611 944 2550 
Q 877 2490 749 2490 
Q 429 2490 429 2810 
Q 429 3117 755 3286 
Q 1082 3456 1683 3456 
Q 2323 3456 2592 3229 
Q 2861 3002 2861 2458 
L 2861 1024 
Q 2861 294 3149 294 
Q 3238 294 3321 316 
Q 3405 339 3462 435 
L 3552 282 
Q 3475 134 3270 35 
Q 3066 -64 2842 -64 
Q 2560 -64 2422 115 
Q 2285 294 2285 621 
L 2253 621 
Q 2086 307 1792 124 
Q 1498 -58 1139 -58 
Q 736 -58 505 147 
Q 275 352 275 698 
Q 275 851 329 992 
Q 384 1133 505 1261 
Q 627 1389 825 1513 
Q 1024 1638 1312 1766 
L 2234 2170 
z
" transform="scale(0.015625)"/>
      <path id="LibreBaskerville-Regular-6e" d="M 1382 1005 
Q 1382 742 1395 592 
Q 1408 442 1462 362 
Q 1517 282 1622 256 
Q 1728 230 1914 218 
L 1914 0 
L 237 0 
L 237 218 
Q 416 230 521 256 
Q 627 282 684 358 
Q 742 435 758 576 
Q 774 717 774 960 
L 774 1811 
Q 774 2573 736 2739 
Q 717 2822 688 2876 
Q 659 2931 601 2960 
Q 544 2989 454 2998 
Q 365 3008 224 3008 
L 224 3213 
L 1248 3456 
L 1325 2822 
L 1350 2822 
Q 1594 3123 1920 3289 
Q 2246 3456 2630 3456 
Q 2925 3456 3168 3360 
Q 3411 3264 3539 3098 
Q 3648 2950 3693 2716 
Q 3738 2483 3738 2074 
L 3738 1005 
Q 3738 742 3754 592 
Q 3770 442 3821 362 
Q 3872 282 3977 256 
Q 4083 230 4256 218 
L 4256 0 
L 2598 0 
L 2598 218 
Q 2778 224 2883 253 
Q 2989 282 3043 358 
Q 3098 435 3114 579 
Q 3130 723 3130 960 
L 3130 1805 
Q 3130 2170 3091 2419 
Q 3053 2669 2966 2822 
Q 2880 2976 2739 3043 
Q 2598 3110 2400 3110 
Q 2112 3110 1872 2960 
Q 1632 2810 1498 2547 
Q 1466 2483 1443 2425 
Q 1421 2368 1408 2291 
Q 1395 2214 1388 2115 
Q 1382 2016 1382 1862 
L 1382 1005 
z
" transform="scale(0.015625)"/>
      <path id="LibreBaskerville-Regular-69" d="M 1459 1018 
Q 1459 768 1481 617 
Q 1504 467 1568 380 
Q 1632 294 1747 262 
Q 1862 230 2054 224 
L 2054 0 
L 218 0 
L 218 224 
Q 410 230 531 265 
Q 653 301 720 381 
Q 787 461 809 605 
Q 832 749 832 973 
L 832 1792 
Q 832 2163 822 2403 
Q 813 2643 787 2733 
Q 755 2880 640 2934 
Q 525 2989 205 2989 
L 205 3213 
L 1459 3456 
L 1459 1018 
z
M 723 4755 
Q 723 4922 838 5037 
Q 954 5152 1120 5152 
Q 1286 5152 1401 5037 
Q 1517 4922 1517 4755 
Q 1517 4589 1401 4473 
Q 1286 4358 1120 4358 
Q 954 4358 838 4473 
Q 723 4589 723 4755 
z
" transform="scale(0.015625)"/>
      <path id="LibreBaskerville-Regular-7a" d="M 3187 0 
L 115 0 
L 115 26 
L 2330 3123 
L 1619 3123 
Q 1344 3123 1168 3100 
Q 992 3078 880 3011 
Q 768 2944 710 2825 
Q 653 2707 621 2509 
L 416 2509 
L 518 3392 
L 3270 3392 
L 3270 3366 
L 1088 294 
L 1837 294 
Q 2163 294 2377 320 
Q 2592 346 2729 422 
Q 2867 499 2947 633 
Q 3027 768 3085 992 
L 3296 992 
L 3187 0 
z
" transform="scale(0.015625)"/>
      <path id="LibreBaskerville-Regular-74" d="M 256 2989 
L 256 3226 
Q 595 3424 787 3622 
Q 979 3821 1082 4096 
L 1267 4096 
L 1267 3290 
L 2125 3290 
L 2125 2989 
L 1267 2989 
L 1267 1043 
Q 1267 819 1289 665 
Q 1312 512 1363 419 
Q 1414 326 1497 288 
Q 1581 250 1709 250 
Q 1869 250 1981 317 
Q 2093 384 2202 544 
L 2362 422 
Q 2272 186 2051 61 
Q 1830 -64 1504 -64 
Q 1082 -64 861 137 
Q 640 339 640 717 
L 640 2989 
L 256 2989 
z
" transform="scale(0.015625)"/>
      <path id="LibreBaskerville-Regular-6f" d="M 2080 3456 
Q 2445 3456 2771 3325 
Q 3098 3194 3344 2963 
Q 3590 2733 3734 2416 
Q 3878 2099 3878 1722 
Q 3878 1331 3734 1004 
Q 3590 678 3344 441 
Q 3098 205 2771 70 
Q 2445 -64 2080 -64 
Q 1722 -64 1398 67 
Q 1075 198 832 435 
Q 589 672 448 1001 
Q 307 1331 307 1722 
Q 307 2099 448 2419 
Q 589 2739 832 2969 
Q 1075 3200 1398 3328 
Q 1722 3456 2080 3456 
z
M 2080 3149 
Q 1843 3149 1648 3046 
Q 1453 2944 1315 2755 
Q 1178 2566 1104 2300 
Q 1030 2035 1030 1715 
Q 1030 1382 1104 1113 
Q 1178 845 1315 656 
Q 1453 467 1645 364 
Q 1837 262 2080 262 
Q 2323 262 2521 364 
Q 2720 467 2861 659 
Q 3002 851 3078 1120 
Q 3155 1389 3155 1715 
Q 3155 2035 3078 2297 
Q 3002 2560 2861 2749 
Q 2720 2938 2521 3043 
Q 2323 3149 2080 3149 
z
" transform="scale(0.015625)"/>
      <path id="LibreBaskerville-Regular-73" d="M 550 0 
L 410 0 
L 410 1101 
L 570 1101 
Q 819 198 1478 198 
Q 1734 198 1884 323 
Q 2035 448 2035 704 
Q 2035 800 2006 867 
Q 1978 934 1898 1008 
Q 1818 1082 1674 1178 
Q 1530 1274 1293 1421 
Q 1075 1555 915 1670 
Q 755 1786 646 1904 
Q 538 2022 483 2156 
Q 429 2291 429 2470 
Q 429 2688 502 2870 
Q 576 3053 704 3181 
Q 832 3309 1005 3382 
Q 1178 3456 1382 3456 
Q 1555 3456 1740 3401 
Q 1926 3347 2067 3258 
L 2195 3392 
L 2317 3392 
L 2317 2470 
L 2150 2470 
Q 2010 2861 1843 3027 
Q 1677 3194 1434 3194 
Q 1216 3194 1085 3078 
Q 954 2963 954 2758 
Q 954 2650 989 2570 
Q 1024 2490 1101 2413 
Q 1178 2336 1296 2256 
Q 1414 2176 1581 2074 
Q 1856 1901 2051 1766 
Q 2246 1632 2368 1501 
Q 2490 1370 2547 1229 
Q 2605 1088 2605 909 
Q 2605 454 2310 195 
Q 2016 -64 1536 -64 
Q 1037 -64 678 224 
L 550 0 
z
" transform="scale(0.015625)"/>
      <path id="LibreBaskerville-Regular-20" transform="scale(0.015625)"/>
      <path id="LibreBaskerville-Regular-62" d="M 1210 1338 
Q 1210 1094 1280 892 
Q 1350 691 1475 547 
Q 1600 403 1776 320 
Q 1952 237 2157 237 
Q 2381 237 2563 339 
Q 2746 442 2877 630 
Q 3008 819 3081 1084 
Q 3155 1350 3155 1677 
Q 3155 2003 3078 2275 
Q 3002 2547 2867 2742 
Q 2733 2938 2544 3046 
Q 2355 3155 2131 3155 
Q 1869 3155 1664 3030 
Q 1459 2906 1350 2682 
Q 1210 2400 1210 1907 
L 1210 1338 
z
M 1197 2938 
L 1222 2938 
Q 1427 3206 1673 3331 
Q 1920 3456 2246 3456 
Q 2592 3456 2889 3321 
Q 3187 3187 3408 2950 
Q 3629 2714 3753 2390 
Q 3878 2067 3878 1696 
Q 3878 1318 3750 995 
Q 3622 672 3401 435 
Q 3181 198 2880 64 
Q 2579 -70 2227 -70 
Q 1862 -70 1545 64 
Q 1229 198 1024 429 
L 723 0 
L 582 0 
L 582 3866 
Q 582 4512 499 4691 
Q 480 4736 454 4765 
Q 429 4794 377 4816 
Q 326 4838 236 4857 
Q 147 4877 -6 4896 
L -6 5056 
L 1197 5312 
L 1197 2938 
z
" transform="scale(0.015625)"/>
      <path id="LibreBaskerville-Regular-79" d="M 1798 -1005 
Q 1504 -1664 883 -1664 
Q 480 -1664 480 -1363 
Q 480 -1203 592 -1129 
Q 704 -1056 1005 -1005 
Q 1139 -986 1235 -950 
Q 1331 -915 1408 -860 
Q 1485 -806 1545 -723 
Q 1606 -640 1664 -518 
L 1888 -70 
L 659 2598 
Q 576 2778 515 2883 
Q 454 2989 387 3049 
Q 320 3110 237 3132 
Q 154 3155 26 3168 
L 26 3392 
L 1722 3392 
L 1722 3168 
Q 1293 3168 1293 2957 
Q 1293 2874 1344 2694 
Q 1395 2515 1472 2330 
L 2176 627 
L 2208 627 
L 2790 2067 
Q 2874 2278 2928 2412 
Q 2982 2547 3011 2633 
Q 3040 2720 3049 2777 
Q 3059 2835 3059 2886 
Q 3059 3053 2966 3110 
Q 2874 3168 2611 3168 
L 2611 3392 
L 4019 3392 
L 4019 3168 
Q 3898 3168 3814 3136 
Q 3731 3104 3644 2992 
Q 3558 2880 3452 2669 
Q 3347 2458 3194 2099 
L 1798 -1005 
z
" transform="scale(0.015625)"/>
      <path id="LibreBaskerville-Regular-46" d="M 1664 1018 
Q 1664 774 1693 624 
Q 1722 474 1818 394 
Q 1914 314 2090 282 
Q 2266 250 2554 243 
L 2554 0 
L 288 0 
L 288 243 
Q 512 250 649 282 
Q 787 314 864 390 
Q 941 467 966 608 
Q 992 749 992 973 
L 992 3955 
Q 992 4179 969 4316 
Q 947 4454 880 4534 
Q 813 4614 685 4643 
Q 557 4672 352 4685 
L 352 4928 
L 4051 4928 
L 4122 3706 
L 3898 3706 
Q 3859 3981 3776 4157 
Q 3693 4333 3542 4435 
Q 3392 4538 3161 4579 
Q 2931 4621 2586 4621 
L 1773 4621 
Q 1664 4621 1664 4512 
L 1664 2579 
Q 1971 2579 2192 2614 
Q 2413 2650 2557 2739 
Q 2701 2829 2777 2982 
Q 2854 3136 2874 3379 
L 3098 3379 
L 3098 1504 
L 2874 1504 
Q 2842 1747 2771 1907 
Q 2701 2067 2563 2156 
Q 2426 2246 2208 2284 
Q 1990 2323 1664 2323 
L 1664 1018 
z
" transform="scale(0.015625)"/>
      <path id="LibreBaskerville-Regular-75" d="M 2963 2368 
Q 2963 2630 2950 2780 
Q 2938 2931 2883 3011 
Q 2829 3091 2723 3120 
Q 2618 3149 2432 3168 
L 2432 3392 
L 3590 3392 
L 3590 1427 
Q 3590 1062 3600 832 
Q 3610 602 3629 486 
Q 3642 403 3670 355 
Q 3699 307 3756 278 
Q 3814 250 3907 240 
Q 4000 230 4147 230 
L 4147 6 
L 3091 -70 
L 3021 698 
L 2995 698 
Q 2752 301 2435 118 
Q 2118 -64 1773 -64 
Q 1504 -64 1251 38 
Q 998 141 870 314 
Q 762 454 714 704 
Q 666 954 666 1350 
L 666 2368 
Q 666 2630 653 2780 
Q 640 2931 585 3011 
Q 531 3091 425 3120 
Q 320 3149 134 3168 
L 134 3392 
L 1293 3392 
L 1293 1645 
Q 1293 947 1456 633 
Q 1619 320 1978 320 
Q 2541 320 2854 1056 
Q 2886 1133 2905 1197 
Q 2925 1261 2937 1337 
Q 2950 1414 2956 1510 
Q 2963 1606 2963 1741 
L 2963 2368 
z
" transform="scale(0.015625)"/>
      <path id="LibreBaskerville-Regular-64" d="M 3098 538 
L 3072 538 
Q 2842 211 2582 73 
Q 2323 -64 1971 -64 
Q 1606 -64 1302 67 
Q 998 198 777 432 
Q 557 666 432 992 
Q 307 1318 307 1702 
Q 307 2080 432 2403 
Q 557 2726 777 2960 
Q 998 3194 1305 3325 
Q 1613 3456 1971 3456 
Q 2278 3456 2518 3353 
Q 2758 3251 2982 3027 
L 2982 3680 
Q 2982 4045 2972 4288 
Q 2963 4531 2944 4621 
Q 2912 4762 2765 4819 
Q 2618 4877 2285 4877 
L 2285 5069 
L 3597 5312 
L 3597 1619 
Q 3597 1178 3603 893 
Q 3610 608 3642 486 
Q 3661 410 3689 358 
Q 3718 307 3772 278 
Q 3827 250 3920 237 
Q 4013 224 4160 224 
L 4160 6 
L 3098 -64 
L 3098 538 
z
M 2970 1952 
Q 2970 2285 2934 2457 
Q 2899 2630 2797 2758 
Q 2650 2950 2422 3049 
Q 2195 3149 1971 3149 
Q 1510 3149 1270 2768 
Q 1030 2387 1030 1734 
Q 1030 1395 1091 1120 
Q 1152 845 1270 649 
Q 1389 454 1565 348 
Q 1741 243 1971 243 
Q 2086 243 2204 268 
Q 2323 294 2435 348 
Q 2547 403 2643 476 
Q 2739 550 2803 646 
Q 2893 787 2931 985 
Q 2970 1184 2970 1530 
L 2970 1952 
z
" transform="scale(0.015625)"/>
      <path id="LibreBaskerville-Regular-65" d="M 3341 595 
Q 2797 -64 1990 -64 
Q 1613 -64 1305 61 
Q 998 186 777 413 
Q 557 640 435 957 
Q 314 1274 314 1658 
Q 314 2048 442 2381 
Q 570 2714 803 2950 
Q 1037 3187 1360 3321 
Q 1683 3456 2067 3456 
Q 2688 3456 3027 3120 
Q 3366 2784 3366 2157 
Q 3366 2067 3331 2048 
Q 3296 2029 3168 2029 
L 1062 2029 
Q 1050 1978 1043 1904 
Q 1037 1830 1037 1741 
Q 1037 1408 1117 1136 
Q 1197 864 1347 672 
Q 1498 480 1706 374 
Q 1914 269 2170 269 
Q 2438 269 2668 387 
Q 2899 506 3142 774 
L 3341 595 
z
M 2285 2323 
Q 2413 2323 2489 2329 
Q 2566 2336 2604 2355 
Q 2643 2374 2656 2409 
Q 2669 2445 2669 2502 
Q 2669 2797 2480 2973 
Q 2291 3149 1965 3149 
Q 1274 3149 1107 2323 
L 2285 2323 
z
" transform="scale(0.015625)"/>
      <path id="LibreBaskerville-Regular-44" d="M 243 0 
L 243 243 
Q 486 250 636 278 
Q 787 307 870 387 
Q 954 467 982 604 
Q 1011 742 1011 973 
L 1011 3955 
Q 1011 4179 988 4316 
Q 966 4454 899 4534 
Q 832 4614 704 4643 
Q 576 4672 371 4685 
L 371 4928 
L 2618 4928 
Q 3194 4928 3683 4736 
Q 4173 4544 4528 4205 
Q 4883 3866 5081 3398 
Q 5280 2931 5280 2381 
Q 5280 1856 5094 1417 
Q 4909 979 4573 665 
Q 4237 352 3769 176 
Q 3302 0 2746 0 
L 243 0 
z
M 1792 4614 
Q 1683 4614 1683 4506 
L 1683 1043 
Q 1683 314 2637 314 
Q 3514 314 3981 835 
Q 4448 1357 4448 2368 
Q 4448 2899 4320 3315 
Q 4192 3731 3952 4019 
Q 3712 4307 3373 4460 
Q 3034 4614 2605 4614 
L 1792 4614 
z
" transform="scale(0.015625)"/>
      <path id="LibreBaskerville-Regular-47" d="M 2739 -64 
Q 2195 -64 1760 109 
Q 1325 282 1017 598 
Q 710 915 547 1369 
Q 384 1824 384 2381 
Q 384 2963 563 3443 
Q 742 3923 1065 4268 
Q 1389 4614 1840 4803 
Q 2291 4992 2835 4992 
Q 3219 4992 3558 4883 
Q 3898 4774 4294 4531 
L 4429 4928 
L 4653 4928 
L 4570 3456 
L 4262 3456 
Q 4262 3770 4144 3997 
Q 4026 4224 3834 4371 
Q 3642 4518 3395 4588 
Q 3149 4659 2893 4659 
Q 2502 4659 2195 4505 
Q 1888 4352 1677 4064 
Q 1466 3776 1354 3360 
Q 1242 2944 1242 2419 
Q 1242 1389 1670 835 
Q 2099 282 2912 282 
Q 3219 282 3462 355 
Q 3706 429 3875 553 
Q 4045 678 4131 841 
Q 4218 1005 4218 1184 
Q 4218 1555 4067 1686 
Q 3917 1818 3578 1818 
L 3578 2061 
L 5395 2061 
L 5395 1818 
Q 5242 1818 5139 1792 
Q 5037 1766 4976 1699 
Q 4915 1632 4892 1523 
Q 4870 1414 4870 1248 
L 4870 531 
Q 4749 531 4649 521 
Q 4550 512 4441 477 
Q 4333 442 4201 381 
Q 4070 320 3891 218 
Q 3667 90 3376 13 
Q 3085 -64 2739 -64 
z
" transform="scale(0.015625)"/>
      <path id="LibreBaskerville-Regular-70" d="M 1344 2931 
L 1370 2931 
Q 1574 3174 1811 3315 
Q 2048 3456 2362 3456 
Q 2726 3456 3030 3325 
Q 3334 3194 3558 2957 
Q 3782 2720 3907 2397 
Q 4032 2074 4032 1690 
Q 4032 1299 3904 976 
Q 3776 653 3552 422 
Q 3328 192 3021 64 
Q 2714 -64 2355 -64 
Q 2061 -64 1821 35 
Q 1581 134 1370 358 
L 1370 -576 
Q 1370 -832 1395 -985 
Q 1421 -1139 1497 -1222 
Q 1574 -1306 1718 -1338 
Q 1862 -1370 2099 -1376 
L 2099 -1600 
L 128 -1600 
L 128 -1376 
Q 320 -1370 438 -1338 
Q 557 -1306 624 -1222 
Q 691 -1139 716 -995 
Q 742 -851 742 -621 
L 742 1773 
Q 742 2144 732 2381 
Q 723 2618 698 2707 
Q 666 2861 550 2915 
Q 435 2970 115 2970 
L 115 3187 
L 1344 3430 
L 1344 2931 
z
M 1536 2746 
Q 1453 2618 1411 2442 
Q 1370 2266 1370 1984 
L 1370 1485 
Q 1370 1312 1379 1187 
Q 1389 1062 1408 972 
Q 1427 883 1459 812 
Q 1491 742 1542 678 
Q 1690 474 1894 362 
Q 2099 250 2323 250 
Q 2765 250 3037 621 
Q 3309 992 3309 1664 
Q 3309 1997 3235 2269 
Q 3162 2541 3027 2736 
Q 2893 2931 2704 3040 
Q 2515 3149 2285 3149 
Q 2054 3149 1859 3043 
Q 1664 2938 1536 2746 
z
" transform="scale(0.015625)"/>
      <path id="LibreBaskerville-Regular-53" d="M 371 1504 
L 608 1504 
Q 653 1216 777 985 
Q 902 755 1091 595 
Q 1280 435 1526 348 
Q 1773 262 2061 262 
Q 2534 262 2809 486 
Q 3085 710 3085 1094 
Q 3085 1254 3030 1388 
Q 2976 1523 2848 1648 
Q 2720 1773 2505 1894 
Q 2291 2016 1965 2157 
Q 1568 2330 1299 2490 
Q 1030 2650 870 2822 
Q 710 2995 643 3190 
Q 576 3386 576 3635 
Q 576 3930 681 4179 
Q 787 4429 979 4611 
Q 1171 4794 1433 4893 
Q 1696 4992 2010 4992 
Q 2291 4992 2534 4902 
Q 2778 4813 3027 4614 
L 3194 4902 
L 3341 4902 
L 3411 3629 
L 3174 3629 
Q 3021 4154 2729 4410 
Q 2438 4666 2029 4666 
Q 1638 4666 1408 4474 
Q 1178 4282 1178 3955 
Q 1178 3802 1229 3677 
Q 1280 3552 1395 3440 
Q 1510 3328 1696 3216 
Q 1882 3104 2157 2982 
Q 2630 2771 2944 2588 
Q 3258 2406 3443 2224 
Q 3629 2042 3705 1840 
Q 3782 1638 3782 1389 
Q 3782 1069 3654 800 
Q 3526 531 3296 339 
Q 3066 147 2746 41 
Q 2426 -64 2042 -64 
Q 1677 -64 1385 38 
Q 1094 141 794 384 
L 614 70 
L 467 70 
L 371 1504 
z
" transform="scale(0.015625)"/>
     </defs>
     <use xlink:href="#LibreBaskerville-Regular-4f"/>
     <use xlink:href="#LibreBaskerville-Regular-72" x="94.599991"/>
     <use xlink:href="#LibreBaskerville-Regular-67" x="142.299988"/>
     <use xlink:href="#LibreBaskerville-Regular-61" x="202.199982"/>
     <use xlink:href="#LibreBaskerville-Regular-6e" x="257.599976"/>
     <use xlink:href="#LibreBaskerville-Regular-69" x="326.499969"/>
     <use xlink:href="#LibreBaskerville-Regular-7a" x="360.59996"/>
     <use xlink:href="#LibreBaskerville-Regular-61" x="416.299957"/>
     <use xlink:href="#LibreBaskerville-Regular-74" x="471.699951"/>
     <use xlink:href="#LibreBaskerville-Regular-69" x="509.499939"/>
     <use xlink:href="#LibreBaskerville-Regular-6f" x="543.59993"/>
     <use xlink:href="#LibreBaskerville-Regular-6e" x="608.999924"/>
     <use xlink:href="#LibreBaskerville-Regular-73" x="677.899918"/>
     <use xlink:href="#LibreBaskerville-Regular-20" x="723.299911"/>
     <use xlink:href="#LibreBaskerville-Regular-62" x="751.999908"/>
     <use xlink:href="#LibreBaskerville-Regular-79" x="817.399902"/>
     <use xlink:href="#LibreBaskerville-Regular-20" x="881.299896"/>
     <use xlink:href="#LibreBaskerville-Regular-46" x="909.999893"/>
     <use xlink:href="#LibreBaskerville-Regular-6f" x="976.999878"/>
     <use xlink:href="#LibreBaskerville-Regular-75" x="1042.399872"/>
     <use xlink:href="#LibreBaskerville-Regular-6e" x="1109.399857"/>
     <use xlink:href="#LibreBaskerville-Regular-64" x="1178.29985"/>
     <use xlink:href="#LibreBaskerville-Regular-65" x="1245.799835"/>
     <use xlink:href="#LibreBaskerville-Regular-64" x="1303.099823"/>
     <use xlink:href="#LibreBaskerville-Regular-20" x="1370.599808"/>
     <use xlink:href="#LibreBaskerville-Regular-44" x="1399.299805"/>
     <use xlink:href="#LibreBaskerville-Regular-61" x="1487.699799"/>
     <use xlink:href="#LibreBaskerville-Regular-74" x="1543.099792"/>
     <use xlink:href="#LibreBaskerville-Regular-65" x="1580.89978"/>
     <use xlink:href="#LibreBaskerville-Regular-20" x="1638.199768"/>
     <use xlink:href="#LibreBaskerville-Regular-61" x="1666.899765"/>
     <use xlink:href="#LibreBaskerville-Regular-6e" x="1722.299759"/>
     <use xlink:href="#LibreBaskerville-Regular-64" x="1791.199753"/>
     <use xlink:href="#LibreBaskerville-Regular-20" x="1858.699738"/>
     <use xlink:href="#LibreBaskerville-Regular-47" x="1887.399734"/>
     <use xlink:href="#LibreBaskerville-Regular-72" x="1974.399719"/>
     <use xlink:href="#LibreBaskerville-Regular-6f" x="2022.099716"/>
     <use xlink:href="#LibreBaskerville-Regular-75" x="2087.49971"/>
     <use xlink:href="#LibreBaskerville-Regular-70" x="2154.499695"/>
     <use xlink:href="#LibreBaskerville-Regular-65" x="2222.399689"/>
     <use xlink:href="#LibreBaskerville-Regular-64" x="2279.699677"/>
     <use xlink:href="#LibreBaskerville-Regular-20" x="2347.199661"/>
     <use xlink:href="#LibreBaskerville-Regular-62" x="2375.899658"/>
     <use xlink:href="#LibreBaskerville-Regular-79" x="2441.299652"/>
     <use xlink:href="#LibreBaskerville-Regular-20" x="2505.199646"/>
     <use xlink:href="#LibreBaskerville-Regular-53" x="2533.899643"/>
     <use xlink:href="#LibreBaskerville-Regular-69" x="2598.399628"/>
     <use xlink:href="#LibreBaskerville-Regular-7a" x="2632.499619"/>
     <use xlink:href="#LibreBaskerville-Regular-65" x="2688.199615"/>
    </g>
   </g>
   <g id="legend_1">
    <g id="patch_133">
     <path d="M 70 183.303125 
L 184.75625 183.303125 
Q 186.75625 183.303125 186.75625 181.303125 
L 186.75625 50.2 
Q 186.75625 48.2 184.75625 48.2 
L 70 48.2 
Q 68 48.2 68 50.2 
L 68 181.303125 
Q 68 183.303125 70 183.303125 
z
" style="fill: #ffffff; opacity: 0.8; stroke: #cccccc; stroke-linejoin: miter"/>
    </g>
    <g id="text_17">
     <!-- categorical -->
     <g transform="translate(99.647656 59.798437) scale(0.1 -0.1)">
      <defs>
       <path id="DejaVuSans-63" d="M 3122 3366 
L 3122 2828 
Q 2878 2963 2633 3030 
Q 2388 3097 2138 3097 
Q 1578 3097 1268 2742 
Q 959 2388 959 1747 
Q 959 1106 1268 751 
Q 1578 397 2138 397 
Q 2388 397 2633 464 
Q 2878 531 3122 666 
L 3122 134 
Q 2881 22 2623 -34 
Q 2366 -91 2075 -91 
Q 1284 -91 818 406 
Q 353 903 353 1747 
Q 353 2603 823 3093 
Q 1294 3584 2113 3584 
Q 2378 3584 2631 3529 
Q 2884 3475 3122 3366 
z
" transform="scale(0.015625)"/>
       <path id="DejaVuSans-61" d="M 2194 1759 
Q 1497 1759 1228 1600 
Q 959 1441 959 1056 
Q 959 750 1161 570 
Q 1363 391 1709 391 
Q 2188 391 2477 730 
Q 2766 1069 2766 1631 
L 2766 1759 
L 2194 1759 
z
M 3341 1997 
L 3341 0 
L 2766 0 
L 2766 531 
Q 2569 213 2275 61 
Q 1981 -91 1556 -91 
Q 1019 -91 701 211 
Q 384 513 384 1019 
Q 384 1609 779 1909 
Q 1175 2209 1959 2209 
L 2766 2209 
L 2766 2266 
Q 2766 2663 2505 2880 
Q 2244 3097 1772 3097 
Q 1472 3097 1187 3025 
Q 903 2953 641 2809 
L 641 3341 
Q 956 3463 1253 3523 
Q 1550 3584 1831 3584 
Q 2591 3584 2966 3190 
Q 3341 2797 3341 1997 
z
" transform="scale(0.015625)"/>
       <path id="DejaVuSans-67" d="M 2906 1791 
Q 2906 2416 2648 2759 
Q 2391 3103 1925 3103 
Q 1463 3103 1205 2759 
Q 947 2416 947 1791 
Q 947 1169 1205 825 
Q 1463 481 1925 481 
Q 2391 481 2648 825 
Q 2906 1169 2906 1791 
z
M 3481 434 
Q 3481 -459 3084 -895 
Q 2688 -1331 1869 -1331 
Q 1566 -1331 1297 -1286 
Q 1028 -1241 775 -1147 
L 775 -588 
Q 1028 -725 1275 -790 
Q 1522 -856 1778 -856 
Q 2344 -856 2625 -561 
Q 2906 -266 2906 331 
L 2906 616 
Q 2728 306 2450 153 
Q 2172 0 1784 0 
Q 1141 0 747 490 
Q 353 981 353 1791 
Q 353 2603 747 3093 
Q 1141 3584 1784 3584 
Q 2172 3584 2450 3431 
Q 2728 3278 2906 2969 
L 2906 3500 
L 3481 3500 
L 3481 434 
z
" transform="scale(0.015625)"/>
       <path id="DejaVuSans-72" d="M 2631 2963 
Q 2534 3019 2420 3045 
Q 2306 3072 2169 3072 
Q 1681 3072 1420 2755 
Q 1159 2438 1159 1844 
L 1159 0 
L 581 0 
L 581 3500 
L 1159 3500 
L 1159 2956 
Q 1341 3275 1631 3429 
Q 1922 3584 2338 3584 
Q 2397 3584 2469 3576 
Q 2541 3569 2628 3553 
L 2631 2963 
z
" transform="scale(0.015625)"/>
       <path id="DejaVuSans-69" d="M 603 3500 
L 1178 3500 
L 1178 0 
L 603 0 
L 603 3500 
z
M 603 4863 
L 1178 4863 
L 1178 4134 
L 603 4134 
L 603 4863 
z
" transform="scale(0.015625)"/>
       <path id="DejaVuSans-6c" d="M 603 4863 
L 1178 4863 
L 1178 0 
L 603 0 
L 603 4863 
z
" transform="scale(0.015625)"/>
      </defs>
      <use xlink:href="#DejaVuSans-63"/>
      <use xlink:href="#DejaVuSans-61" x="54.980469"/>
      <use xlink:href="#DejaVuSans-74" x="116.259766"/>
      <use xlink:href="#DejaVuSans-65" x="155.46875"/>
      <use xlink:href="#DejaVuSans-67" x="216.992188"/>
      <use xlink:href="#DejaVuSans-6f" x="280.46875"/>
      <use xlink:href="#DejaVuSans-72" x="341.650391"/>
      <use xlink:href="#DejaVuSans-69" x="382.763672"/>
      <use xlink:href="#DejaVuSans-63" x="410.546875"/>
      <use xlink:href="#DejaVuSans-61" x="465.527344"/>
      <use xlink:href="#DejaVuSans-6c" x="526.806641"/>
     </g>
    </g>
    <g id="patch_134">
     <path d="M 72 74.476562 
L 92 74.476562 
L 92 67.476562 
L 72 67.476562 
z
" style="fill: #2a1636; fill-opacity: 0.75; stroke: #4c4c4c; stroke-width: 0.5; stroke-linejoin: miter"/>
    </g>
    <g id="text_18">
     <!-- Unknown -->
     <g transform="translate(100 74.476562) scale(0.1 -0.1)">
      <defs>
       <path id="DejaVuSans-55" d="M 556 4666 
L 1191 4666 
L 1191 1831 
Q 1191 1081 1462 751 
Q 1734 422 2344 422 
Q 2950 422 3222 751 
Q 3494 1081 3494 1831 
L 3494 4666 
L 4128 4666 
L 4128 1753 
Q 4128 841 3676 375 
Q 3225 -91 2344 -91 
Q 1459 -91 1007 375 
Q 556 841 556 1753 
L 556 4666 
z
" transform="scale(0.015625)"/>
       <path id="DejaVuSans-6b" d="M 581 4863 
L 1159 4863 
L 1159 1991 
L 2875 3500 
L 3609 3500 
L 1753 1863 
L 3688 0 
L 2938 0 
L 1159 1709 
L 1159 0 
L 581 0 
L 581 4863 
z
" transform="scale(0.015625)"/>
       <path id="DejaVuSans-77" d="M 269 3500 
L 844 3500 
L 1563 769 
L 2278 3500 
L 2956 3500 
L 3675 769 
L 4391 3500 
L 4966 3500 
L 4050 0 
L 3372 0 
L 2619 2869 
L 1863 0 
L 1184 0 
L 269 3500 
z
" transform="scale(0.015625)"/>
      </defs>
      <use xlink:href="#DejaVuSans-55"/>
      <use xlink:href="#DejaVuSans-6e" x="73.193359"/>
      <use xlink:href="#DejaVuSans-6b" x="136.572266"/>
      <use xlink:href="#DejaVuSans-6e" x="194.482422"/>
      <use xlink:href="#DejaVuSans-6f" x="257.861328"/>
      <use xlink:href="#DejaVuSans-77" x="319.042969"/>
      <use xlink:href="#DejaVuSans-6e" x="400.830078"/>
     </g>
    </g>
    <g id="patch_135">
     <path d="M 72 89.154688 
L 92 89.154688 
L 92 82.154688 
L 72 82.154688 
z
" style="fill: #541e4e; fill-opacity: 0.75; stroke: #4c4c4c; stroke-width: 0.5; stroke-linejoin: miter"/>
    </g>
    <g id="text_19">
     <!-- Micro -->
     <g transform="translate(100 89.154688) scale(0.1 -0.1)">
      <defs>
       <path id="DejaVuSans-4d" d="M 628 4666 
L 1569 4666 
L 2759 1491 
L 3956 4666 
L 4897 4666 
L 4897 0 
L 4281 0 
L 4281 4097 
L 3078 897 
L 2444 897 
L 1241 4097 
L 1241 0 
L 628 0 
L 628 4666 
z
" transform="scale(0.015625)"/>
      </defs>
      <use xlink:href="#DejaVuSans-4d"/>
      <use xlink:href="#DejaVuSans-69" x="86.279297"/>
      <use xlink:href="#DejaVuSans-63" x="114.0625"/>
      <use xlink:href="#DejaVuSans-72" x="169.042969"/>
      <use xlink:href="#DejaVuSans-6f" x="207.90625"/>
     </g>
    </g>
    <g id="patch_136">
     <path d="M 72 103.832812 
L 92 103.832812 
L 92 96.832812 
L 72 96.832812 
z
" style="fill: #841e5a; fill-opacity: 0.75; stroke: #4c4c4c; stroke-width: 0.5; stroke-linejoin: miter"/>
    </g>
    <g id="text_20">
     <!-- Small -->
     <g transform="translate(100 103.832812) scale(0.1 -0.1)">
      <defs>
       <path id="DejaVuSans-53" d="M 3425 4513 
L 3425 3897 
Q 3066 4069 2747 4153 
Q 2428 4238 2131 4238 
Q 1616 4238 1336 4038 
Q 1056 3838 1056 3469 
Q 1056 3159 1242 3001 
Q 1428 2844 1947 2747 
L 2328 2669 
Q 3034 2534 3370 2195 
Q 3706 1856 3706 1288 
Q 3706 609 3251 259 
Q 2797 -91 1919 -91 
Q 1588 -91 1214 -16 
Q 841 59 441 206 
L 441 856 
Q 825 641 1194 531 
Q 1563 422 1919 422 
Q 2459 422 2753 634 
Q 3047 847 3047 1241 
Q 3047 1584 2836 1778 
Q 2625 1972 2144 2069 
L 1759 2144 
Q 1053 2284 737 2584 
Q 422 2884 422 3419 
Q 422 4038 858 4394 
Q 1294 4750 2059 4750 
Q 2388 4750 2728 4690 
Q 3069 4631 3425 4513 
z
" transform="scale(0.015625)"/>
       <path id="DejaVuSans-6d" d="M 3328 2828 
Q 3544 3216 3844 3400 
Q 4144 3584 4550 3584 
Q 5097 3584 5394 3201 
Q 5691 2819 5691 2113 
L 5691 0 
L 5113 0 
L 5113 2094 
Q 5113 2597 4934 2840 
Q 4756 3084 4391 3084 
Q 3944 3084 3684 2787 
Q 3425 2491 3425 1978 
L 3425 0 
L 2847 0 
L 2847 2094 
Q 2847 2600 2669 2842 
Q 2491 3084 2119 3084 
Q 1678 3084 1418 2786 
Q 1159 2488 1159 1978 
L 1159 0 
L 581 0 
L 581 3500 
L 1159 3500 
L 1159 2956 
Q 1356 3278 1631 3431 
Q 1906 3584 2284 3584 
Q 2666 3584 2933 3390 
Q 3200 3197 3328 2828 
z
" transform="scale(0.015625)"/>
      </defs>
      <use xlink:href="#DejaVuSans-53"/>
      <use xlink:href="#DejaVuSans-6d" x="63.476562"/>
      <use xlink:href="#DejaVuSans-61" x="160.888672"/>
      <use xlink:href="#DejaVuSans-6c" x="222.167969"/>
      <use xlink:href="#DejaVuSans-6c" x="249.951172"/>
     </g>
    </g>
    <g id="patch_137">
     <path d="M 72 118.510938 
L 92 118.510938 
L 92 111.510938 
L 72 111.510938 
z
" style="fill: #b41658; fill-opacity: 0.75; stroke: #4c4c4c; stroke-width: 0.5; stroke-linejoin: miter"/>
    </g>
    <g id="text_21">
     <!-- Midsize -->
     <g transform="translate(100 118.510938) scale(0.1 -0.1)">
      <defs>
       <path id="DejaVuSans-73" d="M 2834 3397 
L 2834 2853 
Q 2591 2978 2328 3040 
Q 2066 3103 1784 3103 
Q 1356 3103 1142 2972 
Q 928 2841 928 2578 
Q 928 2378 1081 2264 
Q 1234 2150 1697 2047 
L 1894 2003 
Q 2506 1872 2764 1633 
Q 3022 1394 3022 966 
Q 3022 478 2636 193 
Q 2250 -91 1575 -91 
Q 1294 -91 989 -36 
Q 684 19 347 128 
L 347 722 
Q 666 556 975 473 
Q 1284 391 1588 391 
Q 1994 391 2212 530 
Q 2431 669 2431 922 
Q 2431 1156 2273 1281 
Q 2116 1406 1581 1522 
L 1381 1569 
Q 847 1681 609 1914 
Q 372 2147 372 2553 
Q 372 3047 722 3315 
Q 1072 3584 1716 3584 
Q 2034 3584 2315 3537 
Q 2597 3491 2834 3397 
z
" transform="scale(0.015625)"/>
       <path id="DejaVuSans-7a" d="M 353 3500 
L 3084 3500 
L 3084 2975 
L 922 459 
L 3084 459 
L 3084 0 
L 275 0 
L 275 525 
L 2438 3041 
L 353 3041 
L 353 3500 
z
" transform="scale(0.015625)"/>
      </defs>
      <use xlink:href="#DejaVuSans-4d"/>
      <use xlink:href="#DejaVuSans-69" x="86.279297"/>
      <use xlink:href="#DejaVuSans-64" x="114.0625"/>
      <use xlink:href="#DejaVuSans-73" x="177.539062"/>
      <use xlink:href="#DejaVuSans-69" x="229.638672"/>
      <use xlink:href="#DejaVuSans-7a" x="257.421875"/>
      <use xlink:href="#DejaVuSans-65" x="309.912109"/>
     </g>
    </g>
    <g id="patch_138">
     <path d="M 72 133.189063 
L 92 133.189063 
L 92 126.189063 
L 72 126.189063 
z
" style="fill: #dd2c45; fill-opacity: 0.75; stroke: #4c4c4c; stroke-width: 0.5; stroke-linejoin: miter"/>
    </g>
    <g id="text_22">
     <!-- Large -->
     <g transform="translate(100 133.189063) scale(0.1 -0.1)">
      <defs>
       <path id="DejaVuSans-4c" d="M 628 4666 
L 1259 4666 
L 1259 531 
L 3531 531 
L 3531 0 
L 628 0 
L 628 4666 
z
" transform="scale(0.015625)"/>
      </defs>
      <use xlink:href="#DejaVuSans-4c"/>
      <use xlink:href="#DejaVuSans-61" x="55.712891"/>
      <use xlink:href="#DejaVuSans-72" x="116.992188"/>
      <use xlink:href="#DejaVuSans-67" x="156.355469"/>
      <use xlink:href="#DejaVuSans-65" x="219.832031"/>
     </g>
    </g>
    <g id="patch_139">
     <path d="M 72 147.867188 
L 92 147.867188 
L 92 140.867188 
L 72 140.867188 
z
" style="fill: #f06043; fill-opacity: 0.75; stroke: #4c4c4c; stroke-width: 0.5; stroke-linejoin: miter"/>
    </g>
    <g id="text_23">
     <!-- Very Large -->
     <g transform="translate(100 147.867188) scale(0.1 -0.1)">
      <defs>
       <path id="DejaVuSans-56" d="M 1831 0 
L 50 4666 
L 709 4666 
L 2188 738 
L 3669 4666 
L 4325 4666 
L 2547 0 
L 1831 0 
z
" transform="scale(0.015625)"/>
       <path id="DejaVuSans-79" d="M 2059 -325 
Q 1816 -950 1584 -1140 
Q 1353 -1331 966 -1331 
L 506 -1331 
L 506 -850 
L 844 -850 
Q 1081 -850 1212 -737 
Q 1344 -625 1503 -206 
L 1606 56 
L 191 3500 
L 800 3500 
L 1894 763 
L 2988 3500 
L 3597 3500 
L 2059 -325 
z
" transform="scale(0.015625)"/>
       <path id="DejaVuSans-20" transform="scale(0.015625)"/>
      </defs>
      <use xlink:href="#DejaVuSans-56"/>
      <use xlink:href="#DejaVuSans-65" x="60.658203"/>
      <use xlink:href="#DejaVuSans-72" x="122.181641"/>
      <use xlink:href="#DejaVuSans-79" x="163.294922"/>
      <use xlink:href="#DejaVuSans-20" x="222.474609"/>
      <use xlink:href="#DejaVuSans-4c" x="254.261719"/>
      <use xlink:href="#DejaVuSans-61" x="309.974609"/>
      <use xlink:href="#DejaVuSans-72" x="371.253906"/>
      <use xlink:href="#DejaVuSans-67" x="410.617188"/>
      <use xlink:href="#DejaVuSans-65" x="474.09375"/>
     </g>
    </g>
    <g id="patch_140">
     <path d="M 72 162.545312 
L 92 162.545312 
L 92 155.545312 
L 72 155.545312 
z
" style="fill: #f5946b; fill-opacity: 0.75; stroke: #4c4c4c; stroke-width: 0.5; stroke-linejoin: miter"/>
    </g>
    <g id="text_24">
     <!-- Enterprise -->
     <g transform="translate(100 162.545312) scale(0.1 -0.1)">
      <defs>
       <path id="DejaVuSans-45" d="M 628 4666 
L 3578 4666 
L 3578 4134 
L 1259 4134 
L 1259 2753 
L 3481 2753 
L 3481 2222 
L 1259 2222 
L 1259 531 
L 3634 531 
L 3634 0 
L 628 0 
L 628 4666 
z
" transform="scale(0.015625)"/>
       <path id="DejaVuSans-70" d="M 1159 525 
L 1159 -1331 
L 581 -1331 
L 581 3500 
L 1159 3500 
L 1159 2969 
Q 1341 3281 1617 3432 
Q 1894 3584 2278 3584 
Q 2916 3584 3314 3078 
Q 3713 2572 3713 1747 
Q 3713 922 3314 415 
Q 2916 -91 2278 -91 
Q 1894 -91 1617 61 
Q 1341 213 1159 525 
z
M 3116 1747 
Q 3116 2381 2855 2742 
Q 2594 3103 2138 3103 
Q 1681 3103 1420 2742 
Q 1159 2381 1159 1747 
Q 1159 1113 1420 752 
Q 1681 391 2138 391 
Q 2594 391 2855 752 
Q 3116 1113 3116 1747 
z
" transform="scale(0.015625)"/>
      </defs>
      <use xlink:href="#DejaVuSans-45"/>
      <use xlink:href="#DejaVuSans-6e" x="63.183594"/>
      <use xlink:href="#DejaVuSans-74" x="126.5625"/>
      <use xlink:href="#DejaVuSans-65" x="165.771484"/>
      <use xlink:href="#DejaVuSans-72" x="227.294922"/>
      <use xlink:href="#DejaVuSans-70" x="268.408203"/>
      <use xlink:href="#DejaVuSans-72" x="331.884766"/>
      <use xlink:href="#DejaVuSans-69" x="372.998047"/>
      <use xlink:href="#DejaVuSans-73" x="400.78125"/>
      <use xlink:href="#DejaVuSans-65" x="452.880859"/>
     </g>
    </g>
    <g id="patch_141">
     <path d="M 72 177.223437 
L 92 177.223437 
L 92 170.223437 
L 72 170.223437 
z
" style="fill: #f6c19f; fill-opacity: 0.75; stroke: #4c4c4c; stroke-width: 0.5; stroke-linejoin: miter"/>
    </g>
    <g id="text_25">
     <!-- Large Enterprise -->
     <g transform="translate(100 177.223437) scale(0.1 -0.1)">
      <use xlink:href="#DejaVuSans-4c"/>
      <use xlink:href="#DejaVuSans-61" x="55.712891"/>
      <use xlink:href="#DejaVuSans-72" x="116.992188"/>
      <use xlink:href="#DejaVuSans-67" x="156.355469"/>
      <use xlink:href="#DejaVuSans-65" x="219.832031"/>
      <use xlink:href="#DejaVuSans-20" x="281.355469"/>
      <use xlink:href="#DejaVuSans-45" x="313.142578"/>
      <use xlink:href="#DejaVuSans-6e" x="376.326172"/>
      <use xlink:href="#DejaVuSans-74" x="439.705078"/>
      <use xlink:href="#DejaVuSans-65" x="478.914062"/>
      <use xlink:href="#DejaVuSans-72" x="540.4375"/>
      <use xlink:href="#DejaVuSans-70" x="581.550781"/>
      <use xlink:href="#DejaVuSans-72" x="645.027344"/>
      <use xlink:href="#DejaVuSans-69" x="686.140625"/>
      <use xlink:href="#DejaVuSans-73" x="713.923828"/>
      <use xlink:href="#DejaVuSans-65" x="766.023438"/>
     </g>
    </g>
   </g>
  </g>
 </g>
 <defs>
  <clipPath id="p41b6441b2c">
   <rect x="63" y="43.2" width="390.6" height="277.2"/>
  </clipPath>
 </defs>
</svg>
