<?xml version="1.0" encoding="utf-8" standalone="no"?>
<!DOCTYPE svg PUBLIC "-//W3C//DTD SVG 1.1//EN"
  "http://www.w3.org/Graphics/SVG/1.1/DTD/svg11.dtd">
<svg xmlns:xlink="http://www.w3.org/1999/xlink" width="504pt" height="360pt" viewBox="0 0 504 360" xmlns="http://www.w3.org/2000/svg" version="1.1">
 <metadata>
  <rdf:RDF xmlns:dc="http://purl.org/dc/elements/1.1/" xmlns:cc="http://creativecommons.org/ns#" xmlns:rdf="http://www.w3.org/1999/02/22-rdf-syntax-ns#">
   <cc:Work>
    <dc:type rdf:resource="http://purl.org/dc/dcmitype/StillImage"/>
    <dc:date>2023-03-01T13:39:16.244523</dc:date>
    <dc:format>image/svg+xml</dc:format>
    <dc:creator>
     <cc:Agent>
      <dc:title>Matplotlib v3.7.0, https://matplotlib.org/</dc:title>
     </cc:Agent>
    </dc:creator>
   </cc:Work>
  </rdf:RDF>
 </metadata>
 <defs>
  <style type="text/css">*{stroke-linejoin: round; stroke-linecap: butt}</style>
 </defs>
 <g id="figure_1">
  <g id="patch_1">
   <path d="M 0 360 
L 504 360 
L 504 0 
L 0 0 
z
" style="fill: #ffffff"/>
  </g>
  <g id="axes_1">
   <g id="patch_2">
    <path d="M 141.12 320.4 
L 453.6 320.4 
L 453.6 31.68 
L 141.12 31.68 
z
" style="fill: #ffffff"/>
   </g>
   <g id="patch_3">
    <path d="M 141.12 41.304 
L 438.72 41.304 
L 438.72 118.296 
L 141.12 118.296 
z
" clip-path="url(#p304a8ea4c3)" style="fill: #3470a3"/>
   </g>
   <g id="patch_4">
    <path d="M 141.12 137.544 
L 438.72 137.544 
L 438.72 214.536 
L 141.12 214.536 
z
" clip-path="url(#p304a8ea4c3)" style="fill: #79abc9"/>
   </g>
   <g id="patch_5">
    <path d="M 141.12 233.784 
L 319.68 233.784 
L 319.68 310.776 
L 141.12 310.776 
z
" clip-path="url(#p304a8ea4c3)" style="fill: #ccdbea"/>
   </g>
   <g id="matplotlib.axis_1">
    <g id="xtick_1">
     <g id="line2d_1">
      <defs>
       <path id="m0f9647f230" d="M 0 0 
L 0 3.5 
" style="stroke: #000000; stroke-width: 0.8"/>
      </defs>
      <g>
       <use xlink:href="#m0f9647f230" x="141.12" y="320.4" style="stroke: #000000; stroke-width: 0.8"/>
      </g>
     </g>
     <g id="text_1">
      <!-- 0 -->
      <g transform="translate(137.93875 334.998438) scale(0.1 -0.1)">
       <defs>
        <path id="DejaVuSans-30" d="M 2034 4250 
Q 1547 4250 1301 3770 
Q 1056 3291 1056 2328 
Q 1056 1369 1301 889 
Q 1547 409 2034 409 
Q 2525 409 2770 889 
Q 3016 1369 3016 2328 
Q 3016 3291 2770 3770 
Q 2525 4250 2034 4250 
z
M 2034 4750 
Q 2819 4750 3233 4129 
Q 3647 3509 3647 2328 
Q 3647 1150 3233 529 
Q 2819 -91 2034 -91 
Q 1250 -91 836 529 
Q 422 1150 422 2328 
Q 422 3509 836 4129 
Q 1250 4750 2034 4750 
z
" transform="scale(0.015625)"/>
       </defs>
       <use xlink:href="#DejaVuSans-30"/>
      </g>
     </g>
    </g>
    <g id="xtick_2">
     <g id="line2d_2">
      <g>
       <use xlink:href="#m0f9647f230" x="200.64" y="320.4" style="stroke: #000000; stroke-width: 0.8"/>
      </g>
     </g>
     <g id="text_2">
      <!-- 2 -->
      <g transform="translate(197.45875 334.998438) scale(0.1 -0.1)">
       <defs>
        <path id="DejaVuSans-32" d="M 1228 531 
L 3431 531 
L 3431 0 
L 469 0 
L 469 531 
Q 828 903 1448 1529 
Q 2069 2156 2228 2338 
Q 2531 2678 2651 2914 
Q 2772 3150 2772 3378 
Q 2772 3750 2511 3984 
Q 2250 4219 1831 4219 
Q 1534 4219 1204 4116 
Q 875 4013 500 3803 
L 500 4441 
Q 881 4594 1212 4672 
Q 1544 4750 1819 4750 
Q 2544 4750 2975 4387 
Q 3406 4025 3406 3419 
Q 3406 3131 3298 2873 
Q 3191 2616 2906 2266 
Q 2828 2175 2409 1742 
Q 1991 1309 1228 531 
z
" transform="scale(0.015625)"/>
       </defs>
       <use xlink:href="#DejaVuSans-32"/>
      </g>
     </g>
    </g>
    <g id="xtick_3">
     <g id="line2d_3">
      <g>
       <use xlink:href="#m0f9647f230" x="260.16" y="320.4" style="stroke: #000000; stroke-width: 0.8"/>
      </g>
     </g>
     <g id="text_3">
      <!-- 4 -->
      <g transform="translate(256.97875 334.998438) scale(0.1 -0.1)">
       <defs>
        <path id="DejaVuSans-34" d="M 2419 4116 
L 825 1625 
L 2419 1625 
L 2419 4116 
z
M 2253 4666 
L 3047 4666 
L 3047 1625 
L 3713 1625 
L 3713 1100 
L 3047 1100 
L 3047 0 
L 2419 0 
L 2419 1100 
L 313 1100 
L 313 1709 
L 2253 4666 
z
" transform="scale(0.015625)"/>
       </defs>
       <use xlink:href="#DejaVuSans-34"/>
      </g>
     </g>
    </g>
    <g id="xtick_4">
     <g id="line2d_4">
      <g>
       <use xlink:href="#m0f9647f230" x="319.68" y="320.4" style="stroke: #000000; stroke-width: 0.8"/>
      </g>
     </g>
     <g id="text_4">
      <!-- 6 -->
      <g transform="translate(316.49875 334.998438) scale(0.1 -0.1)">
       <defs>
        <path id="DejaVuSans-36" d="M 2113 2584 
Q 1688 2584 1439 2293 
Q 1191 2003 1191 1497 
Q 1191 994 1439 701 
Q 1688 409 2113 409 
Q 2538 409 2786 701 
Q 3034 994 3034 1497 
Q 3034 2003 2786 2293 
Q 2538 2584 2113 2584 
z
M 3366 4563 
L 3366 3988 
Q 3128 4100 2886 4159 
Q 2644 4219 2406 4219 
Q 1781 4219 1451 3797 
Q 1122 3375 1075 2522 
Q 1259 2794 1537 2939 
Q 1816 3084 2150 3084 
Q 2853 3084 3261 2657 
Q 3669 2231 3669 1497 
Q 3669 778 3244 343 
Q 2819 -91 2113 -91 
Q 1303 -91 875 529 
Q 447 1150 447 2328 
Q 447 3434 972 4092 
Q 1497 4750 2381 4750 
Q 2619 4750 2861 4703 
Q 3103 4656 3366 4563 
z
" transform="scale(0.015625)"/>
       </defs>
       <use xlink:href="#DejaVuSans-36"/>
      </g>
     </g>
    </g>
    <g id="xtick_5">
     <g id="line2d_5">
      <g>
       <use xlink:href="#m0f9647f230" x="379.2" y="320.4" style="stroke: #000000; stroke-width: 0.8"/>
      </g>
     </g>
     <g id="text_5">
      <!-- 8 -->
      <g transform="translate(376.01875 334.998438) scale(0.1 -0.1)">
       <defs>
        <path id="DejaVuSans-38" d="M 2034 2216 
Q 1584 2216 1326 1975 
Q 1069 1734 1069 1313 
Q 1069 891 1326 650 
Q 1584 409 2034 409 
Q 2484 409 2743 651 
Q 3003 894 3003 1313 
Q 3003 1734 2745 1975 
Q 2488 2216 2034 2216 
z
M 1403 2484 
Q 997 2584 770 2862 
Q 544 3141 544 3541 
Q 544 4100 942 4425 
Q 1341 4750 2034 4750 
Q 2731 4750 3128 4425 
Q 3525 4100 3525 3541 
Q 3525 3141 3298 2862 
Q 3072 2584 2669 2484 
Q 3125 2378 3379 2068 
Q 3634 1759 3634 1313 
Q 3634 634 3220 271 
Q 2806 -91 2034 -91 
Q 1263 -91 848 271 
Q 434 634 434 1313 
Q 434 1759 690 2068 
Q 947 2378 1403 2484 
z
M 1172 3481 
Q 1172 3119 1398 2916 
Q 1625 2713 2034 2713 
Q 2441 2713 2670 2916 
Q 2900 3119 2900 3481 
Q 2900 3844 2670 4047 
Q 2441 4250 2034 4250 
Q 1625 4250 1398 4047 
Q 1172 3844 1172 3481 
z
" transform="scale(0.015625)"/>
       </defs>
       <use xlink:href="#DejaVuSans-38"/>
      </g>
     </g>
    </g>
    <g id="xtick_6">
     <g id="line2d_6">
      <g>
       <use xlink:href="#m0f9647f230" x="438.72" y="320.4" style="stroke: #000000; stroke-width: 0.8"/>
      </g>
     </g>
     <g id="text_6">
      <!-- 10 -->
      <g transform="translate(432.3575 334.998438) scale(0.1 -0.1)">
       <defs>
        <path id="DejaVuSans-31" d="M 794 531 
L 1825 531 
L 1825 4091 
L 703 3866 
L 703 4441 
L 1819 4666 
L 2450 4666 
L 2450 531 
L 3481 531 
L 3481 0 
L 794 0 
L 794 531 
z
" transform="scale(0.015625)"/>
       </defs>
       <use xlink:href="#DejaVuSans-31"/>
       <use xlink:href="#DejaVuSans-30" x="63.623047"/>
      </g>
     </g>
    </g>
    <g id="text_7">
     <!-- count -->
     <g transform="translate(283.25375 348.676562) scale(0.1 -0.1)">
      <defs>
       <path id="DejaVuSans-63" d="M 3122 3366 
L 3122 2828 
Q 2878 2963 2633 3030 
Q 2388 3097 2138 3097 
Q 1578 3097 1268 2742 
Q 959 2388 959 1747 
Q 959 1106 1268 751 
Q 1578 397 2138 397 
Q 2388 397 2633 464 
Q 2878 531 3122 666 
L 3122 134 
Q 2881 22 2623 -34 
Q 2366 -91 2075 -91 
Q 1284 -91 818 406 
Q 353 903 353 1747 
Q 353 2603 823 3093 
Q 1294 3584 2113 3584 
Q 2378 3584 2631 3529 
Q 2884 3475 3122 3366 
z
" transform="scale(0.015625)"/>
       <path id="DejaVuSans-6f" d="M 1959 3097 
Q 1497 3097 1228 2736 
Q 959 2375 959 1747 
Q 959 1119 1226 758 
Q 1494 397 1959 397 
Q 2419 397 2687 759 
Q 2956 1122 2956 1747 
Q 2956 2369 2687 2733 
Q 2419 3097 1959 3097 
z
M 1959 3584 
Q 2709 3584 3137 3096 
Q 3566 2609 3566 1747 
Q 3566 888 3137 398 
Q 2709 -91 1959 -91 
Q 1206 -91 779 398 
Q 353 888 353 1747 
Q 353 2609 779 3096 
Q 1206 3584 1959 3584 
z
" transform="scale(0.015625)"/>
       <path id="DejaVuSans-75" d="M 544 1381 
L 544 3500 
L 1119 3500 
L 1119 1403 
Q 1119 906 1312 657 
Q 1506 409 1894 409 
Q 2359 409 2629 706 
Q 2900 1003 2900 1516 
L 2900 3500 
L 3475 3500 
L 3475 0 
L 2900 0 
L 2900 538 
Q 2691 219 2414 64 
Q 2138 -91 1772 -91 
Q 1169 -91 856 284 
Q 544 659 544 1381 
z
M 1991 3584 
L 1991 3584 
z
" transform="scale(0.015625)"/>
       <path id="DejaVuSans-6e" d="M 3513 2113 
L 3513 0 
L 2938 0 
L 2938 2094 
Q 2938 2591 2744 2837 
Q 2550 3084 2163 3084 
Q 1697 3084 1428 2787 
Q 1159 2491 1159 1978 
L 1159 0 
L 581 0 
L 581 3500 
L 1159 3500 
L 1159 2956 
Q 1366 3272 1645 3428 
Q 1925 3584 2291 3584 
Q 2894 3584 3203 3211 
Q 3513 2838 3513 2113 
z
" transform="scale(0.015625)"/>
       <path id="DejaVuSans-74" d="M 1172 4494 
L 1172 3500 
L 2356 3500 
L 2356 3053 
L 1172 3053 
L 1172 1153 
Q 1172 725 1289 603 
Q 1406 481 1766 481 
L 2356 481 
L 2356 0 
L 1766 0 
Q 1100 0 847 248 
Q 594 497 594 1153 
L 594 3053 
L 172 3053 
L 172 3500 
L 594 3500 
L 594 4494 
L 1172 4494 
z
" transform="scale(0.015625)"/>
      </defs>
      <use xlink:href="#DejaVuSans-63"/>
      <use xlink:href="#DejaVuSans-6f" x="54.980469"/>
      <use xlink:href="#DejaVuSans-75" x="116.162109"/>
      <use xlink:href="#DejaVuSans-6e" x="179.541016"/>
      <use xlink:href="#DejaVuSans-74" x="242.919922"/>
     </g>
    </g>
   </g>
   <g id="matplotlib.axis_2">
    <g id="ytick_1">
     <g id="line2d_7">
      <defs>
       <path id="m05a063ff39" d="M 0 0 
L -3.5 0 
" style="stroke: #000000; stroke-width: 0.8"/>
      </defs>
      <g>
       <use xlink:href="#m05a063ff39" x="141.12" y="79.8" style="stroke: #000000; stroke-width: 0.8"/>
      </g>
     </g>
     <g id="text_8">
      <!-- TypeScript -->
      <g transform="translate(82.149687 83.599219) scale(0.1 -0.1)">
       <defs>
        <path id="DejaVuSans-54" d="M -19 4666 
L 3928 4666 
L 3928 4134 
L 2272 4134 
L 2272 0 
L 1638 0 
L 1638 4134 
L -19 4134 
L -19 4666 
z
" transform="scale(0.015625)"/>
        <path id="DejaVuSans-79" d="M 2059 -325 
Q 1816 -950 1584 -1140 
Q 1353 -1331 966 -1331 
L 506 -1331 
L 506 -850 
L 844 -850 
Q 1081 -850 1212 -737 
Q 1344 -625 1503 -206 
L 1606 56 
L 191 3500 
L 800 3500 
L 1894 763 
L 2988 3500 
L 3597 3500 
L 2059 -325 
z
" transform="scale(0.015625)"/>
        <path id="DejaVuSans-70" d="M 1159 525 
L 1159 -1331 
L 581 -1331 
L 581 3500 
L 1159 3500 
L 1159 2969 
Q 1341 3281 1617 3432 
Q 1894 3584 2278 3584 
Q 2916 3584 3314 3078 
Q 3713 2572 3713 1747 
Q 3713 922 3314 415 
Q 2916 -91 2278 -91 
Q 1894 -91 1617 61 
Q 1341 213 1159 525 
z
M 3116 1747 
Q 3116 2381 2855 2742 
Q 2594 3103 2138 3103 
Q 1681 3103 1420 2742 
Q 1159 2381 1159 1747 
Q 1159 1113 1420 752 
Q 1681 391 2138 391 
Q 2594 391 2855 752 
Q 3116 1113 3116 1747 
z
" transform="scale(0.015625)"/>
        <path id="DejaVuSans-65" d="M 3597 1894 
L 3597 1613 
L 953 1613 
Q 991 1019 1311 708 
Q 1631 397 2203 397 
Q 2534 397 2845 478 
Q 3156 559 3463 722 
L 3463 178 
Q 3153 47 2828 -22 
Q 2503 -91 2169 -91 
Q 1331 -91 842 396 
Q 353 884 353 1716 
Q 353 2575 817 3079 
Q 1281 3584 2069 3584 
Q 2775 3584 3186 3129 
Q 3597 2675 3597 1894 
z
M 3022 2063 
Q 3016 2534 2758 2815 
Q 2500 3097 2075 3097 
Q 1594 3097 1305 2825 
Q 1016 2553 972 2059 
L 3022 2063 
z
" transform="scale(0.015625)"/>
        <path id="DejaVuSans-53" d="M 3425 4513 
L 3425 3897 
Q 3066 4069 2747 4153 
Q 2428 4238 2131 4238 
Q 1616 4238 1336 4038 
Q 1056 3838 1056 3469 
Q 1056 3159 1242 3001 
Q 1428 2844 1947 2747 
L 2328 2669 
Q 3034 2534 3370 2195 
Q 3706 1856 3706 1288 
Q 3706 609 3251 259 
Q 2797 -91 1919 -91 
Q 1588 -91 1214 -16 
Q 841 59 441 206 
L 441 856 
Q 825 641 1194 531 
Q 1563 422 1919 422 
Q 2459 422 2753 634 
Q 3047 847 3047 1241 
Q 3047 1584 2836 1778 
Q 2625 1972 2144 2069 
L 1759 2144 
Q 1053 2284 737 2584 
Q 422 2884 422 3419 
Q 422 4038 858 4394 
Q 1294 4750 2059 4750 
Q 2388 4750 2728 4690 
Q 3069 4631 3425 4513 
z
" transform="scale(0.015625)"/>
        <path id="DejaVuSans-72" d="M 2631 2963 
Q 2534 3019 2420 3045 
Q 2306 3072 2169 3072 
Q 1681 3072 1420 2755 
Q 1159 2438 1159 1844 
L 1159 0 
L 581 0 
L 581 3500 
L 1159 3500 
L 1159 2956 
Q 1341 3275 1631 3429 
Q 1922 3584 2338 3584 
Q 2397 3584 2469 3576 
Q 2541 3569 2628 3553 
L 2631 2963 
z
" transform="scale(0.015625)"/>
        <path id="DejaVuSans-69" d="M 603 3500 
L 1178 3500 
L 1178 0 
L 603 0 
L 603 3500 
z
M 603 4863 
L 1178 4863 
L 1178 4134 
L 603 4134 
L 603 4863 
z
" transform="scale(0.015625)"/>
       </defs>
       <use xlink:href="#DejaVuSans-54"/>
       <use xlink:href="#DejaVuSans-79" x="45.458984"/>
       <use xlink:href="#DejaVuSans-70" x="104.638672"/>
       <use xlink:href="#DejaVuSans-65" x="168.115234"/>
       <use xlink:href="#DejaVuSans-53" x="229.638672"/>
       <use xlink:href="#DejaVuSans-63" x="293.115234"/>
       <use xlink:href="#DejaVuSans-72" x="348.095703"/>
       <use xlink:href="#DejaVuSans-69" x="389.208984"/>
       <use xlink:href="#DejaVuSans-70" x="416.992188"/>
       <use xlink:href="#DejaVuSans-74" x="480.46875"/>
      </g>
     </g>
    </g>
    <g id="ytick_2">
     <g id="line2d_8">
      <g>
       <use xlink:href="#m05a063ff39" x="141.12" y="176.04" style="stroke: #000000; stroke-width: 0.8"/>
      </g>
     </g>
     <g id="text_9">
      <!-- Handlebars.js -->
      <g transform="translate(65.891875 179.839219) scale(0.1 -0.1)">
       <defs>
        <path id="DejaVuSans-48" d="M 628 4666 
L 1259 4666 
L 1259 2753 
L 3553 2753 
L 3553 4666 
L 4184 4666 
L 4184 0 
L 3553 0 
L 3553 2222 
L 1259 2222 
L 1259 0 
L 628 0 
L 628 4666 
z
" transform="scale(0.015625)"/>
        <path id="DejaVuSans-61" d="M 2194 1759 
Q 1497 1759 1228 1600 
Q 959 1441 959 1056 
Q 959 750 1161 570 
Q 1363 391 1709 391 
Q 2188 391 2477 730 
Q 2766 1069 2766 1631 
L 2766 1759 
L 2194 1759 
z
M 3341 1997 
L 3341 0 
L 2766 0 
L 2766 531 
Q 2569 213 2275 61 
Q 1981 -91 1556 -91 
Q 1019 -91 701 211 
Q 384 513 384 1019 
Q 384 1609 779 1909 
Q 1175 2209 1959 2209 
L 2766 2209 
L 2766 2266 
Q 2766 2663 2505 2880 
Q 2244 3097 1772 3097 
Q 1472 3097 1187 3025 
Q 903 2953 641 2809 
L 641 3341 
Q 956 3463 1253 3523 
Q 1550 3584 1831 3584 
Q 2591 3584 2966 3190 
Q 3341 2797 3341 1997 
z
" transform="scale(0.015625)"/>
        <path id="DejaVuSans-64" d="M 2906 2969 
L 2906 4863 
L 3481 4863 
L 3481 0 
L 2906 0 
L 2906 525 
Q 2725 213 2448 61 
Q 2172 -91 1784 -91 
Q 1150 -91 751 415 
Q 353 922 353 1747 
Q 353 2572 751 3078 
Q 1150 3584 1784 3584 
Q 2172 3584 2448 3432 
Q 2725 3281 2906 2969 
z
M 947 1747 
Q 947 1113 1208 752 
Q 1469 391 1925 391 
Q 2381 391 2643 752 
Q 2906 1113 2906 1747 
Q 2906 2381 2643 2742 
Q 2381 3103 1925 3103 
Q 1469 3103 1208 2742 
Q 947 2381 947 1747 
z
" transform="scale(0.015625)"/>
        <path id="DejaVuSans-6c" d="M 603 4863 
L 1178 4863 
L 1178 0 
L 603 0 
L 603 4863 
z
" transform="scale(0.015625)"/>
        <path id="DejaVuSans-62" d="M 3116 1747 
Q 3116 2381 2855 2742 
Q 2594 3103 2138 3103 
Q 1681 3103 1420 2742 
Q 1159 2381 1159 1747 
Q 1159 1113 1420 752 
Q 1681 391 2138 391 
Q 2594 391 2855 752 
Q 3116 1113 3116 1747 
z
M 1159 2969 
Q 1341 3281 1617 3432 
Q 1894 3584 2278 3584 
Q 2916 3584 3314 3078 
Q 3713 2572 3713 1747 
Q 3713 922 3314 415 
Q 2916 -91 2278 -91 
Q 1894 -91 1617 61 
Q 1341 213 1159 525 
L 1159 0 
L 581 0 
L 581 4863 
L 1159 4863 
L 1159 2969 
z
" transform="scale(0.015625)"/>
        <path id="DejaVuSans-73" d="M 2834 3397 
L 2834 2853 
Q 2591 2978 2328 3040 
Q 2066 3103 1784 3103 
Q 1356 3103 1142 2972 
Q 928 2841 928 2578 
Q 928 2378 1081 2264 
Q 1234 2150 1697 2047 
L 1894 2003 
Q 2506 1872 2764 1633 
Q 3022 1394 3022 966 
Q 3022 478 2636 193 
Q 2250 -91 1575 -91 
Q 1294 -91 989 -36 
Q 684 19 347 128 
L 347 722 
Q 666 556 975 473 
Q 1284 391 1588 391 
Q 1994 391 2212 530 
Q 2431 669 2431 922 
Q 2431 1156 2273 1281 
Q 2116 1406 1581 1522 
L 1381 1569 
Q 847 1681 609 1914 
Q 372 2147 372 2553 
Q 372 3047 722 3315 
Q 1072 3584 1716 3584 
Q 2034 3584 2315 3537 
Q 2597 3491 2834 3397 
z
" transform="scale(0.015625)"/>
        <path id="DejaVuSans-2e" d="M 684 794 
L 1344 794 
L 1344 0 
L 684 0 
L 684 794 
z
" transform="scale(0.015625)"/>
        <path id="DejaVuSans-6a" d="M 603 3500 
L 1178 3500 
L 1178 -63 
Q 1178 -731 923 -1031 
Q 669 -1331 103 -1331 
L -116 -1331 
L -116 -844 
L 38 -844 
Q 366 -844 484 -692 
Q 603 -541 603 -63 
L 603 3500 
z
M 603 4863 
L 1178 4863 
L 1178 4134 
L 603 4134 
L 603 4863 
z
" transform="scale(0.015625)"/>
       </defs>
       <use xlink:href="#DejaVuSans-48"/>
       <use xlink:href="#DejaVuSans-61" x="75.195312"/>
       <use xlink:href="#DejaVuSans-6e" x="136.474609"/>
       <use xlink:href="#DejaVuSans-64" x="199.853516"/>
       <use xlink:href="#DejaVuSans-6c" x="263.330078"/>
       <use xlink:href="#DejaVuSans-65" x="291.113281"/>
       <use xlink:href="#DejaVuSans-62" x="352.636719"/>
       <use xlink:href="#DejaVuSans-61" x="416.113281"/>
       <use xlink:href="#DejaVuSans-72" x="477.392578"/>
       <use xlink:href="#DejaVuSans-73" x="518.505859"/>
       <use xlink:href="#DejaVuSans-2e" x="570.605469"/>
       <use xlink:href="#DejaVuSans-6a" x="602.392578"/>
       <use xlink:href="#DejaVuSans-73" x="630.175781"/>
      </g>
     </g>
    </g>
    <g id="ytick_3">
     <g id="line2d_9">
      <g>
       <use xlink:href="#m05a063ff39" x="141.12" y="272.28" style="stroke: #000000; stroke-width: 0.8"/>
      </g>
     </g>
     <g id="text_10">
      <!-- Mustache -->
      <g transform="translate(85.9075 276.079219) scale(0.1 -0.1)">
       <defs>
        <path id="DejaVuSans-4d" d="M 628 4666 
L 1569 4666 
L 2759 1491 
L 3956 4666 
L 4897 4666 
L 4897 0 
L 4281 0 
L 4281 4097 
L 3078 897 
L 2444 897 
L 1241 4097 
L 1241 0 
L 628 0 
L 628 4666 
z
" transform="scale(0.015625)"/>
        <path id="DejaVuSans-68" d="M 3513 2113 
L 3513 0 
L 2938 0 
L 2938 2094 
Q 2938 2591 2744 2837 
Q 2550 3084 2163 3084 
Q 1697 3084 1428 2787 
Q 1159 2491 1159 1978 
L 1159 0 
L 581 0 
L 581 4863 
L 1159 4863 
L 1159 2956 
Q 1366 3272 1645 3428 
Q 1925 3584 2291 3584 
Q 2894 3584 3203 3211 
Q 3513 2838 3513 2113 
z
" transform="scale(0.015625)"/>
       </defs>
       <use xlink:href="#DejaVuSans-4d"/>
       <use xlink:href="#DejaVuSans-75" x="86.279297"/>
       <use xlink:href="#DejaVuSans-73" x="149.658203"/>
       <use xlink:href="#DejaVuSans-74" x="201.757812"/>
       <use xlink:href="#DejaVuSans-61" x="240.966797"/>
       <use xlink:href="#DejaVuSans-63" x="302.246094"/>
       <use xlink:href="#DejaVuSans-68" x="357.226562"/>
       <use xlink:href="#DejaVuSans-65" x="420.605469"/>
      </g>
     </g>
    </g>
    <g id="text_11">
     <!-- name -->
     <g transform="translate(59.812188 190.219687) rotate(-90) scale(0.1 -0.1)">
      <defs>
       <path id="DejaVuSans-6d" d="M 3328 2828 
Q 3544 3216 3844 3400 
Q 4144 3584 4550 3584 
Q 5097 3584 5394 3201 
Q 5691 2819 5691 2113 
L 5691 0 
L 5113 0 
L 5113 2094 
Q 5113 2597 4934 2840 
Q 4756 3084 4391 3084 
Q 3944 3084 3684 2787 
Q 3425 2491 3425 1978 
L 3425 0 
L 2847 0 
L 2847 2094 
Q 2847 2600 2669 2842 
Q 2491 3084 2119 3084 
Q 1678 3084 1418 2786 
Q 1159 2488 1159 1978 
L 1159 0 
L 581 0 
L 581 3500 
L 1159 3500 
L 1159 2956 
Q 1356 3278 1631 3431 
Q 1906 3584 2284 3584 
Q 2666 3584 2933 3390 
Q 3200 3197 3328 2828 
z
" transform="scale(0.015625)"/>
      </defs>
      <use xlink:href="#DejaVuSans-6e"/>
      <use xlink:href="#DejaVuSans-61" x="63.378906"/>
      <use xlink:href="#DejaVuSans-6d" x="124.658203"/>
      <use xlink:href="#DejaVuSans-65" x="222.070312"/>
     </g>
    </g>
   </g>
   <g id="patch_6">
    <path d="M 141.12 320.4 
L 141.12 31.68 
" style="fill: none; stroke: #000000; stroke-width: 0.8; stroke-linejoin: miter; stroke-linecap: square"/>
   </g>
   <g id="patch_7">
    <path d="M 141.12 320.4 
L 453.6 320.4 
" style="fill: none; stroke: #000000; stroke-width: 0.8; stroke-linejoin: miter; stroke-linecap: square"/>
   </g>
   <g id="text_12">
    <!-- Top Templating Languages &amp; Extensions -->
    <g transform="translate(149.220313 25.68) scale(0.14 -0.14)">
     <defs>
      <path id="LibreBaskerville-Regular-54" d="M 5030 3706 
L 4768 3706 
Q 4749 3981 4678 4166 
Q 4608 4352 4477 4457 
Q 4346 4563 4147 4608 
Q 3949 4653 3674 4653 
Q 3437 4653 3293 4643 
Q 3149 4634 3072 4608 
Q 2995 4582 2972 4547 
Q 2950 4512 2950 4454 
L 2950 1030 
Q 2950 826 2979 678 
Q 3008 531 3094 438 
Q 3181 346 3344 298 
Q 3507 250 3776 243 
L 3776 0 
L 1357 0 
L 1357 243 
Q 1626 250 1792 298 
Q 1958 346 2044 438 
Q 2131 531 2160 678 
Q 2189 826 2189 1030 
L 2189 4454 
Q 2189 4512 2166 4547 
Q 2144 4582 2077 4608 
Q 2010 4634 1888 4643 
Q 1766 4653 1562 4653 
Q 1312 4653 1097 4633 
Q 883 4614 726 4521 
Q 570 4429 474 4237 
Q 378 4045 371 3706 
L 134 3706 
L 134 4928 
L 4966 4928 
L 5030 3706 
z
" transform="scale(0.015625)"/>
      <path id="LibreBaskerville-Regular-6f" d="M 2080 3456 
Q 2445 3456 2771 3325 
Q 3098 3194 3344 2963 
Q 3590 2733 3734 2416 
Q 3878 2099 3878 1722 
Q 3878 1331 3734 1004 
Q 3590 678 3344 441 
Q 3098 205 2771 70 
Q 2445 -64 2080 -64 
Q 1722 -64 1398 67 
Q 1075 198 832 435 
Q 589 672 448 1001 
Q 307 1331 307 1722 
Q 307 2099 448 2419 
Q 589 2739 832 2969 
Q 1075 3200 1398 3328 
Q 1722 3456 2080 3456 
z
M 2080 3149 
Q 1843 3149 1648 3046 
Q 1453 2944 1315 2755 
Q 1178 2566 1104 2300 
Q 1030 2035 1030 1715 
Q 1030 1382 1104 1113 
Q 1178 845 1315 656 
Q 1453 467 1645 364 
Q 1837 262 2080 262 
Q 2323 262 2521 364 
Q 2720 467 2861 659 
Q 3002 851 3078 1120 
Q 3155 1389 3155 1715 
Q 3155 2035 3078 2297 
Q 3002 2560 2861 2749 
Q 2720 2938 2521 3043 
Q 2323 3149 2080 3149 
z
" transform="scale(0.015625)"/>
      <path id="LibreBaskerville-Regular-70" d="M 1344 2931 
L 1370 2931 
Q 1574 3174 1811 3315 
Q 2048 3456 2362 3456 
Q 2726 3456 3030 3325 
Q 3334 3194 3558 2957 
Q 3782 2720 3907 2397 
Q 4032 2074 4032 1690 
Q 4032 1299 3904 976 
Q 3776 653 3552 422 
Q 3328 192 3021 64 
Q 2714 -64 2355 -64 
Q 2061 -64 1821 35 
Q 1581 134 1370 358 
L 1370 -576 
Q 1370 -832 1395 -985 
Q 1421 -1139 1497 -1222 
Q 1574 -1306 1718 -1338 
Q 1862 -1370 2099 -1376 
L 2099 -1600 
L 128 -1600 
L 128 -1376 
Q 320 -1370 438 -1338 
Q 557 -1306 624 -1222 
Q 691 -1139 716 -995 
Q 742 -851 742 -621 
L 742 1773 
Q 742 2144 732 2381 
Q 723 2618 698 2707 
Q 666 2861 550 2915 
Q 435 2970 115 2970 
L 115 3187 
L 1344 3430 
L 1344 2931 
z
M 1536 2746 
Q 1453 2618 1411 2442 
Q 1370 2266 1370 1984 
L 1370 1485 
Q 1370 1312 1379 1187 
Q 1389 1062 1408 972 
Q 1427 883 1459 812 
Q 1491 742 1542 678 
Q 1690 474 1894 362 
Q 2099 250 2323 250 
Q 2765 250 3037 621 
Q 3309 992 3309 1664 
Q 3309 1997 3235 2269 
Q 3162 2541 3027 2736 
Q 2893 2931 2704 3040 
Q 2515 3149 2285 3149 
Q 2054 3149 1859 3043 
Q 1664 2938 1536 2746 
z
" transform="scale(0.015625)"/>
      <path id="LibreBaskerville-Regular-20" transform="scale(0.015625)"/>
      <path id="LibreBaskerville-Regular-65" d="M 3341 595 
Q 2797 -64 1990 -64 
Q 1613 -64 1305 61 
Q 998 186 777 413 
Q 557 640 435 957 
Q 314 1274 314 1658 
Q 314 2048 442 2381 
Q 570 2714 803 2950 
Q 1037 3187 1360 3321 
Q 1683 3456 2067 3456 
Q 2688 3456 3027 3120 
Q 3366 2784 3366 2157 
Q 3366 2067 3331 2048 
Q 3296 2029 3168 2029 
L 1062 2029 
Q 1050 1978 1043 1904 
Q 1037 1830 1037 1741 
Q 1037 1408 1117 1136 
Q 1197 864 1347 672 
Q 1498 480 1706 374 
Q 1914 269 2170 269 
Q 2438 269 2668 387 
Q 2899 506 3142 774 
L 3341 595 
z
M 2285 2323 
Q 2413 2323 2489 2329 
Q 2566 2336 2604 2355 
Q 2643 2374 2656 2409 
Q 2669 2445 2669 2502 
Q 2669 2797 2480 2973 
Q 2291 3149 1965 3149 
Q 1274 3149 1107 2323 
L 2285 2323 
z
" transform="scale(0.015625)"/>
      <path id="LibreBaskerville-Regular-6d" d="M 1414 1024 
Q 1414 755 1427 601 
Q 1440 448 1494 368 
Q 1549 288 1651 262 
Q 1754 237 1939 224 
L 1939 0 
L 237 0 
L 237 224 
Q 422 237 531 262 
Q 640 288 697 365 
Q 755 442 771 586 
Q 787 730 787 973 
L 787 1792 
Q 787 2157 777 2400 
Q 768 2643 742 2733 
Q 723 2816 697 2864 
Q 672 2912 614 2941 
Q 557 2970 464 2979 
Q 371 2989 224 2989 
L 224 3213 
L 1267 3456 
L 1350 2816 
L 1382 2816 
Q 1670 3142 1987 3299 
Q 2304 3456 2688 3456 
Q 3091 3456 3366 3293 
Q 3642 3130 3750 2822 
L 3776 2822 
Q 4013 3123 4352 3289 
Q 4691 3456 5075 3456 
Q 5376 3456 5622 3357 
Q 5869 3258 5997 3085 
Q 6112 2938 6160 2698 
Q 6208 2458 6208 2042 
L 6208 1024 
Q 6208 762 6224 608 
Q 6240 454 6291 371 
Q 6342 288 6448 262 
Q 6554 237 6739 224 
L 6739 0 
L 5037 0 
L 5037 224 
Q 5216 230 5325 259 
Q 5434 288 5491 368 
Q 5549 448 5565 589 
Q 5581 730 5581 973 
L 5581 1779 
Q 5581 2144 5542 2397 
Q 5504 2650 5414 2806 
Q 5325 2963 5181 3033 
Q 5037 3104 4832 3104 
Q 4550 3104 4304 2947 
Q 4058 2790 3917 2528 
Q 3885 2464 3862 2403 
Q 3840 2342 3827 2268 
Q 3814 2195 3811 2092 
Q 3808 1990 3808 1837 
L 3808 1024 
Q 3808 762 3821 608 
Q 3834 454 3888 371 
Q 3942 288 4051 262 
Q 4160 237 4346 224 
L 4346 0 
L 2643 0 
L 2643 224 
Q 2822 237 2931 262 
Q 3040 288 3094 365 
Q 3149 442 3165 586 
Q 3181 730 3181 973 
L 3181 1779 
Q 3181 2150 3142 2403 
Q 3104 2656 3017 2813 
Q 2931 2970 2790 3037 
Q 2650 3104 2445 3104 
Q 2157 3104 1904 2947 
Q 1651 2790 1523 2528 
Q 1491 2464 1468 2403 
Q 1446 2342 1433 2268 
Q 1421 2195 1417 2092 
Q 1414 1990 1414 1837 
L 1414 1024 
z
" transform="scale(0.015625)"/>
      <path id="LibreBaskerville-Regular-6c" d="M 1338 998 
Q 1338 755 1357 608 
Q 1376 461 1437 377 
Q 1498 294 1610 262 
Q 1722 230 1907 224 
L 1907 0 
L 141 0 
L 141 224 
Q 333 230 448 265 
Q 563 301 630 377 
Q 698 454 720 592 
Q 742 730 742 954 
L 742 3712 
Q 742 4058 732 4291 
Q 723 4525 704 4608 
Q 672 4755 553 4806 
Q 435 4858 128 4858 
L 128 5075 
L 1338 5312 
L 1338 998 
z
" transform="scale(0.015625)"/>
      <path id="LibreBaskerville-Regular-61" d="M 2234 1894 
Q 1869 1754 1616 1619 
Q 1363 1485 1209 1350 
Q 1056 1216 989 1081 
Q 922 947 922 806 
Q 922 595 1062 460 
Q 1203 326 1434 326 
Q 1600 326 1744 409 
Q 1888 493 1997 637 
Q 2106 781 2170 976 
Q 2234 1171 2234 1389 
L 2234 1894 
z
M 2234 2170 
L 2234 2432 
Q 2234 3213 1568 3213 
Q 1459 3213 1382 3193 
Q 1306 3174 1254 3129 
Q 1203 3085 1161 3001 
Q 1120 2918 1082 2797 
Q 1011 2611 944 2550 
Q 877 2490 749 2490 
Q 429 2490 429 2810 
Q 429 3117 755 3286 
Q 1082 3456 1683 3456 
Q 2323 3456 2592 3229 
Q 2861 3002 2861 2458 
L 2861 1024 
Q 2861 294 3149 294 
Q 3238 294 3321 316 
Q 3405 339 3462 435 
L 3552 282 
Q 3475 134 3270 35 
Q 3066 -64 2842 -64 
Q 2560 -64 2422 115 
Q 2285 294 2285 621 
L 2253 621 
Q 2086 307 1792 124 
Q 1498 -58 1139 -58 
Q 736 -58 505 147 
Q 275 352 275 698 
Q 275 851 329 992 
Q 384 1133 505 1261 
Q 627 1389 825 1513 
Q 1024 1638 1312 1766 
L 2234 2170 
z
" transform="scale(0.015625)"/>
      <path id="LibreBaskerville-Regular-74" d="M 256 2989 
L 256 3226 
Q 595 3424 787 3622 
Q 979 3821 1082 4096 
L 1267 4096 
L 1267 3290 
L 2125 3290 
L 2125 2989 
L 1267 2989 
L 1267 1043 
Q 1267 819 1289 665 
Q 1312 512 1363 419 
Q 1414 326 1497 288 
Q 1581 250 1709 250 
Q 1869 250 1981 317 
Q 2093 384 2202 544 
L 2362 422 
Q 2272 186 2051 61 
Q 1830 -64 1504 -64 
Q 1082 -64 861 137 
Q 640 339 640 717 
L 640 2989 
L 256 2989 
z
" transform="scale(0.015625)"/>
      <path id="LibreBaskerville-Regular-69" d="M 1459 1018 
Q 1459 768 1481 617 
Q 1504 467 1568 380 
Q 1632 294 1747 262 
Q 1862 230 2054 224 
L 2054 0 
L 218 0 
L 218 224 
Q 410 230 531 265 
Q 653 301 720 381 
Q 787 461 809 605 
Q 832 749 832 973 
L 832 1792 
Q 832 2163 822 2403 
Q 813 2643 787 2733 
Q 755 2880 640 2934 
Q 525 2989 205 2989 
L 205 3213 
L 1459 3456 
L 1459 1018 
z
M 723 4755 
Q 723 4922 838 5037 
Q 954 5152 1120 5152 
Q 1286 5152 1401 5037 
Q 1517 4922 1517 4755 
Q 1517 4589 1401 4473 
Q 1286 4358 1120 4358 
Q 954 4358 838 4473 
Q 723 4589 723 4755 
z
" transform="scale(0.015625)"/>
      <path id="LibreBaskerville-Regular-6e" d="M 1382 1005 
Q 1382 742 1395 592 
Q 1408 442 1462 362 
Q 1517 282 1622 256 
Q 1728 230 1914 218 
L 1914 0 
L 237 0 
L 237 218 
Q 416 230 521 256 
Q 627 282 684 358 
Q 742 435 758 576 
Q 774 717 774 960 
L 774 1811 
Q 774 2573 736 2739 
Q 717 2822 688 2876 
Q 659 2931 601 2960 
Q 544 2989 454 2998 
Q 365 3008 224 3008 
L 224 3213 
L 1248 3456 
L 1325 2822 
L 1350 2822 
Q 1594 3123 1920 3289 
Q 2246 3456 2630 3456 
Q 2925 3456 3168 3360 
Q 3411 3264 3539 3098 
Q 3648 2950 3693 2716 
Q 3738 2483 3738 2074 
L 3738 1005 
Q 3738 742 3754 592 
Q 3770 442 3821 362 
Q 3872 282 3977 256 
Q 4083 230 4256 218 
L 4256 0 
L 2598 0 
L 2598 218 
Q 2778 224 2883 253 
Q 2989 282 3043 358 
Q 3098 435 3114 579 
Q 3130 723 3130 960 
L 3130 1805 
Q 3130 2170 3091 2419 
Q 3053 2669 2966 2822 
Q 2880 2976 2739 3043 
Q 2598 3110 2400 3110 
Q 2112 3110 1872 2960 
Q 1632 2810 1498 2547 
Q 1466 2483 1443 2425 
Q 1421 2368 1408 2291 
Q 1395 2214 1388 2115 
Q 1382 2016 1382 1862 
L 1382 1005 
z
" transform="scale(0.015625)"/>
      <path id="LibreBaskerville-Regular-67" d="M 1754 1376 
Q 2022 1376 2172 1619 
Q 2323 1862 2323 2304 
Q 2323 2739 2172 2979 
Q 2022 3219 1747 3219 
Q 1472 3219 1309 2976 
Q 1146 2733 1146 2310 
Q 1146 1888 1312 1632 
Q 1478 1376 1754 1376 
z
M 1402 627 
Q 1555 614 1683 601 
Q 1811 589 1936 576 
Q 2061 563 2185 544 
Q 2310 525 2458 506 
Q 2918 435 3196 150 
Q 3475 -134 3475 -563 
Q 3475 -1101 3049 -1382 
Q 2624 -1664 1818 -1664 
Q 1459 -1664 1161 -1600 
Q 864 -1536 653 -1417 
Q 442 -1299 323 -1132 
Q 205 -966 205 -768 
Q 205 -634 249 -518 
Q 294 -403 371 -316 
Q 448 -230 553 -179 
Q 659 -128 774 -128 
Q 992 -128 1165 -262 
Q 992 -301 883 -451 
Q 774 -602 774 -794 
Q 774 -1075 1052 -1228 
Q 1331 -1382 1843 -1382 
Q 2938 -1382 2938 -710 
Q 2938 -454 2765 -284 
Q 2592 -115 2355 -83 
Q 2202 -64 2038 -41 
Q 1875 -19 1718 0 
Q 1562 19 1427 32 
Q 1293 45 1210 58 
Q 851 96 665 249 
Q 480 403 480 672 
Q 480 896 665 1069 
Q 851 1242 1133 1286 
L 1133 1312 
Q 992 1370 870 1475 
Q 749 1581 662 1715 
Q 576 1850 525 2006 
Q 474 2163 474 2330 
Q 474 2573 566 2777 
Q 659 2982 828 3132 
Q 998 3283 1228 3369 
Q 1459 3456 1734 3456 
Q 2016 3456 2265 3369 
Q 2515 3283 2694 3117 
Q 2912 3296 3078 3376 
Q 3245 3456 3392 3456 
Q 3622 3456 3760 3350 
Q 3898 3245 3898 3066 
Q 3898 2957 3824 2893 
Q 3750 2829 3642 2829 
Q 3552 2829 3494 2861 
Q 3437 2893 3389 2928 
Q 3341 2963 3289 2995 
Q 3238 3027 3162 3027 
Q 3008 3027 2848 2918 
Q 3002 2682 3002 2323 
Q 3002 1779 2662 1468 
Q 2323 1158 1645 1107 
Q 1254 1075 1100 1024 
Q 947 973 947 838 
Q 947 736 1062 688 
Q 1178 640 1402 627 
z
" transform="scale(0.015625)"/>
      <path id="LibreBaskerville-Regular-4c" d="M 4422 0 
L 288 0 
L 288 243 
Q 512 250 649 282 
Q 787 314 864 390 
Q 941 467 966 608 
Q 992 749 992 973 
L 992 3955 
Q 992 4179 969 4316 
Q 947 4454 880 4534 
Q 813 4614 685 4643 
Q 557 4672 352 4685 
L 352 4928 
L 2298 4928 
L 2298 4685 
Q 2093 4678 1968 4646 
Q 1843 4614 1776 4531 
Q 1709 4448 1686 4301 
Q 1664 4154 1664 3910 
L 1664 1152 
Q 1664 883 1718 713 
Q 1773 544 1904 451 
Q 2035 358 2252 323 
Q 2470 288 2803 288 
Q 3168 288 3417 329 
Q 3667 371 3836 476 
Q 4006 582 4105 771 
Q 4205 960 4275 1261 
L 4518 1261 
L 4422 0 
z
" transform="scale(0.015625)"/>
      <path id="LibreBaskerville-Regular-75" d="M 2963 2368 
Q 2963 2630 2950 2780 
Q 2938 2931 2883 3011 
Q 2829 3091 2723 3120 
Q 2618 3149 2432 3168 
L 2432 3392 
L 3590 3392 
L 3590 1427 
Q 3590 1062 3600 832 
Q 3610 602 3629 486 
Q 3642 403 3670 355 
Q 3699 307 3756 278 
Q 3814 250 3907 240 
Q 4000 230 4147 230 
L 4147 6 
L 3091 -70 
L 3021 698 
L 2995 698 
Q 2752 301 2435 118 
Q 2118 -64 1773 -64 
Q 1504 -64 1251 38 
Q 998 141 870 314 
Q 762 454 714 704 
Q 666 954 666 1350 
L 666 2368 
Q 666 2630 653 2780 
Q 640 2931 585 3011 
Q 531 3091 425 3120 
Q 320 3149 134 3168 
L 134 3392 
L 1293 3392 
L 1293 1645 
Q 1293 947 1456 633 
Q 1619 320 1978 320 
Q 2541 320 2854 1056 
Q 2886 1133 2905 1197 
Q 2925 1261 2937 1337 
Q 2950 1414 2956 1510 
Q 2963 1606 2963 1741 
L 2963 2368 
z
" transform="scale(0.015625)"/>
      <path id="LibreBaskerville-Regular-73" d="M 550 0 
L 410 0 
L 410 1101 
L 570 1101 
Q 819 198 1478 198 
Q 1734 198 1884 323 
Q 2035 448 2035 704 
Q 2035 800 2006 867 
Q 1978 934 1898 1008 
Q 1818 1082 1674 1178 
Q 1530 1274 1293 1421 
Q 1075 1555 915 1670 
Q 755 1786 646 1904 
Q 538 2022 483 2156 
Q 429 2291 429 2470 
Q 429 2688 502 2870 
Q 576 3053 704 3181 
Q 832 3309 1005 3382 
Q 1178 3456 1382 3456 
Q 1555 3456 1740 3401 
Q 1926 3347 2067 3258 
L 2195 3392 
L 2317 3392 
L 2317 2470 
L 2150 2470 
Q 2010 2861 1843 3027 
Q 1677 3194 1434 3194 
Q 1216 3194 1085 3078 
Q 954 2963 954 2758 
Q 954 2650 989 2570 
Q 1024 2490 1101 2413 
Q 1178 2336 1296 2256 
Q 1414 2176 1581 2074 
Q 1856 1901 2051 1766 
Q 2246 1632 2368 1501 
Q 2490 1370 2547 1229 
Q 2605 1088 2605 909 
Q 2605 454 2310 195 
Q 2016 -64 1536 -64 
Q 1037 -64 678 224 
L 550 0 
z
" transform="scale(0.015625)"/>
      <path id="LibreBaskerville-Regular-26" d="M 2221 2931 
Q 2528 3168 2669 3414 
Q 2810 3661 2810 3949 
Q 2810 4250 2675 4426 
Q 2541 4602 2317 4602 
Q 1894 4602 1894 3955 
Q 1894 3674 1977 3414 
Q 2061 3155 2221 2931 
z
M 1856 2330 
Q 1453 2099 1229 1788 
Q 1005 1478 1005 1146 
Q 1005 794 1232 566 
Q 1459 339 1818 339 
Q 2086 339 2393 473 
Q 2701 608 2976 851 
L 1856 2330 
z
M 3437 1338 
Q 3590 1530 3721 1712 
Q 3853 1894 3949 2057 
Q 4045 2221 4096 2355 
Q 4147 2490 4147 2573 
Q 4147 2675 4054 2720 
Q 3962 2765 3757 2765 
L 3757 2989 
L 5229 2989 
L 5229 2765 
Q 5088 2765 4989 2749 
Q 4890 2733 4813 2694 
Q 4736 2656 4669 2592 
Q 4602 2528 4538 2426 
L 3629 1094 
Q 3898 730 4189 541 
Q 4480 352 4768 352 
Q 4851 352 4915 368 
Q 4979 384 5033 425 
Q 5088 467 5136 537 
Q 5184 608 5235 717 
L 5395 672 
Q 5325 314 5081 125 
Q 4838 -64 4448 -64 
Q 4288 -64 4144 -29 
Q 4000 6 3853 89 
Q 3706 173 3539 307 
Q 3373 442 3174 640 
Q 2854 307 2435 121 
Q 2016 -64 1581 -64 
Q 1286 -64 1040 22 
Q 794 109 614 259 
Q 435 410 332 618 
Q 230 826 230 1069 
Q 230 1504 576 1872 
Q 922 2240 1683 2611 
Q 1478 2912 1385 3174 
Q 1293 3437 1293 3725 
Q 1293 4006 1373 4240 
Q 1453 4474 1600 4640 
Q 1747 4806 1952 4899 
Q 2157 4992 2406 4992 
Q 2624 4992 2806 4921 
Q 2989 4851 3123 4723 
Q 3258 4595 3331 4422 
Q 3405 4250 3405 4038 
Q 3405 3680 3171 3366 
Q 2938 3053 2400 2688 
L 3437 1338 
z
" transform="scale(0.015625)"/>
      <path id="LibreBaskerville-Regular-45" d="M 1664 2707 
Q 2010 2707 2243 2748 
Q 2477 2790 2614 2880 
Q 2752 2970 2813 3110 
Q 2874 3251 2874 3443 
L 3098 3443 
L 3098 1696 
L 2874 1696 
Q 2874 1888 2819 2029 
Q 2765 2170 2627 2262 
Q 2490 2355 2256 2403 
Q 2022 2451 1664 2451 
L 1664 1005 
Q 1664 794 1715 656 
Q 1766 518 1891 432 
Q 2016 346 2221 310 
Q 2426 275 2726 275 
Q 3066 275 3302 323 
Q 3539 371 3699 486 
Q 3859 602 3955 790 
Q 4051 979 4115 1261 
L 4358 1261 
L 4262 0 
L 288 0 
L 288 243 
Q 512 250 649 282 
Q 787 314 864 390 
Q 941 467 966 608 
Q 992 749 992 973 
L 992 3955 
Q 992 4179 969 4316 
Q 947 4454 880 4534 
Q 813 4614 685 4643 
Q 557 4672 352 4685 
L 352 4928 
L 4051 4928 
L 4109 3802 
L 3885 3802 
Q 3846 4058 3760 4221 
Q 3674 4384 3523 4480 
Q 3373 4576 3142 4614 
Q 2912 4653 2586 4653 
L 1773 4653 
Q 1664 4653 1664 4544 
L 1664 2707 
z
" transform="scale(0.015625)"/>
      <path id="LibreBaskerville-Regular-78" d="M 2509 2637 
Q 2662 2829 2662 2963 
Q 2662 3168 2285 3168 
L 2285 3392 
L 3686 3392 
L 3686 3168 
Q 3571 3168 3478 3142 
Q 3386 3117 3296 3059 
Q 3206 3002 3113 2902 
Q 3021 2803 2906 2656 
L 2246 1818 
L 3098 698 
Q 3296 435 3465 329 
Q 3635 224 3827 224 
L 3827 0 
L 2125 0 
L 2125 224 
Q 2355 224 2444 259 
Q 2534 294 2534 397 
Q 2534 442 2480 528 
Q 2426 614 2298 781 
L 1850 1357 
L 1306 666 
Q 1210 550 1210 435 
Q 1210 346 1286 285 
Q 1363 224 1530 224 
L 1530 0 
L 64 0 
L 64 224 
Q 211 224 326 249 
Q 442 275 547 339 
Q 653 403 765 518 
Q 877 634 1018 806 
L 1670 1606 
L 819 2816 
Q 672 3021 550 3094 
Q 429 3168 243 3168 
L 243 3392 
L 1818 3392 
L 1818 3168 
Q 1645 3168 1568 3126 
Q 1491 3085 1491 3014 
Q 1491 2918 1613 2746 
L 2074 2074 
L 2509 2637 
z
" transform="scale(0.015625)"/>
     </defs>
     <use xlink:href="#LibreBaskerville-Regular-54"/>
     <use xlink:href="#LibreBaskerville-Regular-6f" x="80.299988"/>
     <use xlink:href="#LibreBaskerville-Regular-70" x="145.699982"/>
     <use xlink:href="#LibreBaskerville-Regular-20" x="213.599976"/>
     <use xlink:href="#LibreBaskerville-Regular-54" x="242.299973"/>
     <use xlink:href="#LibreBaskerville-Regular-65" x="322.59996"/>
     <use xlink:href="#LibreBaskerville-Regular-6d" x="379.899948"/>
     <use xlink:href="#LibreBaskerville-Regular-70" x="487.199936"/>
     <use xlink:href="#LibreBaskerville-Regular-6c" x="555.09993"/>
     <use xlink:href="#LibreBaskerville-Regular-61" x="587.599915"/>
     <use xlink:href="#LibreBaskerville-Regular-74" x="642.999908"/>
     <use xlink:href="#LibreBaskerville-Regular-69" x="680.799896"/>
     <use xlink:href="#LibreBaskerville-Regular-6e" x="714.899887"/>
     <use xlink:href="#LibreBaskerville-Regular-67" x="783.799881"/>
     <use xlink:href="#LibreBaskerville-Regular-20" x="843.699875"/>
     <use xlink:href="#LibreBaskerville-Regular-4c" x="872.399872"/>
     <use xlink:href="#LibreBaskerville-Regular-61" x="945.099854"/>
     <use xlink:href="#LibreBaskerville-Regular-6e" x="1000.499847"/>
     <use xlink:href="#LibreBaskerville-Regular-67" x="1069.399841"/>
     <use xlink:href="#LibreBaskerville-Regular-75" x="1129.299835"/>
     <use xlink:href="#LibreBaskerville-Regular-61" x="1196.29982"/>
     <use xlink:href="#LibreBaskerville-Regular-67" x="1251.699814"/>
     <use xlink:href="#LibreBaskerville-Regular-65" x="1311.599808"/>
     <use xlink:href="#LibreBaskerville-Regular-73" x="1368.899796"/>
     <use xlink:href="#LibreBaskerville-Regular-20" x="1414.299789"/>
     <use xlink:href="#LibreBaskerville-Regular-26" x="1442.999786"/>
     <use xlink:href="#LibreBaskerville-Regular-20" x="1530.799774"/>
     <use xlink:href="#LibreBaskerville-Regular-45" x="1559.499771"/>
     <use xlink:href="#LibreBaskerville-Regular-78" x="1632.099762"/>
     <use xlink:href="#LibreBaskerville-Regular-74" x="1692.999756"/>
     <use xlink:href="#LibreBaskerville-Regular-65" x="1730.799744"/>
     <use xlink:href="#LibreBaskerville-Regular-6e" x="1788.099731"/>
     <use xlink:href="#LibreBaskerville-Regular-73" x="1856.999725"/>
     <use xlink:href="#LibreBaskerville-Regular-69" x="1902.399719"/>
     <use xlink:href="#LibreBaskerville-Regular-6f" x="1936.49971"/>
     <use xlink:href="#LibreBaskerville-Regular-6e" x="2001.899704"/>
     <use xlink:href="#LibreBaskerville-Regular-73" x="2070.799698"/>
    </g>
   </g>
  </g>
 </g>
 <defs>
  <clipPath id="p304a8ea4c3">
   <rect x="141.12" y="31.68" width="312.48" height="288.72"/>
  </clipPath>
 </defs>
</svg>
