<?xml version="1.0" encoding="utf-8" standalone="no"?>
<!DOCTYPE svg PUBLIC "-//W3C//DTD SVG 1.1//EN"
  "http://www.w3.org/Graphics/SVG/1.1/DTD/svg11.dtd">
<svg xmlns:xlink="http://www.w3.org/1999/xlink" width="504pt" height="360pt" viewBox="0 0 504 360" xmlns="http://www.w3.org/2000/svg" version="1.1">
 <metadata>
  <rdf:RDF xmlns:dc="http://purl.org/dc/elements/1.1/" xmlns:cc="http://creativecommons.org/ns#" xmlns:rdf="http://www.w3.org/1999/02/22-rdf-syntax-ns#">
   <cc:Work>
    <dc:type rdf:resource="http://purl.org/dc/dcmitype/StillImage"/>
    <dc:date>2023-03-01T13:39:14.866000</dc:date>
    <dc:format>image/svg+xml</dc:format>
    <dc:creator>
     <cc:Agent>
      <dc:title>Matplotlib v3.7.0, https://matplotlib.org/</dc:title>
     </cc:Agent>
    </dc:creator>
   </cc:Work>
  </rdf:RDF>
 </metadata>
 <defs>
  <style type="text/css">*{stroke-linejoin: round; stroke-linecap: butt}</style>
 </defs>
 <g id="figure_1">
  <g id="patch_1">
   <path d="M 0 360 
L 504 360 
L 504 0 
L 0 0 
z
" style="fill: #ffffff"/>
  </g>
  <g id="axes_1">
   <g id="patch_2">
    <path d="M 141.12 320.4 
L 453.6 320.4 
L 453.6 31.68 
L 141.12 31.68 
z
" style="fill: #ffffff"/>
   </g>
   <g id="patch_3">
    <path d="M 141.12 41.304 
L 438.72 41.304 
L 438.72 118.296 
L 141.12 118.296 
z
" clip-path="url(#p6f7bc0ce99)" style="fill: #3470a3"/>
   </g>
   <g id="patch_4">
    <path d="M 141.12 137.544 
L 372.586667 137.544 
L 372.586667 214.536 
L 141.12 214.536 
z
" clip-path="url(#p6f7bc0ce99)" style="fill: #79abc9"/>
   </g>
   <g id="patch_5">
    <path d="M 141.12 233.784 
L 190.72 233.784 
L 190.72 310.776 
L 141.12 310.776 
z
" clip-path="url(#p6f7bc0ce99)" style="fill: #ccdbea"/>
   </g>
   <g id="matplotlib.axis_1">
    <g id="xtick_1">
     <g id="line2d_1">
      <defs>
       <path id="mca9f5c8d9a" d="M 0 0 
L 0 3.5 
" style="stroke: #000000; stroke-width: 0.8"/>
      </defs>
      <g>
       <use xlink:href="#mca9f5c8d9a" x="141.12" y="320.4" style="stroke: #000000; stroke-width: 0.8"/>
      </g>
     </g>
     <g id="text_1">
      <!-- 0.0 -->
      <g transform="translate(133.168438 334.998438) scale(0.1 -0.1)">
       <defs>
        <path id="DejaVuSans-30" d="M 2034 4250 
Q 1547 4250 1301 3770 
Q 1056 3291 1056 2328 
Q 1056 1369 1301 889 
Q 1547 409 2034 409 
Q 2525 409 2770 889 
Q 3016 1369 3016 2328 
Q 3016 3291 2770 3770 
Q 2525 4250 2034 4250 
z
M 2034 4750 
Q 2819 4750 3233 4129 
Q 3647 3509 3647 2328 
Q 3647 1150 3233 529 
Q 2819 -91 2034 -91 
Q 1250 -91 836 529 
Q 422 1150 422 2328 
Q 422 3509 836 4129 
Q 1250 4750 2034 4750 
z
" transform="scale(0.015625)"/>
        <path id="DejaVuSans-2e" d="M 684 794 
L 1344 794 
L 1344 0 
L 684 0 
L 684 794 
z
" transform="scale(0.015625)"/>
       </defs>
       <use xlink:href="#DejaVuSans-30"/>
       <use xlink:href="#DejaVuSans-2e" x="63.623047"/>
       <use xlink:href="#DejaVuSans-30" x="95.410156"/>
      </g>
     </g>
    </g>
    <g id="xtick_2">
     <g id="line2d_2">
      <g>
       <use xlink:href="#mca9f5c8d9a" x="182.453333" y="320.4" style="stroke: #000000; stroke-width: 0.8"/>
      </g>
     </g>
     <g id="text_2">
      <!-- 2.5 -->
      <g transform="translate(174.501771 334.998438) scale(0.1 -0.1)">
       <defs>
        <path id="DejaVuSans-32" d="M 1228 531 
L 3431 531 
L 3431 0 
L 469 0 
L 469 531 
Q 828 903 1448 1529 
Q 2069 2156 2228 2338 
Q 2531 2678 2651 2914 
Q 2772 3150 2772 3378 
Q 2772 3750 2511 3984 
Q 2250 4219 1831 4219 
Q 1534 4219 1204 4116 
Q 875 4013 500 3803 
L 500 4441 
Q 881 4594 1212 4672 
Q 1544 4750 1819 4750 
Q 2544 4750 2975 4387 
Q 3406 4025 3406 3419 
Q 3406 3131 3298 2873 
Q 3191 2616 2906 2266 
Q 2828 2175 2409 1742 
Q 1991 1309 1228 531 
z
" transform="scale(0.015625)"/>
        <path id="DejaVuSans-35" d="M 691 4666 
L 3169 4666 
L 3169 4134 
L 1269 4134 
L 1269 2991 
Q 1406 3038 1543 3061 
Q 1681 3084 1819 3084 
Q 2600 3084 3056 2656 
Q 3513 2228 3513 1497 
Q 3513 744 3044 326 
Q 2575 -91 1722 -91 
Q 1428 -91 1123 -41 
Q 819 9 494 109 
L 494 744 
Q 775 591 1075 516 
Q 1375 441 1709 441 
Q 2250 441 2565 725 
Q 2881 1009 2881 1497 
Q 2881 1984 2565 2268 
Q 2250 2553 1709 2553 
Q 1456 2553 1204 2497 
Q 953 2441 691 2322 
L 691 4666 
z
" transform="scale(0.015625)"/>
       </defs>
       <use xlink:href="#DejaVuSans-32"/>
       <use xlink:href="#DejaVuSans-2e" x="63.623047"/>
       <use xlink:href="#DejaVuSans-35" x="95.410156"/>
      </g>
     </g>
    </g>
    <g id="xtick_3">
     <g id="line2d_3">
      <g>
       <use xlink:href="#mca9f5c8d9a" x="223.786667" y="320.4" style="stroke: #000000; stroke-width: 0.8"/>
      </g>
     </g>
     <g id="text_3">
      <!-- 5.0 -->
      <g transform="translate(215.835104 334.998438) scale(0.1 -0.1)">
       <use xlink:href="#DejaVuSans-35"/>
       <use xlink:href="#DejaVuSans-2e" x="63.623047"/>
       <use xlink:href="#DejaVuSans-30" x="95.410156"/>
      </g>
     </g>
    </g>
    <g id="xtick_4">
     <g id="line2d_4">
      <g>
       <use xlink:href="#mca9f5c8d9a" x="265.12" y="320.4" style="stroke: #000000; stroke-width: 0.8"/>
      </g>
     </g>
     <g id="text_4">
      <!-- 7.5 -->
      <g transform="translate(257.168437 334.998438) scale(0.1 -0.1)">
       <defs>
        <path id="DejaVuSans-37" d="M 525 4666 
L 3525 4666 
L 3525 4397 
L 1831 0 
L 1172 0 
L 2766 4134 
L 525 4134 
L 525 4666 
z
" transform="scale(0.015625)"/>
       </defs>
       <use xlink:href="#DejaVuSans-37"/>
       <use xlink:href="#DejaVuSans-2e" x="63.623047"/>
       <use xlink:href="#DejaVuSans-35" x="95.410156"/>
      </g>
     </g>
    </g>
    <g id="xtick_5">
     <g id="line2d_5">
      <g>
       <use xlink:href="#mca9f5c8d9a" x="306.453333" y="320.4" style="stroke: #000000; stroke-width: 0.8"/>
      </g>
     </g>
     <g id="text_5">
      <!-- 10.0 -->
      <g transform="translate(295.320521 334.998438) scale(0.1 -0.1)">
       <defs>
        <path id="DejaVuSans-31" d="M 794 531 
L 1825 531 
L 1825 4091 
L 703 3866 
L 703 4441 
L 1819 4666 
L 2450 4666 
L 2450 531 
L 3481 531 
L 3481 0 
L 794 0 
L 794 531 
z
" transform="scale(0.015625)"/>
       </defs>
       <use xlink:href="#DejaVuSans-31"/>
       <use xlink:href="#DejaVuSans-30" x="63.623047"/>
       <use xlink:href="#DejaVuSans-2e" x="127.246094"/>
       <use xlink:href="#DejaVuSans-30" x="159.033203"/>
      </g>
     </g>
    </g>
    <g id="xtick_6">
     <g id="line2d_6">
      <g>
       <use xlink:href="#mca9f5c8d9a" x="347.786667" y="320.4" style="stroke: #000000; stroke-width: 0.8"/>
      </g>
     </g>
     <g id="text_6">
      <!-- 12.5 -->
      <g transform="translate(336.653854 334.998438) scale(0.1 -0.1)">
       <use xlink:href="#DejaVuSans-31"/>
       <use xlink:href="#DejaVuSans-32" x="63.623047"/>
       <use xlink:href="#DejaVuSans-2e" x="127.246094"/>
       <use xlink:href="#DejaVuSans-35" x="159.033203"/>
      </g>
     </g>
    </g>
    <g id="xtick_7">
     <g id="line2d_7">
      <g>
       <use xlink:href="#mca9f5c8d9a" x="389.12" y="320.4" style="stroke: #000000; stroke-width: 0.8"/>
      </g>
     </g>
     <g id="text_7">
      <!-- 15.0 -->
      <g transform="translate(377.987188 334.998438) scale(0.1 -0.1)">
       <use xlink:href="#DejaVuSans-31"/>
       <use xlink:href="#DejaVuSans-35" x="63.623047"/>
       <use xlink:href="#DejaVuSans-2e" x="127.246094"/>
       <use xlink:href="#DejaVuSans-30" x="159.033203"/>
      </g>
     </g>
    </g>
    <g id="xtick_8">
     <g id="line2d_8">
      <g>
       <use xlink:href="#mca9f5c8d9a" x="430.453333" y="320.4" style="stroke: #000000; stroke-width: 0.8"/>
      </g>
     </g>
     <g id="text_8">
      <!-- 17.5 -->
      <g transform="translate(419.320521 334.998438) scale(0.1 -0.1)">
       <use xlink:href="#DejaVuSans-31"/>
       <use xlink:href="#DejaVuSans-37" x="63.623047"/>
       <use xlink:href="#DejaVuSans-2e" x="127.246094"/>
       <use xlink:href="#DejaVuSans-35" x="159.033203"/>
      </g>
     </g>
    </g>
    <g id="text_9">
     <!-- count -->
     <g transform="translate(283.25375 348.676562) scale(0.1 -0.1)">
      <defs>
       <path id="DejaVuSans-63" d="M 3122 3366 
L 3122 2828 
Q 2878 2963 2633 3030 
Q 2388 3097 2138 3097 
Q 1578 3097 1268 2742 
Q 959 2388 959 1747 
Q 959 1106 1268 751 
Q 1578 397 2138 397 
Q 2388 397 2633 464 
Q 2878 531 3122 666 
L 3122 134 
Q 2881 22 2623 -34 
Q 2366 -91 2075 -91 
Q 1284 -91 818 406 
Q 353 903 353 1747 
Q 353 2603 823 3093 
Q 1294 3584 2113 3584 
Q 2378 3584 2631 3529 
Q 2884 3475 3122 3366 
z
" transform="scale(0.015625)"/>
       <path id="DejaVuSans-6f" d="M 1959 3097 
Q 1497 3097 1228 2736 
Q 959 2375 959 1747 
Q 959 1119 1226 758 
Q 1494 397 1959 397 
Q 2419 397 2687 759 
Q 2956 1122 2956 1747 
Q 2956 2369 2687 2733 
Q 2419 3097 1959 3097 
z
M 1959 3584 
Q 2709 3584 3137 3096 
Q 3566 2609 3566 1747 
Q 3566 888 3137 398 
Q 2709 -91 1959 -91 
Q 1206 -91 779 398 
Q 353 888 353 1747 
Q 353 2609 779 3096 
Q 1206 3584 1959 3584 
z
" transform="scale(0.015625)"/>
       <path id="DejaVuSans-75" d="M 544 1381 
L 544 3500 
L 1119 3500 
L 1119 1403 
Q 1119 906 1312 657 
Q 1506 409 1894 409 
Q 2359 409 2629 706 
Q 2900 1003 2900 1516 
L 2900 3500 
L 3475 3500 
L 3475 0 
L 2900 0 
L 2900 538 
Q 2691 219 2414 64 
Q 2138 -91 1772 -91 
Q 1169 -91 856 284 
Q 544 659 544 1381 
z
M 1991 3584 
L 1991 3584 
z
" transform="scale(0.015625)"/>
       <path id="DejaVuSans-6e" d="M 3513 2113 
L 3513 0 
L 2938 0 
L 2938 2094 
Q 2938 2591 2744 2837 
Q 2550 3084 2163 3084 
Q 1697 3084 1428 2787 
Q 1159 2491 1159 1978 
L 1159 0 
L 581 0 
L 581 3500 
L 1159 3500 
L 1159 2956 
Q 1366 3272 1645 3428 
Q 1925 3584 2291 3584 
Q 2894 3584 3203 3211 
Q 3513 2838 3513 2113 
z
" transform="scale(0.015625)"/>
       <path id="DejaVuSans-74" d="M 1172 4494 
L 1172 3500 
L 2356 3500 
L 2356 3053 
L 1172 3053 
L 1172 1153 
Q 1172 725 1289 603 
Q 1406 481 1766 481 
L 2356 481 
L 2356 0 
L 1766 0 
Q 1100 0 847 248 
Q 594 497 594 1153 
L 594 3053 
L 172 3053 
L 172 3500 
L 594 3500 
L 594 4494 
L 1172 4494 
z
" transform="scale(0.015625)"/>
      </defs>
      <use xlink:href="#DejaVuSans-63"/>
      <use xlink:href="#DejaVuSans-6f" x="54.980469"/>
      <use xlink:href="#DejaVuSans-75" x="116.162109"/>
      <use xlink:href="#DejaVuSans-6e" x="179.541016"/>
      <use xlink:href="#DejaVuSans-74" x="242.919922"/>
     </g>
    </g>
   </g>
   <g id="matplotlib.axis_2">
    <g id="ytick_1">
     <g id="line2d_9">
      <defs>
       <path id="me1e5d5675a" d="M 0 0 
L -3.5 0 
" style="stroke: #000000; stroke-width: 0.8"/>
      </defs>
      <g>
       <use xlink:href="#me1e5d5675a" x="141.12" y="79.8" style="stroke: #000000; stroke-width: 0.8"/>
      </g>
     </g>
     <g id="text_10">
      <!-- AngularJS -->
      <g transform="translate(85.940313 83.599219) scale(0.1 -0.1)">
       <defs>
        <path id="DejaVuSans-41" d="M 2188 4044 
L 1331 1722 
L 3047 1722 
L 2188 4044 
z
M 1831 4666 
L 2547 4666 
L 4325 0 
L 3669 0 
L 3244 1197 
L 1141 1197 
L 716 0 
L 50 0 
L 1831 4666 
z
" transform="scale(0.015625)"/>
        <path id="DejaVuSans-67" d="M 2906 1791 
Q 2906 2416 2648 2759 
Q 2391 3103 1925 3103 
Q 1463 3103 1205 2759 
Q 947 2416 947 1791 
Q 947 1169 1205 825 
Q 1463 481 1925 481 
Q 2391 481 2648 825 
Q 2906 1169 2906 1791 
z
M 3481 434 
Q 3481 -459 3084 -895 
Q 2688 -1331 1869 -1331 
Q 1566 -1331 1297 -1286 
Q 1028 -1241 775 -1147 
L 775 -588 
Q 1028 -725 1275 -790 
Q 1522 -856 1778 -856 
Q 2344 -856 2625 -561 
Q 2906 -266 2906 331 
L 2906 616 
Q 2728 306 2450 153 
Q 2172 0 1784 0 
Q 1141 0 747 490 
Q 353 981 353 1791 
Q 353 2603 747 3093 
Q 1141 3584 1784 3584 
Q 2172 3584 2450 3431 
Q 2728 3278 2906 2969 
L 2906 3500 
L 3481 3500 
L 3481 434 
z
" transform="scale(0.015625)"/>
        <path id="DejaVuSans-6c" d="M 603 4863 
L 1178 4863 
L 1178 0 
L 603 0 
L 603 4863 
z
" transform="scale(0.015625)"/>
        <path id="DejaVuSans-61" d="M 2194 1759 
Q 1497 1759 1228 1600 
Q 959 1441 959 1056 
Q 959 750 1161 570 
Q 1363 391 1709 391 
Q 2188 391 2477 730 
Q 2766 1069 2766 1631 
L 2766 1759 
L 2194 1759 
z
M 3341 1997 
L 3341 0 
L 2766 0 
L 2766 531 
Q 2569 213 2275 61 
Q 1981 -91 1556 -91 
Q 1019 -91 701 211 
Q 384 513 384 1019 
Q 384 1609 779 1909 
Q 1175 2209 1959 2209 
L 2766 2209 
L 2766 2266 
Q 2766 2663 2505 2880 
Q 2244 3097 1772 3097 
Q 1472 3097 1187 3025 
Q 903 2953 641 2809 
L 641 3341 
Q 956 3463 1253 3523 
Q 1550 3584 1831 3584 
Q 2591 3584 2966 3190 
Q 3341 2797 3341 1997 
z
" transform="scale(0.015625)"/>
        <path id="DejaVuSans-72" d="M 2631 2963 
Q 2534 3019 2420 3045 
Q 2306 3072 2169 3072 
Q 1681 3072 1420 2755 
Q 1159 2438 1159 1844 
L 1159 0 
L 581 0 
L 581 3500 
L 1159 3500 
L 1159 2956 
Q 1341 3275 1631 3429 
Q 1922 3584 2338 3584 
Q 2397 3584 2469 3576 
Q 2541 3569 2628 3553 
L 2631 2963 
z
" transform="scale(0.015625)"/>
        <path id="DejaVuSans-4a" d="M 628 4666 
L 1259 4666 
L 1259 325 
Q 1259 -519 939 -900 
Q 619 -1281 -91 -1281 
L -331 -1281 
L -331 -750 
L -134 -750 
Q 284 -750 456 -515 
Q 628 -281 628 325 
L 628 4666 
z
" transform="scale(0.015625)"/>
        <path id="DejaVuSans-53" d="M 3425 4513 
L 3425 3897 
Q 3066 4069 2747 4153 
Q 2428 4238 2131 4238 
Q 1616 4238 1336 4038 
Q 1056 3838 1056 3469 
Q 1056 3159 1242 3001 
Q 1428 2844 1947 2747 
L 2328 2669 
Q 3034 2534 3370 2195 
Q 3706 1856 3706 1288 
Q 3706 609 3251 259 
Q 2797 -91 1919 -91 
Q 1588 -91 1214 -16 
Q 841 59 441 206 
L 441 856 
Q 825 641 1194 531 
Q 1563 422 1919 422 
Q 2459 422 2753 634 
Q 3047 847 3047 1241 
Q 3047 1584 2836 1778 
Q 2625 1972 2144 2069 
L 1759 2144 
Q 1053 2284 737 2584 
Q 422 2884 422 3419 
Q 422 4038 858 4394 
Q 1294 4750 2059 4750 
Q 2388 4750 2728 4690 
Q 3069 4631 3425 4513 
z
" transform="scale(0.015625)"/>
       </defs>
       <use xlink:href="#DejaVuSans-41"/>
       <use xlink:href="#DejaVuSans-6e" x="68.408203"/>
       <use xlink:href="#DejaVuSans-67" x="131.787109"/>
       <use xlink:href="#DejaVuSans-75" x="195.263672"/>
       <use xlink:href="#DejaVuSans-6c" x="258.642578"/>
       <use xlink:href="#DejaVuSans-61" x="286.425781"/>
       <use xlink:href="#DejaVuSans-72" x="347.705078"/>
       <use xlink:href="#DejaVuSans-4a" x="388.818359"/>
       <use xlink:href="#DejaVuSans-53" x="418.310547"/>
      </g>
     </g>
    </g>
    <g id="ytick_2">
     <g id="line2d_10">
      <g>
       <use xlink:href="#me1e5d5675a" x="141.12" y="176.04" style="stroke: #000000; stroke-width: 0.8"/>
      </g>
     </g>
     <g id="text_11">
      <!-- Backbone.js -->
      <g transform="translate(73.718437 179.839219) scale(0.1 -0.1)">
       <defs>
        <path id="DejaVuSans-42" d="M 1259 2228 
L 1259 519 
L 2272 519 
Q 2781 519 3026 730 
Q 3272 941 3272 1375 
Q 3272 1813 3026 2020 
Q 2781 2228 2272 2228 
L 1259 2228 
z
M 1259 4147 
L 1259 2741 
L 2194 2741 
Q 2656 2741 2882 2914 
Q 3109 3088 3109 3444 
Q 3109 3797 2882 3972 
Q 2656 4147 2194 4147 
L 1259 4147 
z
M 628 4666 
L 2241 4666 
Q 2963 4666 3353 4366 
Q 3744 4066 3744 3513 
Q 3744 3084 3544 2831 
Q 3344 2578 2956 2516 
Q 3422 2416 3680 2098 
Q 3938 1781 3938 1306 
Q 3938 681 3513 340 
Q 3088 0 2303 0 
L 628 0 
L 628 4666 
z
" transform="scale(0.015625)"/>
        <path id="DejaVuSans-6b" d="M 581 4863 
L 1159 4863 
L 1159 1991 
L 2875 3500 
L 3609 3500 
L 1753 1863 
L 3688 0 
L 2938 0 
L 1159 1709 
L 1159 0 
L 581 0 
L 581 4863 
z
" transform="scale(0.015625)"/>
        <path id="DejaVuSans-62" d="M 3116 1747 
Q 3116 2381 2855 2742 
Q 2594 3103 2138 3103 
Q 1681 3103 1420 2742 
Q 1159 2381 1159 1747 
Q 1159 1113 1420 752 
Q 1681 391 2138 391 
Q 2594 391 2855 752 
Q 3116 1113 3116 1747 
z
M 1159 2969 
Q 1341 3281 1617 3432 
Q 1894 3584 2278 3584 
Q 2916 3584 3314 3078 
Q 3713 2572 3713 1747 
Q 3713 922 3314 415 
Q 2916 -91 2278 -91 
Q 1894 -91 1617 61 
Q 1341 213 1159 525 
L 1159 0 
L 581 0 
L 581 4863 
L 1159 4863 
L 1159 2969 
z
" transform="scale(0.015625)"/>
        <path id="DejaVuSans-65" d="M 3597 1894 
L 3597 1613 
L 953 1613 
Q 991 1019 1311 708 
Q 1631 397 2203 397 
Q 2534 397 2845 478 
Q 3156 559 3463 722 
L 3463 178 
Q 3153 47 2828 -22 
Q 2503 -91 2169 -91 
Q 1331 -91 842 396 
Q 353 884 353 1716 
Q 353 2575 817 3079 
Q 1281 3584 2069 3584 
Q 2775 3584 3186 3129 
Q 3597 2675 3597 1894 
z
M 3022 2063 
Q 3016 2534 2758 2815 
Q 2500 3097 2075 3097 
Q 1594 3097 1305 2825 
Q 1016 2553 972 2059 
L 3022 2063 
z
" transform="scale(0.015625)"/>
        <path id="DejaVuSans-6a" d="M 603 3500 
L 1178 3500 
L 1178 -63 
Q 1178 -731 923 -1031 
Q 669 -1331 103 -1331 
L -116 -1331 
L -116 -844 
L 38 -844 
Q 366 -844 484 -692 
Q 603 -541 603 -63 
L 603 3500 
z
M 603 4863 
L 1178 4863 
L 1178 4134 
L 603 4134 
L 603 4863 
z
" transform="scale(0.015625)"/>
        <path id="DejaVuSans-73" d="M 2834 3397 
L 2834 2853 
Q 2591 2978 2328 3040 
Q 2066 3103 1784 3103 
Q 1356 3103 1142 2972 
Q 928 2841 928 2578 
Q 928 2378 1081 2264 
Q 1234 2150 1697 2047 
L 1894 2003 
Q 2506 1872 2764 1633 
Q 3022 1394 3022 966 
Q 3022 478 2636 193 
Q 2250 -91 1575 -91 
Q 1294 -91 989 -36 
Q 684 19 347 128 
L 347 722 
Q 666 556 975 473 
Q 1284 391 1588 391 
Q 1994 391 2212 530 
Q 2431 669 2431 922 
Q 2431 1156 2273 1281 
Q 2116 1406 1581 1522 
L 1381 1569 
Q 847 1681 609 1914 
Q 372 2147 372 2553 
Q 372 3047 722 3315 
Q 1072 3584 1716 3584 
Q 2034 3584 2315 3537 
Q 2597 3491 2834 3397 
z
" transform="scale(0.015625)"/>
       </defs>
       <use xlink:href="#DejaVuSans-42"/>
       <use xlink:href="#DejaVuSans-61" x="68.603516"/>
       <use xlink:href="#DejaVuSans-63" x="129.882812"/>
       <use xlink:href="#DejaVuSans-6b" x="184.863281"/>
       <use xlink:href="#DejaVuSans-62" x="242.773438"/>
       <use xlink:href="#DejaVuSans-6f" x="306.25"/>
       <use xlink:href="#DejaVuSans-6e" x="367.431641"/>
       <use xlink:href="#DejaVuSans-65" x="430.810547"/>
       <use xlink:href="#DejaVuSans-2e" x="492.333984"/>
       <use xlink:href="#DejaVuSans-6a" x="524.121094"/>
       <use xlink:href="#DejaVuSans-73" x="551.904297"/>
      </g>
     </g>
    </g>
    <g id="ytick_3">
     <g id="line2d_11">
      <g>
       <use xlink:href="#me1e5d5675a" x="141.12" y="272.28" style="stroke: #000000; stroke-width: 0.8"/>
      </g>
     </g>
     <g id="text_12">
      <!-- Ember.js -->
      <g transform="translate(91.195 276.079219) scale(0.1 -0.1)">
       <defs>
        <path id="DejaVuSans-45" d="M 628 4666 
L 3578 4666 
L 3578 4134 
L 1259 4134 
L 1259 2753 
L 3481 2753 
L 3481 2222 
L 1259 2222 
L 1259 531 
L 3634 531 
L 3634 0 
L 628 0 
L 628 4666 
z
" transform="scale(0.015625)"/>
        <path id="DejaVuSans-6d" d="M 3328 2828 
Q 3544 3216 3844 3400 
Q 4144 3584 4550 3584 
Q 5097 3584 5394 3201 
Q 5691 2819 5691 2113 
L 5691 0 
L 5113 0 
L 5113 2094 
Q 5113 2597 4934 2840 
Q 4756 3084 4391 3084 
Q 3944 3084 3684 2787 
Q 3425 2491 3425 1978 
L 3425 0 
L 2847 0 
L 2847 2094 
Q 2847 2600 2669 2842 
Q 2491 3084 2119 3084 
Q 1678 3084 1418 2786 
Q 1159 2488 1159 1978 
L 1159 0 
L 581 0 
L 581 3500 
L 1159 3500 
L 1159 2956 
Q 1356 3278 1631 3431 
Q 1906 3584 2284 3584 
Q 2666 3584 2933 3390 
Q 3200 3197 3328 2828 
z
" transform="scale(0.015625)"/>
       </defs>
       <use xlink:href="#DejaVuSans-45"/>
       <use xlink:href="#DejaVuSans-6d" x="63.183594"/>
       <use xlink:href="#DejaVuSans-62" x="160.595703"/>
       <use xlink:href="#DejaVuSans-65" x="224.072266"/>
       <use xlink:href="#DejaVuSans-72" x="285.595703"/>
       <use xlink:href="#DejaVuSans-2e" x="317.583984"/>
       <use xlink:href="#DejaVuSans-6a" x="349.371094"/>
       <use xlink:href="#DejaVuSans-73" x="377.154297"/>
      </g>
     </g>
    </g>
    <g id="text_13">
     <!-- name -->
     <g transform="translate(67.63875 190.219687) rotate(-90) scale(0.1 -0.1)">
      <use xlink:href="#DejaVuSans-6e"/>
      <use xlink:href="#DejaVuSans-61" x="63.378906"/>
      <use xlink:href="#DejaVuSans-6d" x="124.658203"/>
      <use xlink:href="#DejaVuSans-65" x="222.070312"/>
     </g>
    </g>
   </g>
   <g id="patch_6">
    <path d="M 141.12 320.4 
L 141.12 31.68 
" style="fill: none; stroke: #000000; stroke-width: 0.8; stroke-linejoin: miter; stroke-linecap: square"/>
   </g>
   <g id="patch_7">
    <path d="M 141.12 320.4 
L 453.6 320.4 
" style="fill: none; stroke: #000000; stroke-width: 0.8; stroke-linejoin: miter; stroke-linecap: square"/>
   </g>
   <g id="text_14">
    <!-- Top Javascript MVC Frameworks -->
    <g transform="translate(178.005625 25.68) scale(0.14 -0.14)">
     <defs>
      <path id="LibreBaskerville-Regular-54" d="M 5030 3706 
L 4768 3706 
Q 4749 3981 4678 4166 
Q 4608 4352 4477 4457 
Q 4346 4563 4147 4608 
Q 3949 4653 3674 4653 
Q 3437 4653 3293 4643 
Q 3149 4634 3072 4608 
Q 2995 4582 2972 4547 
Q 2950 4512 2950 4454 
L 2950 1030 
Q 2950 826 2979 678 
Q 3008 531 3094 438 
Q 3181 346 3344 298 
Q 3507 250 3776 243 
L 3776 0 
L 1357 0 
L 1357 243 
Q 1626 250 1792 298 
Q 1958 346 2044 438 
Q 2131 531 2160 678 
Q 2189 826 2189 1030 
L 2189 4454 
Q 2189 4512 2166 4547 
Q 2144 4582 2077 4608 
Q 2010 4634 1888 4643 
Q 1766 4653 1562 4653 
Q 1312 4653 1097 4633 
Q 883 4614 726 4521 
Q 570 4429 474 4237 
Q 378 4045 371 3706 
L 134 3706 
L 134 4928 
L 4966 4928 
L 5030 3706 
z
" transform="scale(0.015625)"/>
      <path id="LibreBaskerville-Regular-6f" d="M 2080 3456 
Q 2445 3456 2771 3325 
Q 3098 3194 3344 2963 
Q 3590 2733 3734 2416 
Q 3878 2099 3878 1722 
Q 3878 1331 3734 1004 
Q 3590 678 3344 441 
Q 3098 205 2771 70 
Q 2445 -64 2080 -64 
Q 1722 -64 1398 67 
Q 1075 198 832 435 
Q 589 672 448 1001 
Q 307 1331 307 1722 
Q 307 2099 448 2419 
Q 589 2739 832 2969 
Q 1075 3200 1398 3328 
Q 1722 3456 2080 3456 
z
M 2080 3149 
Q 1843 3149 1648 3046 
Q 1453 2944 1315 2755 
Q 1178 2566 1104 2300 
Q 1030 2035 1030 1715 
Q 1030 1382 1104 1113 
Q 1178 845 1315 656 
Q 1453 467 1645 364 
Q 1837 262 2080 262 
Q 2323 262 2521 364 
Q 2720 467 2861 659 
Q 3002 851 3078 1120 
Q 3155 1389 3155 1715 
Q 3155 2035 3078 2297 
Q 3002 2560 2861 2749 
Q 2720 2938 2521 3043 
Q 2323 3149 2080 3149 
z
" transform="scale(0.015625)"/>
      <path id="LibreBaskerville-Regular-70" d="M 1344 2931 
L 1370 2931 
Q 1574 3174 1811 3315 
Q 2048 3456 2362 3456 
Q 2726 3456 3030 3325 
Q 3334 3194 3558 2957 
Q 3782 2720 3907 2397 
Q 4032 2074 4032 1690 
Q 4032 1299 3904 976 
Q 3776 653 3552 422 
Q 3328 192 3021 64 
Q 2714 -64 2355 -64 
Q 2061 -64 1821 35 
Q 1581 134 1370 358 
L 1370 -576 
Q 1370 -832 1395 -985 
Q 1421 -1139 1497 -1222 
Q 1574 -1306 1718 -1338 
Q 1862 -1370 2099 -1376 
L 2099 -1600 
L 128 -1600 
L 128 -1376 
Q 320 -1370 438 -1338 
Q 557 -1306 624 -1222 
Q 691 -1139 716 -995 
Q 742 -851 742 -621 
L 742 1773 
Q 742 2144 732 2381 
Q 723 2618 698 2707 
Q 666 2861 550 2915 
Q 435 2970 115 2970 
L 115 3187 
L 1344 3430 
L 1344 2931 
z
M 1536 2746 
Q 1453 2618 1411 2442 
Q 1370 2266 1370 1984 
L 1370 1485 
Q 1370 1312 1379 1187 
Q 1389 1062 1408 972 
Q 1427 883 1459 812 
Q 1491 742 1542 678 
Q 1690 474 1894 362 
Q 2099 250 2323 250 
Q 2765 250 3037 621 
Q 3309 992 3309 1664 
Q 3309 1997 3235 2269 
Q 3162 2541 3027 2736 
Q 2893 2931 2704 3040 
Q 2515 3149 2285 3149 
Q 2054 3149 1859 3043 
Q 1664 2938 1536 2746 
z
" transform="scale(0.015625)"/>
      <path id="LibreBaskerville-Regular-20" transform="scale(0.015625)"/>
      <path id="LibreBaskerville-Regular-4a" d="M 928 3955 
Q 928 4179 905 4316 
Q 883 4454 816 4534 
Q 749 4614 621 4643 
Q 493 4672 288 4685 
L 288 4928 
L 2234 4928 
L 2234 4685 
Q 2029 4678 1904 4646 
Q 1779 4614 1712 4531 
Q 1645 4448 1622 4301 
Q 1600 4154 1600 3910 
L 1600 -13 
Q 1600 -819 1261 -1241 
Q 922 -1664 269 -1664 
Q -173 -1664 -438 -1494 
Q -704 -1325 -704 -1043 
Q -704 -877 -617 -790 
Q -531 -704 -378 -704 
Q -256 -704 -182 -765 
Q -109 -826 -13 -1005 
Q 96 -1210 176 -1283 
Q 256 -1357 384 -1357 
Q 646 -1357 787 -1075 
Q 928 -794 928 -275 
L 928 3955 
z
" transform="scale(0.015625)"/>
      <path id="LibreBaskerville-Regular-61" d="M 2234 1894 
Q 1869 1754 1616 1619 
Q 1363 1485 1209 1350 
Q 1056 1216 989 1081 
Q 922 947 922 806 
Q 922 595 1062 460 
Q 1203 326 1434 326 
Q 1600 326 1744 409 
Q 1888 493 1997 637 
Q 2106 781 2170 976 
Q 2234 1171 2234 1389 
L 2234 1894 
z
M 2234 2170 
L 2234 2432 
Q 2234 3213 1568 3213 
Q 1459 3213 1382 3193 
Q 1306 3174 1254 3129 
Q 1203 3085 1161 3001 
Q 1120 2918 1082 2797 
Q 1011 2611 944 2550 
Q 877 2490 749 2490 
Q 429 2490 429 2810 
Q 429 3117 755 3286 
Q 1082 3456 1683 3456 
Q 2323 3456 2592 3229 
Q 2861 3002 2861 2458 
L 2861 1024 
Q 2861 294 3149 294 
Q 3238 294 3321 316 
Q 3405 339 3462 435 
L 3552 282 
Q 3475 134 3270 35 
Q 3066 -64 2842 -64 
Q 2560 -64 2422 115 
Q 2285 294 2285 621 
L 2253 621 
Q 2086 307 1792 124 
Q 1498 -58 1139 -58 
Q 736 -58 505 147 
Q 275 352 275 698 
Q 275 851 329 992 
Q 384 1133 505 1261 
Q 627 1389 825 1513 
Q 1024 1638 1312 1766 
L 2234 2170 
z
" transform="scale(0.015625)"/>
      <path id="LibreBaskerville-Regular-76" d="M 666 2598 
Q 589 2790 528 2902 
Q 467 3014 396 3072 
Q 326 3130 240 3146 
Q 154 3162 32 3168 
L 32 3392 
L 1728 3392 
L 1728 3168 
Q 1600 3162 1517 3155 
Q 1434 3149 1386 3126 
Q 1338 3104 1318 3062 
Q 1299 3021 1299 2944 
Q 1299 2835 1328 2739 
Q 1357 2643 1389 2547 
L 2067 691 
L 2093 691 
L 2675 2067 
Q 2810 2387 2867 2579 
Q 2925 2771 2925 2918 
Q 2925 3066 2848 3117 
Q 2771 3168 2515 3168 
L 2515 3392 
L 3789 3392 
L 3789 3168 
Q 3686 3168 3603 3117 
Q 3520 3066 3456 2989 
Q 3405 2918 3350 2800 
Q 3296 2682 3241 2554 
Q 3187 2426 3142 2301 
Q 3098 2176 3059 2099 
L 2118 -70 
L 1747 -70 
L 666 2598 
z
" transform="scale(0.015625)"/>
      <path id="LibreBaskerville-Regular-73" d="M 550 0 
L 410 0 
L 410 1101 
L 570 1101 
Q 819 198 1478 198 
Q 1734 198 1884 323 
Q 2035 448 2035 704 
Q 2035 800 2006 867 
Q 1978 934 1898 1008 
Q 1818 1082 1674 1178 
Q 1530 1274 1293 1421 
Q 1075 1555 915 1670 
Q 755 1786 646 1904 
Q 538 2022 483 2156 
Q 429 2291 429 2470 
Q 429 2688 502 2870 
Q 576 3053 704 3181 
Q 832 3309 1005 3382 
Q 1178 3456 1382 3456 
Q 1555 3456 1740 3401 
Q 1926 3347 2067 3258 
L 2195 3392 
L 2317 3392 
L 2317 2470 
L 2150 2470 
Q 2010 2861 1843 3027 
Q 1677 3194 1434 3194 
Q 1216 3194 1085 3078 
Q 954 2963 954 2758 
Q 954 2650 989 2570 
Q 1024 2490 1101 2413 
Q 1178 2336 1296 2256 
Q 1414 2176 1581 2074 
Q 1856 1901 2051 1766 
Q 2246 1632 2368 1501 
Q 2490 1370 2547 1229 
Q 2605 1088 2605 909 
Q 2605 454 2310 195 
Q 2016 -64 1536 -64 
Q 1037 -64 678 224 
L 550 0 
z
" transform="scale(0.015625)"/>
      <path id="LibreBaskerville-Regular-63" d="M 3238 531 
Q 3008 250 2643 93 
Q 2278 -64 1856 -64 
Q 1517 -64 1232 61 
Q 947 186 742 413 
Q 538 640 426 960 
Q 314 1280 314 1670 
Q 314 2080 442 2409 
Q 570 2739 803 2972 
Q 1037 3206 1366 3331 
Q 1696 3456 2093 3456 
Q 2342 3456 2547 3414 
Q 2752 3373 2902 3299 
Q 3053 3226 3136 3120 
Q 3219 3014 3219 2893 
Q 3219 2765 3136 2694 
Q 3053 2624 2906 2624 
Q 2790 2624 2713 2672 
Q 2637 2720 2515 2886 
Q 2387 3034 2268 3094 
Q 2150 3155 1965 3155 
Q 1510 3155 1276 2803 
Q 1043 2451 1043 1766 
Q 1043 1030 1302 649 
Q 1562 269 2061 269 
Q 2330 269 2566 374 
Q 2803 480 3046 717 
L 3238 531 
z
" transform="scale(0.015625)"/>
      <path id="LibreBaskerville-Regular-72" d="M 1421 1018 
Q 1421 755 1433 601 
Q 1446 448 1500 368 
Q 1555 288 1657 262 
Q 1760 237 1946 224 
L 1946 0 
L 243 0 
L 243 224 
Q 429 230 537 259 
Q 646 288 704 365 
Q 762 442 778 586 
Q 794 730 794 973 
L 794 1722 
Q 794 2157 784 2400 
Q 774 2643 720 2758 
Q 666 2874 550 2896 
Q 435 2918 230 2918 
L 230 3142 
L 1350 3386 
L 1440 2592 
L 1466 2592 
Q 1549 2784 1673 2944 
Q 1798 3104 1945 3216 
Q 2093 3328 2253 3392 
Q 2413 3456 2579 3456 
Q 2784 3456 2902 3357 
Q 3021 3258 3021 3091 
Q 3021 2938 2925 2851 
Q 2829 2765 2650 2765 
Q 2547 2765 2476 2790 
Q 2406 2816 2352 2845 
Q 2298 2874 2250 2899 
Q 2202 2925 2144 2925 
Q 1971 2925 1798 2704 
Q 1626 2483 1530 2144 
Q 1478 1958 1449 1724 
Q 1421 1491 1421 1235 
L 1421 1018 
z
" transform="scale(0.015625)"/>
      <path id="LibreBaskerville-Regular-69" d="M 1459 1018 
Q 1459 768 1481 617 
Q 1504 467 1568 380 
Q 1632 294 1747 262 
Q 1862 230 2054 224 
L 2054 0 
L 218 0 
L 218 224 
Q 410 230 531 265 
Q 653 301 720 381 
Q 787 461 809 605 
Q 832 749 832 973 
L 832 1792 
Q 832 2163 822 2403 
Q 813 2643 787 2733 
Q 755 2880 640 2934 
Q 525 2989 205 2989 
L 205 3213 
L 1459 3456 
L 1459 1018 
z
M 723 4755 
Q 723 4922 838 5037 
Q 954 5152 1120 5152 
Q 1286 5152 1401 5037 
Q 1517 4922 1517 4755 
Q 1517 4589 1401 4473 
Q 1286 4358 1120 4358 
Q 954 4358 838 4473 
Q 723 4589 723 4755 
z
" transform="scale(0.015625)"/>
      <path id="LibreBaskerville-Regular-74" d="M 256 2989 
L 256 3226 
Q 595 3424 787 3622 
Q 979 3821 1082 4096 
L 1267 4096 
L 1267 3290 
L 2125 3290 
L 2125 2989 
L 1267 2989 
L 1267 1043 
Q 1267 819 1289 665 
Q 1312 512 1363 419 
Q 1414 326 1497 288 
Q 1581 250 1709 250 
Q 1869 250 1981 317 
Q 2093 384 2202 544 
L 2362 422 
Q 2272 186 2051 61 
Q 1830 -64 1504 -64 
Q 1082 -64 861 137 
Q 640 339 640 717 
L 640 2989 
L 256 2989 
z
" transform="scale(0.015625)"/>
      <path id="LibreBaskerville-Regular-4d" d="M 3520 1146 
L 5184 4928 
L 6618 4928 
L 6618 4685 
Q 6413 4678 6288 4633 
Q 6163 4589 6096 4483 
Q 6029 4378 6006 4192 
Q 5984 4006 5984 3718 
L 5984 1210 
Q 5984 890 6009 704 
Q 6035 518 6108 416 
Q 6182 314 6320 282 
Q 6458 250 6682 243 
L 6682 0 
L 4608 0 
L 4608 243 
Q 4832 250 4969 285 
Q 5107 320 5184 416 
Q 5261 512 5286 688 
Q 5312 864 5312 1165 
L 5312 4134 
L 5248 4134 
L 3379 -64 
L 3238 -64 
L 1402 4134 
L 1376 4134 
L 1376 1210 
Q 1376 890 1401 704 
Q 1427 518 1500 416 
Q 1574 314 1712 282 
Q 1850 250 2074 243 
L 2074 0 
L 288 0 
L 288 243 
Q 512 250 649 285 
Q 787 320 864 416 
Q 941 512 966 688 
Q 992 864 992 1165 
L 992 3763 
Q 992 4032 969 4208 
Q 947 4384 880 4486 
Q 813 4589 685 4630 
Q 557 4672 352 4685 
L 352 4928 
L 1882 4928 
L 3494 1146 
L 3520 1146 
z
" transform="scale(0.015625)"/>
      <path id="LibreBaskerville-Regular-56" d="M 2714 979 
L 3840 3757 
Q 3936 3994 3974 4128 
Q 4013 4262 4013 4371 
Q 4013 4544 3907 4614 
Q 3802 4685 3514 4685 
L 3514 4928 
L 5069 4928 
L 5069 4685 
Q 4922 4666 4816 4634 
Q 4710 4602 4630 4544 
Q 4550 4486 4489 4393 
Q 4429 4301 4371 4166 
L 2637 -64 
L 2413 -64 
L 762 3923 
Q 678 4115 598 4256 
Q 518 4397 422 4486 
Q 326 4576 204 4621 
Q 83 4666 -83 4678 
L -83 4928 
L 2003 4928 
L 2003 4678 
Q 1824 4678 1712 4662 
Q 1600 4646 1536 4611 
Q 1472 4576 1446 4525 
Q 1421 4474 1421 4410 
Q 1421 4320 1453 4201 
Q 1485 4083 1574 3859 
L 2714 979 
z
" transform="scale(0.015625)"/>
      <path id="LibreBaskerville-Regular-43" d="M 4410 4928 
L 4589 4928 
L 4646 3456 
L 4410 3456 
Q 4269 4019 3865 4339 
Q 3462 4659 2893 4659 
Q 2502 4659 2195 4505 
Q 1888 4352 1677 4064 
Q 1466 3776 1354 3360 
Q 1242 2944 1242 2419 
Q 1242 1389 1670 835 
Q 2099 282 2912 282 
Q 4147 282 4499 1594 
L 4762 1594 
L 4762 0 
L 4538 0 
L 4390 506 
Q 3718 -64 2765 -64 
Q 2221 -64 1782 109 
Q 1344 282 1033 598 
Q 723 915 553 1369 
Q 384 1824 384 2381 
Q 384 2963 563 3443 
Q 742 3923 1065 4268 
Q 1389 4614 1840 4803 
Q 2291 4992 2835 4992 
Q 3219 4992 3558 4883 
Q 3898 4774 4294 4531 
L 4410 4928 
z
" transform="scale(0.015625)"/>
      <path id="LibreBaskerville-Regular-46" d="M 1664 1018 
Q 1664 774 1693 624 
Q 1722 474 1818 394 
Q 1914 314 2090 282 
Q 2266 250 2554 243 
L 2554 0 
L 288 0 
L 288 243 
Q 512 250 649 282 
Q 787 314 864 390 
Q 941 467 966 608 
Q 992 749 992 973 
L 992 3955 
Q 992 4179 969 4316 
Q 947 4454 880 4534 
Q 813 4614 685 4643 
Q 557 4672 352 4685 
L 352 4928 
L 4051 4928 
L 4122 3706 
L 3898 3706 
Q 3859 3981 3776 4157 
Q 3693 4333 3542 4435 
Q 3392 4538 3161 4579 
Q 2931 4621 2586 4621 
L 1773 4621 
Q 1664 4621 1664 4512 
L 1664 2579 
Q 1971 2579 2192 2614 
Q 2413 2650 2557 2739 
Q 2701 2829 2777 2982 
Q 2854 3136 2874 3379 
L 3098 3379 
L 3098 1504 
L 2874 1504 
Q 2842 1747 2771 1907 
Q 2701 2067 2563 2156 
Q 2426 2246 2208 2284 
Q 1990 2323 1664 2323 
L 1664 1018 
z
" transform="scale(0.015625)"/>
      <path id="LibreBaskerville-Regular-6d" d="M 1414 1024 
Q 1414 755 1427 601 
Q 1440 448 1494 368 
Q 1549 288 1651 262 
Q 1754 237 1939 224 
L 1939 0 
L 237 0 
L 237 224 
Q 422 237 531 262 
Q 640 288 697 365 
Q 755 442 771 586 
Q 787 730 787 973 
L 787 1792 
Q 787 2157 777 2400 
Q 768 2643 742 2733 
Q 723 2816 697 2864 
Q 672 2912 614 2941 
Q 557 2970 464 2979 
Q 371 2989 224 2989 
L 224 3213 
L 1267 3456 
L 1350 2816 
L 1382 2816 
Q 1670 3142 1987 3299 
Q 2304 3456 2688 3456 
Q 3091 3456 3366 3293 
Q 3642 3130 3750 2822 
L 3776 2822 
Q 4013 3123 4352 3289 
Q 4691 3456 5075 3456 
Q 5376 3456 5622 3357 
Q 5869 3258 5997 3085 
Q 6112 2938 6160 2698 
Q 6208 2458 6208 2042 
L 6208 1024 
Q 6208 762 6224 608 
Q 6240 454 6291 371 
Q 6342 288 6448 262 
Q 6554 237 6739 224 
L 6739 0 
L 5037 0 
L 5037 224 
Q 5216 230 5325 259 
Q 5434 288 5491 368 
Q 5549 448 5565 589 
Q 5581 730 5581 973 
L 5581 1779 
Q 5581 2144 5542 2397 
Q 5504 2650 5414 2806 
Q 5325 2963 5181 3033 
Q 5037 3104 4832 3104 
Q 4550 3104 4304 2947 
Q 4058 2790 3917 2528 
Q 3885 2464 3862 2403 
Q 3840 2342 3827 2268 
Q 3814 2195 3811 2092 
Q 3808 1990 3808 1837 
L 3808 1024 
Q 3808 762 3821 608 
Q 3834 454 3888 371 
Q 3942 288 4051 262 
Q 4160 237 4346 224 
L 4346 0 
L 2643 0 
L 2643 224 
Q 2822 237 2931 262 
Q 3040 288 3094 365 
Q 3149 442 3165 586 
Q 3181 730 3181 973 
L 3181 1779 
Q 3181 2150 3142 2403 
Q 3104 2656 3017 2813 
Q 2931 2970 2790 3037 
Q 2650 3104 2445 3104 
Q 2157 3104 1904 2947 
Q 1651 2790 1523 2528 
Q 1491 2464 1468 2403 
Q 1446 2342 1433 2268 
Q 1421 2195 1417 2092 
Q 1414 1990 1414 1837 
L 1414 1024 
z
" transform="scale(0.015625)"/>
      <path id="LibreBaskerville-Regular-65" d="M 3341 595 
Q 2797 -64 1990 -64 
Q 1613 -64 1305 61 
Q 998 186 777 413 
Q 557 640 435 957 
Q 314 1274 314 1658 
Q 314 2048 442 2381 
Q 570 2714 803 2950 
Q 1037 3187 1360 3321 
Q 1683 3456 2067 3456 
Q 2688 3456 3027 3120 
Q 3366 2784 3366 2157 
Q 3366 2067 3331 2048 
Q 3296 2029 3168 2029 
L 1062 2029 
Q 1050 1978 1043 1904 
Q 1037 1830 1037 1741 
Q 1037 1408 1117 1136 
Q 1197 864 1347 672 
Q 1498 480 1706 374 
Q 1914 269 2170 269 
Q 2438 269 2668 387 
Q 2899 506 3142 774 
L 3341 595 
z
M 2285 2323 
Q 2413 2323 2489 2329 
Q 2566 2336 2604 2355 
Q 2643 2374 2656 2409 
Q 2669 2445 2669 2502 
Q 2669 2797 2480 2973 
Q 2291 3149 1965 3149 
Q 1274 3149 1107 2323 
L 2285 2323 
z
" transform="scale(0.015625)"/>
      <path id="LibreBaskerville-Regular-77" d="M 1779 -64 
L 1542 -64 
L 710 2598 
Q 653 2778 601 2886 
Q 550 2995 480 3059 
Q 410 3123 314 3145 
Q 218 3168 77 3168 
L 77 3392 
L 1773 3392 
L 1773 3168 
Q 1523 3168 1420 3110 
Q 1318 3053 1318 2912 
Q 1318 2848 1337 2761 
Q 1357 2675 1389 2547 
L 1824 1018 
L 1850 1018 
L 2790 3392 
L 2989 3392 
L 3840 1018 
L 3866 1018 
L 4250 2054 
Q 4326 2266 4377 2410 
Q 4429 2554 4457 2653 
Q 4486 2752 4499 2816 
Q 4512 2880 4512 2938 
Q 4512 3078 4429 3123 
Q 4346 3168 4083 3168 
L 4083 3392 
L 5363 3392 
L 5363 3168 
Q 5267 3168 5200 3139 
Q 5133 3110 5065 3027 
Q 4998 2944 4928 2790 
Q 4858 2637 4755 2387 
L 3763 -64 
L 3526 -64 
L 2746 2298 
L 2720 2298 
L 1779 -64 
z
" transform="scale(0.015625)"/>
      <path id="LibreBaskerville-Regular-6b" d="M 2227 224 
Q 2438 224 2518 243 
Q 2598 262 2598 294 
Q 2592 346 2496 480 
Q 2400 614 2246 800 
L 1568 1619 
L 1331 1395 
L 1331 1018 
Q 1331 768 1353 617 
Q 1376 467 1437 380 
Q 1498 294 1616 262 
Q 1734 230 1926 224 
L 1926 0 
L 109 0 
L 109 224 
Q 301 230 419 262 
Q 538 294 605 377 
Q 672 461 697 601 
Q 723 742 723 973 
L 723 3654 
Q 723 4141 713 4390 
Q 704 4640 646 4730 
Q 589 4819 454 4835 
Q 320 4851 96 4851 
L 96 5069 
L 1331 5312 
L 1331 1798 
L 1926 2381 
Q 2214 2669 2355 2806 
Q 2496 2944 2496 3014 
Q 2496 3085 2361 3126 
Q 2227 3168 1978 3168 
L 1978 3392 
L 3642 3392 
L 3642 3168 
Q 3520 3168 3430 3155 
Q 3341 3142 3261 3104 
Q 3181 3066 3091 2998 
Q 3002 2931 2886 2829 
L 1965 2010 
L 3232 576 
Q 3322 467 3395 400 
Q 3469 333 3542 294 
Q 3616 256 3702 240 
Q 3789 224 3910 224 
L 3910 0 
L 2227 0 
L 2227 224 
z
" transform="scale(0.015625)"/>
     </defs>
     <use xlink:href="#LibreBaskerville-Regular-54"/>
     <use xlink:href="#LibreBaskerville-Regular-6f" x="80.299988"/>
     <use xlink:href="#LibreBaskerville-Regular-70" x="145.699982"/>
     <use xlink:href="#LibreBaskerville-Regular-20" x="213.599976"/>
     <use xlink:href="#LibreBaskerville-Regular-4a" x="242.299973"/>
     <use xlink:href="#LibreBaskerville-Regular-61" x="281.699966"/>
     <use xlink:href="#LibreBaskerville-Regular-76" x="337.09996"/>
     <use xlink:href="#LibreBaskerville-Regular-61" x="398.099945"/>
     <use xlink:href="#LibreBaskerville-Regular-73" x="453.499939"/>
     <use xlink:href="#LibreBaskerville-Regular-63" x="498.899933"/>
     <use xlink:href="#LibreBaskerville-Regular-72" x="552.499924"/>
     <use xlink:href="#LibreBaskerville-Regular-69" x="600.199921"/>
     <use xlink:href="#LibreBaskerville-Regular-70" x="634.299911"/>
     <use xlink:href="#LibreBaskerville-Regular-74" x="702.199905"/>
     <use xlink:href="#LibreBaskerville-Regular-20" x="739.999893"/>
     <use xlink:href="#LibreBaskerville-Regular-4d" x="768.69989"/>
     <use xlink:href="#LibreBaskerville-Regular-56" x="877.699875"/>
     <use xlink:href="#LibreBaskerville-Regular-43" x="956.099869"/>
     <use xlink:href="#LibreBaskerville-Regular-20" x="1036.29985"/>
     <use xlink:href="#LibreBaskerville-Regular-46" x="1064.999847"/>
     <use xlink:href="#LibreBaskerville-Regular-72" x="1131.999832"/>
     <use xlink:href="#LibreBaskerville-Regular-61" x="1179.699829"/>
     <use xlink:href="#LibreBaskerville-Regular-6d" x="1235.099823"/>
     <use xlink:href="#LibreBaskerville-Regular-65" x="1342.399811"/>
     <use xlink:href="#LibreBaskerville-Regular-77" x="1399.699799"/>
     <use xlink:href="#LibreBaskerville-Regular-6f" x="1484.89978"/>
     <use xlink:href="#LibreBaskerville-Regular-72" x="1550.299774"/>
     <use xlink:href="#LibreBaskerville-Regular-6b" x="1597.999771"/>
     <use xlink:href="#LibreBaskerville-Regular-73" x="1659.599762"/>
    </g>
   </g>
  </g>
 </g>
 <defs>
  <clipPath id="p6f7bc0ce99">
   <rect x="141.12" y="31.68" width="312.48" height="288.72"/>
  </clipPath>
 </defs>
</svg>
