<?xml version="1.0" encoding="utf-8" standalone="no"?>
<!DOCTYPE svg PUBLIC "-//W3C//DTD SVG 1.1//EN"
  "http://www.w3.org/Graphics/SVG/1.1/DTD/svg11.dtd">
<svg xmlns:xlink="http://www.w3.org/1999/xlink" width="504pt" height="360pt" viewBox="0 0 504 360" xmlns="http://www.w3.org/2000/svg" version="1.1">
 <metadata>
  <rdf:RDF xmlns:dc="http://purl.org/dc/elements/1.1/" xmlns:cc="http://creativecommons.org/ns#" xmlns:rdf="http://www.w3.org/1999/02/22-rdf-syntax-ns#">
   <cc:Work>
    <dc:type rdf:resource="http://purl.org/dc/dcmitype/StillImage"/>
    <dc:date>2023-03-01T13:39:16.511327</dc:date>
    <dc:format>image/svg+xml</dc:format>
    <dc:creator>
     <cc:Agent>
      <dc:title>Matplotlib v3.7.0, https://matplotlib.org/</dc:title>
     </cc:Agent>
    </dc:creator>
   </cc:Work>
  </rdf:RDF>
 </metadata>
 <defs>
  <style type="text/css">*{stroke-linejoin: round; stroke-linecap: butt}</style>
 </defs>
 <g id="figure_1">
  <g id="patch_1">
   <path d="M 0 360 
L 504 360 
L 504 0 
L 0 0 
z
" style="fill: #ffffff"/>
  </g>
  <g id="axes_1">
   <g id="patch_2">
    <path d="M 141.12 320.4 
L 453.6 320.4 
L 453.6 31.68 
L 141.12 31.68 
z
" style="fill: #ffffff"/>
   </g>
   <g id="patch_3">
    <path d="M 141.12 34.086 
L 438.72 34.086 
L 438.72 53.334 
L 141.12 53.334 
z
" clip-path="url(#p3371e42218)" style="fill: #184578"/>
   </g>
   <g id="patch_4">
    <path d="M 141.12 58.146 
L 379.2 58.146 
L 379.2 77.394 
L 141.12 77.394 
z
" clip-path="url(#p3371e42218)" style="fill: #20588f"/>
   </g>
   <g id="patch_5">
    <path d="M 141.12 82.206 
L 379.2 82.206 
L 379.2 101.454 
L 141.12 101.454 
z
" clip-path="url(#p3371e42218)" style="fill: #306b9f"/>
   </g>
   <g id="patch_6">
    <path d="M 141.12 106.266 
L 289.92 106.266 
L 289.92 125.514 
L 141.12 125.514 
z
" clip-path="url(#p3371e42218)" style="fill: #417dab"/>
   </g>
   <g id="patch_7">
    <path d="M 141.12 130.326 
L 260.16 130.326 
L 260.16 149.574 
L 141.12 149.574 
z
" clip-path="url(#p3371e42218)" style="fill: #5591b7"/>
   </g>
   <g id="patch_8">
    <path d="M 141.12 154.386 
L 230.4 154.386 
L 230.4 173.634 
L 141.12 173.634 
z
" clip-path="url(#p3371e42218)" style="fill: #6da2c3"/>
   </g>
   <g id="patch_9">
    <path d="M 141.12 178.446 
L 230.4 178.446 
L 230.4 197.694 
L 141.12 197.694 
z
" clip-path="url(#p3371e42218)" style="fill: #86b3cd"/>
   </g>
   <g id="patch_10">
    <path d="M 141.12 202.506 
L 200.64 202.506 
L 200.64 221.754 
L 141.12 221.754 
z
" clip-path="url(#p3371e42218)" style="fill: #a3c5d7"/>
   </g>
   <g id="patch_11">
    <path d="M 141.12 226.566 
L 200.64 226.566 
L 200.64 245.814 
L 141.12 245.814 
z
" clip-path="url(#p3371e42218)" style="fill: #bbd2e2"/>
   </g>
   <g id="patch_12">
    <path d="M 141.12 250.626 
L 170.88 250.626 
L 170.88 269.874 
L 141.12 269.874 
z
" clip-path="url(#p3371e42218)" style="fill: #ceddeb"/>
   </g>
   <g id="patch_13">
    <path d="M 141.12 274.686 
L 170.88 274.686 
L 170.88 293.934 
L 141.12 293.934 
z
" clip-path="url(#p3371e42218)" style="fill: #dce7f2"/>
   </g>
   <g id="patch_14">
    <path d="M 141.12 298.746 
L 170.88 298.746 
L 170.88 317.994 
L 141.12 317.994 
z
" clip-path="url(#p3371e42218)" style="fill: #eaf1f8"/>
   </g>
   <g id="matplotlib.axis_1">
    <g id="xtick_1">
     <g id="line2d_1">
      <defs>
       <path id="m138f9620ca" d="M 0 0 
L 0 3.5 
" style="stroke: #000000; stroke-width: 0.8"/>
      </defs>
      <g>
       <use xlink:href="#m138f9620ca" x="141.12" y="320.4" style="stroke: #000000; stroke-width: 0.8"/>
      </g>
     </g>
     <g id="text_1">
      <!-- 0 -->
      <g transform="translate(137.93875 334.998438) scale(0.1 -0.1)">
       <defs>
        <path id="DejaVuSans-30" d="M 2034 4250 
Q 1547 4250 1301 3770 
Q 1056 3291 1056 2328 
Q 1056 1369 1301 889 
Q 1547 409 2034 409 
Q 2525 409 2770 889 
Q 3016 1369 3016 2328 
Q 3016 3291 2770 3770 
Q 2525 4250 2034 4250 
z
M 2034 4750 
Q 2819 4750 3233 4129 
Q 3647 3509 3647 2328 
Q 3647 1150 3233 529 
Q 2819 -91 2034 -91 
Q 1250 -91 836 529 
Q 422 1150 422 2328 
Q 422 3509 836 4129 
Q 1250 4750 2034 4750 
z
" transform="scale(0.015625)"/>
       </defs>
       <use xlink:href="#DejaVuSans-30"/>
      </g>
     </g>
    </g>
    <g id="xtick_2">
     <g id="line2d_2">
      <g>
       <use xlink:href="#m138f9620ca" x="200.64" y="320.4" style="stroke: #000000; stroke-width: 0.8"/>
      </g>
     </g>
     <g id="text_2">
      <!-- 2 -->
      <g transform="translate(197.45875 334.998438) scale(0.1 -0.1)">
       <defs>
        <path id="DejaVuSans-32" d="M 1228 531 
L 3431 531 
L 3431 0 
L 469 0 
L 469 531 
Q 828 903 1448 1529 
Q 2069 2156 2228 2338 
Q 2531 2678 2651 2914 
Q 2772 3150 2772 3378 
Q 2772 3750 2511 3984 
Q 2250 4219 1831 4219 
Q 1534 4219 1204 4116 
Q 875 4013 500 3803 
L 500 4441 
Q 881 4594 1212 4672 
Q 1544 4750 1819 4750 
Q 2544 4750 2975 4387 
Q 3406 4025 3406 3419 
Q 3406 3131 3298 2873 
Q 3191 2616 2906 2266 
Q 2828 2175 2409 1742 
Q 1991 1309 1228 531 
z
" transform="scale(0.015625)"/>
       </defs>
       <use xlink:href="#DejaVuSans-32"/>
      </g>
     </g>
    </g>
    <g id="xtick_3">
     <g id="line2d_3">
      <g>
       <use xlink:href="#m138f9620ca" x="260.16" y="320.4" style="stroke: #000000; stroke-width: 0.8"/>
      </g>
     </g>
     <g id="text_3">
      <!-- 4 -->
      <g transform="translate(256.97875 334.998438) scale(0.1 -0.1)">
       <defs>
        <path id="DejaVuSans-34" d="M 2419 4116 
L 825 1625 
L 2419 1625 
L 2419 4116 
z
M 2253 4666 
L 3047 4666 
L 3047 1625 
L 3713 1625 
L 3713 1100 
L 3047 1100 
L 3047 0 
L 2419 0 
L 2419 1100 
L 313 1100 
L 313 1709 
L 2253 4666 
z
" transform="scale(0.015625)"/>
       </defs>
       <use xlink:href="#DejaVuSans-34"/>
      </g>
     </g>
    </g>
    <g id="xtick_4">
     <g id="line2d_4">
      <g>
       <use xlink:href="#m138f9620ca" x="319.68" y="320.4" style="stroke: #000000; stroke-width: 0.8"/>
      </g>
     </g>
     <g id="text_4">
      <!-- 6 -->
      <g transform="translate(316.49875 334.998438) scale(0.1 -0.1)">
       <defs>
        <path id="DejaVuSans-36" d="M 2113 2584 
Q 1688 2584 1439 2293 
Q 1191 2003 1191 1497 
Q 1191 994 1439 701 
Q 1688 409 2113 409 
Q 2538 409 2786 701 
Q 3034 994 3034 1497 
Q 3034 2003 2786 2293 
Q 2538 2584 2113 2584 
z
M 3366 4563 
L 3366 3988 
Q 3128 4100 2886 4159 
Q 2644 4219 2406 4219 
Q 1781 4219 1451 3797 
Q 1122 3375 1075 2522 
Q 1259 2794 1537 2939 
Q 1816 3084 2150 3084 
Q 2853 3084 3261 2657 
Q 3669 2231 3669 1497 
Q 3669 778 3244 343 
Q 2819 -91 2113 -91 
Q 1303 -91 875 529 
Q 447 1150 447 2328 
Q 447 3434 972 4092 
Q 1497 4750 2381 4750 
Q 2619 4750 2861 4703 
Q 3103 4656 3366 4563 
z
" transform="scale(0.015625)"/>
       </defs>
       <use xlink:href="#DejaVuSans-36"/>
      </g>
     </g>
    </g>
    <g id="xtick_5">
     <g id="line2d_5">
      <g>
       <use xlink:href="#m138f9620ca" x="379.2" y="320.4" style="stroke: #000000; stroke-width: 0.8"/>
      </g>
     </g>
     <g id="text_5">
      <!-- 8 -->
      <g transform="translate(376.01875 334.998438) scale(0.1 -0.1)">
       <defs>
        <path id="DejaVuSans-38" d="M 2034 2216 
Q 1584 2216 1326 1975 
Q 1069 1734 1069 1313 
Q 1069 891 1326 650 
Q 1584 409 2034 409 
Q 2484 409 2743 651 
Q 3003 894 3003 1313 
Q 3003 1734 2745 1975 
Q 2488 2216 2034 2216 
z
M 1403 2484 
Q 997 2584 770 2862 
Q 544 3141 544 3541 
Q 544 4100 942 4425 
Q 1341 4750 2034 4750 
Q 2731 4750 3128 4425 
Q 3525 4100 3525 3541 
Q 3525 3141 3298 2862 
Q 3072 2584 2669 2484 
Q 3125 2378 3379 2068 
Q 3634 1759 3634 1313 
Q 3634 634 3220 271 
Q 2806 -91 2034 -91 
Q 1263 -91 848 271 
Q 434 634 434 1313 
Q 434 1759 690 2068 
Q 947 2378 1403 2484 
z
M 1172 3481 
Q 1172 3119 1398 2916 
Q 1625 2713 2034 2713 
Q 2441 2713 2670 2916 
Q 2900 3119 2900 3481 
Q 2900 3844 2670 4047 
Q 2441 4250 2034 4250 
Q 1625 4250 1398 4047 
Q 1172 3844 1172 3481 
z
" transform="scale(0.015625)"/>
       </defs>
       <use xlink:href="#DejaVuSans-38"/>
      </g>
     </g>
    </g>
    <g id="xtick_6">
     <g id="line2d_6">
      <g>
       <use xlink:href="#m138f9620ca" x="438.72" y="320.4" style="stroke: #000000; stroke-width: 0.8"/>
      </g>
     </g>
     <g id="text_6">
      <!-- 10 -->
      <g transform="translate(432.3575 334.998438) scale(0.1 -0.1)">
       <defs>
        <path id="DejaVuSans-31" d="M 794 531 
L 1825 531 
L 1825 4091 
L 703 3866 
L 703 4441 
L 1819 4666 
L 2450 4666 
L 2450 531 
L 3481 531 
L 3481 0 
L 794 0 
L 794 531 
z
" transform="scale(0.015625)"/>
       </defs>
       <use xlink:href="#DejaVuSans-31"/>
       <use xlink:href="#DejaVuSans-30" x="63.623047"/>
      </g>
     </g>
    </g>
    <g id="text_7">
     <!-- count -->
     <g transform="translate(283.25375 348.676562) scale(0.1 -0.1)">
      <defs>
       <path id="DejaVuSans-63" d="M 3122 3366 
L 3122 2828 
Q 2878 2963 2633 3030 
Q 2388 3097 2138 3097 
Q 1578 3097 1268 2742 
Q 959 2388 959 1747 
Q 959 1106 1268 751 
Q 1578 397 2138 397 
Q 2388 397 2633 464 
Q 2878 531 3122 666 
L 3122 134 
Q 2881 22 2623 -34 
Q 2366 -91 2075 -91 
Q 1284 -91 818 406 
Q 353 903 353 1747 
Q 353 2603 823 3093 
Q 1294 3584 2113 3584 
Q 2378 3584 2631 3529 
Q 2884 3475 3122 3366 
z
" transform="scale(0.015625)"/>
       <path id="DejaVuSans-6f" d="M 1959 3097 
Q 1497 3097 1228 2736 
Q 959 2375 959 1747 
Q 959 1119 1226 758 
Q 1494 397 1959 397 
Q 2419 397 2687 759 
Q 2956 1122 2956 1747 
Q 2956 2369 2687 2733 
Q 2419 3097 1959 3097 
z
M 1959 3584 
Q 2709 3584 3137 3096 
Q 3566 2609 3566 1747 
Q 3566 888 3137 398 
Q 2709 -91 1959 -91 
Q 1206 -91 779 398 
Q 353 888 353 1747 
Q 353 2609 779 3096 
Q 1206 3584 1959 3584 
z
" transform="scale(0.015625)"/>
       <path id="DejaVuSans-75" d="M 544 1381 
L 544 3500 
L 1119 3500 
L 1119 1403 
Q 1119 906 1312 657 
Q 1506 409 1894 409 
Q 2359 409 2629 706 
Q 2900 1003 2900 1516 
L 2900 3500 
L 3475 3500 
L 3475 0 
L 2900 0 
L 2900 538 
Q 2691 219 2414 64 
Q 2138 -91 1772 -91 
Q 1169 -91 856 284 
Q 544 659 544 1381 
z
M 1991 3584 
L 1991 3584 
z
" transform="scale(0.015625)"/>
       <path id="DejaVuSans-6e" d="M 3513 2113 
L 3513 0 
L 2938 0 
L 2938 2094 
Q 2938 2591 2744 2837 
Q 2550 3084 2163 3084 
Q 1697 3084 1428 2787 
Q 1159 2491 1159 1978 
L 1159 0 
L 581 0 
L 581 3500 
L 1159 3500 
L 1159 2956 
Q 1366 3272 1645 3428 
Q 1925 3584 2291 3584 
Q 2894 3584 3203 3211 
Q 3513 2838 3513 2113 
z
" transform="scale(0.015625)"/>
       <path id="DejaVuSans-74" d="M 1172 4494 
L 1172 3500 
L 2356 3500 
L 2356 3053 
L 1172 3053 
L 1172 1153 
Q 1172 725 1289 603 
Q 1406 481 1766 481 
L 2356 481 
L 2356 0 
L 1766 0 
Q 1100 0 847 248 
Q 594 497 594 1153 
L 594 3053 
L 172 3053 
L 172 3500 
L 594 3500 
L 594 4494 
L 1172 4494 
z
" transform="scale(0.015625)"/>
      </defs>
      <use xlink:href="#DejaVuSans-63"/>
      <use xlink:href="#DejaVuSans-6f" x="54.980469"/>
      <use xlink:href="#DejaVuSans-75" x="116.162109"/>
      <use xlink:href="#DejaVuSans-6e" x="179.541016"/>
      <use xlink:href="#DejaVuSans-74" x="242.919922"/>
     </g>
    </g>
   </g>
   <g id="matplotlib.axis_2">
    <g id="ytick_1">
     <g id="line2d_7">
      <defs>
       <path id="me72d8508fe" d="M 0 0 
L -3.5 0 
" style="stroke: #000000; stroke-width: 0.8"/>
      </defs>
      <g>
       <use xlink:href="#me72d8508fe" x="141.12" y="43.71" style="stroke: #000000; stroke-width: 0.8"/>
      </g>
     </g>
     <g id="text_8">
      <!-- .NET -->
      <g transform="translate(111.034063 47.509219) scale(0.1 -0.1)">
       <defs>
        <path id="DejaVuSans-2e" d="M 684 794 
L 1344 794 
L 1344 0 
L 684 0 
L 684 794 
z
" transform="scale(0.015625)"/>
        <path id="DejaVuSans-4e" d="M 628 4666 
L 1478 4666 
L 3547 763 
L 3547 4666 
L 4159 4666 
L 4159 0 
L 3309 0 
L 1241 3903 
L 1241 0 
L 628 0 
L 628 4666 
z
" transform="scale(0.015625)"/>
        <path id="DejaVuSans-45" d="M 628 4666 
L 3578 4666 
L 3578 4134 
L 1259 4134 
L 1259 2753 
L 3481 2753 
L 3481 2222 
L 1259 2222 
L 1259 531 
L 3634 531 
L 3634 0 
L 628 0 
L 628 4666 
z
" transform="scale(0.015625)"/>
        <path id="DejaVuSans-54" d="M -19 4666 
L 3928 4666 
L 3928 4134 
L 2272 4134 
L 2272 0 
L 1638 0 
L 1638 4134 
L -19 4134 
L -19 4666 
z
" transform="scale(0.015625)"/>
       </defs>
       <use xlink:href="#DejaVuSans-2e"/>
       <use xlink:href="#DejaVuSans-4e" x="31.787109"/>
       <use xlink:href="#DejaVuSans-45" x="106.591797"/>
       <use xlink:href="#DejaVuSans-54" x="169.775391"/>
      </g>
     </g>
    </g>
    <g id="ytick_2">
     <g id="line2d_8">
      <g>
       <use xlink:href="#me72d8508fe" x="141.12" y="67.77" style="stroke: #000000; stroke-width: 0.8"/>
      </g>
     </g>
     <g id="text_9">
      <!-- Node.js -->
      <g transform="translate(96.852812 71.569219) scale(0.1 -0.1)">
       <defs>
        <path id="DejaVuSans-64" d="M 2906 2969 
L 2906 4863 
L 3481 4863 
L 3481 0 
L 2906 0 
L 2906 525 
Q 2725 213 2448 61 
Q 2172 -91 1784 -91 
Q 1150 -91 751 415 
Q 353 922 353 1747 
Q 353 2572 751 3078 
Q 1150 3584 1784 3584 
Q 2172 3584 2448 3432 
Q 2725 3281 2906 2969 
z
M 947 1747 
Q 947 1113 1208 752 
Q 1469 391 1925 391 
Q 2381 391 2643 752 
Q 2906 1113 2906 1747 
Q 2906 2381 2643 2742 
Q 2381 3103 1925 3103 
Q 1469 3103 1208 2742 
Q 947 2381 947 1747 
z
" transform="scale(0.015625)"/>
        <path id="DejaVuSans-65" d="M 3597 1894 
L 3597 1613 
L 953 1613 
Q 991 1019 1311 708 
Q 1631 397 2203 397 
Q 2534 397 2845 478 
Q 3156 559 3463 722 
L 3463 178 
Q 3153 47 2828 -22 
Q 2503 -91 2169 -91 
Q 1331 -91 842 396 
Q 353 884 353 1716 
Q 353 2575 817 3079 
Q 1281 3584 2069 3584 
Q 2775 3584 3186 3129 
Q 3597 2675 3597 1894 
z
M 3022 2063 
Q 3016 2534 2758 2815 
Q 2500 3097 2075 3097 
Q 1594 3097 1305 2825 
Q 1016 2553 972 2059 
L 3022 2063 
z
" transform="scale(0.015625)"/>
        <path id="DejaVuSans-6a" d="M 603 3500 
L 1178 3500 
L 1178 -63 
Q 1178 -731 923 -1031 
Q 669 -1331 103 -1331 
L -116 -1331 
L -116 -844 
L 38 -844 
Q 366 -844 484 -692 
Q 603 -541 603 -63 
L 603 3500 
z
M 603 4863 
L 1178 4863 
L 1178 4134 
L 603 4134 
L 603 4863 
z
" transform="scale(0.015625)"/>
        <path id="DejaVuSans-73" d="M 2834 3397 
L 2834 2853 
Q 2591 2978 2328 3040 
Q 2066 3103 1784 3103 
Q 1356 3103 1142 2972 
Q 928 2841 928 2578 
Q 928 2378 1081 2264 
Q 1234 2150 1697 2047 
L 1894 2003 
Q 2506 1872 2764 1633 
Q 3022 1394 3022 966 
Q 3022 478 2636 193 
Q 2250 -91 1575 -91 
Q 1294 -91 989 -36 
Q 684 19 347 128 
L 347 722 
Q 666 556 975 473 
Q 1284 391 1588 391 
Q 1994 391 2212 530 
Q 2431 669 2431 922 
Q 2431 1156 2273 1281 
Q 2116 1406 1581 1522 
L 1381 1569 
Q 847 1681 609 1914 
Q 372 2147 372 2553 
Q 372 3047 722 3315 
Q 1072 3584 1716 3584 
Q 2034 3584 2315 3537 
Q 2597 3491 2834 3397 
z
" transform="scale(0.015625)"/>
       </defs>
       <use xlink:href="#DejaVuSans-4e"/>
       <use xlink:href="#DejaVuSans-6f" x="74.804688"/>
       <use xlink:href="#DejaVuSans-64" x="135.986328"/>
       <use xlink:href="#DejaVuSans-65" x="199.462891"/>
       <use xlink:href="#DejaVuSans-2e" x="260.986328"/>
       <use xlink:href="#DejaVuSans-6a" x="292.773438"/>
       <use xlink:href="#DejaVuSans-73" x="320.556641"/>
      </g>
     </g>
    </g>
    <g id="ytick_3">
     <g id="line2d_9">
      <g>
       <use xlink:href="#me72d8508fe" x="141.12" y="91.83" style="stroke: #000000; stroke-width: 0.8"/>
      </g>
     </g>
     <g id="text_10">
      <!-- Rails -->
      <g transform="translate(110.502813 95.629219) scale(0.1 -0.1)">
       <defs>
        <path id="DejaVuSans-52" d="M 2841 2188 
Q 3044 2119 3236 1894 
Q 3428 1669 3622 1275 
L 4263 0 
L 3584 0 
L 2988 1197 
Q 2756 1666 2539 1819 
Q 2322 1972 1947 1972 
L 1259 1972 
L 1259 0 
L 628 0 
L 628 4666 
L 2053 4666 
Q 2853 4666 3247 4331 
Q 3641 3997 3641 3322 
Q 3641 2881 3436 2590 
Q 3231 2300 2841 2188 
z
M 1259 4147 
L 1259 2491 
L 2053 2491 
Q 2509 2491 2742 2702 
Q 2975 2913 2975 3322 
Q 2975 3731 2742 3939 
Q 2509 4147 2053 4147 
L 1259 4147 
z
" transform="scale(0.015625)"/>
        <path id="DejaVuSans-61" d="M 2194 1759 
Q 1497 1759 1228 1600 
Q 959 1441 959 1056 
Q 959 750 1161 570 
Q 1363 391 1709 391 
Q 2188 391 2477 730 
Q 2766 1069 2766 1631 
L 2766 1759 
L 2194 1759 
z
M 3341 1997 
L 3341 0 
L 2766 0 
L 2766 531 
Q 2569 213 2275 61 
Q 1981 -91 1556 -91 
Q 1019 -91 701 211 
Q 384 513 384 1019 
Q 384 1609 779 1909 
Q 1175 2209 1959 2209 
L 2766 2209 
L 2766 2266 
Q 2766 2663 2505 2880 
Q 2244 3097 1772 3097 
Q 1472 3097 1187 3025 
Q 903 2953 641 2809 
L 641 3341 
Q 956 3463 1253 3523 
Q 1550 3584 1831 3584 
Q 2591 3584 2966 3190 
Q 3341 2797 3341 1997 
z
" transform="scale(0.015625)"/>
        <path id="DejaVuSans-69" d="M 603 3500 
L 1178 3500 
L 1178 0 
L 603 0 
L 603 3500 
z
M 603 4863 
L 1178 4863 
L 1178 4134 
L 603 4134 
L 603 4863 
z
" transform="scale(0.015625)"/>
        <path id="DejaVuSans-6c" d="M 603 4863 
L 1178 4863 
L 1178 0 
L 603 0 
L 603 4863 
z
" transform="scale(0.015625)"/>
       </defs>
       <use xlink:href="#DejaVuSans-52"/>
       <use xlink:href="#DejaVuSans-61" x="67.232422"/>
       <use xlink:href="#DejaVuSans-69" x="128.511719"/>
       <use xlink:href="#DejaVuSans-6c" x="156.294922"/>
       <use xlink:href="#DejaVuSans-73" x="184.078125"/>
      </g>
     </g>
    </g>
    <g id="ytick_4">
     <g id="line2d_10">
      <g>
       <use xlink:href="#me72d8508fe" x="141.12" y="115.89" style="stroke: #000000; stroke-width: 0.8"/>
      </g>
     </g>
     <g id="text_11">
      <!-- Laravel -->
      <g transform="translate(97.330938 119.689219) scale(0.1 -0.1)">
       <defs>
        <path id="DejaVuSans-4c" d="M 628 4666 
L 1259 4666 
L 1259 531 
L 3531 531 
L 3531 0 
L 628 0 
L 628 4666 
z
" transform="scale(0.015625)"/>
        <path id="DejaVuSans-72" d="M 2631 2963 
Q 2534 3019 2420 3045 
Q 2306 3072 2169 3072 
Q 1681 3072 1420 2755 
Q 1159 2438 1159 1844 
L 1159 0 
L 581 0 
L 581 3500 
L 1159 3500 
L 1159 2956 
Q 1341 3275 1631 3429 
Q 1922 3584 2338 3584 
Q 2397 3584 2469 3576 
Q 2541 3569 2628 3553 
L 2631 2963 
z
" transform="scale(0.015625)"/>
        <path id="DejaVuSans-76" d="M 191 3500 
L 800 3500 
L 1894 563 
L 2988 3500 
L 3597 3500 
L 2284 0 
L 1503 0 
L 191 3500 
z
" transform="scale(0.015625)"/>
       </defs>
       <use xlink:href="#DejaVuSans-4c"/>
       <use xlink:href="#DejaVuSans-61" x="55.712891"/>
       <use xlink:href="#DejaVuSans-72" x="116.992188"/>
       <use xlink:href="#DejaVuSans-61" x="158.105469"/>
       <use xlink:href="#DejaVuSans-76" x="219.384766"/>
       <use xlink:href="#DejaVuSans-65" x="278.564453"/>
       <use xlink:href="#DejaVuSans-6c" x="340.087891"/>
      </g>
     </g>
    </g>
    <g id="ytick_5">
     <g id="line2d_11">
      <g>
       <use xlink:href="#me72d8508fe" x="141.12" y="139.95" style="stroke: #000000; stroke-width: 0.8"/>
      </g>
     </g>
     <g id="text_12">
      <!-- Android SDK -->
      <g transform="translate(71.677813 143.749219) scale(0.1 -0.1)">
       <defs>
        <path id="DejaVuSans-41" d="M 2188 4044 
L 1331 1722 
L 3047 1722 
L 2188 4044 
z
M 1831 4666 
L 2547 4666 
L 4325 0 
L 3669 0 
L 3244 1197 
L 1141 1197 
L 716 0 
L 50 0 
L 1831 4666 
z
" transform="scale(0.015625)"/>
        <path id="DejaVuSans-20" transform="scale(0.015625)"/>
        <path id="DejaVuSans-53" d="M 3425 4513 
L 3425 3897 
Q 3066 4069 2747 4153 
Q 2428 4238 2131 4238 
Q 1616 4238 1336 4038 
Q 1056 3838 1056 3469 
Q 1056 3159 1242 3001 
Q 1428 2844 1947 2747 
L 2328 2669 
Q 3034 2534 3370 2195 
Q 3706 1856 3706 1288 
Q 3706 609 3251 259 
Q 2797 -91 1919 -91 
Q 1588 -91 1214 -16 
Q 841 59 441 206 
L 441 856 
Q 825 641 1194 531 
Q 1563 422 1919 422 
Q 2459 422 2753 634 
Q 3047 847 3047 1241 
Q 3047 1584 2836 1778 
Q 2625 1972 2144 2069 
L 1759 2144 
Q 1053 2284 737 2584 
Q 422 2884 422 3419 
Q 422 4038 858 4394 
Q 1294 4750 2059 4750 
Q 2388 4750 2728 4690 
Q 3069 4631 3425 4513 
z
" transform="scale(0.015625)"/>
        <path id="DejaVuSans-44" d="M 1259 4147 
L 1259 519 
L 2022 519 
Q 2988 519 3436 956 
Q 3884 1394 3884 2338 
Q 3884 3275 3436 3711 
Q 2988 4147 2022 4147 
L 1259 4147 
z
M 628 4666 
L 1925 4666 
Q 3281 4666 3915 4102 
Q 4550 3538 4550 2338 
Q 4550 1131 3912 565 
Q 3275 0 1925 0 
L 628 0 
L 628 4666 
z
" transform="scale(0.015625)"/>
        <path id="DejaVuSans-4b" d="M 628 4666 
L 1259 4666 
L 1259 2694 
L 3353 4666 
L 4166 4666 
L 1850 2491 
L 4331 0 
L 3500 0 
L 1259 2247 
L 1259 0 
L 628 0 
L 628 4666 
z
" transform="scale(0.015625)"/>
       </defs>
       <use xlink:href="#DejaVuSans-41"/>
       <use xlink:href="#DejaVuSans-6e" x="68.408203"/>
       <use xlink:href="#DejaVuSans-64" x="131.787109"/>
       <use xlink:href="#DejaVuSans-72" x="195.263672"/>
       <use xlink:href="#DejaVuSans-6f" x="234.126953"/>
       <use xlink:href="#DejaVuSans-69" x="295.308594"/>
       <use xlink:href="#DejaVuSans-64" x="323.091797"/>
       <use xlink:href="#DejaVuSans-20" x="386.568359"/>
       <use xlink:href="#DejaVuSans-53" x="418.355469"/>
       <use xlink:href="#DejaVuSans-44" x="481.832031"/>
       <use xlink:href="#DejaVuSans-4b" x="558.833984"/>
      </g>
     </g>
    </g>
    <g id="ytick_6">
     <g id="line2d_12">
      <g>
       <use xlink:href="#me72d8508fe" x="141.12" y="164.01" style="stroke: #000000; stroke-width: 0.8"/>
      </g>
     </g>
     <g id="text_13">
      <!-- Spring -->
      <g transform="translate(101.848125 167.809219) scale(0.1 -0.1)">
       <defs>
        <path id="DejaVuSans-70" d="M 1159 525 
L 1159 -1331 
L 581 -1331 
L 581 3500 
L 1159 3500 
L 1159 2969 
Q 1341 3281 1617 3432 
Q 1894 3584 2278 3584 
Q 2916 3584 3314 3078 
Q 3713 2572 3713 1747 
Q 3713 922 3314 415 
Q 2916 -91 2278 -91 
Q 1894 -91 1617 61 
Q 1341 213 1159 525 
z
M 3116 1747 
Q 3116 2381 2855 2742 
Q 2594 3103 2138 3103 
Q 1681 3103 1420 2742 
Q 1159 2381 1159 1747 
Q 1159 1113 1420 752 
Q 1681 391 2138 391 
Q 2594 391 2855 752 
Q 3116 1113 3116 1747 
z
" transform="scale(0.015625)"/>
        <path id="DejaVuSans-67" d="M 2906 1791 
Q 2906 2416 2648 2759 
Q 2391 3103 1925 3103 
Q 1463 3103 1205 2759 
Q 947 2416 947 1791 
Q 947 1169 1205 825 
Q 1463 481 1925 481 
Q 2391 481 2648 825 
Q 2906 1169 2906 1791 
z
M 3481 434 
Q 3481 -459 3084 -895 
Q 2688 -1331 1869 -1331 
Q 1566 -1331 1297 -1286 
Q 1028 -1241 775 -1147 
L 775 -588 
Q 1028 -725 1275 -790 
Q 1522 -856 1778 -856 
Q 2344 -856 2625 -561 
Q 2906 -266 2906 331 
L 2906 616 
Q 2728 306 2450 153 
Q 2172 0 1784 0 
Q 1141 0 747 490 
Q 353 981 353 1791 
Q 353 2603 747 3093 
Q 1141 3584 1784 3584 
Q 2172 3584 2450 3431 
Q 2728 3278 2906 2969 
L 2906 3500 
L 3481 3500 
L 3481 434 
z
" transform="scale(0.015625)"/>
       </defs>
       <use xlink:href="#DejaVuSans-53"/>
       <use xlink:href="#DejaVuSans-70" x="63.476562"/>
       <use xlink:href="#DejaVuSans-72" x="126.953125"/>
       <use xlink:href="#DejaVuSans-69" x="168.066406"/>
       <use xlink:href="#DejaVuSans-6e" x="195.849609"/>
       <use xlink:href="#DejaVuSans-67" x="259.228516"/>
      </g>
     </g>
    </g>
    <g id="ytick_7">
     <g id="line2d_13">
      <g>
       <use xlink:href="#me72d8508fe" x="141.12" y="188.07" style="stroke: #000000; stroke-width: 0.8"/>
      </g>
     </g>
     <g id="text_14">
      <!-- Django -->
      <g transform="translate(98.709063 191.869219) scale(0.1 -0.1)">
       <use xlink:href="#DejaVuSans-44"/>
       <use xlink:href="#DejaVuSans-6a" x="77.001953"/>
       <use xlink:href="#DejaVuSans-61" x="104.785156"/>
       <use xlink:href="#DejaVuSans-6e" x="166.064453"/>
       <use xlink:href="#DejaVuSans-67" x="229.443359"/>
       <use xlink:href="#DejaVuSans-6f" x="292.919922"/>
      </g>
     </g>
    </g>
    <g id="ytick_8">
     <g id="line2d_14">
      <g>
       <use xlink:href="#me72d8508fe" x="141.12" y="212.13" style="stroke: #000000; stroke-width: 0.8"/>
      </g>
     </g>
     <g id="text_15">
      <!-- Spring Boot -->
      <g transform="translate(75.65125 215.929219) scale(0.1 -0.1)">
       <defs>
        <path id="DejaVuSans-42" d="M 1259 2228 
L 1259 519 
L 2272 519 
Q 2781 519 3026 730 
Q 3272 941 3272 1375 
Q 3272 1813 3026 2020 
Q 2781 2228 2272 2228 
L 1259 2228 
z
M 1259 4147 
L 1259 2741 
L 2194 2741 
Q 2656 2741 2882 2914 
Q 3109 3088 3109 3444 
Q 3109 3797 2882 3972 
Q 2656 4147 2194 4147 
L 1259 4147 
z
M 628 4666 
L 2241 4666 
Q 2963 4666 3353 4366 
Q 3744 4066 3744 3513 
Q 3744 3084 3544 2831 
Q 3344 2578 2956 2516 
Q 3422 2416 3680 2098 
Q 3938 1781 3938 1306 
Q 3938 681 3513 340 
Q 3088 0 2303 0 
L 628 0 
L 628 4666 
z
" transform="scale(0.015625)"/>
       </defs>
       <use xlink:href="#DejaVuSans-53"/>
       <use xlink:href="#DejaVuSans-70" x="63.476562"/>
       <use xlink:href="#DejaVuSans-72" x="126.953125"/>
       <use xlink:href="#DejaVuSans-69" x="168.066406"/>
       <use xlink:href="#DejaVuSans-6e" x="195.849609"/>
       <use xlink:href="#DejaVuSans-67" x="259.228516"/>
       <use xlink:href="#DejaVuSans-20" x="322.705078"/>
       <use xlink:href="#DejaVuSans-42" x="354.492188"/>
       <use xlink:href="#DejaVuSans-6f" x="423.095703"/>
       <use xlink:href="#DejaVuSans-6f" x="484.277344"/>
       <use xlink:href="#DejaVuSans-74" x="545.458984"/>
      </g>
     </g>
    </g>
    <g id="ytick_9">
     <g id="line2d_15">
      <g>
       <use xlink:href="#me72d8508fe" x="141.12" y="236.19" style="stroke: #000000; stroke-width: 0.8"/>
      </g>
     </g>
     <g id="text_16">
      <!-- CakePHP -->
      <g transform="translate(89.848125 239.989219) scale(0.1 -0.1)">
       <defs>
        <path id="DejaVuSans-43" d="M 4122 4306 
L 4122 3641 
Q 3803 3938 3442 4084 
Q 3081 4231 2675 4231 
Q 1875 4231 1450 3742 
Q 1025 3253 1025 2328 
Q 1025 1406 1450 917 
Q 1875 428 2675 428 
Q 3081 428 3442 575 
Q 3803 722 4122 1019 
L 4122 359 
Q 3791 134 3420 21 
Q 3050 -91 2638 -91 
Q 1578 -91 968 557 
Q 359 1206 359 2328 
Q 359 3453 968 4101 
Q 1578 4750 2638 4750 
Q 3056 4750 3426 4639 
Q 3797 4528 4122 4306 
z
" transform="scale(0.015625)"/>
        <path id="DejaVuSans-6b" d="M 581 4863 
L 1159 4863 
L 1159 1991 
L 2875 3500 
L 3609 3500 
L 1753 1863 
L 3688 0 
L 2938 0 
L 1159 1709 
L 1159 0 
L 581 0 
L 581 4863 
z
" transform="scale(0.015625)"/>
        <path id="DejaVuSans-50" d="M 1259 4147 
L 1259 2394 
L 2053 2394 
Q 2494 2394 2734 2622 
Q 2975 2850 2975 3272 
Q 2975 3691 2734 3919 
Q 2494 4147 2053 4147 
L 1259 4147 
z
M 628 4666 
L 2053 4666 
Q 2838 4666 3239 4311 
Q 3641 3956 3641 3272 
Q 3641 2581 3239 2228 
Q 2838 1875 2053 1875 
L 1259 1875 
L 1259 0 
L 628 0 
L 628 4666 
z
" transform="scale(0.015625)"/>
        <path id="DejaVuSans-48" d="M 628 4666 
L 1259 4666 
L 1259 2753 
L 3553 2753 
L 3553 4666 
L 4184 4666 
L 4184 0 
L 3553 0 
L 3553 2222 
L 1259 2222 
L 1259 0 
L 628 0 
L 628 4666 
z
" transform="scale(0.015625)"/>
       </defs>
       <use xlink:href="#DejaVuSans-43"/>
       <use xlink:href="#DejaVuSans-61" x="69.824219"/>
       <use xlink:href="#DejaVuSans-6b" x="131.103516"/>
       <use xlink:href="#DejaVuSans-65" x="185.388672"/>
       <use xlink:href="#DejaVuSans-50" x="246.912109"/>
       <use xlink:href="#DejaVuSans-48" x="307.214844"/>
       <use xlink:href="#DejaVuSans-50" x="382.410156"/>
      </g>
     </g>
    </g>
    <g id="ytick_10">
     <g id="line2d_16">
      <g>
       <use xlink:href="#me72d8508fe" x="141.12" y="260.25" style="stroke: #000000; stroke-width: 0.8"/>
      </g>
     </g>
     <g id="text_17">
      <!-- Yii -->
      <g transform="translate(122.818438 264.049219) scale(0.1 -0.1)">
       <defs>
        <path id="DejaVuSans-59" d="M -13 4666 
L 666 4666 
L 1959 2747 
L 3244 4666 
L 3922 4666 
L 2272 2222 
L 2272 0 
L 1638 0 
L 1638 2222 
L -13 4666 
z
" transform="scale(0.015625)"/>
       </defs>
       <use xlink:href="#DejaVuSans-59"/>
       <use xlink:href="#DejaVuSans-69" x="57.458984"/>
       <use xlink:href="#DejaVuSans-69" x="85.242188"/>
      </g>
     </g>
    </g>
    <g id="ytick_11">
     <g id="line2d_17">
      <g>
       <use xlink:href="#me72d8508fe" x="141.12" y="284.31" style="stroke: #000000; stroke-width: 0.8"/>
      </g>
     </g>
     <g id="text_18">
      <!-- Meteor -->
      <g transform="translate(99.035625 288.109219) scale(0.1 -0.1)">
       <defs>
        <path id="DejaVuSans-4d" d="M 628 4666 
L 1569 4666 
L 2759 1491 
L 3956 4666 
L 4897 4666 
L 4897 0 
L 4281 0 
L 4281 4097 
L 3078 897 
L 2444 897 
L 1241 4097 
L 1241 0 
L 628 0 
L 628 4666 
z
" transform="scale(0.015625)"/>
       </defs>
       <use xlink:href="#DejaVuSans-4d"/>
       <use xlink:href="#DejaVuSans-65" x="86.279297"/>
       <use xlink:href="#DejaVuSans-74" x="147.802734"/>
       <use xlink:href="#DejaVuSans-65" x="187.011719"/>
       <use xlink:href="#DejaVuSans-6f" x="248.535156"/>
       <use xlink:href="#DejaVuSans-72" x="309.716797"/>
      </g>
     </g>
    </g>
    <g id="ytick_12">
     <g id="line2d_18">
      <g>
       <use xlink:href="#me72d8508fe" x="141.12" y="308.37" style="stroke: #000000; stroke-width: 0.8"/>
      </g>
     </g>
     <g id="text_19">
      <!-- CodeIgniter -->
      <g transform="translate(75.918438 312.169219) scale(0.1 -0.1)">
       <defs>
        <path id="DejaVuSans-49" d="M 628 4666 
L 1259 4666 
L 1259 0 
L 628 0 
L 628 4666 
z
" transform="scale(0.015625)"/>
       </defs>
       <use xlink:href="#DejaVuSans-43"/>
       <use xlink:href="#DejaVuSans-6f" x="69.824219"/>
       <use xlink:href="#DejaVuSans-64" x="131.005859"/>
       <use xlink:href="#DejaVuSans-65" x="194.482422"/>
       <use xlink:href="#DejaVuSans-49" x="256.005859"/>
       <use xlink:href="#DejaVuSans-67" x="285.498047"/>
       <use xlink:href="#DejaVuSans-6e" x="348.974609"/>
       <use xlink:href="#DejaVuSans-69" x="412.353516"/>
       <use xlink:href="#DejaVuSans-74" x="440.136719"/>
       <use xlink:href="#DejaVuSans-65" x="479.345703"/>
       <use xlink:href="#DejaVuSans-72" x="540.869141"/>
      </g>
     </g>
    </g>
    <g id="text_20">
     <!-- name -->
     <g transform="translate(65.598125 190.219687) rotate(-90) scale(0.1 -0.1)">
      <defs>
       <path id="DejaVuSans-6d" d="M 3328 2828 
Q 3544 3216 3844 3400 
Q 4144 3584 4550 3584 
Q 5097 3584 5394 3201 
Q 5691 2819 5691 2113 
L 5691 0 
L 5113 0 
L 5113 2094 
Q 5113 2597 4934 2840 
Q 4756 3084 4391 3084 
Q 3944 3084 3684 2787 
Q 3425 2491 3425 1978 
L 3425 0 
L 2847 0 
L 2847 2094 
Q 2847 2600 2669 2842 
Q 2491 3084 2119 3084 
Q 1678 3084 1418 2786 
Q 1159 2488 1159 1978 
L 1159 0 
L 581 0 
L 581 3500 
L 1159 3500 
L 1159 2956 
Q 1356 3278 1631 3431 
Q 1906 3584 2284 3584 
Q 2666 3584 2933 3390 
Q 3200 3197 3328 2828 
z
" transform="scale(0.015625)"/>
      </defs>
      <use xlink:href="#DejaVuSans-6e"/>
      <use xlink:href="#DejaVuSans-61" x="63.378906"/>
      <use xlink:href="#DejaVuSans-6d" x="124.658203"/>
      <use xlink:href="#DejaVuSans-65" x="222.070312"/>
     </g>
    </g>
   </g>
   <g id="patch_15">
    <path d="M 141.12 320.4 
L 141.12 31.68 
" style="fill: none; stroke: #000000; stroke-width: 0.8; stroke-linejoin: miter; stroke-linecap: square"/>
   </g>
   <g id="patch_16">
    <path d="M 141.12 320.4 
L 453.6 320.4 
" style="fill: none; stroke: #000000; stroke-width: 0.8; stroke-linejoin: miter; stroke-linecap: square"/>
   </g>
   <g id="text_21">
    <!-- Top Frameworks (Full Stack) -->
    <g transform="translate(193.897812 25.68) scale(0.14 -0.14)">
     <defs>
      <path id="LibreBaskerville-Regular-54" d="M 5030 3706 
L 4768 3706 
Q 4749 3981 4678 4166 
Q 4608 4352 4477 4457 
Q 4346 4563 4147 4608 
Q 3949 4653 3674 4653 
Q 3437 4653 3293 4643 
Q 3149 4634 3072 4608 
Q 2995 4582 2972 4547 
Q 2950 4512 2950 4454 
L 2950 1030 
Q 2950 826 2979 678 
Q 3008 531 3094 438 
Q 3181 346 3344 298 
Q 3507 250 3776 243 
L 3776 0 
L 1357 0 
L 1357 243 
Q 1626 250 1792 298 
Q 1958 346 2044 438 
Q 2131 531 2160 678 
Q 2189 826 2189 1030 
L 2189 4454 
Q 2189 4512 2166 4547 
Q 2144 4582 2077 4608 
Q 2010 4634 1888 4643 
Q 1766 4653 1562 4653 
Q 1312 4653 1097 4633 
Q 883 4614 726 4521 
Q 570 4429 474 4237 
Q 378 4045 371 3706 
L 134 3706 
L 134 4928 
L 4966 4928 
L 5030 3706 
z
" transform="scale(0.015625)"/>
      <path id="LibreBaskerville-Regular-6f" d="M 2080 3456 
Q 2445 3456 2771 3325 
Q 3098 3194 3344 2963 
Q 3590 2733 3734 2416 
Q 3878 2099 3878 1722 
Q 3878 1331 3734 1004 
Q 3590 678 3344 441 
Q 3098 205 2771 70 
Q 2445 -64 2080 -64 
Q 1722 -64 1398 67 
Q 1075 198 832 435 
Q 589 672 448 1001 
Q 307 1331 307 1722 
Q 307 2099 448 2419 
Q 589 2739 832 2969 
Q 1075 3200 1398 3328 
Q 1722 3456 2080 3456 
z
M 2080 3149 
Q 1843 3149 1648 3046 
Q 1453 2944 1315 2755 
Q 1178 2566 1104 2300 
Q 1030 2035 1030 1715 
Q 1030 1382 1104 1113 
Q 1178 845 1315 656 
Q 1453 467 1645 364 
Q 1837 262 2080 262 
Q 2323 262 2521 364 
Q 2720 467 2861 659 
Q 3002 851 3078 1120 
Q 3155 1389 3155 1715 
Q 3155 2035 3078 2297 
Q 3002 2560 2861 2749 
Q 2720 2938 2521 3043 
Q 2323 3149 2080 3149 
z
" transform="scale(0.015625)"/>
      <path id="LibreBaskerville-Regular-70" d="M 1344 2931 
L 1370 2931 
Q 1574 3174 1811 3315 
Q 2048 3456 2362 3456 
Q 2726 3456 3030 3325 
Q 3334 3194 3558 2957 
Q 3782 2720 3907 2397 
Q 4032 2074 4032 1690 
Q 4032 1299 3904 976 
Q 3776 653 3552 422 
Q 3328 192 3021 64 
Q 2714 -64 2355 -64 
Q 2061 -64 1821 35 
Q 1581 134 1370 358 
L 1370 -576 
Q 1370 -832 1395 -985 
Q 1421 -1139 1497 -1222 
Q 1574 -1306 1718 -1338 
Q 1862 -1370 2099 -1376 
L 2099 -1600 
L 128 -1600 
L 128 -1376 
Q 320 -1370 438 -1338 
Q 557 -1306 624 -1222 
Q 691 -1139 716 -995 
Q 742 -851 742 -621 
L 742 1773 
Q 742 2144 732 2381 
Q 723 2618 698 2707 
Q 666 2861 550 2915 
Q 435 2970 115 2970 
L 115 3187 
L 1344 3430 
L 1344 2931 
z
M 1536 2746 
Q 1453 2618 1411 2442 
Q 1370 2266 1370 1984 
L 1370 1485 
Q 1370 1312 1379 1187 
Q 1389 1062 1408 972 
Q 1427 883 1459 812 
Q 1491 742 1542 678 
Q 1690 474 1894 362 
Q 2099 250 2323 250 
Q 2765 250 3037 621 
Q 3309 992 3309 1664 
Q 3309 1997 3235 2269 
Q 3162 2541 3027 2736 
Q 2893 2931 2704 3040 
Q 2515 3149 2285 3149 
Q 2054 3149 1859 3043 
Q 1664 2938 1536 2746 
z
" transform="scale(0.015625)"/>
      <path id="LibreBaskerville-Regular-20" transform="scale(0.015625)"/>
      <path id="LibreBaskerville-Regular-46" d="M 1664 1018 
Q 1664 774 1693 624 
Q 1722 474 1818 394 
Q 1914 314 2090 282 
Q 2266 250 2554 243 
L 2554 0 
L 288 0 
L 288 243 
Q 512 250 649 282 
Q 787 314 864 390 
Q 941 467 966 608 
Q 992 749 992 973 
L 992 3955 
Q 992 4179 969 4316 
Q 947 4454 880 4534 
Q 813 4614 685 4643 
Q 557 4672 352 4685 
L 352 4928 
L 4051 4928 
L 4122 3706 
L 3898 3706 
Q 3859 3981 3776 4157 
Q 3693 4333 3542 4435 
Q 3392 4538 3161 4579 
Q 2931 4621 2586 4621 
L 1773 4621 
Q 1664 4621 1664 4512 
L 1664 2579 
Q 1971 2579 2192 2614 
Q 2413 2650 2557 2739 
Q 2701 2829 2777 2982 
Q 2854 3136 2874 3379 
L 3098 3379 
L 3098 1504 
L 2874 1504 
Q 2842 1747 2771 1907 
Q 2701 2067 2563 2156 
Q 2426 2246 2208 2284 
Q 1990 2323 1664 2323 
L 1664 1018 
z
" transform="scale(0.015625)"/>
      <path id="LibreBaskerville-Regular-72" d="M 1421 1018 
Q 1421 755 1433 601 
Q 1446 448 1500 368 
Q 1555 288 1657 262 
Q 1760 237 1946 224 
L 1946 0 
L 243 0 
L 243 224 
Q 429 230 537 259 
Q 646 288 704 365 
Q 762 442 778 586 
Q 794 730 794 973 
L 794 1722 
Q 794 2157 784 2400 
Q 774 2643 720 2758 
Q 666 2874 550 2896 
Q 435 2918 230 2918 
L 230 3142 
L 1350 3386 
L 1440 2592 
L 1466 2592 
Q 1549 2784 1673 2944 
Q 1798 3104 1945 3216 
Q 2093 3328 2253 3392 
Q 2413 3456 2579 3456 
Q 2784 3456 2902 3357 
Q 3021 3258 3021 3091 
Q 3021 2938 2925 2851 
Q 2829 2765 2650 2765 
Q 2547 2765 2476 2790 
Q 2406 2816 2352 2845 
Q 2298 2874 2250 2899 
Q 2202 2925 2144 2925 
Q 1971 2925 1798 2704 
Q 1626 2483 1530 2144 
Q 1478 1958 1449 1724 
Q 1421 1491 1421 1235 
L 1421 1018 
z
" transform="scale(0.015625)"/>
      <path id="LibreBaskerville-Regular-61" d="M 2234 1894 
Q 1869 1754 1616 1619 
Q 1363 1485 1209 1350 
Q 1056 1216 989 1081 
Q 922 947 922 806 
Q 922 595 1062 460 
Q 1203 326 1434 326 
Q 1600 326 1744 409 
Q 1888 493 1997 637 
Q 2106 781 2170 976 
Q 2234 1171 2234 1389 
L 2234 1894 
z
M 2234 2170 
L 2234 2432 
Q 2234 3213 1568 3213 
Q 1459 3213 1382 3193 
Q 1306 3174 1254 3129 
Q 1203 3085 1161 3001 
Q 1120 2918 1082 2797 
Q 1011 2611 944 2550 
Q 877 2490 749 2490 
Q 429 2490 429 2810 
Q 429 3117 755 3286 
Q 1082 3456 1683 3456 
Q 2323 3456 2592 3229 
Q 2861 3002 2861 2458 
L 2861 1024 
Q 2861 294 3149 294 
Q 3238 294 3321 316 
Q 3405 339 3462 435 
L 3552 282 
Q 3475 134 3270 35 
Q 3066 -64 2842 -64 
Q 2560 -64 2422 115 
Q 2285 294 2285 621 
L 2253 621 
Q 2086 307 1792 124 
Q 1498 -58 1139 -58 
Q 736 -58 505 147 
Q 275 352 275 698 
Q 275 851 329 992 
Q 384 1133 505 1261 
Q 627 1389 825 1513 
Q 1024 1638 1312 1766 
L 2234 2170 
z
" transform="scale(0.015625)"/>
      <path id="LibreBaskerville-Regular-6d" d="M 1414 1024 
Q 1414 755 1427 601 
Q 1440 448 1494 368 
Q 1549 288 1651 262 
Q 1754 237 1939 224 
L 1939 0 
L 237 0 
L 237 224 
Q 422 237 531 262 
Q 640 288 697 365 
Q 755 442 771 586 
Q 787 730 787 973 
L 787 1792 
Q 787 2157 777 2400 
Q 768 2643 742 2733 
Q 723 2816 697 2864 
Q 672 2912 614 2941 
Q 557 2970 464 2979 
Q 371 2989 224 2989 
L 224 3213 
L 1267 3456 
L 1350 2816 
L 1382 2816 
Q 1670 3142 1987 3299 
Q 2304 3456 2688 3456 
Q 3091 3456 3366 3293 
Q 3642 3130 3750 2822 
L 3776 2822 
Q 4013 3123 4352 3289 
Q 4691 3456 5075 3456 
Q 5376 3456 5622 3357 
Q 5869 3258 5997 3085 
Q 6112 2938 6160 2698 
Q 6208 2458 6208 2042 
L 6208 1024 
Q 6208 762 6224 608 
Q 6240 454 6291 371 
Q 6342 288 6448 262 
Q 6554 237 6739 224 
L 6739 0 
L 5037 0 
L 5037 224 
Q 5216 230 5325 259 
Q 5434 288 5491 368 
Q 5549 448 5565 589 
Q 5581 730 5581 973 
L 5581 1779 
Q 5581 2144 5542 2397 
Q 5504 2650 5414 2806 
Q 5325 2963 5181 3033 
Q 5037 3104 4832 3104 
Q 4550 3104 4304 2947 
Q 4058 2790 3917 2528 
Q 3885 2464 3862 2403 
Q 3840 2342 3827 2268 
Q 3814 2195 3811 2092 
Q 3808 1990 3808 1837 
L 3808 1024 
Q 3808 762 3821 608 
Q 3834 454 3888 371 
Q 3942 288 4051 262 
Q 4160 237 4346 224 
L 4346 0 
L 2643 0 
L 2643 224 
Q 2822 237 2931 262 
Q 3040 288 3094 365 
Q 3149 442 3165 586 
Q 3181 730 3181 973 
L 3181 1779 
Q 3181 2150 3142 2403 
Q 3104 2656 3017 2813 
Q 2931 2970 2790 3037 
Q 2650 3104 2445 3104 
Q 2157 3104 1904 2947 
Q 1651 2790 1523 2528 
Q 1491 2464 1468 2403 
Q 1446 2342 1433 2268 
Q 1421 2195 1417 2092 
Q 1414 1990 1414 1837 
L 1414 1024 
z
" transform="scale(0.015625)"/>
      <path id="LibreBaskerville-Regular-65" d="M 3341 595 
Q 2797 -64 1990 -64 
Q 1613 -64 1305 61 
Q 998 186 777 413 
Q 557 640 435 957 
Q 314 1274 314 1658 
Q 314 2048 442 2381 
Q 570 2714 803 2950 
Q 1037 3187 1360 3321 
Q 1683 3456 2067 3456 
Q 2688 3456 3027 3120 
Q 3366 2784 3366 2157 
Q 3366 2067 3331 2048 
Q 3296 2029 3168 2029 
L 1062 2029 
Q 1050 1978 1043 1904 
Q 1037 1830 1037 1741 
Q 1037 1408 1117 1136 
Q 1197 864 1347 672 
Q 1498 480 1706 374 
Q 1914 269 2170 269 
Q 2438 269 2668 387 
Q 2899 506 3142 774 
L 3341 595 
z
M 2285 2323 
Q 2413 2323 2489 2329 
Q 2566 2336 2604 2355 
Q 2643 2374 2656 2409 
Q 2669 2445 2669 2502 
Q 2669 2797 2480 2973 
Q 2291 3149 1965 3149 
Q 1274 3149 1107 2323 
L 2285 2323 
z
" transform="scale(0.015625)"/>
      <path id="LibreBaskerville-Regular-77" d="M 1779 -64 
L 1542 -64 
L 710 2598 
Q 653 2778 601 2886 
Q 550 2995 480 3059 
Q 410 3123 314 3145 
Q 218 3168 77 3168 
L 77 3392 
L 1773 3392 
L 1773 3168 
Q 1523 3168 1420 3110 
Q 1318 3053 1318 2912 
Q 1318 2848 1337 2761 
Q 1357 2675 1389 2547 
L 1824 1018 
L 1850 1018 
L 2790 3392 
L 2989 3392 
L 3840 1018 
L 3866 1018 
L 4250 2054 
Q 4326 2266 4377 2410 
Q 4429 2554 4457 2653 
Q 4486 2752 4499 2816 
Q 4512 2880 4512 2938 
Q 4512 3078 4429 3123 
Q 4346 3168 4083 3168 
L 4083 3392 
L 5363 3392 
L 5363 3168 
Q 5267 3168 5200 3139 
Q 5133 3110 5065 3027 
Q 4998 2944 4928 2790 
Q 4858 2637 4755 2387 
L 3763 -64 
L 3526 -64 
L 2746 2298 
L 2720 2298 
L 1779 -64 
z
" transform="scale(0.015625)"/>
      <path id="LibreBaskerville-Regular-6b" d="M 2227 224 
Q 2438 224 2518 243 
Q 2598 262 2598 294 
Q 2592 346 2496 480 
Q 2400 614 2246 800 
L 1568 1619 
L 1331 1395 
L 1331 1018 
Q 1331 768 1353 617 
Q 1376 467 1437 380 
Q 1498 294 1616 262 
Q 1734 230 1926 224 
L 1926 0 
L 109 0 
L 109 224 
Q 301 230 419 262 
Q 538 294 605 377 
Q 672 461 697 601 
Q 723 742 723 973 
L 723 3654 
Q 723 4141 713 4390 
Q 704 4640 646 4730 
Q 589 4819 454 4835 
Q 320 4851 96 4851 
L 96 5069 
L 1331 5312 
L 1331 1798 
L 1926 2381 
Q 2214 2669 2355 2806 
Q 2496 2944 2496 3014 
Q 2496 3085 2361 3126 
Q 2227 3168 1978 3168 
L 1978 3392 
L 3642 3392 
L 3642 3168 
Q 3520 3168 3430 3155 
Q 3341 3142 3261 3104 
Q 3181 3066 3091 2998 
Q 3002 2931 2886 2829 
L 1965 2010 
L 3232 576 
Q 3322 467 3395 400 
Q 3469 333 3542 294 
Q 3616 256 3702 240 
Q 3789 224 3910 224 
L 3910 0 
L 2227 0 
L 2227 224 
z
" transform="scale(0.015625)"/>
      <path id="LibreBaskerville-Regular-73" d="M 550 0 
L 410 0 
L 410 1101 
L 570 1101 
Q 819 198 1478 198 
Q 1734 198 1884 323 
Q 2035 448 2035 704 
Q 2035 800 2006 867 
Q 1978 934 1898 1008 
Q 1818 1082 1674 1178 
Q 1530 1274 1293 1421 
Q 1075 1555 915 1670 
Q 755 1786 646 1904 
Q 538 2022 483 2156 
Q 429 2291 429 2470 
Q 429 2688 502 2870 
Q 576 3053 704 3181 
Q 832 3309 1005 3382 
Q 1178 3456 1382 3456 
Q 1555 3456 1740 3401 
Q 1926 3347 2067 3258 
L 2195 3392 
L 2317 3392 
L 2317 2470 
L 2150 2470 
Q 2010 2861 1843 3027 
Q 1677 3194 1434 3194 
Q 1216 3194 1085 3078 
Q 954 2963 954 2758 
Q 954 2650 989 2570 
Q 1024 2490 1101 2413 
Q 1178 2336 1296 2256 
Q 1414 2176 1581 2074 
Q 1856 1901 2051 1766 
Q 2246 1632 2368 1501 
Q 2490 1370 2547 1229 
Q 2605 1088 2605 909 
Q 2605 454 2310 195 
Q 2016 -64 1536 -64 
Q 1037 -64 678 224 
L 550 0 
z
" transform="scale(0.015625)"/>
      <path id="LibreBaskerville-Regular-28" d="M 1997 5139 
Q 1683 4717 1478 4361 
Q 1274 4006 1155 3667 
Q 1037 3328 989 2969 
Q 941 2611 941 2176 
Q 941 1645 1001 1197 
Q 1062 749 1196 355 
Q 1331 -38 1542 -387 
Q 1754 -736 2048 -1062 
L 1850 -1242 
Q 1082 -493 691 342 
Q 301 1178 301 2067 
Q 301 2938 678 3757 
Q 1056 4576 1798 5318 
L 1997 5139 
z
" transform="scale(0.015625)"/>
      <path id="LibreBaskerville-Regular-75" d="M 2963 2368 
Q 2963 2630 2950 2780 
Q 2938 2931 2883 3011 
Q 2829 3091 2723 3120 
Q 2618 3149 2432 3168 
L 2432 3392 
L 3590 3392 
L 3590 1427 
Q 3590 1062 3600 832 
Q 3610 602 3629 486 
Q 3642 403 3670 355 
Q 3699 307 3756 278 
Q 3814 250 3907 240 
Q 4000 230 4147 230 
L 4147 6 
L 3091 -70 
L 3021 698 
L 2995 698 
Q 2752 301 2435 118 
Q 2118 -64 1773 -64 
Q 1504 -64 1251 38 
Q 998 141 870 314 
Q 762 454 714 704 
Q 666 954 666 1350 
L 666 2368 
Q 666 2630 653 2780 
Q 640 2931 585 3011 
Q 531 3091 425 3120 
Q 320 3149 134 3168 
L 134 3392 
L 1293 3392 
L 1293 1645 
Q 1293 947 1456 633 
Q 1619 320 1978 320 
Q 2541 320 2854 1056 
Q 2886 1133 2905 1197 
Q 2925 1261 2937 1337 
Q 2950 1414 2956 1510 
Q 2963 1606 2963 1741 
L 2963 2368 
z
" transform="scale(0.015625)"/>
      <path id="LibreBaskerville-Regular-6c" d="M 1338 998 
Q 1338 755 1357 608 
Q 1376 461 1437 377 
Q 1498 294 1610 262 
Q 1722 230 1907 224 
L 1907 0 
L 141 0 
L 141 224 
Q 333 230 448 265 
Q 563 301 630 377 
Q 698 454 720 592 
Q 742 730 742 954 
L 742 3712 
Q 742 4058 732 4291 
Q 723 4525 704 4608 
Q 672 4755 553 4806 
Q 435 4858 128 4858 
L 128 5075 
L 1338 5312 
L 1338 998 
z
" transform="scale(0.015625)"/>
      <path id="LibreBaskerville-Regular-53" d="M 371 1504 
L 608 1504 
Q 653 1216 777 985 
Q 902 755 1091 595 
Q 1280 435 1526 348 
Q 1773 262 2061 262 
Q 2534 262 2809 486 
Q 3085 710 3085 1094 
Q 3085 1254 3030 1388 
Q 2976 1523 2848 1648 
Q 2720 1773 2505 1894 
Q 2291 2016 1965 2157 
Q 1568 2330 1299 2490 
Q 1030 2650 870 2822 
Q 710 2995 643 3190 
Q 576 3386 576 3635 
Q 576 3930 681 4179 
Q 787 4429 979 4611 
Q 1171 4794 1433 4893 
Q 1696 4992 2010 4992 
Q 2291 4992 2534 4902 
Q 2778 4813 3027 4614 
L 3194 4902 
L 3341 4902 
L 3411 3629 
L 3174 3629 
Q 3021 4154 2729 4410 
Q 2438 4666 2029 4666 
Q 1638 4666 1408 4474 
Q 1178 4282 1178 3955 
Q 1178 3802 1229 3677 
Q 1280 3552 1395 3440 
Q 1510 3328 1696 3216 
Q 1882 3104 2157 2982 
Q 2630 2771 2944 2588 
Q 3258 2406 3443 2224 
Q 3629 2042 3705 1840 
Q 3782 1638 3782 1389 
Q 3782 1069 3654 800 
Q 3526 531 3296 339 
Q 3066 147 2746 41 
Q 2426 -64 2042 -64 
Q 1677 -64 1385 38 
Q 1094 141 794 384 
L 614 70 
L 467 70 
L 371 1504 
z
" transform="scale(0.015625)"/>
      <path id="LibreBaskerville-Regular-74" d="M 256 2989 
L 256 3226 
Q 595 3424 787 3622 
Q 979 3821 1082 4096 
L 1267 4096 
L 1267 3290 
L 2125 3290 
L 2125 2989 
L 1267 2989 
L 1267 1043 
Q 1267 819 1289 665 
Q 1312 512 1363 419 
Q 1414 326 1497 288 
Q 1581 250 1709 250 
Q 1869 250 1981 317 
Q 2093 384 2202 544 
L 2362 422 
Q 2272 186 2051 61 
Q 1830 -64 1504 -64 
Q 1082 -64 861 137 
Q 640 339 640 717 
L 640 2989 
L 256 2989 
z
" transform="scale(0.015625)"/>
      <path id="LibreBaskerville-Regular-63" d="M 3238 531 
Q 3008 250 2643 93 
Q 2278 -64 1856 -64 
Q 1517 -64 1232 61 
Q 947 186 742 413 
Q 538 640 426 960 
Q 314 1280 314 1670 
Q 314 2080 442 2409 
Q 570 2739 803 2972 
Q 1037 3206 1366 3331 
Q 1696 3456 2093 3456 
Q 2342 3456 2547 3414 
Q 2752 3373 2902 3299 
Q 3053 3226 3136 3120 
Q 3219 3014 3219 2893 
Q 3219 2765 3136 2694 
Q 3053 2624 2906 2624 
Q 2790 2624 2713 2672 
Q 2637 2720 2515 2886 
Q 2387 3034 2268 3094 
Q 2150 3155 1965 3155 
Q 1510 3155 1276 2803 
Q 1043 2451 1043 1766 
Q 1043 1030 1302 649 
Q 1562 269 2061 269 
Q 2330 269 2566 374 
Q 2803 480 3046 717 
L 3238 531 
z
" transform="scale(0.015625)"/>
      <path id="LibreBaskerville-Regular-29" d="M 326 5318 
Q 1069 4576 1446 3757 
Q 1824 2938 1824 2067 
Q 1824 1178 1433 342 
Q 1043 -493 275 -1242 
L 77 -1062 
Q 371 -736 582 -387 
Q 794 -38 928 355 
Q 1062 749 1123 1197 
Q 1184 1645 1184 2176 
Q 1184 2611 1136 2969 
Q 1088 3328 969 3667 
Q 851 4006 646 4361 
Q 442 4717 128 5139 
L 326 5318 
z
" transform="scale(0.015625)"/>
     </defs>
     <use xlink:href="#LibreBaskerville-Regular-54"/>
     <use xlink:href="#LibreBaskerville-Regular-6f" x="80.299988"/>
     <use xlink:href="#LibreBaskerville-Regular-70" x="145.699982"/>
     <use xlink:href="#LibreBaskerville-Regular-20" x="213.599976"/>
     <use xlink:href="#LibreBaskerville-Regular-46" x="242.299973"/>
     <use xlink:href="#LibreBaskerville-Regular-72" x="309.299957"/>
     <use xlink:href="#LibreBaskerville-Regular-61" x="356.999954"/>
     <use xlink:href="#LibreBaskerville-Regular-6d" x="412.399948"/>
     <use xlink:href="#LibreBaskerville-Regular-65" x="519.699936"/>
     <use xlink:href="#LibreBaskerville-Regular-77" x="576.999924"/>
     <use xlink:href="#LibreBaskerville-Regular-6f" x="662.199905"/>
     <use xlink:href="#LibreBaskerville-Regular-72" x="727.599899"/>
     <use xlink:href="#LibreBaskerville-Regular-6b" x="775.299896"/>
     <use xlink:href="#LibreBaskerville-Regular-73" x="836.899887"/>
     <use xlink:href="#LibreBaskerville-Regular-20" x="882.299881"/>
     <use xlink:href="#LibreBaskerville-Regular-28" x="910.999878"/>
     <use xlink:href="#LibreBaskerville-Regular-46" x="944.199875"/>
     <use xlink:href="#LibreBaskerville-Regular-75" x="1011.19986"/>
     <use xlink:href="#LibreBaskerville-Regular-6c" x="1078.199844"/>
     <use xlink:href="#LibreBaskerville-Regular-6c" x="1110.699829"/>
     <use xlink:href="#LibreBaskerville-Regular-20" x="1143.199814"/>
     <use xlink:href="#LibreBaskerville-Regular-53" x="1171.899811"/>
     <use xlink:href="#LibreBaskerville-Regular-74" x="1236.399796"/>
     <use xlink:href="#LibreBaskerville-Regular-61" x="1274.199783"/>
     <use xlink:href="#LibreBaskerville-Regular-63" x="1329.599777"/>
     <use xlink:href="#LibreBaskerville-Regular-6b" x="1383.199768"/>
     <use xlink:href="#LibreBaskerville-Regular-29" x="1444.799759"/>
    </g>
   </g>
  </g>
 </g>
 <defs>
  <clipPath id="p3371e42218">
   <rect x="141.12" y="31.68" width="312.48" height="288.72"/>
  </clipPath>
 </defs>
</svg>
